<?xml version="1.0" encoding="UTF-8" standalone="no"?>
<svg
   xmlns:dc="http://purl.org/dc/elements/1.1/"
   xmlns:cc="http://creativecommons.org/ns#"
   xmlns:rdf="http://www.w3.org/1999/02/22-rdf-syntax-ns#"
   xmlns:svg="http://www.w3.org/2000/svg"
   xmlns="http://www.w3.org/2000/svg"
   xmlns:sodipodi="http://sodipodi.sourceforge.net/DTD/sodipodi-0.dtd"
   xmlns:inkscape="http://www.inkscape.org/namespaces/inkscape"
   version="1.1"
   width="1064.3625"
   height="238.77588"
   id="svg2"
   xml:space="preserve"
   sodipodi:docname="keyman_banner.svg"
   inkscape:version="1.0.2-2 (e86c870879, 2021-01-15)"><sodipodi:namedview
   pagecolor="#ffffff"
   bordercolor="#666666"
   borderopacity="1"
   objecttolerance="10"
   gridtolerance="10"
   guidetolerance="10"
   inkscape:pageopacity="0"
   inkscape:pageshadow="2"
   inkscape:window-width="1920"
   inkscape:window-height="1017"
   id="namedview90"
   showgrid="false"
   fit-margin-top="2"
   fit-margin-left="2"
   fit-margin-right="2"
   fit-margin-bottom="2"
   lock-margins="true"
   inkscape:zoom="1.0528691"
   inkscape:cx="528.18127"
   inkscape:cy="152.10927"
   inkscape:window-x="1912"
   inkscape:window-y="-8"
   inkscape:window-maximized="1"
   inkscape:current-layer="svg2" />
   <rect
   width="100%"
   height="99.63298%"
   fill="#ffffff"
   id="rect2"
   x="2"
   y="2"
   style="stroke-width:0.998163" />
   <metadata
   id="metadata8"><rdf:RDF><cc:Work
       rdf:about=""><dc:format>image/svg+xml</dc:format><dc:type
         rdf:resource="http://purl.org/dc/dcmitype/StillImage" /><dc:title></dc:title></cc:Work></rdf:RDF></metadata><defs
   id="defs6"><clipPath
     id="clipPath18"><path
       d="M 0,5952.75 V 0 h 8418.9 v 5952.75 z"
       inkscape:connector-curvature="0"
       id="path20" /></clipPath></defs><g
   transform="matrix(1.25,0,0,-1.25,2,524.15928)"
   id="g10"><g
     transform="scale(0.1)"
     id="g12"><g
       id="g14"><g
         clip-path="url(#clipPath18)"
         id="g16"><path
           d="m 3065.63,2733.51 -345.74,474.83 -129.07,-133.84 v -340.99 h -245.39 v 1115.37 h 245.39 v -487.56 l 452.54,487.56 h 296.34 l -454.12,-473.23 474.84,-642.14 h -294.79"
           inkscape:connector-curvature="0"
           id="path22"
           style="fill:#211c1d;fill-opacity:1;fill-rule:nonzero;stroke:none" /><path
           d="m 3688.52,3409.12 c -100.38,0 -165.68,-71.71 -184.81,-181.64 h 364.87 c -14.32,108.33 -78.07,181.64 -180.06,181.64 z m 412.7,-333.03 h -594.33 c 23.91,-109.95 100.39,-167.3 208.74,-167.3 81.25,0 140.22,25.49 207.11,87.64 l 138.67,-122.71 c -79.68,-98.79 -194.42,-159.32 -348.98,-159.32 -256.53,0 -446.13,180.04 -446.13,441.36 v 3.19 c 0,243.8 173.66,444.56 422.22,444.56 285.22,0 415.91,-221.48 415.91,-463.68 v -3.19 c 0,-23.9 -1.62,-38.24 -3.21,-60.55"
           inkscape:connector-curvature="0"
           id="path24"
           style="fill:#211c1d;fill-opacity:1;fill-rule:nonzero;stroke:none" /><path
           d="m 4641.23,2712.79 c -65.31,-173.68 -135.43,-238.99 -280.44,-238.99 -87.62,0 -152.96,22.29 -215.1,58.95 l 81.27,175.28 c 31.85,-19.11 71.71,-33.48 103.56,-33.48 41.44,0 63.77,12.73 84.44,55.77 l -334.61,857.25 h 256.53 l 194.42,-581.59 186.41,581.59 h 251.76 l -328.24,-874.78"
           inkscape:connector-curvature="0"
           id="path26"
           style="fill:#211c1d;fill-opacity:1;fill-rule:nonzero;stroke:none" /><path
           d="m 6094.3,2733.51 v 476.43 c 0,114.71 -50.98,173.68 -141.82,173.68 -90.81,0 -146.56,-58.97 -146.56,-173.68 v -476.43 h -242.23 v 476.43 c 0,114.71 -50.98,173.68 -141.83,173.68 -90.8,0 -146.57,-58.97 -146.57,-173.68 v -476.43 h -242.2 v 854.06 h 242.2 v -121.1 c 55.77,71.71 129.08,137.04 251.77,137.04 111.52,0 195.98,-49.41 240.59,-135.43 74.88,87.63 164.1,135.43 280.43,135.43 180.06,0 288.41,-108.35 288.41,-313.9 v -556.1 H 6094.3"
           inkscape:connector-curvature="0"
           id="path28"
           style="fill:#211c1d;fill-opacity:1;fill-rule:nonzero;stroke:none" /><path
           d="m 6972.04,3077.68 c -41.44,19.13 -95.62,31.86 -154.56,31.86 -103.55,0 -167.32,-41.43 -167.32,-117.9 v -3.18 c 0,-65.32 54.21,-103.58 132.28,-103.58 113.12,0 189.6,62.16 189.6,149.79 z m -4.77,-344.17 v 92.42 c -58.94,-65.33 -140.23,-108.34 -258.14,-108.34 -160.95,0 -293.18,92.41 -293.18,261.3 v 3.2 c 0,186.42 141.82,272.46 344.19,272.46 86.01,0 148.19,-14.33 208.72,-35.06 v 14.34 c 0,100.4 -62.17,156.15 -183.24,156.15 -92.43,0 -157.73,-17.52 -235.84,-46.19 l -60.55,184.82 c 94.02,41.44 186.42,68.53 331.44,68.53 264.52,0 380.82,-137.03 380.82,-368.08 v -495.55 h -234.22"
           inkscape:connector-curvature="0"
           id="path30"
           style="fill:#211c1d;fill-opacity:1;fill-rule:nonzero;stroke:none" /><path
           d="m 7870.56,2733.51 v 476.43 c 0,114.71 -54.15,173.68 -146.56,173.68 -92.44,0 -151.38,-58.97 -151.38,-173.68 v -476.43 h -242.21 v 854.06 h 242.21 v -121.1 c 55.77,71.71 127.48,137.04 250.17,137.04 183.25,0 289.99,-121.1 289.99,-317.09 v -552.91 h -242.22"
           inkscape:connector-curvature="0"
           id="path32"
           style="fill:#211c1d;fill-opacity:1;fill-rule:nonzero;stroke:none" /><path
           d="m 1121.85,3445.69 c 4.78,0.6 9.61,3.15 12.85,6.42 -4.1,3.49 -23.9,21.18 -27.19,9.93 3.63,-3.23 14.29,-11.52 7.58,-15.66 -1.54,-0.96 -19.31,4.47 -21.24,5 -0.93,6.27 -6.13,10.61 -3.2,17.2 1.36,-0.33 2.86,-0.41 4.17,-0.74 -12.47,22.05 -68.28,-6.21 -45.93,-31.2 12.63,-14.13 38.77,3.06 48.64,-18.31 1.23,-2.67 -0.16,-6.36 0.95,-8.87 1.63,-3.73 5.12,-7.06 9.01,-9.88 11.13,1.57 22.71,3.79 34.78,6.75 -1.23,4.54 -3.56,9.17 -5.28,11.47 -7.94,10.55 -11.89,16.24 -15.14,27.89"
           inkscape:connector-curvature="0"
           id="path34"
           style="fill:#73bdd6;fill-opacity:1;fill-rule:nonzero;stroke:none" /><path
           d="m 1298.41,3605.28 c -3.14,1.4 -6.24,2.87 -9.26,4.41 -0.06,-0.04 -0.1,-0.14 -0.16,-0.19 2.87,-2.7 6.51,-4.06 9.42,-4.22"
           inkscape:connector-curvature="0"
           id="path36"
           style="fill:#73bdd6;fill-opacity:1;fill-rule:nonzero;stroke:none" /><path
           d="m 1909.71,3323.49 c -16.32,16.33 -265.03,280.49 -277.54,294.73 12.51,-14.24 260.94,-278.68 277.54,-294.73"
           inkscape:connector-curvature="0"
           id="path38"
           style="fill:#bb1b34;fill-opacity:1;fill-rule:nonzero;stroke:none" /><path
           d="m 1771.18,3106.14 c -2.53,4.16 -4.87,10.56 1.05,12.64 5.46,1.89 6.91,-4.99 7.56,-10.05 0.46,1.4 1.55,2.14 2.14,3.19 2.68,-3.06 4.67,-6.79 7.34,-10.17 -5.5,-3.79 -3.55,-5.61 1.26,-8.64 l -0.72,1.75 c 0.21,-0.25 0.88,-2.27 1.79,-2.98 -9.6,-1.42 -15.76,6.66 -20.42,14.26 z m -48.51,11.18 c -3.55,-0.61 -2.49,1.68 -6.32,1.82 -2.34,0.15 -10.79,1 -12.65,2.37 -3.93,-2.05 -3.73,-6.58 -3.7,-10.73 l -3.12,6.59 c -2.08,3.76 -3.79,10.88 -1.23,15.07 2.62,4.28 12.99,3.8 10.4,13.35 -2.57,9.46 -21.91,8.62 -27.77,21.6 1.05,0.15 2.31,0.34 3.34,0.49 9.91,-8.29 9.44,-14.62 24.84,-12.95 5.39,-3.15 10.15,-7.24 13.92,-12.61 3.95,-5.65 4.55,-12.58 12.28,-15 -0.97,-2.78 -6.44,-9.4 -9.99,-10 z m -30.3,23.57 c -2.82,-2.16 -2.5,-0.67 -3.62,-3.82 -0.4,-1.19 1.57,-1.31 0.29,-3.09 -0.64,-0.87 -5.08,-1.18 -6.06,-0.65 -2.39,1.23 -2.82,4.4 -2.64,7.22 -0.53,-1.87 -1.44,-3.64 -2.84,-4.92 -4.33,2.35 -10.92,7 -10.71,12.39 2.02,1.16 4.1,1.35 6.21,0.98 3.53,0.45 7.63,0.08 9.96,-0.83 0.22,1.66 -0.58,3.72 -0.79,5.42 3.05,1.06 3.75,-0.54 5.33,-2.46 4.03,-4.87 0.15,-4.18 7.88,-3.74 1.08,-4.13 -0.74,-4.81 -3.01,-6.5 z m -44.43,13.66 c 5.6,0.1 9.97,-4.51 9.43,-10.47 l -0.69,0.77 c -5.82,-2.83 -8.09,0.97 -12.22,5.04 -1.24,1.25 -1.03,4.57 -3.4,6.28 -3.9,2.83 -9.97,-0.38 -13.98,2.29 -1.99,1.29 -16.55,21.15 -16.1,23.45 1.31,6.43 10.44,4.73 14.33,3.14 6.07,-2.55 5.51,-6.78 10.43,-11.9 10.21,-10.45 19.37,-4.32 31.3,-0.74 2.31,-2.45 3.45,-5.61 3.04,-9.15 2.7,-1.27 4.28,-3.81 6.37,-6.16 -4.11,-5.39 -27.59,8.37 -28.51,-2.55 z m 10.41,-60.11 c -2.01,10.03 -0.53,22.19 -1.53,31.98 7.44,-0.56 7.01,-23.72 4.8,-26.7 l 2.85,-0.17 c -1.55,-1.98 -4.19,-3.71 -6.12,-5.11 z m -219.93,-226.86 c -4.65,0.91 -6.7,1.31 -10.6,4.5 -3.06,2.47 -5.56,5.6 -8.18,8.57 -3.85,4.39 -8.94,10.51 -8.12,14.71 l 0.04,0.85 c 7.12,1.59 21.59,-2.39 27.23,-8.13 7.13,-7.25 -0.95,-12.44 -0.37,-20.5 z m 135.75,486.19 c -3.8,-0.57 -8.37,-0.17 -12.44,-0.57 2.45,-5.81 8.28,-16.79 -1.26,-19.22 -1.6,-0.42 -17.27,4.42 -13.85,-1.93 1.4,-2.57 8.98,0.68 12.23,-1.04 3.49,-1.81 9.31,-10.76 10.16,-14.3 1.64,-6.67 -1.26,-7.03 -6.83,-4.34 -3.65,1.75 -11.06,4.98 -13.84,7.43 -1.31,-1.26 -3,-1.19 -4.32,-2.1 l 1.38,-5.2 c -9.26,-4.38 -9.28,21.47 -8.6,25.34 1.51,8.33 6.7,12.54 10.96,19.4 3.54,5.72 0.15,11.76 2.14,17.72 9.35,-4.33 1.81,16.58 -1.13,19.5 -5.55,5.57 -15.2,9.52 -22.02,12.98 -7.66,3.92 -14.62,1.34 -18.25,9.84 -1.46,3.3 -1.95,5.86 -5.3,8.17 -4.49,3.11 -10.34,1.25 -13.53,7.34 6.74,6.67 42.34,23.29 46.1,13.2 0.72,-2 -1.54,-10.05 -2.45,-12.35 -2.7,-6.4 -9.62,-7.58 -14.59,-13.09 3.92,-6.7 18.32,-1.86 24.06,-1.98 12.23,-0.24 19.61,-8.56 27.16,-17.16 5.67,-6.48 14.23,-12.62 12.8,-21.76 -1.71,-10.44 -12.35,-15.4 -8.58,-25.88 z m -0.88,-146.55 c -6.63,0.68 -22.5,18.42 -13.93,22.82 l 3.83,0.18 c 2.51,-2.83 25.04,-24.52 10.1,-23 z m 336.42,116.27 c -16.6,16.05 -265.03,280.49 -277.54,294.73 -18.61,21.18 -35.08,19.86 -48.78,20.53 -19.82,0.99 -46.67,-41.27 -86.38,-94.41 0.37,-13.87 11.42,-20.01 20.13,-32.93 -13.63,3.22 -25.3,7.45 -40.22,6.75 -14.73,-18.7 -31.09,-37.93 -49.18,-56.73 4.1,-1.25 8.05,-2.41 12.86,-2.76 7.71,-0.58 21.19,3.79 27.56,-0.9 -2.9,-2.91 -6.85,-4.48 -9.71,-7.17 7.12,-2.43 12.75,-4.41 19.47,-5.53 5.33,-0.87 8.74,-0.71 13.38,-4.47 -9.66,-11.81 -27.5,2.62 -39.84,5.94 -9.94,2.67 -23.12,5.4 -34.38,3.9 -1,-0.99 -2.08,-1.94 -3.1,-2.94 25.43,-10.84 52.06,-32.17 52.86,-62.09 0.2,-8.08 -6.27,-16.23 -3.8,-24.58 1.23,-4.17 4.81,-6.38 5.94,-10.53 0.87,-3.18 -0.22,-8.91 0.01,-12.26 11.07,-0.52 46.34,7.45 54,-4.72 2.62,-4.09 -0.07,-10.46 -3.04,-15.08 -7.11,-11.16 -13.03,-5.79 -23.9,-2.69 -4.31,1.24 -9.6,3.04 -13.98,2.78 -6.64,-0.27 -11.24,-4.78 -17.72,-3.46 -4.77,0.97 -7.34,5.41 -11.76,4.72 -4.55,-0.71 -13.89,-11.9 -16.13,-15.26 -11.18,12.48 -23.33,-1.09 -18.38,-14.05 8.78,-22.95 30.81,4.87 39.15,10.4 -1.15,-10.76 -1,-25 8.97,-29.32 11.8,-5.13 27.58,-1.82 39.33,-6.61 7.74,-3.12 20.04,-15 26.62,-20.89 12.14,-10.88 17.09,-22.37 16.27,-37.89 -0.66,-12.53 -4.63,-22.43 -10.88,-33.27 -5.92,-10.22 -21.94,-24.11 -9.99,-34.56 3.58,-3.1 21.1,-6.7 12.66,-17.25 -5.88,-7.36 -21.51,1.94 -17.5,12.02 -10.17,10.46 -18.91,-4.08 -18.4,-13.91 0.73,-14.25 18.6,-23.55 31.48,-24.63 16.83,-1.45 35.53,-3.66 43.97,-20.46 6.37,-12.72 -0.06,-32.01 -1.73,-45.06 -17.91,0.63 -40.53,11.14 -59.01,3.77 1.49,-9.78 13.2,-26.21 21.31,-31.83 11.09,-7.62 24.87,-6.2 37.51,-6.9 11.22,-0.62 18.84,-1.45 28.68,-6.72 7.79,-4.15 19.24,-6.16 24.2,-13.55 -14.52,-9.1 -38.47,-9.05 -53.47,-1.14 -6.46,3.39 -11.37,6.92 -18.75,9.64 -7.41,2.69 -16.74,2.9 -23.33,6.38 -11.78,6.24 -16.49,20.7 -28.07,27.44 -10.9,6.35 -25.04,14.99 -37.56,16.7 -4.84,-22.25 -12.72,-9.99 -27.07,-1.66 -11.86,6.89 -31.26,8.43 -44.65,10.04 -10.03,1.22 -6.86,3.06 -11.95,-6.14 -3.18,-5.71 -7.48,-10.7 -8.12,-17.53 -0.9,-9.56 0.95,-17.6 -0.76,-27.63 -2.63,-15.36 -7.63,-42.49 -0.57,-56.65 9.5,-19.12 32.71,-28.52 32.47,-51.67 -0.03,-4.98 -1.2,-9.62 -3.77,-13.85 -10.98,-0.77 -20.81,7.66 -30.75,11.42 -13.05,4.9 -25.55,10.31 -38.57,15.65 -13.63,5.61 -27.09,9.9 -37.45,20.88 -7.59,8 -14.42,15.44 -23.24,21.62 -0.35,-7.73 -0.51,-15.39 -2.69,-22.34 -6.99,0.75 -16.49,-1.11 -21.02,5.69 2.41,3.81 5.86,6.21 6.99,10.05 -8.1,-3.98 -18.88,-8.57 -29.17,-9.84 35.17,-120.17 68.06,-233.25 70.59,-242.55 8.15,-29.88 28,-43.47 49.4,-44.35 17.87,-0.76 36.83,7.33 50.97,22.18 15.12,15.88 129.54,139.08 244.82,263.51 -0.87,0.03 -1.71,0.01 -2.6,0.06 -14.04,0.8 -26.24,6.18 -39.61,9.93 -6.43,1.81 -8.84,3.49 -14.06,7.86 -6.32,5.29 -10.39,3.1 -18.52,2.85 -7.95,-0.32 -25.99,0.41 -31.51,7.68 l -4.74,5.42 c 5.7,-2.29 8.12,-0.92 13.08,1.54 8.96,4.47 14.07,4.21 24.27,3.23 10.94,-1.01 21.51,-0.71 32.51,-1.28 8.02,-0.39 20.5,0.75 27.92,-1.65 1.6,-0.51 2.05,-3.61 3.71,-3.97 2.45,-0.56 5.48,1.65 8.22,1.23 3.87,-0.57 6.62,-3.86 11.29,-3.19 -1.74,6.03 4.35,1.92 7.7,1.04 2.26,-0.6 7.3,-0.14 8.94,-1.32 0.11,-0.1 0.17,-0.32 0.27,-0.43 8.6,9.29 17.18,18.55 25.66,27.72 -3.54,-1.52 -7.29,-1.76 -12.71,0.31 -12.04,4.56 -26.11,14.97 -30.7,27.74 3.66,1.12 7.47,2.78 10.06,5.66 -5,5.91 0.78,24.6 1.26,31.67 0.51,7.77 4.03,14.21 5.05,21.86 0.62,4.55 -2.94,18.1 -0.74,20.73 2.01,2.41 16.34,1.86 19.99,1.5 7.45,-0.7 9.97,1.01 9.77,-6.48 -0.13,-5.74 -9.54,-9.07 -5.47,-16.39 2.39,-4.25 11.51,-7.4 15.09,-10.73 4.27,1.61 8.76,-0.77 11.52,-4.5 -11.73,-8.47 -1.52,-14.51 1.6,-24.45 1.85,-5.93 2.37,-8.99 5.84,-13.91 5.33,5.77 10.65,11.52 15.87,17.17 -0.8,2.8 -1.39,5.74 -2.13,7.63 -2.28,5.87 -8.13,11.43 -9.7,17.09 -4.28,15.63 24.84,25.02 28.52,40.65 13.59,-15.87 -20.15,-26.93 -24.29,-35.92 -2.28,-4.95 -1.83,-9.73 6.45,-10.44 7.8,-0.67 11.29,7.43 16.87,12.38 1.5,-6.77 0.37,-8.93 2.7,-11.48 18.26,19.76 35.39,38.31 51.02,55.25 -1.87,0.85 -3.58,2.17 -4.94,4.39 -4.15,6.78 1.98,13.67 9.07,16.08 3.73,1.29 8.21,-0.08 12.83,-2.08 37.7,40.92 63.26,68.79 66.75,72.99 10.25,12.28 34.38,46.8 34.63,70.8 0.12,12.4 -6.67,44.45 -22.03,59.78"
           inkscape:connector-curvature="0"
           id="path40"
           style="fill:#bb1b34;fill-opacity:1;fill-rule:nonzero;stroke:none" /><path
           d="m 1183.46,2673.09 5.96,-47.95 c 1.48,13.23 -0.18,29.23 -5.96,47.95"
           inkscape:connector-curvature="0"
           id="path42"
           style="fill:#f57918;fill-opacity:1;fill-rule:nonzero;stroke:none" /><path
           d="m 805.387,3070.03 c -13.746,8.66 -25.735,-9.99 -27.836,-21.45 2.625,-2.1 3.851,-4.91 5.933,-7.01 9.664,6.92 18.797,17.01 21.903,28.46"
           inkscape:connector-curvature="0"
           id="path44"
           style="fill:#f57918;fill-opacity:1;fill-rule:nonzero;stroke:none" /><path
           d="m 784.496,3040.66 c -0.375,0.29 -0.695,0.6 -1.012,0.91 -0.164,-0.1 -0.332,-0.23 -0.488,-0.35 l 1.5,-0.56"
           inkscape:connector-curvature="0"
           id="path46"
           style="fill:#f57918;fill-opacity:1;fill-rule:nonzero;stroke:none" /><path
           d="m 966.293,3126.4 c 3.301,-0.04 6.574,0.38 9.844,0.82 -7.321,0.08 -14.629,0.15 -21.957,0.37 4.125,-0.72 8.203,-1.15 12.113,-1.19"
           inkscape:connector-curvature="0"
           id="path48"
           style="fill:#f57918;fill-opacity:1;fill-rule:nonzero;stroke:none" /><path
           d="m 596.199,3151.29 c 2.129,7.91 6.551,21.73 4.246,29.74 -0.449,1.55 -0.949,2.42 -1.429,3.44 -2.477,5.23 -5.61,5.07 -11.743,9.98 -9.671,7.75 -11,20.45 -17.918,26.94 -5.507,5.22 -18.05,5.42 -24.496,7.19 -22.773,6.26 -46.164,3.89 -67.214,15.29 -1.536,0.83 -2.743,1.6 -4.172,2.4 -15.039,8.39 -24.735,15.73 -31.43,33.05 -7.32,18.92 -10.266,37.57 -16.406,56.78 -6.289,19.74 -8.645,32.59 1.98,51.85 5.317,9.62 11.836,14.7 14.973,26.11 2.293,8.42 0.508,13.82 5.894,21.78 8.723,12.81 25.133,20.38 37.004,29.54 7.192,5.56 13.512,13.67 22.094,18.21 7.516,3.98 17.063,4.11 23.555,8.61 l -0.176,-0.38 c 1.965,0.55 2.519,3.27 3.582,5.03 1.809,3.07 4.496,5.5 6.719,8.26 0.304,0.38 0.656,0.73 0.941,1.14 -19.183,8.43 -32.18,13.94 -35.894,15 -8.157,2.33 -17.403,4.86 -27.329,5.11 -16.558,0.38 -35,-5.69 -53.453,-29.97 -29.511,-38.85 -245.625,-377.7 -253.394,-396.35 -2.695,-6.48 -5.781,-18.58 -5.828,-32.74 -0.098,-26.56 10.425,-60.32 53.988,-77.56 26.367,-10.42 167.793,-75.2 331.523,-150.34 -0.199,1.25 -0.386,2.52 -0.589,3.74 -2.747,16.63 -0.754,32.82 0.738,48.84 0.801,8.48 1.476,16.93 1.164,25.36 -0.426,12.03 -5.762,23.11 -7.598,34.69 -0.683,4.26 -0.926,8.59 -0.222,13.07 1.898,12.18 9.515,17.59 17.089,24.15 1.872,1.6 3.735,3.21 5.508,5.09 11.953,12.76 19.809,31.5 26.571,47.44 8.82,20.85 4.695,34.91 0.136,55.89 -4.945,22.89 -4.242,32.13 1.586,53.62"
           inkscape:connector-curvature="0"
           id="path50"
           style="fill:#f57918;fill-opacity:1;fill-rule:nonzero;stroke:none" /><path
           d="m 759.824,2960.07 c 3.059,-12.91 -2.793,-23.97 -6.012,-38.76 2.071,-1.49 6.098,-2.95 8.614,-3.09 3.836,9.03 10.351,20.94 11.683,30.68 2.059,14.79 -5.222,18.96 -13.011,29.06 -8.348,10.88 -6.203,11.1 -6.625,24.23 -0.262,7.79 -3.145,16.14 -5.618,24.26 l -2.152,7.86 c -0.355,8.8 -4.152,16.98 -11.355,-2.47 -4.118,-11.12 1.847,-24.96 5.976,-34.16 5.703,-12.79 15.352,-24.24 18.5,-37.61"
           inkscape:connector-curvature="0"
           id="path52"
           style="fill:#f57918;fill-opacity:1;fill-rule:nonzero;stroke:none" /><path
           d="m 1527.14,3511.41 c -8.71,12.92 -24.6,26.21 -24.97,40.08 -19.85,-25.79 -8.21,-24.4 -15.25,-33.33 14.92,0.7 26.59,-3.53 40.22,-6.75"
           inkscape:connector-curvature="0"
           id="path54"
           style="fill:#8f182f;fill-opacity:1;fill-rule:nonzero;stroke:none" /><path
           d="m 1565.52,3231.12 c -8.58,-4.41 7.3,-22.14 13.92,-22.82 14.94,-1.52 -7.58,20.17 -10.09,23 l -3.83,-0.18"
           inkscape:connector-curvature="0"
           id="path56"
           style="fill:#8f182f;fill-opacity:1;fill-rule:nonzero;stroke:none" /><path
           d="m 1735.65,3047.56 c -2.76,3.73 -7.25,6.11 -11.52,4.5 -3.58,3.33 -12.7,6.48 -15.09,10.73 -4.07,7.32 5.34,10.65 5.47,16.39 0.2,7.49 -2.32,5.78 -9.77,6.48 -3.65,0.36 -17.98,0.91 -19.99,-1.5 -2.2,-2.63 1.36,-16.18 0.74,-20.73 -1.02,-7.65 -4.54,-14.09 -5.05,-21.86 -0.48,-7.07 -6.26,-25.76 -1.26,-31.67 -2.59,-2.88 -6.4,-4.54 -10.06,-5.66 4.38,-12.2 17.42,-22.24 29.07,-27.09 0.55,-0.23 40.01,42.8 40.01,42.8 0,0 -0.6,2.01 -0.95,3.16 -3.12,9.94 -13.33,15.98 -1.6,24.45"
           inkscape:connector-curvature="0"
           id="path58"
           style="fill:#8f182f;fill-opacity:1;fill-rule:nonzero;stroke:none" /><path
           d="m 1746.6,3045.18 c -8.28,0.71 -8.73,5.49 -6.46,10.44 4.15,8.99 37.88,20.05 24.29,35.92 -3.67,-15.63 -32.79,-25.02 -28.51,-40.65 1.57,-5.66 7.41,-11.22 9.69,-17.09 0.44,-1.13 1.25,-4.28 1.25,-4.28 l 17.86,19.32 c 0,0 -0.29,4.33 -1.26,8.72 -5.57,-4.95 -9.07,-13.05 -16.86,-12.38"
           inkscape:connector-curvature="0"
           id="path60"
           style="fill:#8f182f;fill-opacity:1;fill-rule:nonzero;stroke:none" /><path
           d="m 1434.64,2880.65 c 2.62,-2.97 5.12,-6.1 8.18,-8.57 3.9,-3.19 5.95,-3.59 10.6,-4.5 -0.58,8.06 7.5,13.25 0.37,20.5 -5.64,5.74 -20.11,9.72 -27.23,8.13 l -0.04,-0.85 c -0.82,-4.2 4.27,-10.32 8.12,-14.71"
           inkscape:connector-curvature="0"
           id="path62"
           style="fill:#8f182f;fill-opacity:1;fill-rule:nonzero;stroke:none" /><path
           d="m 1674.8,2951.28 c 0,0 -6.14,2.42 -4.84,-2.1 -4.67,-0.67 -7.42,2.62 -11.29,3.19 -2.74,0.42 -5.77,-1.79 -8.22,-1.23 -1.66,0.36 -2.11,3.46 -3.71,3.97 -7.42,2.4 -19.9,1.26 -27.92,1.65 -11,0.57 -21.57,0.27 -32.51,1.28 -10.2,0.98 -15.31,1.24 -24.27,-3.23 -4.96,-2.46 -7.38,-3.83 -13.08,-1.54 l 4.74,-5.42 c 5.52,-7.27 23.56,-8 31.51,-7.68 8.13,0.25 12.2,2.44 18.52,-2.85 5.22,-4.37 7.63,-6.05 14.06,-7.86 9.74,-2.73 28.54,-8.39 28.54,-8.39 l 28.47,30.21"
           inkscape:connector-curvature="0"
           id="path64"
           style="fill:#8f182f;fill-opacity:1;fill-rule:nonzero;stroke:none" /><path
           d="m 1266.4,2920.47 c 4.53,-6.8 14.03,-4.94 21.02,-5.69 2.18,6.95 2.34,14.61 2.69,22.34 8.82,-6.18 15.65,-13.62 23.24,-21.62 10.36,-10.98 23.82,-15.27 37.45,-20.88 13.02,-5.34 25.52,-10.75 38.57,-15.65 9.94,-3.76 19.77,-12.19 30.75,-11.42 2.57,4.23 3.74,8.87 3.77,13.85 0.24,23.15 -22.97,32.55 -32.47,51.67 -7.06,14.16 -2.06,41.29 0.57,56.65 1.71,10.03 -0.14,18.07 0.76,27.63 0.64,6.83 4.94,11.82 8.12,17.53 5.09,9.2 1.92,7.36 11.95,6.14 13.39,-1.61 32.79,-3.15 44.65,-10.04 14.35,-8.33 22.23,-20.59 27.07,1.66 12.52,-1.71 26.66,-10.35 37.56,-16.7 11.58,-6.74 16.29,-21.2 28.07,-27.44 6.59,-3.48 15.92,-3.69 23.33,-6.38 7.38,-2.72 12.29,-6.25 18.75,-9.64 15,-7.91 38.95,-7.96 53.47,1.14 -4.96,7.39 -16.41,9.4 -24.2,13.55 -9.84,5.27 -17.46,6.1 -28.68,6.72 -12.64,0.7 -26.42,-0.72 -37.51,6.9 -8.11,5.62 -19.82,22.05 -21.31,31.83 18.48,7.37 41.1,-3.14 59.01,-3.77 1.67,13.05 8.1,32.34 1.73,45.06 -8.44,16.8 -27.14,19.01 -43.97,20.46 -12.88,1.08 -30.75,10.38 -31.48,24.63 -0.51,9.83 8.23,24.37 18.4,13.91 -4.01,-10.08 11.62,-19.38 17.5,-12.02 8.44,10.55 -9.08,14.15 -12.66,17.25 -11.95,10.45 4.07,24.34 9.99,34.56 6.25,10.84 10.22,20.74 10.88,33.27 0.82,15.52 -4.13,27.01 -16.27,37.89 -6.58,5.89 -18.88,17.77 -26.62,20.89 -11.75,4.79 -27.53,1.48 -39.33,6.61 -9.97,4.32 -10.12,18.56 -8.97,29.32 -8.34,-5.53 -30.37,-33.35 -39.15,-10.4 -4.95,12.96 7.2,26.53 18.38,14.05 2.24,3.36 11.58,14.55 16.13,15.26 4.42,0.69 6.99,-3.75 11.76,-4.72 6.48,-1.32 11.08,3.19 17.72,3.46 4.38,0.26 9.67,-1.54 13.98,-2.78 10.87,-3.1 16.79,-8.47 23.9,2.69 2.97,4.62 5.66,10.99 3.04,15.08 -7.66,12.17 -42.93,4.2 -54,4.72 -0.23,3.35 0.86,9.08 -0.01,12.26 -1.13,4.15 -4.71,6.36 -5.94,10.53 -2.47,8.35 4,16.5 3.8,24.58 -0.8,29.92 -38.46,55.08 -63.89,65.92 -19.55,-18.98 -29.93,-40.93 -53.65,-56.78 -102.65,-68.68 -179.46,-74.29 -200.2,-95.68 -10.54,-10.85 -14.52,-24.55 -14.85,-38.91 -0.33,-15.4 3.57,-31.57 8.2,-45.8 7.01,-21.54 48.25,-161.77 86.77,-293.48 10.29,1.27 21.07,5.86 29.17,9.84 -1.13,-3.84 -4.58,-6.24 -6.99,-10.05"
           inkscape:connector-curvature="0"
           id="path66"
           style="fill:#8f182f;fill-opacity:1;fill-rule:nonzero;stroke:none" /><path
           d="m 1466.46,3446.54 c 12.34,-3.32 30.18,-17.75 39.84,-5.94 -4.64,3.76 -8.05,3.6 -13.38,4.47 -6.72,1.12 -12.35,3.1 -19.47,5.53 2.86,2.69 6.81,4.26 9.71,7.17 -6.37,4.69 -19.85,0.32 -27.56,0.9 -4.81,0.35 -20.9,4.69 -24.99,5.94 -13.44,-13.44 5.16,-10.55 1.47,-14.17 11.26,1.5 24.44,-1.23 34.38,-3.9"
           inkscape:connector-curvature="0"
           id="path68"
           style="fill:#8f182f;fill-opacity:1;fill-rule:nonzero;stroke:none" /><path
           d="m 1656.62,3153.93 c 0.92,10.92 24.4,-2.83 28.5,2.55 -2.08,2.36 -3.66,4.9 -6.37,6.16 0.42,3.55 -0.72,6.71 -3.03,9.15 -11.94,-3.57 -21.09,-9.7 -31.3,0.74 -4.93,5.12 -4.36,9.36 -10.44,11.9 -3.89,1.59 -13.02,3.3 -14.32,-3.14 -0.45,-2.29 14.11,-22.16 16.1,-23.45 4.01,-2.66 10.08,0.55 13.98,-2.28 2.37,-1.72 2.15,-5.04 3.4,-6.28 4.13,-4.08 6.4,-7.87 12.22,-5.04 l 0.68,-0.77 c 0.54,5.95 -3.83,10.57 -9.42,10.46"
           inkscape:connector-curvature="0"
           id="path70"
           style="fill:#8f182f;fill-opacity:1;fill-rule:nonzero;stroke:none" /><path
           d="m 1676.78,3149 c 1.3,-0.23 -2,-0.25 0,0 -2.11,0.38 -4.19,0.18 -6.21,-0.98 -0.21,-5.38 6.38,-10.03 10.7,-12.39 1.41,1.29 2.32,3.06 2.85,4.93 0.08,1.24 0.31,1.09 0,0 -0.18,-2.82 0.25,-6 2.64,-7.22 0.98,-0.53 5.42,-0.23 6.06,0.65 1.28,1.78 -0.69,1.89 -0.29,3.08 1.12,3.16 0.8,1.67 3.62,3.83 2.27,1.69 4.08,2.36 3.01,6.5 -7.73,-0.44 -3.85,-1.14 -7.88,3.74 -1.58,1.91 -2.28,3.52 -5.33,2.46 0.21,-1.7 1.01,-3.76 0.79,-5.43 -2.33,0.91 -6.43,1.28 -9.96,0.83"
           inkscape:connector-curvature="0"
           id="path72"
           style="fill:#8f182f;fill-opacity:1;fill-rule:nonzero;stroke:none" /><path
           d="m 1680.81,3143.87 c -0.23,-0.9 14.61,-2.07 14.53,-3.32 0.31,1.09 -14.34,2.2 -14.53,3.32"
           inkscape:connector-curvature="0"
           id="path74"
           style="fill:#8f182f;fill-opacity:1;fill-rule:nonzero;stroke:none" /><path
           d="m 1667.99,3147.39 23.98,0.12 c -1.36,1 -17.67,1.26 -18.97,1.49"
           inkscape:connector-curvature="0"
           id="path76"
           style="fill:#8f182f;fill-opacity:1;fill-rule:nonzero;stroke:none" /><path
           d="m 1797.22,3092.49 c -0.91,0.71 -1.07,1.23 -1.07,1.23 -4.81,3.03 -6.76,4.85 -1.26,8.64 -2.67,3.38 -4.66,7.11 -7.34,10.17 -0.59,-1.05 -1.68,-1.79 -2.13,-3.19 -0.66,5.07 -2.11,11.94 -7.57,10.05 -5.92,-2.08 -3.58,-8.48 -1.05,-12.64 4.66,-7.6 10.82,-15.68 20.42,-14.26"
           inkscape:connector-curvature="0"
           id="path78"
           style="fill:#8f182f;fill-opacity:1;fill-rule:nonzero;stroke:none" /><path
           d="m 1584.01,3316.71 c -0.85,3.54 -6.67,12.49 -10.16,14.3 -3.25,1.72 -10.83,-1.53 -12.23,1.04 -3.42,6.35 12.25,1.51 13.85,1.93 9.54,2.43 3.71,13.41 1.26,19.22 4.07,0.4 8.64,0 12.44,0.57 -3.77,10.48 6.87,15.44 8.58,25.88 1.43,9.14 -7.13,15.28 -12.8,21.76 -7.55,8.6 -14.93,16.92 -27.16,17.16 -5.74,0.12 -20.14,-4.72 -24.06,1.98 4.97,5.51 11.89,6.69 14.59,13.09 0.91,2.3 3.17,10.35 2.45,12.35 -3.76,10.09 -39.36,-6.53 -46.1,-13.2 3.19,-6.09 9.04,-4.23 13.53,-7.34 3.35,-2.31 3.84,-4.87 5.3,-8.17 3.63,-8.5 10.59,-5.92 18.25,-9.84 6.82,-3.46 16.47,-7.41 22.02,-12.98 2.94,-2.92 10.48,-23.83 1.13,-19.5 -1.99,-5.96 1.4,-12 -2.14,-17.72 -4.26,-6.86 -9.45,-11.07 -10.96,-19.4 -0.68,-3.87 -0.66,-29.72 8.6,-25.34 l -1.38,5.2 c 1.32,0.91 3.01,0.84 4.32,2.1 2.78,-2.45 10.19,-5.68 13.84,-7.43 5.57,-2.69 8.47,-2.33 6.83,4.34"
           inkscape:connector-curvature="0"
           id="path80"
           style="fill:#8f182f;fill-opacity:1;fill-rule:nonzero;stroke:none" /><path
           d="m 1707.48,3121.52 c 1.86,-1.37 10.31,-2.23 12.65,-2.37 3.83,-0.15 2.77,-2.44 6.32,-1.82 3.55,0.6 9.02,7.22 9.99,9.99 -7.73,2.42 -8.33,9.36 -12.28,15 -3.77,5.37 -8.53,9.47 -13.92,12.61 -15.4,-1.66 -14.93,4.67 -24.84,12.96 -1.03,-0.16 -2.29,-0.35 -3.34,-0.49 5.86,-12.98 25.2,-12.15 27.77,-21.61 2.59,-9.54 -7.78,-9.06 -10.4,-13.34 -2.56,-4.2 -0.85,-11.31 1.23,-15.08 l 3.11,-6.59 c -0.02,4.15 -0.23,8.68 3.71,10.74"
           inkscape:connector-curvature="0"
           id="path82"
           style="fill:#8f182f;fill-opacity:1;fill-rule:nonzero;stroke:none" /><path
           d="m 1660.39,3126.42 c 1,-9.79 -0.48,-21.95 1.53,-31.98 1.93,1.4 4.56,3.13 6.12,5.11 l -2.85,0.17 c 2.21,2.98 2.64,26.14 -4.8,26.7"
           inkscape:connector-curvature="0"
           id="path84"
           style="fill:#8f182f;fill-opacity:1;fill-rule:nonzero;stroke:none" /><path
           d="m 1822.13,3122.41 c -7.09,-2.41 -13.22,-9.3 -9.07,-16.08 0.65,-1.06 2.16,-2.6 2.16,-2.6 l 16.67,17.82 c 0,0 -6.86,1.86 -9.76,0.86"
           inkscape:connector-curvature="0"
           id="path86"
           style="fill:#8f182f;fill-opacity:1;fill-rule:nonzero;stroke:none" /><path
           d="m 1016.53,3269.4 c -2.1,3.77 -4.49,7.54 -7.16,11.34 2.04,-4.06 4.59,-7.98 7.16,-11.34"
           inkscape:connector-curvature="0"
           id="path88"
           style="fill:#fabb79;fill-opacity:1;fill-rule:nonzero;stroke:none" /><path
           d="m 543.34,3505.74 c -0.375,0.17 -0.758,0.34 -1.137,0.51 -0.285,-0.41 -0.637,-0.76 -0.941,-1.14 0.695,0.22 1.39,0.42 2.078,0.63"
           inkscape:connector-curvature="0"
           id="path90"
           style="fill:#fabb79;fill-opacity:1;fill-rule:nonzero;stroke:none" /><path
           d="m 918.789,3166.13 c -1.539,3.48 -3.539,7.1 -6.449,11.63 0.472,-2.93 1.273,-5.59 2.625,-7.72 0.933,-1.48 2.461,-2.65 3.824,-3.91"
           inkscape:connector-curvature="0"
           id="path92"
           style="fill:#fabb79;fill-opacity:1;fill-rule:nonzero;stroke:none" /><path
           d="m 708.34,3250.8 -3.328,3.47 c 0.32,-1.15 1.14,-2.3 2.277,-3.41 0.352,0.03 0.68,-0.13 1.051,-0.06"
           inkscape:connector-curvature="0"
           id="path94"
           style="fill:#fabb79;fill-opacity:1;fill-rule:nonzero;stroke:none" /><path
           d="m 817.398,2785.62 -3.41,-1.85 c -11.269,1.12 -23.476,-3.1 -28.031,13.51 -0.922,3.35 -0.875,6.29 -0.473,9.05 1.934,13.31 16.719,21.04 23.5,32 10.192,16.41 6.504,24.96 22.465,33.54 16.856,9.01 30.891,13.84 47.906,26.12 1.235,-2.22 2.024,-4.63 2.559,-7.16 7.133,-33.44 -43.602,-91.15 -64.516,-105.21 z m 366.062,-112.53 c -0.4,1.31 -0.64,2.49 -1.08,3.82 -23.72,71.13 -84.62,293.23 -84.62,293.23 l -1.26,2.43 c -27.11,90.37 -42.13,151.63 -50.9,191.19 -0.5,2.21 -0.99,4.41 -1.43,6.49 -27.03,-10.29 -64.025,-11.08 -91.49,-9.41 -29.512,1.83 -14.774,16.97 -16.547,39.41 -1.098,14.14 -6.988,28.44 -7.942,42.85 -0.972,14.38 2.153,30.25 -2.546,45.06 -5.704,17.93 -20.696,48.02 -35.989,58.84 4.84,-26.1 5.164,-52.79 5.774,-79.66 0.273,-11.89 0.605,-23.8 1.406,-35.75 1.492,-22.09 3.375,-35.07 15.473,-53.78 0.011,-0.02 0.019,-0.03 0.031,-0.05 2.91,-4.53 4.91,-8.15 6.449,-11.63 3.164,-7.14 3.418,-13.43 -0.914,-24.02 10.105,-6.93 23.418,-12.27 36.305,-14.52 7.328,-0.22 14.636,-0.29 21.957,-0.37 6.343,0.84 12.64,1.79 18.914,-0.33 8.049,-26.03 -37.489,-54.55 -55.84,-62.56 -18.551,-8.1 -39.285,-8.88 -55.914,-18.5 -10.738,-6.21 -18.641,-16.25 -29.035,-23.8 -19.813,-14.39 -21.567,-16.87 -26.891,-39.92 -4.504,-19.39 -8.57,-39.79 -15.152,-58.64 -7.742,-22.09 -25.91,-33.54 -46.66,-42.38 -4.157,-1.76 -8.313,-2.57 -12.371,-3.46 -6.102,-1.32 -11.942,-2.85 -16.922,-8.18 -1.95,-2.1 -3.34,-4.84 -4.555,-7.78 -2.91,-7.09 -4.508,-15.66 -8.227,-21.37 -10.285,-15.85 -21.558,-14.06 -33.851,-19.63 -2.676,-1.21 -5.371,-2.65 -8.145,-4.83 -5.472,-4.31 -9.16,-9.42 -12.332,-14.71 -2.472,-4.09 -4.664,-8.29 -7.015,-12.35 222.136,-101.91 447.759,-205.06 467.079,-209.88 16.2,-4.05 33.06,-0.21 44.89,11.57 7.97,7.93 13.6,19.53 15.31,34.67 l -5.96,47.95"
           inkscape:connector-curvature="0"
           id="path96"
           style="fill:#f57918;fill-opacity:1;fill-rule:nonzero;stroke:none" /><path
           d="m 803.359,3041.57 c 0.313,-0.31 0.633,-0.62 1.012,-0.91 l -1.5,0.56 c 0.156,0.12 0.32,0.25 0.488,0.35 -2.086,2.1 -3.308,4.91 -5.937,7.01 2.105,11.46 14.094,30.11 27.836,21.45 -3.106,-11.45 -12.235,-21.54 -21.899,-28.46 z m -21.058,-123.35 c -2.516,0.14 -6.543,1.6 -8.613,3.09 3.214,14.79 9.066,25.85 6.007,38.76 -3.148,13.37 -12.797,24.82 -18.5,37.61 -4.125,9.2 -10.09,23.04 -5.976,34.16 7.203,19.45 11.004,11.27 11.359,2.47 l 2.152,-7.86 c 2.469,-8.12 5.352,-16.47 5.618,-24.26 0.418,-13.13 -1.727,-13.35 6.625,-24.23 7.789,-10.1 15.066,-14.27 13.011,-29.06 -1.332,-9.74 -7.851,-21.65 -11.683,-30.68 z m -55.137,332.64 c -1.141,1.11 -1.961,2.26 -2.281,3.41 l 3.332,-3.47 c -0.371,-0.07 -0.699,0.09 -1.051,0.06 z m 268.848,-123.64 c -3.274,-0.44 -6.543,-0.86 -9.844,-0.82 -3.91,0.04 -7.988,0.47 -12.113,1.19 -12.887,2.25 -26.203,7.59 -36.305,14.52 4.328,10.59 4.074,16.88 0.91,24.02 -1.359,1.26 -2.89,2.43 -3.82,3.91 -1.356,2.13 -2.152,4.79 -2.629,7.72 -0.008,0.02 -0.02,0.03 -0.027,0.05 -12.102,18.71 -13.981,31.69 -15.473,53.78 -0.805,11.95 -1.137,23.86 -1.406,35.75 -0.578,25.35 -0.867,46.45 -4.961,71.13 -0.25,1.48 5.015,1.43 7.636,-1.49 12.293,-13.7 22.836,-34.03 27.54,-48.82 4.695,-14.81 1.57,-30.68 2.546,-45.06 0.954,-14.41 6.84,-28.71 7.942,-42.85 1.769,-22.44 -12.883,-42.4 16.629,-44.23 21.511,-1.31 72.633,8.81 72.633,8.81 0,0 -0.57,23.72 -45.446,54.94 -28.687,19.95 -66.508,110.04 -108.363,127.82 -172.656,73.38 -334.352,152.97 -335.285,151.8 -0.641,-0.81 -1.235,-1.65 -1.762,-2.54 -1.059,-1.76 -1.617,-4.48 -3.578,-5.03 l 0.176,0.38 c -6.496,-4.5 -16.039,-4.63 -23.555,-8.61 -8.586,-4.54 -14.902,-12.65 -22.098,-18.21 -11.867,-9.16 -28.281,-16.73 -37,-29.54 -5.39,-7.96 -3.601,-13.36 -5.898,-21.78 -3.137,-11.41 -9.652,-16.49 -14.973,-26.11 -10.625,-19.26 -8.269,-32.11 -1.98,-51.85 6.14,-19.21 9.086,-37.86 16.406,-56.78 6.699,-17.32 16.391,-24.66 31.43,-33.05 1.429,-0.8 2.636,-1.57 4.176,-2.4 21.05,-11.4 44.437,-9.03 67.21,-15.29 6.446,-1.77 18.993,-1.97 24.5,-7.19 6.918,-6.49 8.247,-19.19 17.918,-26.94 6.133,-4.91 9.262,-4.75 11.739,-9.98 0.484,-1.02 0.98,-1.89 1.429,-3.44 2.305,-8.01 -2.113,-21.83 -4.242,-29.74 -5.832,-21.49 -6.531,-30.73 -1.586,-53.62 4.555,-20.98 8.68,-35.04 -0.136,-55.89 -6.762,-15.94 -14.622,-34.68 -26.575,-47.44 -1.769,-1.88 -3.636,-3.49 -5.507,-5.09 -7.575,-6.56 -15.192,-11.97 -17.09,-24.15 -0.703,-4.48 -0.457,-8.81 0.226,-13.07 1.836,-11.58 7.172,-22.66 7.598,-34.69 0.312,-8.43 -0.367,-16.88 -1.168,-25.36 -1.488,-16.02 -3.481,-32.21 -0.738,-48.84 0.207,-1.22 0.39,-2.49 0.59,-3.74 5.066,-2.31 10.054,-4.61 15.16,-6.95 29.73,-13.64 35.648,-25.43 66.101,-39.4 1.539,-0.71 24.086,-11.01 25.625,-11.72 2.356,4.06 7.985,15.71 10.453,19.8 3.176,5.29 6.864,10.4 12.336,14.71 2.774,2.18 5.469,3.62 8.145,4.83 12.289,5.57 23.562,3.78 33.851,19.63 3.715,5.71 5.313,14.28 8.223,21.37 1.215,2.94 2.606,5.68 4.555,7.78 4.98,5.33 10.82,6.86 16.925,8.18 4.055,0.89 8.211,1.7 12.368,3.46 20.754,8.84 38.922,20.29 46.66,42.38 6.582,18.85 10.648,39.25 15.156,58.64 5.32,23.05 7.074,25.53 26.891,39.92 10.394,7.55 18.297,17.59 29.031,23.8 16.633,9.62 37.363,10.4 55.914,18.5 18.356,8.01 63.888,36.53 55.838,62.56 -6.27,2.12 -12.57,1.17 -18.908,0.33"
           inkscape:connector-curvature="0"
           id="path98"
           style="fill:#d8641c;fill-opacity:1;fill-rule:nonzero;stroke:none" /><path
           d="m 901.785,2890.83 c -0.535,2.53 -1.32,4.94 -2.555,7.16 -17.019,-12.28 -31.05,-17.11 -47.906,-26.12 -15.965,-8.58 -12.277,-17.13 -22.469,-33.54 -6.781,-10.96 -21.566,-18.69 -23.5,-32 -0.398,-2.76 -0.449,-5.7 0.473,-9.05 4.559,-16.61 16.766,-12.39 28.035,-13.51 l 3.407,1.85 c 20.914,14.06 71.652,71.77 64.515,105.21"
           inkscape:connector-curvature="0"
           id="path100"
           style="fill:#d8641c;fill-opacity:1;fill-rule:nonzero;stroke:none" /><path
           d="m 881.914,2890.83 c -0.535,2.53 -1.324,4.94 -2.559,7.16 -17.015,-12.28 -31.05,-17.11 -47.906,-26.12 -15.961,-8.58 -12.273,-17.13 -22.465,-33.54 -6.781,-10.96 -21.566,-18.69 -23.5,-32 -0.402,-2.76 -0.449,-5.7 0.473,-9.05 4.555,-16.61 16.762,-12.39 28.031,-13.51 l 3.41,1.85 c 20.914,14.06 71.649,71.77 64.516,105.21"
           inkscape:connector-curvature="0"
           id="path102"
           style="fill:#fabb79;fill-opacity:1;fill-rule:nonzero;stroke:none" /><path
           d="m 1338.11,3644.61 c -26.65,1.34 -15.68,-8.08 -24.53,-23.75 l 4.73,-4.57 c -11.12,1.51 -29.95,19.81 -32.57,29.37 12.42,-1.06 24.31,10.34 36.5,12.88 15.51,3.21 53.08,-8.38 57.76,-23.99 -14.74,5.67 -25.69,9.21 -41.89,10.06 z m -73.86,-17.19 c 1.47,1.94 3.93,4.05 6.47,5.15 l -1.38,0.78 c 2.63,-0.91 5.45,-3.05 7.64,-4.63 -2.38,-6.81 -7.4,-7.05 -12.73,-1.3 z m -358.004,18.86 c -8.672,-7.84 -44.32,6.05 -52.285,12.21 l 1.195,-4.35 c -2.832,1.58 -5.312,3.42 -7.094,6.18 7.36,2.63 13.559,0.1 20.879,1.92 -4.156,4.98 -4.586,8.88 -0.976,13.77 1.683,-1.01 3.672,-1.72 5.375,-2.56 0.894,11.92 10.715,4.04 12.836,8.69 3.726,8.34 -6.582,17.03 -5.293,24.77 1.246,7.5 17.226,22.71 27.32,17.52 -3.047,-0.67 -7.601,-4.31 -9.937,-5.08 4.046,-3.49 8.183,-7.38 11.793,-11.15 -3.707,-4.15 -7.532,-7.73 -11.348,-10.76 5.238,-9.99 17.734,-41.89 7.535,-51.16 z m -73.57,39.11 c -2.742,0.9 -5.633,3.18 -7.965,4.82 2.711,5.64 9.25,6.59 15.617,5.46 -0.969,3.97 -0.715,10.39 -2.902,14.56 5.48,-0.46 18.336,1.31 23.344,-0.5 7.437,-2.65 15.292,-11.41 4.539,-12.64 -0.653,-0.08 -1.121,-0.21 -1.914,-0.23 -2.118,-4.45 -5.95,-8.65 -8.012,-13.15 -5.774,1.23 -10.664,-0.48 -15.66,-0.29 -2.297,0.1 -4.618,0.49 -7.047,1.97 z m 615.264,56.92 c -27.96,12.42 -361.74,110.93 -391.26,121.81 -11.06,4.07 -23.44,6.17 -35.82,6.23 -20.64,0.11 -41.258,-5.46 -55.833,-17.11 -23.308,-18.65 -107.562,-122.42 -205.726,-168.32 -87.863,-41.07 -119.278,-35.41 -152.871,-43.62 -15.793,-3.85 -23.106,-15.83 -24.297,-22.11 -1.68,-8.93 -0.617,-24.3 23.945,-35.59 14.297,-6.56 51.445,-25.01 115.098,-54.85 0.136,0.05 0.285,0.14 0.422,0.19 10.703,4.28 26.781,10.06 38.441,6.65 10.277,-3.05 13.551,-14.72 25.652,-19.34 11.582,-4.42 24.684,-3.89 36.715,-6.37 17.598,-3.6 70.387,-18.29 66.438,-43.88 -0.785,-5.11 -3.489,-8.04 -6.133,-10.63 40.094,-17.38 75.477,-31.79 98.906,-39.46 12.25,-4.02 23.393,-7.2 34.043,-9.99 0.23,0.4 0.38,0.96 0.66,1.27 -2.88,3.82 -5.67,22.38 -3.29,25.98 8.1,12.15 20.66,0.96 31.54,-0.07 -14.04,14.68 -29.09,15.37 -45.55,26.25 -6.536,-11.71 6.44,-24.96 0.542,-36.46 -5.089,0.81 -9.957,2.8 -14.425,5.85 -0.875,-2.99 -4.883,-6.08 -5.742,-9.04 -18.278,4.6 -7.204,14.48 -5.528,25.02 1.488,9.43 -1.461,19.27 -0.39,29.02 0.742,6.56 5.289,9.25 4.25,16 -0.95,6.16 -9.055,12.44 -12.168,17.95 -6.067,10.67 -8.696,31.84 -21.727,34.74 -12.176,-23.07 32.621,-53.52 22.027,-72.69 -6.918,2.54 -9.265,6.65 -13.441,10.82 -2.766,-5.49 -6.578,-9.77 -10.34,-13.53 0.551,0.57 -14.258,-10.41 -12.433,-9.97 -18.485,-4.39 -13.512,11.33 -19,21.96 11.101,6.56 18.257,-8.97 28.003,-3.57 11.938,6.61 3.84,21.7 -1.183,30.14 -6.559,11 -8.192,17.4 -12.082,29.69 -5.863,18.56 -9.621,12.76 -25.387,17.42 -6.961,2.03 -16.109,11.37 -22.851,11.82 -9.79,0.63 -8.704,-6.03 -16.239,-9.23 -13.117,-5.6 -24.445,-1.18 -37.715,-11.39 -16.14,-12.39 -16.941,-11.16 -38.156,-5.68 -12.476,3.27 -31.148,9.2 -35.965,24.34 -5.09,16 10.676,21.33 18.289,28.99 12.961,12.97 11.739,27.54 32.411,17.24 16.476,-8.23 27.093,-26.33 44.832,-14.67 23.027,15.11 6.515,28.2 0.171,48.32 6.032,-3.65 13.254,-1.98 19.817,-4.59 8.722,-3.45 11.543,-9.38 22.629,-9.48 13.547,-0.11 28.304,8 40.761,11.13 9.063,2.28 14.051,3.43 22.45,2.21 5.781,-0.83 13.882,-7.19 18.941,-3.46 1.891,1.4 -1.285,13.43 3.262,18.29 5.73,6.04 13.769,4.61 20.988,2.46 -4.035,-8.35 -17.523,-18.45 -13.562,-27.01 5.07,-10.98 33.691,-14.41 42.741,-18.79 21.43,-10.41 15.9,-17.49 31.97,-1.89 17.47,16.95 7.07,-3.26 28.15,-4.8 3.75,5.89 -2.34,15.26 1.75,18.93 7.67,6.87 19.4,-8.58 25.72,-11.13 25.78,-10.31 1.37,9.7 -10.5,15.11 -11.89,5.41 -31.5,15.57 -18.95,31.15 9.63,11.98 32.81,2.22 39.48,17.6 -12.88,5.41 -30.42,7.35 -44.4,5.01 -21.85,-3.64 -13.62,-15.5 -20.28,-28.34 -4.1,-7.91 -11.8,-6.58 -16.08,-9.57 -4.47,-3.12 -8.3,-10.04 -13.73,-13.67 -8.87,-5.99 -46.805,-1.89 -33.543,11.61 13.073,-4.37 16.523,14.11 10.633,23 -6.29,9.44 -17.778,1.63 -28.075,11.07 -7.703,7.12 -7.519,20.88 0.227,29.31 8.297,9.02 19.254,6.59 30.258,8.72 25.4,4.91 49.22,9.58 73.26,18.21 23.97,8.59 24.92,-3.29 48.21,-9.44 4.56,-1.2 11.12,2.37 16.25,0.11 8.02,-3.58 13.66,-17.84 19.36,-24.08 l 8.12,-8.29 c 10.6,-4.43 27.34,-26.13 35.01,-35.3 8.27,-9.85 15.36,-20.65 2.54,-30.05 -15.68,6.14 -19.26,25.99 -35.32,30.62 2.84,-11.13 4.64,-26.49 13.77,-32.95 0.8,1.95 2.93,4.12 3.97,5.94 8.67,-10.47 15.92,-4.84 26.7,-3.51 17.13,2.19 11.76,-1.84 19.72,14.02 9.48,-3.6 15.03,-11.3 6.89,-20 15.83,-0.39 23.89,1.47 39.13,-7.53 1.97,-1.18 4.02,-2.28 6.11,-3.37 3.73,4.84 3.85,4.27 9.79,1.36 1.93,-3.36 -1.51,-1.82 -1.77,-2.82 l 1.95,-2.98 c -0.22,0 -0.46,0.02 -0.71,0.03 2.91,-1.28 6.09,-2.38 9.09,-3.57 1.47,0.8 2.92,0.09 6.66,-1.73 0.27,-0.5 0.24,-0.72 0.33,-1.02 3.65,-1.4 7.14,-2.86 10.87,-4.27 -1.06,2.96 -0.74,6.7 -2.22,9.79 19.91,-11.28 37.41,-26.91 53.48,-42.48 4.17,11.77 -6.94,15.59 0.38,25.39 2.7,3.62 18.94,8.23 22.19,6.54 3.69,-1.94 5.98,-6.18 7.35,-11.53 42.78,55.97 71.48,111.09 67.56,125.79 -4.11,15.47 -9.05,26.51 -26.16,34.12"
           inkscape:connector-curvature="0"
           id="path104"
           style="fill:#73bdd6;fill-opacity:1;fill-rule:nonzero;stroke:none" /><path
           d="m 783.484,3041.57 c 0.317,-0.31 0.637,-0.62 1.012,-0.91 l -1.5,0.56 c 0.156,0.12 0.324,0.25 0.488,0.35 -2.082,2.1 -3.308,4.91 -5.933,7.01 2.101,11.46 14.09,30.11 27.836,21.45 -3.106,-11.45 -12.239,-21.54 -21.903,-28.46 z m -21.058,-123.35 c -2.516,0.14 -6.543,1.6 -8.614,3.09 3.219,14.79 9.071,25.85 6.012,38.76 -3.148,13.37 -12.797,24.82 -18.5,37.61 -4.129,9.2 -10.094,23.04 -5.976,34.16 7.203,19.45 11,11.27 11.355,2.47 l 2.152,-7.86 c 2.473,-8.12 5.356,-16.47 5.618,-24.26 0.422,-13.13 -1.723,-13.35 6.625,-24.23 7.789,-10.1 15.07,-14.27 13.011,-29.06 -1.332,-9.74 -7.847,-21.65 -11.683,-30.68 z m -55.137,332.64 c -1.137,1.11 -1.957,2.26 -2.277,3.41 l 3.328,-3.47 c -0.371,-0.07 -0.699,0.09 -1.051,0.06 z m 268.848,-123.64 c -3.27,-0.44 -6.543,-0.86 -9.844,-0.82 -3.91,0.04 -7.988,0.47 -12.113,1.19 -12.887,2.25 -26.2,7.59 -36.305,14.52 4.332,10.59 4.078,16.88 0.914,24.02 -1.363,1.26 -2.891,2.43 -3.824,3.91 -1.352,2.13 -2.153,4.79 -2.625,7.72 -0.012,0.02 -0.02,0.03 -0.031,0.05 -12.098,18.71 -13.981,31.69 -15.473,53.78 -0.801,11.95 -1.133,23.86 -1.406,35.75 -0.61,26.87 -0.934,53.56 -5.774,79.66 15.293,-10.82 30.285,-40.91 35.989,-58.84 4.699,-14.81 1.574,-30.68 2.546,-45.06 0.954,-14.41 6.844,-28.71 7.942,-42.85 1.773,-22.44 -12.965,-37.58 16.547,-39.41 27.465,-1.67 64.46,-0.88 91.49,9.41 -5.38,24.63 -8.14,39.91 -9.95,47.7 -2.35,10.27 -5.95,30.32 -17.69,51.45 -2.57,3.36 -5.12,7.28 -7.16,11.34 -3.88,5.51 -8.18,11 -13.487,16.31 -10.778,10.78 -24.313,21.96 -43.047,28.87 -74.852,27.55 -315.574,138.48 -409.496,179.82 -0.688,-0.21 -1.383,-0.41 -2.078,-0.63 -2.223,-2.76 -4.91,-5.19 -6.719,-8.26 -1.063,-1.76 -1.617,-4.48 -3.582,-5.03 l 0.176,0.38 c -6.492,-4.5 -16.039,-4.63 -23.555,-8.61 -8.582,-4.54 -14.902,-12.65 -22.094,-18.21 -11.871,-9.16 -28.281,-16.73 -37.004,-29.54 -5.386,-7.96 -3.601,-13.36 -5.894,-21.78 -3.137,-11.41 -9.656,-16.49 -14.973,-26.11 -10.625,-19.26 -8.269,-32.11 -1.98,-51.85 6.14,-19.21 9.086,-37.86 16.406,-56.78 6.695,-17.32 16.391,-24.66 31.43,-33.05 1.429,-0.8 2.636,-1.57 4.172,-2.4 21.05,-11.4 44.441,-9.03 67.214,-15.29 6.446,-1.77 18.989,-1.97 24.496,-7.19 6.918,-6.49 8.247,-19.19 17.918,-26.94 6.133,-4.91 9.266,-4.75 11.743,-9.98 0.48,-1.02 0.98,-1.89 1.429,-3.44 2.305,-8.01 -2.117,-21.83 -4.246,-29.74 -5.828,-21.49 -6.531,-30.73 -1.586,-53.62 4.559,-20.98 8.684,-35.04 -0.136,-55.89 -6.762,-15.94 -14.618,-34.68 -26.571,-47.44 -1.773,-1.88 -3.636,-3.49 -5.508,-5.09 -7.574,-6.56 -15.191,-11.97 -17.089,-24.15 -0.704,-4.48 -0.461,-8.81 0.222,-13.07 1.836,-11.58 7.172,-22.66 7.598,-34.69 0.312,-8.43 -0.363,-16.88 -1.164,-25.36 -1.492,-16.02 -3.485,-32.21 -0.738,-48.84 0.203,-1.22 0.39,-2.49 0.589,-3.74 5.063,-2.31 10.055,-4.61 15.157,-6.95 29.73,-13.64 60.097,-27.58 90.55,-41.56 1.539,-0.7 3.079,-1.4 4.618,-2.11 2.351,4.06 4.543,8.26 7.015,12.35 3.172,5.29 6.86,10.4 12.332,14.71 2.774,2.18 5.469,3.62 8.145,4.83 12.293,5.57 23.566,3.78 33.851,19.63 3.719,5.71 5.317,14.28 8.227,21.37 1.215,2.94 2.605,5.68 4.555,7.78 4.98,5.33 10.82,6.86 16.922,8.18 4.058,0.89 8.214,1.7 12.371,3.46 20.75,8.84 38.918,20.29 46.66,42.38 6.582,18.85 10.648,39.25 15.152,58.64 5.324,23.05 7.078,25.53 26.891,39.92 10.394,7.55 18.297,17.59 29.035,23.8 16.629,9.62 37.363,10.4 55.914,18.5 18.351,8.01 63.889,36.53 55.84,62.56 -6.274,2.12 -12.571,1.17 -18.914,0.33"
           inkscape:connector-curvature="0"
           id="path106"
           style="fill:#fabb79;fill-opacity:1;fill-rule:nonzero;stroke:none" /><path
           d="m 1559.36,3230.04 c -8.57,-4.4 7.3,-22.14 13.93,-22.82 14.94,-1.52 -7.59,20.17 -10.1,23 l -3.83,-0.18"
           inkscape:connector-curvature="0"
           id="path108"
           style="fill:#dc7c96;fill-opacity:1;fill-rule:nonzero;stroke:none" /><path
           d="m 1662.66,2950.22 c -3.35,0.88 -9.44,4.99 -7.7,-1.04 -4.67,-0.67 -7.42,2.62 -11.29,3.19 -2.74,0.42 -5.77,-1.79 -8.22,-1.23 -1.66,0.36 -2.11,3.46 -3.71,3.97 -7.42,2.4 -19.9,1.26 -27.92,1.65 -11,0.57 -21.57,0.27 -32.51,1.28 -10.2,0.98 -15.31,1.24 -24.27,-3.23 -4.96,-2.46 -7.38,-3.83 -13.08,-1.54 l 4.74,-5.42 c 5.52,-7.27 23.56,-8 31.51,-7.68 8.13,0.25 12.2,2.44 18.52,-2.85 5.22,-4.37 7.63,-6.05 14.06,-7.86 13.37,-3.75 25.57,-9.13 39.61,-9.93 0.89,-0.05 1.73,-0.03 2.6,-0.06 8.98,9.69 17.93,19.36 26.87,29 -0.1,0.11 -0.16,0.33 -0.27,0.43 -1.64,1.18 -6.68,0.72 -8.94,1.32"
           inkscape:connector-curvature="0"
           id="path110"
           style="fill:#dc7c96;fill-opacity:1;fill-rule:nonzero;stroke:none" /><path
           d="m 1647.94,3154.55 c 0.92,10.92 24.4,-2.84 28.51,2.55 -2.09,2.35 -3.67,4.89 -6.37,6.16 0.41,3.54 -0.73,6.7 -3.04,9.15 -11.93,-3.58 -21.09,-9.71 -31.3,0.74 -4.92,5.12 -4.36,9.35 -10.43,11.9 -3.89,1.59 -13.02,3.29 -14.33,-3.14 -0.45,-2.3 14.11,-22.16 16.1,-23.45 4.01,-2.67 10.08,0.54 13.98,-2.29 2.37,-1.71 2.16,-5.03 3.4,-6.28 4.13,-4.07 6.4,-7.87 12.22,-5.04 l 0.69,-0.77 c 0.54,5.96 -3.83,10.57 -9.43,10.47"
           inkscape:connector-curvature="0"
           id="path112"
           style="fill:#dc7c96;fill-opacity:1;fill-rule:nonzero;stroke:none" /><path
           d="m 1680.34,3140.55 c 0.31,1.09 0.66,2.2 0.47,3.32 -0.23,-0.9 -0.39,-2.07 -0.47,-3.32"
           inkscape:connector-curvature="0"
           id="path114"
           style="fill:#dc7c96;fill-opacity:1;fill-rule:nonzero;stroke:none" /><path
           d="m 1695.38,3147.39 c -7.73,-0.44 -3.85,-1.13 -7.88,3.74 -1.58,1.92 -2.28,3.52 -5.33,2.46 0.21,-1.7 1.01,-3.76 0.79,-5.42 -2.33,0.91 -6.43,1.28 -9.96,0.83 -2.11,0.37 -4.19,0.18 -6.21,-0.98 -0.21,-5.39 6.38,-10.04 10.71,-12.39 1.4,1.28 2.31,3.05 2.84,4.92 0.08,1.25 0.31,1.09 0,0 -0.18,-2.82 0.25,-5.99 2.64,-7.22 0.98,-0.53 5.42,-0.22 6.06,0.65 1.28,1.78 -0.69,1.9 -0.29,3.09 1.12,3.15 0.8,1.66 3.62,3.82 2.27,1.69 4.09,2.37 3.01,6.5"
           inkscape:connector-curvature="0"
           id="path116"
           style="fill:#dc7c96;fill-opacity:1;fill-rule:nonzero;stroke:none" /><path
           d="m 1703.7,3121.51 c 1.86,-1.37 10.31,-2.22 12.65,-2.37 3.83,-0.14 2.77,-2.43 6.32,-1.82 3.55,0.6 9.02,7.22 9.99,10 -7.73,2.42 -8.33,9.35 -12.28,15 -3.77,5.37 -8.53,9.46 -13.92,12.61 -15.4,-1.67 -14.93,4.66 -24.84,12.95 -1.03,-0.15 -2.29,-0.34 -3.34,-0.49 5.86,-12.98 25.2,-12.14 27.77,-21.6 2.59,-9.55 -7.78,-9.07 -10.4,-13.35 -2.56,-4.19 -0.85,-11.31 1.23,-15.07 l 3.12,-6.59 c -0.03,4.15 -0.23,8.68 3.7,10.73"
           inkscape:connector-curvature="0"
           id="path118"
           style="fill:#dc7c96;fill-opacity:1;fill-rule:nonzero;stroke:none" /><path
           d="m 1656.82,3126.42 c 1,-9.79 -0.48,-21.95 1.53,-31.98 1.93,1.4 4.57,3.13 6.12,5.11 l -2.85,0.17 c 2.21,2.98 2.64,26.14 -4.8,26.7"
           inkscape:connector-curvature="0"
           id="path120"
           style="fill:#dc7c96;fill-opacity:1;fill-rule:nonzero;stroke:none" /><path
           d="m 1251.4,2920.47 c 4.53,-6.8 14.03,-4.94 21.02,-5.69 2.18,6.95 2.34,14.61 2.69,22.34 8.82,-6.18 15.65,-13.62 23.24,-21.62 10.36,-10.98 23.82,-15.27 37.45,-20.88 13.02,-5.34 25.52,-10.75 38.57,-15.65 9.94,-3.76 19.77,-12.19 30.75,-11.42 2.57,4.23 3.74,8.87 3.77,13.85 0.24,23.15 -22.97,32.55 -32.47,51.67 -7.06,14.16 -2.06,41.29 0.57,56.65 1.71,10.03 -0.14,18.07 0.76,27.63 0.64,6.83 4.94,11.82 8.12,17.53 5.09,9.2 1.92,7.36 11.95,6.14 13.39,-1.61 32.79,-3.15 44.65,-10.04 14.35,-8.33 22.23,-20.59 27.07,1.66 12.52,-1.71 26.66,-10.35 37.56,-16.7 11.58,-6.74 16.29,-21.2 28.07,-27.44 6.59,-3.48 15.92,-3.69 23.33,-6.38 7.38,-2.72 12.29,-6.25 18.75,-9.64 15,-7.91 38.95,-7.96 53.47,1.14 -4.96,7.39 -16.41,9.4 -24.2,13.55 -9.84,5.27 -17.46,6.1 -28.68,6.72 -12.64,0.7 -26.42,-0.72 -37.51,6.9 -8.11,5.62 -19.82,22.05 -21.31,31.83 18.48,7.37 41.1,-3.14 59.01,-3.77 1.67,13.05 8.1,32.34 1.73,45.06 -8.44,16.8 -27.14,19.01 -43.97,20.46 -12.88,1.08 -30.75,10.38 -31.48,24.63 -0.51,9.83 8.23,24.37 18.4,13.91 -4.01,-10.08 11.62,-19.38 17.5,-12.02 8.44,10.55 -9.08,14.15 -12.66,17.25 -11.95,10.45 4.07,24.34 9.99,34.56 6.25,10.84 10.22,20.74 10.88,33.27 0.82,15.52 -4.13,27.01 -16.27,37.89 -6.58,5.89 -18.88,17.77 -26.62,20.89 -11.75,4.79 -27.53,1.48 -39.33,6.61 -9.97,4.32 -10.12,18.56 -8.97,29.32 -8.34,-5.53 -30.37,-33.35 -39.15,-10.4 -4.95,12.96 7.2,26.53 18.38,14.05 2.24,3.36 11.58,14.55 16.13,15.26 4.42,0.69 6.99,-3.75 11.76,-4.72 6.48,-1.32 11.08,3.19 17.72,3.46 4.38,0.26 9.67,-1.54 13.98,-2.78 10.87,-3.1 16.79,-8.47 23.9,2.69 2.97,4.62 5.66,10.99 3.04,15.08 -7.66,12.17 -42.93,4.2 -54,4.72 -0.23,3.35 0.86,9.08 -0.01,12.26 -1.13,4.15 -4.71,6.36 -5.94,10.53 -2.47,8.35 4,16.5 3.8,24.58 -0.8,29.92 -27.43,51.25 -52.86,62.09 -19.55,-18.98 -40.96,-37.1 -64.68,-52.95 -102.65,-68.68 -179.46,-74.29 -200.2,-95.68 -10.54,-10.85 -14.52,-24.55 -14.85,-38.91 -0.33,-15.4 3.57,-31.57 8.2,-45.8 7.01,-21.54 48.25,-161.77 86.77,-293.48 10.29,1.27 21.07,5.86 29.17,9.84 -1.13,-3.84 -4.58,-6.24 -6.99,-10.05"
           inkscape:connector-curvature="0"
           id="path122"
           style="fill:#dc7c96;fill-opacity:1;fill-rule:nonzero;stroke:none" /><path
           d="m 1569.01,3316.71 c -0.85,3.54 -6.67,12.49 -10.16,14.3 -3.25,1.72 -10.83,-1.53 -12.23,1.04 -3.42,6.35 12.25,1.51 13.85,1.93 9.54,2.43 3.71,13.41 1.26,19.22 4.07,0.4 8.64,0 12.44,0.57 -3.77,10.48 6.87,15.44 8.58,25.88 1.43,9.14 -7.13,15.28 -12.8,21.76 -7.55,8.6 -14.93,16.92 -27.16,17.16 -5.74,0.12 -20.14,-4.72 -24.06,1.98 4.97,5.51 11.89,6.69 14.59,13.09 0.91,2.3 3.17,10.35 2.45,12.35 -3.76,10.09 -39.36,-6.53 -46.1,-13.2 3.19,-6.09 9.04,-4.23 13.53,-7.34 3.35,-2.31 3.84,-4.87 5.3,-8.17 3.63,-8.5 10.59,-5.92 18.25,-9.84 6.82,-3.46 16.47,-7.41 22.02,-12.98 2.94,-2.92 10.48,-23.83 1.13,-19.5 -1.99,-5.96 1.4,-12 -2.14,-17.72 -4.26,-6.86 -9.45,-11.07 -10.96,-19.4 -0.68,-3.87 -0.66,-29.72 8.6,-25.34 l -1.38,5.2 c 1.32,0.91 3.01,0.84 4.32,2.1 2.78,-2.45 10.19,-5.68 13.84,-7.43 5.57,-2.69 8.47,-2.33 6.83,4.34"
           inkscape:connector-curvature="0"
           id="path124"
           style="fill:#dc7c96;fill-opacity:1;fill-rule:nonzero;stroke:none" /><path
           d="m 1451.46,3446.54 c 12.34,-3.32 30.18,-17.75 39.84,-5.94 -4.64,3.76 -8.05,3.6 -13.38,4.47 -6.72,1.12 -12.35,3.1 -19.47,5.53 2.86,2.69 6.81,4.26 9.71,7.17 -6.37,4.69 -19.85,0.32 -27.56,0.9 -4.81,0.35 -8.76,1.51 -12.86,2.76 -3.53,-3.67 -6.97,-7.37 -10.66,-10.99 11.26,1.5 24.44,-1.23 34.38,-3.9"
           inkscape:connector-curvature="0"
           id="path126"
           style="fill:#dc7c96;fill-opacity:1;fill-rule:nonzero;stroke:none" /><path
           d="m 1517.14,3511.41 c -8.71,12.92 -19.76,19.06 -20.13,32.93 -6.35,-8.5 -13.05,-17.25 -20.09,-26.18 14.92,0.7 26.59,-3.53 40.22,-6.75"
           inkscape:connector-curvature="0"
           id="path128"
           style="fill:#dc7c96;fill-opacity:1;fill-rule:nonzero;stroke:none" /><path
           d="m 1419.64,2880.65 c 2.62,-2.97 5.12,-6.1 8.18,-8.57 3.9,-3.19 5.95,-3.59 10.6,-4.5 -0.58,8.06 7.5,13.25 0.37,20.5 -5.64,5.74 -20.11,9.72 -27.23,8.13 l -0.04,-0.85 c -0.82,-4.2 4.27,-10.32 8.12,-14.71"
           inkscape:connector-curvature="0"
           id="path130"
           style="fill:#dc7c96;fill-opacity:1;fill-rule:nonzero;stroke:none" /><path
           d="m 1791.6,3091.88 c -0.91,0.71 -1.07,1.23 -1.07,1.23 -4.81,3.03 -6.76,4.85 -1.26,8.64 -2.67,3.38 -4.66,7.11 -7.34,10.17 -0.59,-1.05 -1.68,-1.79 -2.14,-3.19 -0.65,5.06 -2.1,11.94 -7.56,10.05 -5.92,-2.08 -3.58,-8.48 -1.05,-12.64 4.66,-7.6 10.82,-15.68 20.42,-14.26"
           inkscape:connector-curvature="0"
           id="path132"
           style="fill:#dc7c96;fill-opacity:1;fill-rule:nonzero;stroke:none" /><path
           d="m 1817.53,3122 c -7.09,-2.41 -13.22,-9.3 -9.07,-16.08 1.36,-2.22 3.07,-3.54 4.94,-4.39 5.89,6.38 11.55,12.52 16.96,18.39 -4.62,2 -9.1,3.37 -12.83,2.08"
           inkscape:connector-curvature="0"
           id="path134"
           style="fill:#dc7c96;fill-opacity:1;fill-rule:nonzero;stroke:none" /><path
           d="m 1742.81,3045.38 c -8.28,0.71 -8.73,5.49 -6.45,10.44 4.14,8.99 37.88,20.05 24.29,35.92 -3.68,-15.63 -32.8,-25.02 -28.52,-40.65 1.57,-5.66 7.42,-11.22 9.7,-17.09 0.74,-1.89 1.33,-4.83 2.13,-7.63 6.24,6.73 12.4,13.39 18.42,19.91 -2.33,2.55 -1.2,4.71 -2.7,11.48 -5.58,-4.95 -9.07,-13.05 -16.87,-12.38"
           inkscape:connector-curvature="0"
           id="path136"
           style="fill:#dc7c96;fill-opacity:1;fill-rule:nonzero;stroke:none" /><path
           d="m 1720.65,3047.56 c -2.76,3.73 -7.25,6.11 -11.52,4.5 -3.58,3.33 -12.7,6.48 -15.09,10.73 -4.07,7.32 5.34,10.65 5.47,16.39 0.2,7.49 -2.32,5.78 -9.77,6.48 -3.65,0.36 -17.98,0.91 -19.99,-1.5 -2.2,-2.63 1.36,-16.18 0.74,-20.73 -1.02,-7.65 -4.54,-14.09 -5.05,-21.86 -0.48,-7.07 -6.26,-25.76 -1.26,-31.67 -2.59,-2.88 -6.4,-4.54 -10.06,-5.66 4.59,-12.77 18.66,-23.18 30.7,-27.74 5.42,-2.07 9.17,-1.83 12.71,-0.31 10.35,11.18 20.52,22.17 30.56,33.01 -3.47,4.92 -3.99,7.98 -5.84,13.91 -3.12,9.94 -13.33,15.98 -1.6,24.45"
           inkscape:connector-curvature="0"
           id="path138"
           style="fill:#dc7c96;fill-opacity:1;fill-rule:nonzero;stroke:none" /><path
           d="m 1332.64,3655.54 c -12.19,-2.54 -24.08,-13.94 -36.5,-12.88 2.61,-9.55 21.45,-27.85 32.57,-29.36 l -4.74,4.56 c 8.85,15.67 -2.12,25.1 24.53,23.75 16.21,-0.85 27.15,-4.39 41.9,-10.06 -4.68,15.61 -42.25,27.2 -57.76,23.99"
           inkscape:connector-curvature="0"
           id="path140"
           style="fill:#529bb0;fill-opacity:1;fill-rule:nonzero;stroke:none" /><path
           d="m 909.105,3694.44 c 3.821,3.04 7.641,6.61 11.348,10.77 -3.605,3.76 -7.742,7.65 -11.793,11.14 2.336,0.77 6.891,4.41 9.938,5.08 -10.09,5.2 -26.075,-10.02 -27.321,-17.52 -1.289,-7.74 9.02,-16.43 5.293,-24.77 -2.121,-4.65 -11.941,3.23 -12.836,-8.69 -1.703,0.84 -3.691,1.55 -5.375,2.56 -3.609,-4.89 -3.179,-8.79 0.977,-13.77 -7.32,-1.82 -13.52,0.71 -20.879,-1.92 1.781,-2.75 4.262,-4.59 7.094,-6.18 l -1.196,4.35 c 7.965,-6.15 43.614,-20.05 52.286,-12.21 10.199,9.27 -2.293,41.17 -7.536,51.16"
           inkscape:connector-curvature="0"
           id="path142"
           style="fill:#529bb0;fill-opacity:1;fill-rule:nonzero;stroke:none" /><path
           d="m 1086.52,3519.78 c -0.36,0.02 -0.65,0.23 -1.01,0.27 -0.89,1.28 -1.48,2.57 -1.62,3.76 z m 323.06,71.15 c -3.25,1.69 -19.48,-2.92 -22.19,-6.54 -7.32,-9.8 3.8,-13.62 -0.38,-25.39 -16.07,15.57 -33.56,31.2 -53.47,42.49 1.48,-3.1 1.15,-6.84 2.21,-9.8 -3.73,1.41 -7.21,2.87 -10.86,4.27 0.46,-1.77 -1.89,-0.96 -2.11,-1.8 l 1.94,-2.98 c -0.21,0 -0.45,0.02 -0.7,0.02 -3.14,1.4 -6.25,2.87 -9.26,4.42 1.38,1.78 2.26,2.62 3.13,3.09 -3,1.19 -6.17,2.3 -9.08,3.57 -2.91,0.16 -6.56,1.52 -9.42,4.22 0.06,0.05 0.1,0.15 0.16,0.19 -2.1,1.09 -4.14,2.19 -6.12,3.37 -15.24,9 -23.3,7.14 -39.12,7.53 8.14,8.7 2.58,16.4 -6.89,20 -7.97,-15.86 -2.59,-11.83 -19.72,-14.01 -10.79,-1.34 -18.04,-6.97 -26.71,3.5 -1.04,-1.82 -3.16,-3.99 -3.97,-5.94 -9.13,6.46 -10.92,21.82 -13.76,32.95 16.06,-4.63 19.63,-24.48 35.32,-30.62 12.82,9.4 5.72,20.2 -2.54,30.06 -7.67,9.16 -24.42,30.87 -35.02,35.29 l -8.11,8.3 c -5.71,6.24 -11.35,20.49 -19.37,24.07 -5.12,2.26 -11.68,-1.31 -16.24,-0.11 -23.29,6.15 -24.24,18.03 -48.21,9.44 -24.05,-8.62 -47.87,-13.3 -73.26,-18.21 -11.01,-2.12 -21.967,0.3 -30.264,-8.72 -7.746,-8.43 -7.929,-22.19 -0.222,-29.31 10.297,-9.44 21.776,-1.63 28.066,-11.07 5.89,-8.89 2.44,-27.37 -10.63,-23 -13.26,-13.5 24.68,-17.6 33.54,-11.61 5.43,3.63 9.26,10.55 13.74,13.67 4.27,2.99 11.98,1.67 16.07,9.57 6.66,12.84 -1.56,24.7 20.29,28.34 13.98,2.35 31.51,0.4 44.39,-5.01 -6.67,-15.38 -29.84,-5.62 -39.48,-17.6 -12.54,-15.58 7.07,-25.74 18.95,-31.15 11.88,-5.4 36.29,-25.41 10.51,-15.11 -6.32,2.55 -18.05,18 -25.72,11.13 -4.1,-3.67 2,-13.03 -1.76,-18.92 -21.07,1.53 -10.68,21.74 -28.15,4.8 -16.07,-15.6 -10.53,-8.53 -31.96,1.89 -9.05,4.38 -37.677,7.8 -42.747,18.78 -3.961,8.56 9.527,18.66 13.567,27.01 -7.223,2.16 -15.258,3.59 -20.993,-2.45 -4.547,-4.87 -1.371,-16.89 -3.261,-18.3 -5.059,-3.73 -13.161,2.63 -18.942,3.46 -8.398,1.22 -13.386,0.07 -22.449,-2.21 -12.457,-3.13 -27.215,-11.24 -40.762,-11.13 -11.086,0.1 -13.906,6.03 -22.629,9.48 -6.562,2.62 -13.785,0.94 -19.812,4.59 6.344,-20.12 22.851,-33.21 -0.176,-48.32 -17.734,-11.66 -28.355,6.44 -44.828,14.67 -20.676,10.3 -19.449,-4.27 -32.414,-17.24 -7.613,-7.66 -23.379,-12.99 -18.285,-28.98 4.812,-15.15 23.484,-21.08 35.961,-24.35 21.215,-5.48 22.015,-6.7 38.16,5.68 13.265,10.21 24.594,5.79 37.715,11.4 7.535,3.19 6.445,9.85 16.234,9.22 6.742,-0.44 15.895,-9.79 22.852,-11.82 15.765,-4.66 19.527,1.15 25.386,-17.41 3.891,-12.3 5.528,-18.7 12.082,-29.7 5.028,-8.44 7.692,-21.27 -4.246,-27.88 -9.746,-5.39 -11.468,7.87 -22.574,1.32 5.488,-10.64 0.52,-26.36 19,-21.97 -1.82,-0.44 12.984,10.54 12.438,9.97 3.757,3.76 7.574,8.05 10.335,13.53 4.176,-4.17 6.524,-8.28 13.442,-10.82 10.598,19.17 -34.203,49.62 -22.024,72.69 13.032,-2.9 15.657,-24.07 21.723,-34.74 3.113,-5.51 11.219,-11.78 12.168,-17.95 1.039,-6.75 -3.508,-9.43 -4.25,-16 -1.066,-9.75 1.883,-19.59 0.391,-29.02 -1.672,-10.54 -12.746,-20.42 5.527,-25.02 0.859,2.96 4.867,6.05 5.742,9.04 4.469,-3.05 9.339,-5.04 14.429,-5.85 5.89,11.5 -7.08,24.75 -0.55,36.46 16.47,-10.88 31.52,-11.56 45.55,-26.25 -10.88,1.03 -23.44,12.23 -31.53,0.08 -2.39,-3.61 0.41,-22.17 3.29,-25.99 -0.17,-0.19 38.8,-4.02 63.89,-5.2 13.28,-0.63 23.26,0.92 22.65,1.56 -1.57,1.66 -3.57,4.04 -4.39,5.91 -1.11,2.51 0.29,6.2 -0.94,8.87 -9.87,21.37 -36.02,4.18 -48.65,18.31 -22.34,24.99 33.46,53.25 45.94,31.2 -1.31,0.33 -2.81,0.41 -4.18,0.74 -2.92,-6.58 2.28,-10.93 3.21,-17.2 1.93,-0.53 19.7,-5.96 21.23,-5 6.71,4.14 -3.95,12.43 -7.57,15.66 3.28,11.25 23.08,-6.44 27.19,-9.93 -3.24,-3.26 -8.07,-5.81 -12.86,-6.41 3.26,-11.65 7.2,-17.35 15.14,-27.9 1.44,-1.92 180.4,106.81 240.1,148.4 11.87,8.27 24.51,25.99 24.09,26.36 -0.61,0.54 -1.27,1 -1.99,1.37"
           inkscape:connector-curvature="0"
           id="path144"
           style="fill:#529bb0;fill-opacity:1;fill-rule:nonzero;stroke:none" /><path
           d="m 1271.25,3625.37 c 5.33,-5.75 10.35,-5.52 12.73,1.3 -2.2,1.58 -5.01,3.72 -7.65,4.63 0,0 -3.61,-3.99 -5.08,-5.93"
           inkscape:connector-curvature="0"
           id="path146"
           style="fill:#529bb0;fill-opacity:1;fill-rule:nonzero;stroke:none" /><path
           d="m 1305.36,3602.25 -1.95,2.98 c 0.26,1 3.7,-0.54 1.77,2.82 -5.94,2.91 -6.06,3.48 -9.79,-1.36 3.02,-1.54 6.12,-3.01 9.26,-4.41 0.25,-0.01 0.49,-0.03 0.71,-0.03"
           inkscape:connector-curvature="0"
           id="path148"
           style="fill:#529bb0;fill-opacity:1;fill-rule:nonzero;stroke:none" /><path
           d="m 832.805,3506.88 c -12.035,2.48 -25.133,1.95 -36.715,6.37 -12.106,4.62 -15.375,16.3 -25.656,19.34 -11.661,3.41 -27.739,-2.37 -38.442,-6.65 -0.137,-0.05 -0.281,-0.14 -0.422,-0.19 51.66,-24.23 109.809,-52.41 160.91,-74.58 2.649,2.59 5.973,6.73 6.758,11.83 3.95,25.59 -48.84,40.28 -66.433,43.88"
           inkscape:connector-curvature="0"
           id="path150"
           style="fill:#529bb0;fill-opacity:1;fill-rule:nonzero;stroke:none" /><path
           d="m 1324.89,3595.96 c -0.09,0.31 -0.06,0.52 -0.34,1.02 -3.74,1.82 -5.18,2.53 -6.66,1.73 -0.87,-0.47 -1.75,-1.31 -3.13,-3.09 3.01,-1.55 6.12,-3.02 9.26,-4.42 0.25,0 0.49,-0.02 0.7,-0.02 l -1.94,2.98 c 0.22,0.84 2.57,0.03 2.11,1.8"
           inkscape:connector-curvature="0"
           id="path152"
           style="fill:#529bb0;fill-opacity:1;fill-rule:nonzero;stroke:none" /><path
           d="m 1086.52,3519.78 -2.63,4.03 c 0.14,-1.19 0.73,-2.48 1.62,-3.76 0.36,-0.04 0.65,-0.25 1.01,-0.27"
           inkscape:connector-curvature="0"
           id="path154"
           style="fill:#529bb0;fill-opacity:1;fill-rule:nonzero;stroke:none" /><path
           d="m 871.168,3706.73 c -5.012,1.81 -17.867,0.04 -23.348,0.5 2.192,-4.17 1.938,-10.59 2.903,-14.55 -6.368,1.12 -12.907,0.17 -15.618,-5.47 2.333,-1.64 5.223,-3.92 7.965,-4.82 2.434,-1.48 4.75,-1.87 7.047,-1.96 4.996,-0.2 9.887,1.51 15.66,0.28 2.067,4.51 5.899,8.7 8.012,13.15 0.797,0.02 1.266,0.15 1.914,0.23 10.758,1.23 2.902,9.99 -4.535,12.64"
           inkscape:connector-curvature="0"
           id="path156"
           style="fill:#529bb0;fill-opacity:1;fill-rule:nonzero;stroke:none" /><path
           d="m 1322.24,3658.54 c -12.19,-2.54 -24.08,-13.94 -36.5,-12.88 2.62,-9.56 21.45,-27.86 32.57,-29.37 l -4.73,4.57 c 8.85,15.67 -2.12,25.09 24.53,23.75 16.2,-0.85 27.15,-4.39 41.89,-10.06 -4.68,15.61 -42.25,27.2 -57.76,23.99"
           inkscape:connector-curvature="0"
           id="path158"
           style="fill:#abdbe6;fill-opacity:1;fill-rule:nonzero;stroke:none" /><path
           d="m 898.711,3697.44 c 3.816,3.03 7.641,6.61 11.348,10.76 -3.61,3.77 -7.747,7.66 -11.793,11.15 2.336,0.77 6.89,4.41 9.937,5.08 -10.094,5.19 -26.074,-10.02 -27.32,-17.52 -1.289,-7.74 9.019,-16.43 5.293,-24.77 -2.121,-4.65 -11.942,3.23 -12.836,-8.69 -1.703,0.84 -3.692,1.55 -5.375,2.56 -3.61,-4.89 -3.18,-8.79 0.976,-13.77 -7.32,-1.82 -13.519,0.71 -20.879,-1.92 1.782,-2.76 4.262,-4.6 7.094,-6.18 l -1.195,4.35 c 7.965,-6.16 43.613,-20.05 52.285,-12.21 10.199,9.27 -2.297,41.17 -7.535,51.16"
           inkscape:connector-curvature="0"
           id="path160"
           style="fill:#abdbe6;fill-opacity:1;fill-rule:nonzero;stroke:none" /><path
           d="m 1076.13,3522.77 c -0.37,0.02 -0.65,0.24 -1.01,0.28 -0.9,1.28 -1.48,2.57 -1.63,3.76 z m 323.06,71.16 c -3.25,1.69 -19.49,-2.92 -22.19,-6.54 -7.32,-9.8 3.79,-13.62 -0.38,-25.39 -16.07,15.57 -33.57,31.2 -53.48,42.48 1.48,-3.09 1.16,-6.83 2.22,-9.79 -3.73,1.41 -7.22,2.87 -10.87,4.27 0.46,-1.78 -1.88,-0.96 -2.11,-1.81 l 1.95,-2.97 c -0.21,0 -0.46,0.02 -0.7,0.02 -3.15,1.4 -6.25,2.87 -9.27,4.41 1.38,1.79 2.26,2.63 3.14,3.1 -3,1.19 -6.18,2.29 -9.09,3.57 -2.91,0.16 -6.55,1.52 -9.42,4.22 0.06,0.05 0.1,0.15 0.16,0.19 -2.09,1.09 -4.14,2.19 -6.11,3.37 -15.24,9 -23.3,7.14 -39.13,7.53 8.14,8.7 2.59,16.4 -6.89,20 -7.96,-15.86 -2.59,-11.83 -19.72,-14.02 -10.78,-1.33 -18.03,-6.96 -26.7,3.51 -1.04,-1.82 -3.17,-3.99 -3.97,-5.94 -9.13,6.46 -10.93,21.82 -13.77,32.95 16.06,-4.63 19.64,-24.48 35.32,-30.62 12.82,9.4 5.73,20.2 -2.54,30.05 -7.67,9.17 -24.41,30.87 -35.01,35.3 l -8.12,8.29 c -5.7,6.24 -11.34,20.5 -19.36,24.08 -5.13,2.26 -11.69,-1.31 -16.25,-0.11 -23.29,6.15 -24.24,18.03 -48.21,9.44 -24.04,-8.63 -47.86,-13.3 -73.26,-18.21 -11.004,-2.13 -21.961,0.3 -30.258,-8.72 -7.746,-8.43 -7.93,-22.19 -0.227,-29.31 10.297,-9.44 21.785,-1.63 28.075,-11.07 5.89,-8.89 2.44,-27.37 -10.633,-23 -13.262,-13.5 24.673,-17.6 33.543,-11.61 5.43,3.63 9.26,10.55 13.73,13.67 4.28,2.99 11.98,1.66 16.08,9.57 6.66,12.84 -1.57,24.7 20.28,28.34 13.98,2.34 31.52,0.4 44.4,-5.01 -6.67,-15.38 -29.85,-5.62 -39.48,-17.6 -12.55,-15.58 7.06,-25.74 18.95,-31.15 11.87,-5.41 36.28,-25.42 10.5,-15.11 -6.32,2.55 -18.05,18 -25.72,11.13 -4.09,-3.67 2,-13.04 -1.75,-18.93 -21.08,1.54 -10.68,21.75 -28.15,4.8 -16.07,-15.6 -10.54,-8.52 -31.97,1.89 -9.05,4.38 -37.671,7.81 -42.741,18.79 -3.961,8.56 9.527,18.66 13.562,27.01 -7.219,2.15 -15.258,3.58 -20.988,-2.46 -4.547,-4.86 -1.371,-16.89 -3.262,-18.29 -5.059,-3.73 -13.16,2.63 -18.941,3.46 -8.399,1.22 -13.387,0.07 -22.45,-2.21 -12.457,-3.13 -27.214,-11.24 -40.761,-11.13 -11.086,0.1 -13.907,6.03 -22.629,9.48 -6.563,2.61 -13.785,0.94 -19.817,4.59 6.344,-20.12 22.856,-33.21 -0.171,-48.32 -17.739,-11.66 -28.356,6.44 -44.832,14.67 -20.672,10.3 -19.45,-4.27 -32.411,-17.24 -7.613,-7.66 -23.379,-12.99 -18.289,-28.99 4.817,-15.14 23.489,-21.07 35.965,-24.34 21.215,-5.48 22.016,-6.71 38.156,5.68 13.27,10.21 24.598,5.79 37.715,11.39 7.535,3.2 6.449,9.86 16.239,9.23 6.742,-0.45 15.89,-9.79 22.851,-11.82 15.766,-4.66 19.524,1.14 25.387,-17.42 3.89,-12.29 5.523,-18.69 12.082,-29.69 5.023,-8.44 13.121,-23.53 1.183,-30.14 -9.746,-5.4 -16.902,10.13 -28.003,3.57 5.488,-10.63 0.515,-26.35 19,-21.96 -1.825,-0.44 12.984,10.54 12.433,9.97 3.762,3.76 7.574,8.04 10.34,13.53 4.176,-4.17 6.523,-8.28 13.441,-10.82 10.594,19.17 -34.203,49.62 -22.027,72.69 13.031,-2.9 15.66,-24.07 21.727,-34.74 3.113,-5.51 11.218,-11.79 12.168,-17.95 1.039,-6.75 -3.508,-9.44 -4.25,-16 -1.071,-9.75 1.878,-19.59 0.39,-29.02 -1.676,-10.54 -12.75,-20.42 5.528,-25.02 0.859,2.96 4.867,6.05 5.742,9.04 4.468,-3.05 9.336,-5.04 14.425,-5.85 5.898,11.5 -7.078,24.75 -0.542,36.46 16.46,-10.88 31.51,-11.57 45.55,-26.25 -10.88,1.03 -23.44,12.22 -31.54,0.07 -2.38,-3.6 0.41,-22.16 3.29,-25.98 -0.28,-0.31 -0.43,-0.87 -0.66,-1.27 19.09,-4.98 35.98,-8.15 50.55,-8.99 12.2,-0.7 26.37,0.53 41.28,2.65 -3.89,2.82 -7.38,6.15 -9.01,9.88 -1.11,2.51 0.28,6.2 -0.95,8.87 -9.87,21.37 -36.01,4.18 -48.64,18.31 -22.35,24.99 33.46,53.25 45.93,31.2 -1.31,0.33 -2.81,0.41 -4.17,0.74 -2.93,-6.59 2.27,-10.93 3.2,-17.2 1.93,-0.53 19.7,-5.96 21.24,-5 6.71,4.14 -3.95,12.43 -7.58,15.66 3.29,11.25 23.09,-6.44 27.19,-9.93 -3.24,-3.27 -8.07,-5.82 -12.85,-6.42 3.25,-11.65 7.2,-17.34 15.14,-27.89 1.72,-2.3 4.05,-6.93 5.28,-11.47 54.98,13.47 116.72,40 161.48,71.94 37.06,26.44 73.26,65.48 102.79,104.13 -1.37,5.35 -3.66,9.59 -7.35,11.53"
           inkscape:connector-curvature="0"
           id="path162"
           style="fill:#abdbe6;fill-opacity:1;fill-rule:nonzero;stroke:none" /><path
           d="m 1270.72,3632.57 c -2.54,-1.1 -5,-3.21 -6.47,-5.15 5.33,-5.75 10.35,-5.51 12.73,1.3 -2.19,1.58 -5.01,3.72 -7.64,4.63 l 1.38,-0.78"
           inkscape:connector-curvature="0"
           id="path164"
           style="fill:#abdbe6;fill-opacity:1;fill-rule:nonzero;stroke:none" /><path
           d="m 1299.12,3605.25 -1.95,2.98 c 0.26,1 3.7,-0.54 1.77,2.82 -5.94,2.91 -6.06,3.48 -9.79,-1.36 3.02,-1.54 6.12,-3.01 9.26,-4.41 0.25,-0.01 0.49,-0.03 0.71,-0.03"
           inkscape:connector-curvature="0"
           id="path166"
           style="fill:#abdbe6;fill-opacity:1;fill-rule:nonzero;stroke:none" /><path
           d="m 822.406,3509.88 c -12.031,2.48 -25.133,1.95 -36.715,6.37 -12.101,4.62 -15.375,16.29 -25.652,19.34 -11.66,3.41 -27.738,-2.37 -38.441,-6.65 -0.137,-0.05 -0.286,-0.14 -0.422,-0.19 51.66,-24.23 110.429,-51.22 161.535,-73.38 2.644,2.59 5.348,5.52 6.133,10.63 3.949,25.59 -48.84,40.28 -66.438,43.88"
           inkscape:connector-curvature="0"
           id="path168"
           style="fill:#abdbe6;fill-opacity:1;fill-rule:nonzero;stroke:none" /><path
           d="m 1314.49,3598.96 c -0.09,0.3 -0.06,0.52 -0.33,1.02 -3.74,1.82 -5.19,2.53 -6.66,1.73 -0.88,-0.47 -1.76,-1.31 -3.14,-3.1 3.02,-1.54 6.12,-3.01 9.27,-4.41 0.24,0 0.49,-0.02 0.7,-0.02 l -1.95,2.97 c 0.23,0.85 2.57,0.03 2.11,1.81"
           inkscape:connector-curvature="0"
           id="path170"
           style="fill:#abdbe6;fill-opacity:1;fill-rule:nonzero;stroke:none" /><path
           d="m 1076.13,3522.77 -2.64,4.04 c 0.15,-1.19 0.73,-2.48 1.63,-3.76 0.36,-0.04 0.64,-0.26 1.01,-0.28"
           inkscape:connector-curvature="0"
           id="path172"
           style="fill:#abdbe6;fill-opacity:1;fill-rule:nonzero;stroke:none" /><path
           d="m 860.77,3709.73 c -5.008,1.81 -17.864,0.04 -23.344,0.5 2.187,-4.17 1.933,-10.59 2.902,-14.56 -6.367,1.13 -12.906,0.18 -15.617,-5.46 2.332,-1.64 5.223,-3.92 7.965,-4.82 2.429,-1.48 4.75,-1.87 7.047,-1.97 4.996,-0.19 9.886,1.52 15.66,0.29 2.062,4.5 5.894,8.7 8.012,13.15 0.793,0.02 1.261,0.15 1.914,0.23 10.753,1.23 2.898,9.99 -4.539,12.64"
           inkscape:connector-curvature="0"
           id="path174"
           style="fill:#abdbe6;fill-opacity:1;fill-rule:nonzero;stroke:none" /></g></g></g></g></svg>
