<svg xmlns='http://www.w3.org/2000/svg' viewBox="77 210 59 40" width="10">
  <path style="fill: rgb(216, 216, 216); stroke: rgb(64, 64, 64);"
    d="M 81 211 L 132 211
       A 3 3 0 0 1 135 214
       L 135 230
       A 3 3 0 0 1 132 233

       L 116 233
       L 116 243
       A 3 3 0 0 1 113 246

       L 100 246
       A 3 3 0 0 1 97 243

       L 97 233

       L 81 233
       A 3 3 0 0 1 78 230

       L 78 214
       A 3 3 0 0 1 81 211

       Z"></path>
  <rect x="82" y="215" rx="3" width="13" height="14" style="fill: rgb(240, 240, 240); stroke: rgb(64, 64, 64);"></rect>
  <rect x="100" y="215" rx="3" width="13" height="14" style="fill: rgb(240, 240, 240); stroke: rgb(64, 64, 64);"></rect>
  <rect x="118" y="215" rx="3" width="13" height="14" style="fill: rgb(240, 240, 240); stroke: rgb(64, 64, 64);"></rect>
</svg>
