<?xml version="1.0" encoding="utf-8"?>
<!-- Generator: Adobe Illustrator 19.1.0, SVG Export Plug-In . SVG Version: 6.00 Build 0)  -->
<svg version="1.1" id="Layer_1" xmlns="http://www.w3.org/2000/svg" xmlns:xlink="http://www.w3.org/1999/xlink" x="0px" y="0px"
	 width="68px" height="78px" viewBox="0 0 68 78" style="enable-background:new 0 0 68 78;" xml:space="preserve">
<style type="text/css">
	.st0{fill:#878A8E;}
	.st1{fill:#ACB4BE;}
</style>
<symbol  id="Light_Keyboard_Secondary_Inactive" viewBox="0 -78 52 78">
	<path class="st0" d="M48.9-74.8c-0.2-0.1-0.4-0.2-0.6-0.4c-1-0.5-2.1-0.8-3.3-0.8H7c-1.2,0-2.3,0.3-3.3,0.8
		c-0.2,0.1-0.4,0.2-0.6,0.4c-1.7,1.1-2.8,3-3.1,5.1c0,0.2,0,0.5,0,0.7v-2c0-3.9,3.1-7,7-7h38c3.9,0,7,3.1,7,7v2c0-0.2,0-0.5,0-0.7
		C51.7-71.8,50.6-73.7,48.9-74.8z"/>
	<g>
		<path class="st1" d="M45-76H7c-3.9,0-7,3.1-7,7v62c0,3.9,3.1,7,7,7h38c3.9,0,7-3.1,7-7v-62C52-72.9,48.9-76,45-76z"/>
	</g>
</symbol>
<g>
	
		<use xlink:href="#Light_Keyboard_Secondary_Inactive"  width="52" height="78" x="0" y="-78" transform="matrix(1.3077 0 0 -1 -1.277043e-03 0)" style="overflow:visible;"/>
</g>
<path d="M53.9,38C53.4,27.8,45.2,19.6,35,19.1V19h-2v0.1C22.8,19.6,14.6,27.8,14.1,38H14v2h0.1c0.5,10.2,8.7,18.4,18.9,18.9V59h2
	v-0.1c10.2-0.5,18.4-8.7,18.9-18.9H54L53.9,38L53.9,38z M45,38c-0.1-2.7-0.4-5.3-1.1-7.6c1.6-0.9,3-2,4.3-3.2
	c2.5,3,4.1,6.8,4.3,10.9H45z M42.1,29.6c-2.2,1.1-4.6,1.7-7.1,1.9V20.6C38,21.3,40.6,24.7,42.1,29.6z M33,20.6v10.8
	c-2.5-0.1-5-0.8-7.1-1.9C27.4,24.7,30,21.3,33,20.6z M33,32.9V38h-8.5c0.1-2.5,0.4-4.8,0.9-6.9C27.8,32.2,30.3,32.8,33,32.9z M33,40
	v6c-2.6,0.1-5.1,0.8-7.3,1.8c-0.7-2.4-1.1-5-1.2-7.8H33z M33,47.5v9.8c-2.8-0.6-5.3-3.7-6.8-8.1C28.3,48.3,30.6,47.7,33,47.5z
	 M35,57.4v-9.8c2.4,0.1,4.7,0.7,6.8,1.7C40.3,53.7,37.8,56.8,35,57.4z M43.2,50c1.2,0.7,2.4,1.5,3.4,2.5c-2.1,2-4.7,3.5-7.6,4.3
	C40.7,55.2,42.1,52.9,43.2,50z M35,46v-6h8.5c-0.1,2.8-0.5,5.5-1.2,7.8C40.1,46.8,37.6,46.2,35,46z M35,38v-5.1
	c2.7-0.1,5.2-0.8,7.5-1.9c0.5,2.1,0.9,4.5,0.9,6.9H35z M47.6,26.6c-0.2-0.2-0.3-0.4-0.5-0.6c-1.1,1.1-2.3,2.1-3.7,2.9
	c-1.1-3.3-2.6-5.9-4.5-7.7C42.4,22.2,45.3,24,47.6,26.6z M29,21.2c-1.9,1.7-3.4,4.4-4.5,7.7c-1.3-0.8-2.6-1.8-3.7-2.9
	c-0.2,0.2-0.3,0.4-0.5,0.5C22.7,24,25.6,22.2,29,21.2z M19.8,27.1c1.3,1.3,2.7,2.3,4.3,3.2c-0.6,2.3-1,4.9-1.1,7.6h-7.5
	C15.8,33.9,17.3,30.1,19.8,27.1z M15.6,40H23c0.1,3.1,0.5,6,1.3,8.5c-1.4,0.8-2.8,1.8-4,2.9c0.3,0.4,0.7,0.7,1.1,1.1
	c1-1,2.2-1.8,3.4-2.5c1,2.9,2.5,5.2,4.2,6.8C21.5,54.7,16,48,15.6,40z M46.6,52.5c0.4-0.3,0.7-0.7,1.1-1.1c-1.2-1.1-2.5-2.1-4-2.9
	c0.8-2.6,1.2-5.5,1.3-8.5h7.5C52.2,44.9,50,49.3,46.6,52.5z"/>
<g>
</g>
<g>
</g>
<g>
</g>
<g>
</g>
<g>
</g>
<g>
</g>
<g>
</g>
<g>
</g>
<g>
</g>
<g>
</g>
<g>
</g>
<g>
</g>
<g>
</g>
<g>
</g>
<g>
</g>
<g>
</g>
<g>
</g>
<g>
</g>
</svg>
