<?xml version="1.0" encoding="utf-8"?>
<!-- Generator: Adobe Illustrator 19.1.0, SVG Export Plug-In . SVG Version: 6.00 Build 0)  -->
<svg version="1.1" id="Layer_1" xmlns="http://www.w3.org/2000/svg" xmlns:xlink="http://www.w3.org/1999/xlink" x="0px" y="0px"
	 width="72px" height="53.7px" viewBox="0 0 72 53.7" style="enable-background:new 0 0 72 53.7;" xml:space="preserve">
<style type="text/css">
	.st0{fill:#CFCEC8;}
	.st1{fill:#69B8D4;}
	.st2{fill:#BA2034;}
	.st3{fill-rule:evenodd;clip-rule:evenodd;fill:#BFBEB6;}
	.st4{fill:#F58721;}
	.st5{fill:#8F8E7F;}
	.st6{fill:#FFFFFF;}
	.st7{fill:#BFBEB6;}
	.st8{fill:#FBBF88;}
	.st9{fill-rule:evenodd;clip-rule:evenodd;fill:#FFFFFF;}
	.st10{fill-rule:evenodd;clip-rule:evenodd;fill:#8F8E7F;}
	.st11{fill:#A5CFE1;}
	.st12{fill:#CDCCC6;}
	.st13{fill-rule:evenodd;clip-rule:evenodd;fill:#CFCEC8;}
</style>
<g>
	<g>
		<path class="st0" d="M39,17.6c0.2,0,0.4-0.1,0.5-0.3c-0.2-0.1-1-0.9-1.1-0.4c0.2,0.1,0.6,0.5,0.3,0.6c-0.1,0-0.8-0.2-0.9-0.2
			c0-0.3-0.2-0.4-0.1-0.7l0.2,0C37.3,15.8,35.1,17,36,18c0.5,0.6,1.6-0.1,2,0.8c0,0.1,0,0.3,0,0.4c0.1,0.2,0.2,0.3,0.4,0.4
			c0.5-0.1,0.9-0.2,1.4-0.3c0-0.2-0.1-0.4-0.2-0.5C39.2,18.4,39.1,18.1,39,17.6z"/>
		<path class="st1" d="M46.2,11l-0.4-0.2l0,0C45.9,10.9,46,11,46.2,11z"/>
		<path class="st2" d="M71.1,22.7C70.4,22,60.3,11.1,59.8,10.5C60.3,11.1,70.4,22,71.1,22.7z"/>
		<path class="st3" d="M65.4,31.7c-0.1-0.2-0.2-0.4,0.1-0.5c0.2-0.1,0.3,0.2,0.3,0.4c0-0.1,0.1-0.1,0.1-0.1c0.1,0.1,0.2,0.3,0.3,0.4
			c-0.2,0.2-0.1,0.2,0.1,0.4l0-0.1c0,0,0,0.1,0.1,0.1C65.9,32.4,65.6,32,65.4,31.7z M63.5,31.3c-0.1,0-0.1-0.1-0.3-0.1
			c-0.1,0-0.4,0-0.5-0.1c-0.2,0.1-0.2,0.3-0.2,0.4l-0.1-0.3c-0.1-0.1-0.2-0.5,0-0.6c0.1-0.2,0.5-0.2,0.4-0.6
			c-0.1-0.4-0.9-0.4-1.1-0.9l0.1,0c0.4,0.4,0.4,0.6,1,0.5c0.2,0.1,0.4,0.3,0.6,0.5c0.2,0.2,0.2,0.5,0.5,0.6
			C63.8,31,63.6,31.2,63.5,31.3z M62.2,30.3c-0.1,0.1-0.1,0-0.2,0.2c0,0,0.1,0.1,0,0.1c0,0-0.2,0.1-0.2,0c-0.1-0.1-0.1-0.2-0.1-0.3
			c0,0.1-0.1,0.2-0.1,0.2c-0.2-0.1-0.4-0.3-0.4-0.5c0.1,0,0.2-0.1,0.2,0c0.2,0,0.3,0,0.4,0c0-0.1,0-0.1,0-0.2c0.1-0.1,0.1,0,0.2,0.1
			c0.2,0.2,0,0.2,0.3,0.1C62.4,30.2,62.3,30.2,62.2,30.3z M60.4,29.7c0.2,0,0.4,0.2,0.4,0.4l0,0c-0.2,0.1-0.3,0-0.5-0.2
			c0,0,0-0.2-0.1-0.3c-0.2-0.1-0.4,0-0.6-0.1c-0.1-0.1-0.7-0.9-0.7-1c0.1-0.3,0.4-0.2,0.6-0.1c0.2,0.1,0.2,0.3,0.4,0.5
			c0.4,0.4,0.8,0.2,1.3,0c0.1,0.1,0.1,0.2,0.1,0.4c0.1,0,0.2,0.1,0.3,0.2C61.4,29.8,60.5,29.3,60.4,29.7z M60.8,32.2
			c-0.1-0.4,0-0.9-0.1-1.3c0.3,0,0.3,1,0.2,1.1l0.1,0C61,32.1,60.9,32.2,60.8,32.2z M51.9,41.7c-0.2,0-0.3-0.1-0.4-0.2
			c-0.1-0.1-0.2-0.2-0.3-0.4c-0.2-0.2-0.4-0.4-0.3-0.6v0c0.3-0.1,0.9,0.1,1.1,0.3C52.2,41.1,51.8,41.3,51.9,41.7z M57.4,21.5
			c-0.2,0-0.3,0-0.5,0c0.1,0.2,0.3,0.7-0.1,0.8c-0.1,0-0.7-0.2-0.6,0.1c0.1,0.1,0.4,0,0.5,0c0.1,0.1,0.4,0.5,0.4,0.6
			c0.1,0.3,0,0.3-0.3,0.2c-0.2-0.1-0.5-0.2-0.6-0.3c0,0.1-0.1,0-0.2,0.1l0.1,0.2c-0.4,0.2-0.4-0.9-0.3-1.1c0.1-0.3,0.3-0.5,0.5-0.8
			c0.1-0.2,0-0.5,0.1-0.7c0.4,0.2,0.1-0.7,0-0.8c-0.2-0.2-0.6-0.4-0.9-0.5c-0.3-0.2-0.6-0.1-0.8-0.4c-0.1-0.1-0.1-0.2-0.2-0.3
			c-0.2-0.1-0.4,0-0.5-0.3c0.3-0.3,1.7-1,1.9-0.5c0,0.1-0.1,0.4-0.1,0.5c-0.1,0.3-0.4,0.3-0.6,0.5c0.2,0.3,0.8,0.1,1,0.1
			c0.5,0,0.8,0.4,1.1,0.7c0.2,0.3,0.6,0.5,0.5,0.9C57.7,20.8,57.2,21,57.4,21.5z M57.4,27.5c-0.3,0-0.9-0.8-0.6-1H57
			C57.1,26.7,58,27.6,57.4,27.5z M71.1,22.7C70.4,22,60.3,11.1,59.8,10.5c-0.8-0.9-1.4-0.8-2-0.9c-0.8,0-1.9,1.7-3.5,3.9
			c0,0.6,0.5,0.8,0.8,1.4c-0.6-0.1-1-0.3-1.6-0.3c-0.6,0.8-1.3,1.6-2,2.3c0.2,0.1,0.3,0.1,0.5,0.1c0.3,0,0.9-0.2,1.1,0
			c-0.1,0.1-0.3,0.2-0.4,0.3c0.3,0.1,0.5,0.2,0.8,0.2c0.2,0,0.4,0,0.5,0.2c-0.4,0.5-1.1-0.1-1.6-0.2c-0.4-0.1-0.9-0.2-1.4-0.2
			l-0.1,0.1c1,0.5,2.1,1.3,2.2,2.6c0,0.3-0.3,0.7-0.2,1c0,0.2,0.2,0.3,0.2,0.4c0,0.1,0,0.4,0,0.5c0.5,0,1.9-0.3,2.2,0.2
			c0.1,0.2,0,0.4-0.1,0.6c-0.3,0.5-0.5,0.2-1,0.1c-0.2-0.1-0.4-0.1-0.6-0.1c-0.3,0-0.5,0.2-0.7,0.1c-0.2,0-0.3-0.2-0.5-0.2
			c-0.2,0-0.6,0.5-0.7,0.6c-0.5-0.5-1,0-0.8,0.6c0.4,1,1.2-0.2,1.6-0.4c0,0.5,0,1,0.4,1.2c0.5,0.2,1.1,0.1,1.6,0.3
			c0.3,0.1,0.8,0.6,1.1,0.9c0.5,0.4,0.7,0.9,0.7,1.6c0,0.5-0.2,0.9-0.4,1.4c-0.2,0.4-0.9,1-0.4,1.4c0.2,0.1,0.9,0.3,0.5,0.7
			c-0.2,0.3-0.9-0.1-0.7-0.5c-0.4-0.4-0.8,0.2-0.8,0.6c0,0.6,0.8,1,1.3,1c0.7,0.1,1.5,0.2,1.8,0.9c0.3,0.5,0,1.3-0.1,1.9
			c-0.7,0-1.7-0.5-2.4-0.2c0.1,0.4,0.5,1.1,0.9,1.3c0.5,0.3,1,0.3,1.5,0.3c0.5,0,0.8,0.1,1.2,0.3c0.3,0.2,0.8,0.2,1,0.6
			c-0.6,0.4-1.6,0.4-2.2,0c-0.3-0.1-0.5-0.3-0.8-0.4c-0.3-0.1-0.7-0.1-0.9-0.3c-0.5-0.2-0.7-0.9-1.1-1.1c-0.4-0.3-1-0.6-1.5-0.7
			c-0.2,0.9-0.5,0.4-1.1,0.1c-0.5-0.3-1.3-0.4-1.8-0.4c-0.4,0-0.3-0.1-0.5,0.3c-0.1,0.2-0.3,0.4-0.3,0.7c0,0.4,0,0.7,0,1.1
			c-0.1,0.6-0.3,1.8,0,2.4c0.4,0.8,1.3,1.2,1.3,2.1c0,0.2,0,0.4-0.2,0.6c-0.4,0-0.8-0.3-1.2-0.5c-0.5-0.2-1-0.4-1.6-0.7
			c-0.5-0.2-1.1-0.4-1.5-0.9c-0.3-0.3-0.6-0.6-1-0.9c0,0.3,0,0.6-0.1,0.9c-0.3,0-0.7,0-0.9-0.2c0.1-0.2,0.2-0.3,0.3-0.4
			c-0.3,0.2-0.8,0.4-1.2,0.4c1.4,5,2.8,9.7,2.9,10.1c0.3,1.2,1.1,1.8,2,1.9c0.7,0,1.5-0.3,2.1-0.9c0.6-0.7,5.3-5.8,10-10.9h-0.1
			c-0.6,0-1.1-0.3-1.6-0.4c-0.3-0.1-0.4-0.2-0.6-0.3c-0.3-0.2-0.4-0.1-0.8-0.1c-0.3,0-1.1,0-1.3-0.3l-0.2-0.2c0.2,0.1,0.3,0,0.5-0.1
			c0.4-0.2,0.6-0.2,1-0.1c0.4,0,0.9,0,1.3,0c0.3,0,0.8,0,1.1,0.1c0.1,0,0.1,0.2,0.2,0.2c0.1,0,0.2-0.1,0.3-0.1
			c0.1,0,0.3,0.2,0.5,0.1c-0.1-0.2,0.2-0.1,0.3,0c0.1,0,0.3,0,0.4,0.1l0,0l1-1.2c-0.1,0.1-0.3,0.1-0.5,0c-0.5-0.2-1.1-0.6-1.2-1.1
			c0.2,0,0.3-0.1,0.4-0.2c-0.2-0.2,0-1,0-1.3c0-0.3,0.2-0.6,0.2-0.9c0-0.2-0.1-0.8,0-0.9c0.1-0.1,0.7-0.1,0.8-0.1
			c0.3,0,0.4,0,0.4,0.3c0,0.2-0.4,0.4-0.2,0.7c0.1,0.2,0.5,0.3,0.6,0.4c0.2-0.1,0.4,0,0.5,0.2c-0.5,0.3-0.1,0.6,0.1,1
			c0.1,0.2,0.1,0.4,0.2,0.6l0.6-0.7c0-0.1-0.1-0.2-0.1-0.3c-0.1-0.2-0.3-0.5-0.4-0.7c-0.2-0.6,1-1,1.2-1.7c0.5,0.7-0.8,1.1-1,1.5
			c-0.1,0.2-0.1,0.4,0.3,0.4c0.3,0,0.5-0.3,0.7-0.5c0.1,0.3,0,0.4,0.1,0.5l2.1-2.3c-0.1,0-0.2-0.1-0.2-0.2c-0.2-0.3,0.1-0.6,0.4-0.7
			c0.2,0,0.3,0,0.5,0.1c1.5-1.7,2.6-2.9,2.7-3c0.4-0.5,1.4-1.9,1.4-2.9C72,24.7,71.7,23.4,71.1,22.7z"/>
		<path class="st4" d="M41.5,49.7l0.2,2C41.8,51.2,41.7,50.5,41.5,49.7z"/>
		<path class="st5" d="M26.1,33.2c-0.6-0.4-1,0.4-1.1,0.9c0.1,0.1,0.2,0.2,0.2,0.3C25.6,34.1,25.9,33.7,26.1,33.2z"/>
		<polygon class="st4" points="25.2,34.5 25.2,34.4 25.1,34.4 		"/>
		<path class="st4" d="M32.6,30.9c0.1,0,0.3,0,0.4,0l-0.9,0C32.3,30.9,32.5,30.9,32.6,30.9z"/>
		<path class="st5" d="M17.5,29.9c0.1-0.3,0.3-0.9,0.2-1.2c0-0.1,0-0.1-0.1-0.1c-0.1-0.2-0.2-0.2-0.5-0.4c-0.4-0.3-0.4-0.9-0.7-1.1
			c-0.2-0.2-0.7-0.2-1-0.3c-0.9-0.3-1.9-0.2-2.7-0.6l-0.2-0.1c-0.6-0.4-1-0.6-1.3-1.4c-0.3-0.8-0.4-1.6-0.7-2.4
			c-0.2-0.8-0.3-1.4,0.1-2.2c0.2-0.4,0.5-0.6,0.6-1.1c0.1-0.4,0-0.6,0.2-0.9c0.4-0.5,1-0.8,1.5-1.2c0.3-0.2,0.6-0.6,0.9-0.8
			c0.3-0.2,0.7-0.2,1-0.4v0c0.1,0,0.1-0.1,0.1-0.2c0.1-0.1,0.2-0.2,0.3-0.3l0-0.1c-0.8-0.3-1.3-0.6-1.5-0.6
			c-0.3-0.1-0.7-0.2-1.1-0.2c-0.7,0-1.4,0.2-2.2,1.2C9.4,17.1,0.6,31.2,0.2,32C0.1,32.3,0,32.8,0,33.3c0,1.1,0.4,2.5,2.2,3.2
			C3.3,37,9,39.7,15.7,42.8l0-0.2c-0.1-0.7,0-1.4,0-2c0-0.4,0.1-0.7,0.1-1c0-0.5-0.2-1-0.3-1.4c0-0.2,0-0.4,0-0.5
			c0.1-0.5,0.4-0.7,0.7-1c0.1-0.1,0.1-0.1,0.2-0.2c0.5-0.5,0.8-1.3,1.1-2c0.4-0.9,0.2-1.5,0-2.3C17.3,31.1,17.3,30.8,17.5,29.9z"/>
		<path class="st5" d="M24.2,37.8c0.1,0.5-0.1,1-0.2,1.6c0.1,0.1,0.2,0.1,0.4,0.1c0.1-0.4,0.4-0.9,0.5-1.3c0.1-0.6-0.2-0.8-0.5-1.2
			c-0.3-0.5-0.2-0.5-0.3-1c0-0.3-0.1-0.7-0.2-1l-0.1-0.3c0-0.4-0.2-0.7-0.5,0.1c-0.2,0.5,0.1,1,0.2,1.4
			C23.7,36.8,24.1,37.2,24.2,37.8z"/>
		<path class="st6" d="M56.8,26.6c-0.3,0.2,0.3,0.9,0.6,1c0.6,0.1-0.3-0.8-0.4-1H56.8z"/>
		<path class="st6" d="M63.4,34.2c-0.1-0.2-0.3-0.2-0.5-0.2c-0.1-0.1-0.5-0.3-0.6-0.4c-0.2-0.3,0.2-0.4,0.2-0.7
			c0-0.3-0.1-0.2-0.4-0.3c-0.1,0-0.7,0-0.8,0.1c-0.1,0.1,0,0.7,0,0.9c0,0.3-0.2,0.6-0.2,0.9c0,0.3-0.2,1.1,0,1.3
			c-0.1,0.1-0.3,0.2-0.4,0.2c0.2,0.5,0.8,1,1.2,1.1c0.2,0.1,0.4,0.1,0.5,0l1.2-1.4c-0.1-0.2-0.2-0.3-0.2-0.6
			C63.3,34.8,62.9,34.5,63.4,34.2z"/>
		<path class="st6" d="M64.3,34.3c-0.3,0-0.4-0.2-0.3-0.4c0.2-0.4,1.5-0.8,1-1.5c-0.2,0.6-1.3,1-1.2,1.7c0.1,0.2,0.3,0.5,0.4,0.7
			c0,0.1,0.1,0.2,0.1,0.3l0.8-0.8C65,34.1,65,34,65,33.8C64.7,34,64.6,34.3,64.3,34.3z"/>
		<path class="st6" d="M51.1,41.1c0.1,0.1,0.2,0.3,0.3,0.4c0.2,0.1,0.2,0.2,0.4,0.2c0-0.3,0.3-0.6,0-0.9c-0.2-0.2-0.8-0.4-1.1-0.3v0
			C50.7,40.7,51,40.9,51.1,41.1z"/>
		<path class="st6" d="M61,38.2c-0.1,0-0.4-0.2-0.3,0c-0.2,0-0.3-0.1-0.5-0.1c-0.1,0-0.2,0.1-0.3,0.1c-0.1,0-0.1-0.2-0.2-0.2
			c-0.3-0.1-0.8,0-1.1-0.1c-0.5,0-0.9,0-1.3,0c-0.4,0-0.6,0-1,0.1c-0.2,0.1-0.3,0.2-0.5,0.1l0.2,0.2c0.2,0.3,1,0.3,1.3,0.3
			c0.3,0,0.5-0.1,0.8,0.1c0.2,0.2,0.3,0.2,0.6,0.3c0.5,0.1,1,0.4,1.6,0.4h0.1l1.1-1.2l0,0C61.3,38.2,61.1,38.2,61,38.2z"/>
		<path class="st7" d="M55.1,14.9c-0.4-0.5-0.8-0.8-0.8-1.4c-0.3,0.4-0.5,0.7-0.8,1.1C54,14.6,54.5,14.8,55.1,14.9z"/>
		<path class="st6" d="M44.2,39.5c0.2,0.3,0.6,0.2,0.9,0.2c0.1-0.3,0.1-0.6,0.1-0.9c0.4,0.2,0.6,0.6,1,0.9c0.4,0.5,1,0.6,1.5,0.9
			c0.5,0.2,1,0.5,1.6,0.7c0.4,0.2,0.8,0.5,1.2,0.5c0.1-0.2,0.2-0.4,0.2-0.6c0-1-0.9-1.3-1.3-2.1c-0.3-0.6-0.1-1.7,0-2.4
			c0.1-0.4,0-0.8,0-1.1c0-0.3,0.2-0.5,0.3-0.7c0.2-0.4,0.1-0.3,0.5-0.3c0.5,0.1,1.3,0.1,1.8,0.4c0.6,0.3,0.9,0.9,1.1-0.1
			c0.5,0.1,1.1,0.4,1.5,0.7c0.5,0.3,0.7,0.9,1.1,1.1c0.3,0.2,0.6,0.2,0.9,0.3c0.3,0.1,0.5,0.3,0.8,0.4c0.6,0.3,1.6,0.3,2.2,0
			c-0.2-0.3-0.7-0.4-1-0.6c-0.4-0.2-0.7-0.2-1.2-0.3c-0.5,0-1.1,0-1.5-0.3c-0.3-0.2-0.8-0.9-0.9-1.3c0.8-0.3,1.7,0.1,2.4,0.2
			c0.1-0.5,0.3-1.3,0.1-1.9c-0.3-0.7-1.1-0.8-1.8-0.9c-0.5,0-1.3-0.4-1.3-1c0-0.4,0.3-1,0.8-0.6c-0.2,0.4,0.5,0.8,0.7,0.5
			c0.3-0.4-0.4-0.6-0.5-0.7c-0.5-0.4,0.2-1,0.4-1.4c0.2-0.4,0.4-0.9,0.4-1.4c0-0.6-0.2-1.1-0.7-1.6c-0.3-0.2-0.8-0.7-1.1-0.9
			c-0.5-0.2-1.1-0.1-1.6-0.3c-0.4-0.2-0.4-0.8-0.4-1.2c-0.3,0.2-1.2,1.4-1.6,0.4c-0.2-0.5,0.3-1.1,0.8-0.6c0.1-0.1,0.5-0.6,0.6-0.6
			c0.2,0,0.3,0.2,0.5,0.2c0.3,0.1,0.5-0.1,0.7-0.1c0.2,0,0.4,0.1,0.6,0.1c0.4,0.1,0.7,0.3,1-0.1c0.1-0.2,0.2-0.5,0.1-0.6
			c-0.3-0.5-1.7-0.2-2.2-0.2c0-0.1,0-0.4,0-0.5c0-0.2-0.2-0.3-0.2-0.4c-0.1-0.4,0.2-0.7,0.2-1c0-1.2-1.1-2.1-2.2-2.6
			c-0.8,0.8-1.7,1.5-2.6,2.2c-4.2,2.9-7.3,3.1-8.2,4c-0.4,0.5-0.6,1-0.6,1.6c0,0.6,0.1,1.3,0.3,1.9c0.3,0.9,2,6.7,3.5,12.2
			c0.4,0,0.9-0.2,1.2-0.4C44.5,39.2,44.3,39.3,44.2,39.5z"/>
		<path class="st7" d="M52.4,17.6c0.5,0.1,1.2,0.7,1.6,0.2c-0.2-0.2-0.3-0.1-0.5-0.2c-0.3,0-0.5-0.1-0.8-0.2
			c0.1-0.1,0.3-0.2,0.4-0.3c-0.3-0.2-0.8,0-1.1,0c-0.2,0-0.4-0.1-0.5-0.1L51,17.4C51.5,17.4,52,17.5,52.4,17.6z"/>
		<path class="st6" d="M60.4,29.7c0-0.5,1,0.1,1.2-0.1c-0.1-0.1-0.2-0.2-0.3-0.2c0-0.2,0-0.3-0.1-0.4c-0.5,0.1-0.9,0.4-1.3,0
			c-0.2-0.2-0.2-0.4-0.4-0.5c-0.2-0.1-0.5-0.1-0.6,0.1c0,0.1,0.6,0.9,0.7,1c0.2,0.1,0.4,0,0.6,0.1c0.1,0.1,0.1,0.2,0.1,0.3
			c0.2,0.2,0.3,0.3,0.5,0.2l0,0C60.8,29.9,60.6,29.7,60.4,29.7z"/>
		<path class="st6" d="M61.4,30c0,0,0.1,0,0.2,0.1l-0.4,0C61.3,30,61.3,30,61.4,30c-0.1,0-0.2,0-0.2,0c0,0.2,0.3,0.4,0.4,0.5
			c0,0,0.1-0.1,0.1-0.2l0-0.1c0,0,0,0.1,0,0.1c0,0.1,0,0.2,0.1,0.3c0,0,0.2,0,0.2,0c0-0.1,0-0.1,0-0.1c0-0.1,0-0.1,0.2-0.2
			c0.1-0.1,0.2-0.1,0.1-0.3c-0.3,0-0.2,0-0.3-0.2c-0.1-0.1-0.1-0.2-0.2-0.1c0,0.1,0,0.1,0,0.2C61.7,30,61.6,29.9,61.4,30z"/>
		<path class="st7" d="M61.7,30.3c0,0,0-0.1,0-0.1L61.7,30.3z"/>
		<path class="st7" d="M61.6,30c0,0-0.1-0.1-0.2-0.1c-0.1,0-0.2,0-0.2,0.1L61.6,30z"/>
		<path class="st6" d="M66.3,32.3c0,0-0.1-0.1-0.1-0.1L66.3,32.3c-0.2-0.2-0.3-0.2-0.1-0.4c-0.1-0.1-0.2-0.3-0.3-0.4
			c0,0-0.1,0.1-0.1,0.1c0-0.2-0.1-0.5-0.3-0.4c-0.2,0.1-0.2,0.3-0.1,0.5C65.6,32,65.9,32.4,66.3,32.3z"/>
		<path class="st6" d="M57.2,23c0-0.1-0.3-0.5-0.4-0.6c-0.1-0.1-0.4,0.1-0.5,0c-0.1-0.3,0.5-0.1,0.6-0.1c0.4-0.1,0.2-0.6,0.1-0.8
			c0.2,0,0.3,0,0.5,0c-0.2-0.4,0.3-0.6,0.3-1.1c0.1-0.4-0.3-0.6-0.5-0.9c-0.3-0.4-0.6-0.7-1.1-0.7c-0.2,0-0.8,0.2-1-0.1
			c0.2-0.2,0.5-0.3,0.6-0.5c0-0.1,0.1-0.4,0.1-0.5c-0.2-0.4-1.6,0.3-1.9,0.5c0.1,0.3,0.4,0.2,0.5,0.3c0.1,0.1,0.2,0.2,0.2,0.3
			c0.1,0.4,0.4,0.2,0.8,0.4c0.3,0.1,0.7,0.3,0.9,0.5c0.1,0.1,0.4,1,0,0.8c-0.1,0.2,0.1,0.5-0.1,0.7c-0.2,0.3-0.4,0.5-0.5,0.8
			c0,0.2,0,1.2,0.3,1L56.2,23c0.1,0,0.1,0,0.2-0.1c0.1,0.1,0.4,0.2,0.6,0.3C57.1,23.3,57.3,23.3,57.2,23z"/>
		<path class="st6" d="M62.7,31.1c0.1,0.1,0.4,0.1,0.5,0.1c0.2,0,0.1,0.1,0.3,0.1c0.1,0,0.4-0.3,0.4-0.4c-0.3-0.1-0.3-0.4-0.5-0.6
			c-0.2-0.2-0.3-0.4-0.6-0.5c-0.6,0.1-0.6-0.2-1-0.5l-0.1,0c0.2,0.5,1,0.5,1.1,0.9c0.1,0.4-0.3,0.4-0.4,0.6c-0.1,0.2,0,0.5,0,0.6
			l0.1,0.3C62.5,31.4,62.5,31.2,62.7,31.1z"/>
		<path class="st6" d="M60.8,30.9c0,0.4,0,0.9,0.1,1.3c0.1,0,0.2-0.1,0.2-0.2L61,32C61.1,31.9,61.1,30.9,60.8,30.9z"/>
		<path class="st6" d="M67.3,31.1c-0.3,0.1-0.5,0.4-0.4,0.7c0.1,0.1,0.1,0.1,0.2,0.2l0.7-0.8C67.7,31.1,67.5,31,67.3,31.1z"/>
		<path class="st8" d="M34.7,25c-0.1-0.2-0.2-0.3-0.3-0.5C34.5,24.7,34.6,24.8,34.7,25z"/>
		<polygon class="st8" points="15.4,15.1 15.3,15.1 15.3,15.2 		"/>
		<path class="st8" d="M30.7,29.2c-0.1-0.1-0.1-0.3-0.3-0.5c0,0.1,0,0.2,0.1,0.3C30.6,29.1,30.6,29.2,30.7,29.2z"/>
		<path class="st9" d="M25.2,34.4L25.2,34.4L25.2,34.4L25.2,34.4c-0.1-0.1-0.1-0.2-0.2-0.3c0.1-0.5,0.6-1.2,1.1-0.9
			C25.9,33.7,25.6,34.1,25.2,34.4z M24.3,39.5c-0.1,0-0.3-0.1-0.3-0.1c0.1-0.6,0.4-1.1,0.2-1.6c-0.1-0.5-0.5-1-0.8-1.6
			c-0.2-0.4-0.4-1-0.2-1.4c0.3-0.8,0.4-0.5,0.5-0.1l0.1,0.3c0.1,0.3,0.2,0.7,0.2,1c0,0.5-0.1,0.5,0.3,1c0.3,0.4,0.6,0.6,0.5,1.2
			C24.7,38.7,24.5,39.2,24.3,39.5z M22.1,25.7c0,0-0.1-0.1-0.1-0.1L22.1,25.7L22.1,25.7z M33,30.9c-0.1,0-0.3,0-0.4,0
			c-0.2,0-0.3,0-0.5,0c-0.5-0.1-1.1-0.3-1.5-0.6c0.2-0.4,0.2-0.7,0-1c-0.1-0.1-0.1-0.1-0.2-0.2c-0.1-0.1-0.1-0.2-0.1-0.3
			c-0.5-0.8-0.6-1.3-0.6-2.2c0-0.5-0.1-1-0.1-1.5c0-1.1,0-2.2-0.2-3.3c0.6,0.5,1.2,1.7,1.5,2.5c0.2,0.6,0.1,1.3,0.1,1.9
			c0,0.6,0.3,1.2,0.3,1.8c0.1,0.9-0.5,1.6,0.7,1.6c1.1,0.1,2.6,0,3.7-0.4c-0.2-1-0.3-1.7-0.4-2c-0.1-0.4-0.2-1.3-0.7-2.1
			c-0.1-0.1-0.2-0.3-0.3-0.5c-0.1-0.2-0.3-0.5-0.5-0.7c-0.4-0.4-1-0.9-1.8-1.2c-3-1.1-12.9-5.8-16.7-7.5l-0.1,0
			c-0.1,0.1-0.2,0.2-0.3,0.3c0,0.1-0.1,0.2-0.1,0.2v0c-0.3,0.2-0.6,0.2-1,0.4c-0.3,0.2-0.6,0.5-0.9,0.8c-0.5,0.4-1.2,0.7-1.5,1.2
			c-0.2,0.3-0.1,0.6-0.2,0.9c-0.1,0.5-0.4,0.7-0.6,1.1c-0.4,0.8-0.3,1.3-0.1,2.2c0.2,0.8,0.4,1.6,0.7,2.4c0.3,0.7,0.7,1,1.3,1.4
			l0.2,0.1c0.9,0.5,1.8,0.4,2.7,0.6c0.3,0.1,0.8,0.1,1,0.3c0.3,0.3,0.3,0.8,0.7,1.1c0.2,0.2,0.4,0.2,0.5,0.4c0,0,0,0.1,0.1,0.1
			c0.1,0.3-0.1,0.9-0.2,1.2c-0.2,0.9-0.3,1.3-0.1,2.2c0.2,0.9,0.4,1.5,0,2.3c-0.3,0.7-0.6,1.4-1.1,2c-0.1,0.1-0.1,0.1-0.2,0.2
			c-0.3,0.3-0.6,0.5-0.7,1c0,0.2,0,0.4,0,0.5c0.1,0.5,0.3,0.9,0.3,1.4c0,0.3,0,0.7-0.1,1c-0.1,0.7-0.1,1.3,0,2l0,0.2l0.6,0.3
			l3.7,1.7l0.2,0.1l0.3-0.5c0.1-0.2,0.3-0.4,0.5-0.6c0.1-0.1,0.2-0.2,0.3-0.2c0.5-0.2,1-0.2,1.4-0.8c0.2-0.2,0.2-0.6,0.3-0.9
			c0.1-0.1,0.1-0.2,0.2-0.3c0.2-0.2,0.4-0.3,0.7-0.3c0.2,0,0.3-0.1,0.5-0.1c0.9-0.4,1.6-0.8,1.9-1.8c0.3-0.8,0.4-1.6,0.6-2.4
			c0.2-1,0.3-1.1,1.1-1.7c0.4-0.3,0.8-0.7,1.2-1c0.7-0.4,1.5-0.4,2.3-0.8c0.7-0.3,2.6-1.5,2.3-2.6C33.5,30.8,33.3,30.8,33,30.9z"/>
		<path class="st8" d="M22.1,25.7L22,25.6C22,25.6,22,25.7,22.1,25.7L22.1,25.7z"/>
		<path class="st10" d="M26.5,45l-0.1,0.1c-0.5,0-1,0.1-1.1-0.6c0-0.1,0-0.3,0-0.4c0.1-0.5,0.7-0.9,1-1.3c0.4-0.7,0.3-1,0.9-1.4
			c0.7-0.4,1.3-0.6,1.9-1.1c0.1,0.1,0.1,0.2,0.1,0.3C29.5,42.1,27.4,44.5,26.5,45z M41.5,49.7l0-0.2c-1-3-3.5-12.2-3.5-12.2l0-0.1
			c-1.1-3.8-1.7-6.3-2.1-7.9l-0.1-0.3c-1.1,0.4-2.6,0.5-3.7,0.4c-1.2-0.1-0.6-0.7-0.7-1.6c0-0.6-0.3-1.2-0.3-1.8
			c0-0.6,0.1-1.3-0.1-1.9c-0.2-0.8-0.8-2-1.5-2.5c0.2,1.1,0.2,2.2,0.2,3.3c0,0.5,0,1,0.1,1.5c0.1,0.9,0.1,1.4,0.6,2.2
			c0.1,0.2,0.2,0.3,0.3,0.5c0.1,0.3,0.1,0.5,0,1c0.4,0.3,1,0.5,1.5,0.6l0.9,0c0.3,0,0.5-0.1,0.8,0c0.3,1.1-1.5,2.3-2.3,2.6
			c-0.8,0.3-1.6,0.4-2.3,0.8c-0.4,0.3-0.8,0.7-1.2,1c-0.8,0.6-0.9,0.7-1.1,1.7c-0.2,0.8-0.4,1.7-0.6,2.4c-0.3,0.9-1,1.4-1.9,1.8
			c-0.2,0.1-0.3,0.1-0.5,0.1c-0.2,0-0.5,0.1-0.7,0.3c-0.1,0.1-0.1,0.2-0.2,0.3c-0.1,0.3-0.2,0.7-0.3,0.9c-0.4,0.7-0.9,0.6-1.4,0.8
			c-0.1,0-0.2,0.1-0.3,0.2c-0.2,0.2-0.4,0.4-0.5,0.6c-0.1,0.2-0.2,0.3-0.3,0.5c9.1,4.2,18.3,8.5,19,8.7c0.7,0.2,1.4,0,1.8-0.5
			c0.3-0.3,0.5-0.8,0.6-1.4L41.5,49.7z"/>
		<path class="st6" d="M29.2,40.7c0-0.1-0.1-0.2-0.1-0.3c-0.7,0.5-1.3,0.7-1.9,1.1c-0.7,0.3-0.5,0.7-0.9,1.4c-0.3,0.5-0.9,0.8-1,1.3
			c0,0.1,0,0.2,0,0.4c0.2,0.7,0.7,0.5,1.1,0.6l0.1-0.1C27.4,44.5,29.5,42.1,29.2,40.7z"/>
		<path class="st11" d="M47.1,8.8c-0.5,0.1-1,0.6-1.5,0.5c0.1,0.4,0.9,1.2,1.3,1.2l-0.2-0.2c0.4-0.7-0.1-1,1-1
			c0.7,0,1.1,0.2,1.7,0.4C49.3,9.2,47.8,8.7,47.1,8.8z"/>
		<path class="st6" d="M29.9,7.2c0.2-0.1,0.3-0.3,0.5-0.5c-0.1-0.1-0.3-0.3-0.5-0.5c0.1,0,0.3-0.2,0.4-0.2c-0.4-0.2-1.1,0.4-1.1,0.7
			c0,0.3,0.4,0.7,0.2,1c-0.1,0.2-0.5-0.1-0.5,0.4c-0.1,0-0.1-0.1-0.2-0.1c-0.2,0.2-0.1,0.4,0,0.6c-0.3,0.1-0.5,0-0.9,0.1
			C27.9,8.8,28,8.9,28.1,9l0-0.2c0.3,0.2,1.8,0.8,2.1,0.5C30.6,8.9,30.1,7.6,29.9,7.2z"/>
		<path class="st9" d="M37.1,14.4L37.1,14.4C37,14.4,37,14.3,37,14.3L37.1,14.4z M50.3,11.5c-0.1-0.1-0.8,0.1-0.9,0.3
			c-0.3,0.4,0.2,0.6,0,1.1c-0.7-0.7-1.4-1.3-2.2-1.8c0.1,0.1,0,0.3,0.1,0.4l-0.4-0.2c0,0.1-0.1,0-0.1,0.1l0.1,0.1h0l-0.4-0.2
			c0.1-0.1,0.1-0.1,0.1-0.1c-0.1,0-0.2-0.1-0.4-0.1c-0.1,0-0.3-0.1-0.4-0.2l0,0l-0.2-0.1c-0.6-0.4-0.9-0.3-1.6-0.3
			c0.3-0.4,0.1-0.7-0.3-0.8c-0.3,0.7-0.1,0.5-0.8,0.6c-0.4,0.1-0.7,0.3-1.1-0.1c0,0.1-0.1,0.2-0.2,0.2C41.2,10,41.2,9.3,41,8.9
			c0.6,0.2,0.8,1,1.4,1.3c0.5-0.4,0.2-0.8-0.1-1.2c-0.3-0.4-1-1.3-1.4-1.5l-0.3-0.3c-0.2-0.3-0.5-0.8-0.8-1c-0.2-0.1-0.5,0.1-0.7,0
			c-0.9-0.3-1-0.8-2-0.4c-1,0.4-2,0.5-3,0.8c-0.5,0.1-0.9,0-1.2,0.4c-0.3,0.3-0.3,0.9,0,1.2c0.4,0.4,0.9,0.1,1.1,0.5
			c0.2,0.4,0.1,1.1-0.4,0.9c-0.5,0.6,1,0.7,1.4,0.5c0.2-0.1,0.4-0.4,0.6-0.6c0.2-0.1,0.5-0.1,0.6-0.4c0.3-0.5-0.1-1,0.8-1.2
			c0.6-0.1,1.3,0,1.8,0.2c-0.3,0.6-1.2,0.2-1.6,0.7c-0.5,0.7,0.3,1.1,0.8,1.3c0.5,0.2,1.5,1.1,0.4,0.6c-0.3-0.1-0.7-0.7-1.1-0.5
			c-0.2,0.2,0.1,0.5-0.1,0.8c-0.9-0.1-0.4-0.9-1.1-0.2c-0.7,0.6-0.4,0.4-1.3-0.1c-0.4-0.2-1.5-0.3-1.7-0.8c-0.2-0.4,0.4-0.8,0.5-1.1
			c-0.3-0.1-0.6-0.1-0.8,0.1c-0.2,0.2-0.1,0.7-0.1,0.8c-0.2,0.1-0.5-0.1-0.8-0.1c-0.3-0.1-0.5,0-0.9,0.1c-0.5,0.1-1.1,0.5-1.7,0.5
			c-0.4,0-0.6-0.2-0.9-0.4c-0.3-0.1-0.6,0-0.8-0.2c0.3,0.8,0.9,1.4,0,2c-0.7,0.5-1.2-0.3-1.8-0.6C25,10.4,25,11,24.5,11.6
			c-0.3,0.3-1,0.5-0.8,1.2c0.2,0.6,1,0.9,1.5,1c0.9,0.2,0.9,0.3,1.6-0.2c0.5-0.4,1-0.2,1.5-0.5c0.3-0.1,0.3-0.4,0.7-0.4
			c0.3,0,0.6,0.4,0.9,0.5c0.6,0.2,0.8-0.1,1,0.7c0.2,0.5,0.2,0.8,0.5,1.2c0.2,0.3,0.5,1,0,1.2c-0.4,0.2-0.7-0.4-1.1-0.1
			c0.2,0.4,0,1.1,0.8,0.9c-0.1,0,0.5-0.4,0.5-0.4c0.2-0.2,0.3-0.3,0.4-0.6c0.2,0.2,0.3,0.3,0.5,0.4c0.4-0.8-1.4-2.1-0.9-3
			c0.5,0.1,0.6,1,0.9,1.4c0.1,0.2,0.5,0.5,0.5,0.8c0,0.3-0.1,0.4-0.2,0.7c0,0.4,0.1,0.8,0,1.2c-0.1,0.4-0.5,0.9,0.2,1
			c0-0.1,0.2-0.2,0.2-0.4c0.2,0.1,0.4,0.2,0.6,0.2c0.2-0.5-0.3-1,0-1.5c0.7,0.5,1.3,0.5,1.9,1.1c-0.4,0-1-0.5-1.3,0
			c-0.1,0.1,0,0.9,0.1,1.1c0,0,0,0,0,0.1c0.8,0.2,1.5,0.3,2.1,0.4c0.5,0,1.1,0,1.7-0.1c-0.1-0.1-0.3-0.2-0.4-0.4c0-0.1,0-0.3,0-0.4
			c-0.4-0.9-1.5-0.2-2-0.8c-0.9-1,1.4-2.2,1.9-1.3l-0.2,0c-0.1,0.3,0.1,0.4,0.1,0.7c0.1,0,0.8,0.2,0.9,0.2c0.3-0.2-0.2-0.5-0.3-0.6
			c0.1-0.5,1,0.3,1.1,0.4c-0.1,0.1-0.3,0.2-0.5,0.3c0.1,0.5,0.3,0.7,0.6,1.2c0.1,0.1,0.2,0.3,0.2,0.5c2.2-0.6,4.8-1.7,6.6-3
			c1.5-1.1,3-2.7,4.2-4.3C50.5,11.7,50.4,11.6,50.3,11.5z"/>
		<path class="st11" d="M45,9.9c-0.1,0-0.2,0.1-0.3,0.2c0.2,0.2,0.4,0.2,0.5-0.1C45.2,10,45.1,9.9,45,9.9L45,9.9z"/>
		<path class="st11" d="M46.2,11l-0.1-0.1c0-0.1,0.1,0,0.1-0.1c-0.2-0.1-0.2-0.1-0.4,0.1L46.2,11L46.2,11z"/>
		<path class="st12" d="M26.8,15c-0.5-0.1-1-0.1-1.5-0.3c-0.5-0.2-0.6-0.7-1-0.8c-0.5-0.1-1.1,0.1-1.6,0.3l0,0c2.1,1,4.5,2.1,6.6,3
			c0.1-0.1,0.2-0.2,0.2-0.4C29.6,15.7,27.5,15.1,26.8,15z"/>
		<path class="st11" d="M46.8,11.3L46.8,11.3c-0.2-0.1-0.2-0.2-0.3-0.1c0,0-0.1,0.1-0.1,0.1l0.4,0.2h0V11.3
			C46.7,11.3,46.8,11.4,46.8,11.3z"/>
		<path class="st11" d="M37.1,14.4L37,14.3C37,14.3,37,14.4,37.1,14.4L37.1,14.4z"/>
		<path class="st13" d="M49.5,9.8c-0.6-0.2-1-0.4-1.7-0.4C47.8,9.4,49.3,9.1,49.5,9.8z M44.8,10.1c0.1-0.1,0.2-0.2,0.3-0.2l-0.1,0
			c0.1,0,0.2,0.1,0.3,0.2C45.2,10.3,45,10.3,44.8,10.1z M30.2,9.3c-0.4,0.3-1.8-0.3-2.1-0.5l0,0.2c-0.1-0.1-0.2-0.1-0.3-0.3
			c0.3-0.1,0.6,0,0.9-0.1c-0.2-0.2-0.2-0.4,0-0.6c0.1,0,0.1,0.1,0.2,0.1c0-0.5,0.4-0.2,0.5-0.4c0.1-0.3-0.3-0.7-0.2-1
			c0.1-0.3,0.7-0.9,1.1-0.7c-0.1,0-0.3,0.2-0.4,0.2c0.2,0.2,0.3,0.3,0.5,0.5c-0.1,0.2-0.3,0.3-0.5,0.5C30.1,7.6,30.6,8.9,30.2,9.3z
			 M27.2,7.7c-0.1,0-0.2-0.1-0.3-0.2c0.1-0.2,0.4-0.3,0.6-0.2c0-0.2,0-0.4-0.1-0.6c0.2,0,0.8,0,0.9,0c0.3,0.1,0.6,0.5,0.2,0.5
			l-0.1,0c-0.1,0.2-0.2,0.3-0.3,0.5c-0.2,0-0.4,0-0.6,0C27.4,7.8,27.3,7.7,27.2,7.7z M52.3,5.3c-1.1-0.5-14.8-4.6-16-5.1
			c-0.5-0.2-1-0.3-1.5-0.3c-0.8,0-1.7,0.2-2.3,0.7c-0.9,0.8-4.4,5.1-8.4,7c-3.6,1.7-4.9,1.5-6.2,1.8c-0.6,0.2-0.9,0.7-1,0.9
			c-0.1,0.4,0,1,1,1.5c0.6,0.3,2.1,1,4.7,2.3l0,0c0.4-0.2,1.1-0.4,1.6-0.3c0.4,0.1,0.6,0.6,1,0.8c0.5,0.2,1,0.2,1.5,0.3
			c0.7,0.1,2.9,0.8,2.7,1.8c0,0.2-0.1,0.3-0.2,0.4c1.6,0.7,3.1,1.3,4,1.6c0.5,0.2,1,0.3,1.4,0.4l0-0.1c-0.1-0.2-0.2-0.9-0.1-1.1
			c0.3-0.5,0.8,0,1.3,0c-0.6-0.6-1.2-0.6-1.9-1.1c-0.3,0.5,0.3,1,0,1.5c-0.2,0-0.4-0.1-0.6-0.2c0,0.1-0.2,0.2-0.2,0.4
			c-0.7-0.2-0.3-0.6-0.2-1c0.1-0.4-0.1-0.8,0-1.2c0-0.3,0.2-0.4,0.2-0.7c0-0.3-0.4-0.5-0.5-0.8c-0.2-0.4-0.4-1.3-0.9-1.4
			c-0.5,1,1.3,2.2,0.9,3c-0.3-0.1-0.4-0.3-0.5-0.4c-0.1,0.2-0.3,0.4-0.4,0.6c0,0-0.6,0.4-0.5,0.4c-0.8,0.2-0.6-0.5-0.8-0.9
			c0.4-0.3,0.7,0.4,1.1,0.1c0.5-0.3,0.2-0.9,0-1.2c-0.3-0.5-0.3-0.7-0.5-1.2c-0.2-0.8-0.4-0.5-1-0.7c-0.3-0.1-0.6-0.5-0.9-0.5
			c-0.4,0-0.4,0.2-0.7,0.4c-0.5,0.2-1,0.1-1.5,0.5c-0.7,0.5-0.7,0.5-1.6,0.2c-0.5-0.1-1.3-0.4-1.5-1c-0.2-0.7,0.4-0.9,0.8-1.2
			c0.5-0.5,0.5-1.1,1.3-0.7c0.7,0.3,1.1,1.1,1.8,0.6c0.9-0.6,0.3-1.2,0-2c0.2,0.1,0.5,0.1,0.8,0.2c0.4,0.1,0.5,0.4,0.9,0.4
			c0.6,0,1.2-0.3,1.7-0.5c0.4-0.1,0.6-0.1,0.9-0.1c0.2,0,0.6,0.3,0.8,0.1c0.1-0.1-0.1-0.6,0.1-0.8c0.2-0.2,0.6-0.2,0.8-0.1
			c-0.2,0.4-0.7,0.8-0.5,1.1c0.2,0.5,1.4,0.6,1.7,0.8c0.9,0.4,0.7,0.7,1.3,0.1c0.7-0.7,0.3,0.1,1.1,0.2c0.2-0.2-0.1-0.6,0.1-0.8
			c0.3-0.3,0.8,0.4,1.1,0.5c1,0.4,0.1-0.4-0.4-0.6c-0.5-0.2-1.3-0.6-0.8-1.3c0.4-0.5,1.3-0.1,1.6-0.7c-0.5-0.2-1.2-0.3-1.8-0.2
			c-0.9,0.2-0.5,0.7-0.8,1.2c-0.2,0.3-0.5,0.3-0.6,0.4c-0.2,0.1-0.3,0.4-0.6,0.6c-0.4,0.2-1.9,0.1-1.4-0.5c0.5,0.2,0.7-0.6,0.4-0.9
			C33.9,8.1,33.4,8.4,33,8c-0.3-0.3-0.3-0.9,0-1.2c0.3-0.4,0.8-0.3,1.2-0.4c1-0.2,2-0.4,3-0.8c1-0.3,1,0.1,2,0.4
			c0.2,0.1,0.5-0.1,0.7,0c0.3,0.2,0.5,0.7,0.8,1L41,7.4c0.4,0.2,1.1,1.1,1.4,1.5c0.3,0.4,0.6,0.9,0.1,1.2c-0.6-0.3-0.8-1.1-1.4-1.3
			c0.1,0.5,0.2,1.1,0.6,1.4c0-0.1,0.1-0.2,0.2-0.2c0.4,0.4,0.7,0.2,1.1,0.1c0.7-0.1,0.5,0.1,0.8-0.6c0.4,0.2,0.6,0.5,0.3,0.8
			c0.6,0,1-0.1,1.6,0.3l0.2,0.1c0.2-0.2,0.2-0.2,0.4-0.1c0.1,0.1-0.1,0.1-0.1,0.1l0.1,0.1h0c0.1,0.1,0.2,0.1,0.4,0.1
			c0.1,0,0.1,0,0.3,0.1l0,0l0.4,0.2c0-0.1,0-0.3-0.1-0.4c0.8,0.5,1.5,1.1,2.2,1.8c0.2-0.5-0.3-0.7,0-1.1c0.1-0.1,0.8-0.3,0.9-0.3
			c0.1,0.1,0.2,0.3,0.3,0.5c1.7-2.3,2.9-4.6,2.8-5.2C53.2,6.1,53,5.6,52.3,5.3z"/>
		<path class="st6" d="M28.3,6.7c-0.2-0.1-0.7,0-0.9,0c0.1,0.2,0.1,0.4,0.1,0.6c-0.3,0-0.5,0-0.6,0.2c0.1,0.1,0.2,0.2,0.3,0.2
			c0.1,0.1,0.2,0.1,0.3,0.1c0.2,0,0.4-0.1,0.6,0c0.1-0.2,0.2-0.4,0.3-0.5l0.1,0C28.9,7.1,28.6,6.8,28.3,6.7z"/>
	</g>
</g>
<g>
</g>
<g>
</g>
<g>
</g>
<g>
</g>
<g>
</g>
<g>
</g>
<g>
</g>
<g>
</g>
<g>
</g>
<g>
</g>
<g>
</g>
<g>
</g>
<g>
</g>
<g>
</g>
<g>
</g>
</svg>
