<?xml version="1.0" encoding="UTF-8" standalone="no"?>
<svg
   xmlns:dc="http://purl.org/dc/elements/1.1/"
   xmlns:cc="http://creativecommons.org/ns#"
   xmlns:rdf="http://www.w3.org/1999/02/22-rdf-syntax-ns#"
   xmlns:svg="http://www.w3.org/2000/svg"
   xmlns="http://www.w3.org/2000/svg"
   viewBox="0 0 59.6875 43.037498"
   height="43.037498"
   width="59.6875"
   xml:space="preserve"
   version="1.1"
   id="svg2"><metadata
     id="metadata8"><rdf:RDF><cc:Work
         rdf:about=""><dc:format>image/svg+xml</dc:format><dc:type
           rdf:resource="http://purl.org/dc/dcmitype/StillImage" /></cc:Work></rdf:RDF></metadata><defs
     id="defs6" /><g
     transform="matrix(1.25,0,0,-1.25,0,43.0375)"
     id="g10"><g
       transform="scale(0.1,0.1)"
       id="g12"><path
         id="path14"
         style="fill:#a51c21;fill-opacity:1;fill-rule:nonzero;stroke:none"
         d="m 159.375,235.938 c -8.437,0 -39.062,1.875 -58.75,1.875 -19.6875,0 -49.6875,-0.625 -61.25,-0.313 -11.5625,0.313 -13.4375,6.25 -15.3125,13.125 -1.875,6.875 -1.875,33.438 -1.25,39.375 0.625,5.938 2.5,14.063 13.4375,17.813 10.9375,3.75 48.4375,7.812 65.938,7.812 17.5,0 36.875,-1.25 54.062,-5.937 17.188,-4.688 21.25,-12.813 21.563,-20 0.312,-7.188 0.312,-26.25 0.312,-39.688 0,-13.437 -9.98,-14.062 -18.75,-14.062 z m 47.5,-15 c -2.891,0.07 -6.738,0.128 -11.23,0.175 l 0.293,0.137 c 0,0 2.187,69.063 -0.938,88.438 -3.125,19.375 -12.5,29.062 -45,31.562 C 117.5,343.75 67.8125,343.438 37.5,340 19.1016,337.91 4.375,332.813 3.125,313.438 1.875,294.063 1.25,204.68 1.25,187.184 c 0,-17.5 2.1875,-58.746 2.1875,-58.746 l 0.13672,0.058 c -2.5,-9.797 -0.83203,-28.5624 1.00781,-32.246 1.7461,-3.5078 7.36327,-5.5156 16.00387,-6.0742 -4.6953,-0.3125 -7.8711,-2.3047 -11.62887,-7.4727 -5,-6.875 -2.29687,-23.5429 -1.04687,-27.9179 1.25,-4.375 4.38284,-9.5821 15.42184,-10.625 2.2149,-0.2071 5.6602,-0.2227 9.7618,-0.0977 -4.4805,-0.4492 -8.0625,-1.5312 -12.0586,-4.4844 -5.4883,-4.0703 -5.625,-17.2929 -5,-22.2929 0.4961,-3.9258 3.3398,-13.33207 10.625,-14.58207 7.2968,-1.25 46.6718,-0.41797 54.1718,0.625 3.1524,0.4414 5.9063,1.75 8.1407,3.3125 1.0664,-1.05469 7.2382,-5.46875 14.5113,-5.39063 5.344,0.05859 9.512,2.86328 9.512,2.86328 0,0 70.473,-0.29297 98.879,0.3125 29.375,0.625 27.5,16.87502 28.125,30.00002 0.625,13.125 1.25,140.5702 1.25,151.8202 0,11.246 -7.5,34.067 -34.375,34.692" /><path
         id="path16"
         style="fill:#241d10;fill-opacity:1;fill-rule:nonzero;stroke:none"
         d="m 238.75,34.4844 c -0.051,-1.0078 -0.082,-2.0235 -0.117,-3.0469 C 238.23,19.043 237.813,6.22266 211.848,5.67578 188.301,5.16797 138.184,5.11719 119.727,5.11719 c -1.868,0 -3.332,0 -4.493,0 2.911,3.37109 5.196,8.76171 6.004,17.25391 0.285,2.9609 0.356,13.0117 0.293,26.4961 2.942,-6.8164 8.633,-13.2422 19.094,-13.2422 5.891,0 10.668,1.8477 14.199,5.4883 5.645,5.8203 8.156,16.0937 7.676,31.4258 -0.051,1.582 -0.102,3.5273 -0.156,5.7148 2.922,-6.2891 8.086,-9.5039 15.527,-9.5039 10.406,0 17.129,7.832 17.129,19.9492 0,2.6992 0.051,6.6914 0.113,11.3788 0.215,15.949 0.532,40.039 -0.789,50.02 -1.238,9.39 -2.058,15.59 -15.219,19.535 -6.988,2.101 -28.66,6.672 -49.625,11.086 -16.417,3.457 -31.9331,6.726 -37.9175,8.304 -15.6367,4.122 -16.5937,25.938 -16.5859,31.29 11.9375,0 106.8714,-0.04 131.8714,-0.625 C 234.043,219.059 240,195.332 240,186.246 240,176.469 239.387,47.8711 238.75,34.4844 Z M 91.5156,6.61328 c 2.4063,2.1875 3.6602,4.61722 4.2266,6.05472 1.793,4.5312 1.4258,12.1367 0.5703,17.2734 -1.1797,7.0899 -8.5469,10.1094 -15.3633,12.3828 -3.75,1.25 -10.2226,2.0625 -17.0781,2.5703 7.5273,0.75 13.8828,1.6602 16.8906,2.5977 8.7696,2.7226 13.711,6.7539 14.6836,11.9609 0.7578,4.0742 1.4688,12.4219 0.1367,17.5196 -1.5039,5.7695 -8.1601,10.1171 -17.3672,11.3398 -4.9062,0.6523 -10.207,1.1406 -15.5507,1.5234 7.5781,0.5664 14.9414,1.4258 20.8164,2.7422 6.6836,1.5039 9.6836,4.1133 11.0586,9.6209 1.3007,5.196 0.4023,17.379 -1.7149,23.27 -0.9375,2.59 -4.2304,8.769 -14.7304,10.344 -3.836,0.574 -11.7149,1.218 -20.0157,1.757 7.5938,0.547 14.8555,1.25 19.6992,2.02 13.7579,2.207 16.3165,8.437 16.7813,11.015 0.8828,4.883 0.2031,12.817 -0.6016,16.426 -0.9492,4.254 -4.0039,9.867 -13.1992,12.496 -9.0586,2.586 -38.6172,5.075 -51.5195,5.875 -0.7383,0.043 -1.4844,0.071 -2.2266,0.071 -7.5351,0 -13.0664,-2.532 -16,-7.328 C 6.73047,171.152 6.66016,153.691 8.89063,146.836 10.1953,142.844 12.9766,140.41 16.4609,138.879 11.7148,138.477 7.03125,137.168 4.42578,133.527 3.84766,145.031 2.5,173.512 2.5,187.184 c 0,18.285 0.61328,105.355 1.85156,124.507 1.25391,19.485 20.70704,25.762 36.80864,27.586 31.3711,3.555 78.4488,3.059 108.7418,0.735 33.145,-2.555 40.989,-12.696 43.864,-30.52 2.855,-17.73 1.211,-78.32 0.953,-87.109 -37.5,0.426 -120.0315,0.43 -120.969,0.43 -0.668,0 -1.2148,-0.516 -1.25,-1.18 -0.0625,-1.219 -1.3086,-29.824 18.4258,-35.028 6.0469,-1.589 21.5902,-4.867 38.0432,-8.332 20.91,-4.41 42.531,-8.96 49.422,-11.031 11.609,-3.48 12.269,-8.449 13.496,-17.711 1.258,-9.558 0.933,-33.543 0.73,-49.414 -0.066,-4.7068 -0.117,-8.7107 -0.117,-11.4178 0,-10.7695 -5.605,-17.4492 -14.629,-17.4492 -10.66,0 -15.84,7.4336 -15.84,22.7344 0,0.0078 -0.015,0.0195 -0.015,0.0312 -0.532,28.6724 -1.075,70.4414 -1.078,70.9964 -0.008,0.687 -0.477,1.203 -1.27,1.234 -0.688,-0.012 -1.238,-0.578 -1.23,-1.269 0.007,-0.723 0.941,-72.7387 1.562,-92.5161 0.453,-14.6171 -1.824,-24.2968 -6.973,-29.6093 -3.086,-3.1836 -7.136,-4.7266 -12.402,-4.7266 -13.66,0 -18.152,12.6563 -19.145,20.4102 -0.304,41.1328 -1.414,102.2778 -1.48,105.9568 -0.016,0.696 -0.504,1.266 -1.27,1.227 -0.695,-0.012 -1.242,-0.578 -1.23,-1.266 0.012,-0.957 1.25,-95.7928 1.25,-102.578 0,-0.9687 0.066,-2.1289 0.227,-3.4258 0.132,-18.125 0.117,-32.3047 -0.227,-35.832 C 117.48,9.26953 112.434,2.5 103.75,2.5 96.5938,2.5 92.8828,5.28125 91.5156,6.61328 Z M 80.6875,4.57031 C 75.9063,4.03125 57.293,3.36719 42.3945,3.36719 c -8,0 -13.3711,0.19922 -15.5195,0.57031 -6.6211,1.13281 -9.1758,10.125 -9.5977,13.5039 -0.7109,5.6758 -0.121,17.707 4.5,21.1328 5.4493,4.0235 10.211,4.4063 17.4141,4.5508 1.1172,0.0195 2.3672,0.0313 3.7109,0.0313 13.3282,0 30.6719,-1.0079 37.254,-3.2071 6.125,-2.039 12.7343,-4.707 13.6914,-10.4179 C 94.7188,24.3242 94.9219,17.3828 93.418,13.5859 92.4727,11.1992 89.3359,5.54688 80.6875,4.57031 Z M 9.11328,55.3047 c -1.42187,4.9766 -3.25,20.2539 0.89062,26.7266 3.625,5.664 7.7969,6.7382 14.2227,6.7382 0.5078,0 1.039,-0.0078 1.5703,-0.0195 l 4.0273,-0.0977 c 12.0391,-0.2617 32.1992,-0.7031 48.0586,-2.8125 8.0586,-1.0742 14.0547,-4.8046 15.2813,-9.5 1.164,-4.4453 0.5976,-12.2851 -0.1758,-16.4296 -0.7891,-4.2266 -5.1524,-7.6055 -12.9688,-10.0391 -7.1523,-2.2148 -33.9648,-4.3125 -49.5234,-4.3125 -2.9844,0 -5.3594,0.0781 -7.0469,0.2422 -10.5898,0.9961 -13.2187,5.6055 -14.33592,9.5039 z m 2.15622,92.3123 c -2.08981,6.426 -1.96481,22.957 1.875,29.223 3.1016,5.07 9.2539,6.133 13.8672,6.133 0.6953,0 1.3867,-0.024 2.0703,-0.067 12.3047,-0.761 42.2149,-3.281 50.9883,-5.781 8.0156,-2.297 10.6485,-7.051 11.4453,-10.637 0.7774,-3.484 1.375,-11.039 0.5821,-15.441 -0.7696,-4.27 -6.2657,-7.629 -14.7149,-8.984 -10.4609,-1.672 -33.6523,-3.098 -45.3008,-3.098 -12.7851,0 -18.8086,2.512 -20.8125,8.652 z M 6.0625,97.4414 C 3.57813,102.902 2,123.887 5.89453,131.289 c 2.45703,4.668 9.34767,5.266 15.08207,5.266 2.0507,0 4.1132,-0.09 6.0625,-0.168 1.8007,-0.067 3.5039,-0.137 5.0429,-0.137 8.4532,0 37.1289,-1.633 45.6407,-2.91 9.164,-1.375 11.9648,-6.555 12.7461,-8.723 1.9179,-5.332 2.8125,-17.156 1.6445,-21.812 C 90.9844,98.2734 88.6602,96.3086 82.9297,95.0195 66.1953,91.25 36.9141,91.25 25.8594,91.25 c -0.0156,0 -0.0274,0 -0.0391,0 -11.875,0 -17.78124,1.8477 -19.7578,6.1914 z M 206.902,222.188 c -2.55,0.058 -5.839,0.117 -9.683,0.167 0.281,9.286 1.941,69.383 -0.989,87.54 -3.007,18.632 -11.519,29.941 -46.136,32.605 -30.41,2.336 -77.6917,2.836 -109.2151,-0.738 C 16.4336,338.984 2.9375,328.645 1.85547,311.852 0.613281,292.648 0,205.488 0,187.184 c 0,-17.336 2.16797,-58.403 2.1875,-58.817 0,-0.027 0.03125,-0.039 0.03125,-0.066 C -0.175781,118.457 1.39453,101.672 3.78906,96.4063 5.39063,92.8711 8.84766,90.6953 14.6875,89.6094 12.1484,88.4375 9.91797,86.5313 7.89844,83.3789 2.95313,75.6445 5.53906,58.7109 6.70703,54.6094 7.9375,50.3125 10.9844,44.4648 23.2148,43.3125 c 0.418,-0.0391 1.004,-0.0586 1.4961,-0.0898 -1.457,-0.6719 -2.914,-1.5313 -4.4179,-2.6485 -6.3008,-4.6562 -6.0742,-18.8437 -5.5,-23.4453 0.6093,-4.832 3.8281,-14.3164 11.6562,-15.66406 2.3242,-0.39062 7.6914,-0.597652 15.9453,-0.597652 13.7774,0 33.2422,0.617192 38.5743,1.210942 3.6406,0.41406 6.4179,1.5664 8.5625,2.99218 C 91.0547,3.49609 95.3828,0 103.75,0 c 2.852,0 5.984,0.664063 8.828,2.67578 0.051,0 0.078,-0.04687 0.133,-0.04687 0.133,0 2.711,-0.01172 7,-0.01172 18.465,0 68.617,0.05078 92.187,0.55859 28.336,0.59375 28.832,15.88672 29.235,28.17192 0.035,1.0156 0.066,2.0195 0.113,3.0195 0.641,13.4141 1.254,142.1018 1.254,151.8788 0,9.766 -6.395,35.27 -35.598,35.942" /><path
         id="path18"
         style="fill:#241d10;fill-opacity:1;fill-rule:nonzero;stroke:none"
         d="m 159.375,237.188 c -3.312,0 -10.273,0.304 -18.328,0.648 -12.695,0.547 -28.496,1.227 -40.422,1.227 -8.082,0 -17.8945,-0.102 -27.4609,-0.204 -13.7344,-0.148 -26.961,-0.289 -33.7578,-0.109 -10.8907,0.293 -12.3946,5.816 -14.1407,12.207 -1.7929,6.582 -1.8476,32.863 -1.2148,38.918 0.6758,6.379 2.6953,13.363 12.6015,16.758 10.6915,3.664 48.1875,7.742 65.5357,7.742 21.613,0 39.191,-1.922 53.73,-5.887 13.496,-3.683 20.254,-9.851 20.645,-18.847 0.312,-7.164 0.312,-25.934 0.312,-39.641 0,-11.844 -7.93,-12.812 -17.5,-12.812 z m 19.688,52.558 c -0.45,10.227 -7.801,17.149 -22.485,21.152 -14.762,4.024 -32.555,5.977 -54.39,5.977 -17.9107,0 -55.2505,-4.07 -66.3482,-7.879 -11.3007,-3.875 -13.5625,-12.117 -14.2734,-18.859 -0.668,-6.348 -0.6094,-32.875 1.2852,-39.84 1.7539,-6.418 3.7422,-13.699 16.4843,-14.047 6.836,-0.176 20.0782,-0.039 33.8594,0.109 9.5469,0.102 19.3516,0.204 27.4297,0.204 11.871,0 27.637,-0.672 40.313,-1.219 8.417,-0.367 15.07,-0.656 18.437,-0.656 7.48,0 20,0 20,15.312 0,13.73 0,32.531 -0.312,39.746" /><path
         id="path20"
         style="fill:#241d10;fill-opacity:1;fill-rule:nonzero;stroke:none"
         d="m 152.188,272.238 c -0.247,-6.34 -3.926,-9.425 -11.25,-9.425 -3.399,0 -8.071,0.316 -13.481,0.683 -7.937,0.527 -17.805,1.192 -28.3945,1.192 -13.5156,0 -21.3867,-0.352 -28.3359,-0.665 -2.1914,-0.101 -4.2813,-0.195 -6.3985,-0.273 -8.8242,-0.332 -11.0468,1.664 -11.8593,5.566 -1.5313,7.387 -0.1875,17.676 0.0937,19.661 0.7344,5.136 4.2148,9.109 10.3477,11.804 8.3007,3.653 26.6211,4.606 36.8086,4.844 12.6522,0.363 30.4182,-3.027 38.0542,-5.262 7.247,-2.109 13.575,-7.527 14.114,-12.07 0.609,-5.211 0.613,-7.949 0.301,-16.055 z m -13.715,30.528 c -8.012,2.336 -25.828,5.691 -38.8128,5.359 -12.668,-0.301 -29.4961,-1.422 -37.7539,-5.055 -6.9766,-3.07 -10.9532,-7.695 -11.8165,-13.742 -0.2968,-2.058 -1.6835,-12.726 -0.0664,-20.519 1.2032,-5.801 5.2422,-7.848 14.3907,-7.559 2.1289,0.078 4.2226,0.176 6.4257,0.273 6.918,0.313 14.7618,0.665 28.2227,0.665 10.5075,0 20.3325,-0.661 28.2225,-1.192 5.457,-0.359 10.164,-0.683 13.653,-0.683 8.57,0 13.453,4.199 13.75,11.828 0.312,8.265 0.312,11.062 -0.325,16.445 -0.664,5.633 -7.492,11.727 -15.89,14.18" /><path
         id="path22"
         style="fill:#241d10;fill-opacity:1;fill-rule:nonzero;stroke:none"
         d="m 138.066,266.262 c 6.25,0 8.243,1.551 9.395,6.746 0.969,4.336 0.93,12.383 -2.168,15.664 -3.848,4.094 -21.445,12.121 -44.57,11.808 -23.1253,-0.312 -37.9417,-4.375 -41.6917,-8.437 -3.75,-4.063 -4.2735,-13.789 -2.3985,-18.789 1.875,-5 5.3399,-6.75 12.5274,-6.75 7.1875,0 21.5117,2.48 32.7658,2.168 11.25,-0.313 31.453,-2.41 36.14,-2.41" /><path
         id="path24"
         style="fill:#241d10;fill-opacity:1;fill-rule:nonzero;stroke:none"
         d="m 266.355,106.652 0,8.258 31.567,0 0,-8.258 -10.918,0 0,-99.28872 -9.707,0 0,99.28872 -10.942,0" /><path
         id="path26"
         style="fill:#241d10;fill-opacity:1;fill-rule:nonzero;stroke:none"
         d="m 333.223,75.2656 0,24.0196 c 0,2.9608 -0.664,4.9138 -2.012,5.9098 -1.34,0.965 -3.438,1.457 -6.316,1.457 l -5.508,0 0,-39.2028 6.551,0 c 2.468,0 4.316,0.5391 5.507,1.625 1.192,1.0742 1.778,3.1446 1.778,6.1914 m -7.325,-16.1914 -6.511,0 0,-51.71092 -9.699,0 0,107.54672 18.171,0 c 5.325,0 9.016,-0.68 11.094,-2.058 2.649,-1.758 3.996,-5.215 3.996,-10.321 l 0,-27.1013 c 0,-4.2383 -0.801,-7.2344 -2.383,-8.9922 -1.582,-1.7812 -4.355,-2.6562 -8.308,-2.6562 3.726,-0.1954 6.512,-1.0665 8.316,-2.5899 1.828,-1.5351 2.739,-4.1133 2.739,-7.7539 l 0,-46.07422 -9.727,0 0,45.21482 c 0,4.3164 -2.551,6.4961 -7.688,6.4961" /><path
         id="path28"
         style="fill:#241d10;fill-opacity:1;fill-rule:nonzero;stroke:none"
         d="m 391.023,114.91 0,-93.0545 c 0,-5.5078 -1.824,-9.5391 -5.457,-12.09769 -3.046,-2.14843 -6.98,-3.24218 -11.804,-3.24218 -4.824,0 -8.657,1.02343 -11.516,3.08593 -3.633,2.67574 -5.461,6.74614 -5.461,12.25394 l 0,93.0545 9.707,0 0,-89.9998 c 0,-3.7266 0.598,-6.3243 1.801,-7.8008 1.172,-1.4727 3.047,-2.2149 5.602,-2.2149 2.675,0 4.582,0.7227 5.714,2.1368 1.133,1.4257 1.707,4.0546 1.707,7.8789 l 0,89.9998 9.707,0" /><path
         id="path30"
         style="fill:#241d10;fill-opacity:1;fill-rule:nonzero;stroke:none"
         d="m 419.543,107.629 c -2.133,0 -3.613,-0.645 -4.477,-1.914 -0.867,-1.281 -1.289,-3.106 -1.289,-5.473 l 0,-11.3826 c 0,-3.8399 0.735,-7.0508 2.207,-9.6211 l 15.508,-26.8438 c 2.356,-3.9375 3.535,-8.3125 3.535,-13.1367 l 0,-16.9609 c 0,-5.0196 -1.382,-8.8985 -4.136,-11.6406 -2.754,-2.77349 -6.594,-4.14067 -11.516,-4.14067 -10.605,0 -15.918,5.25387 -15.918,15.76167 l 0,14.7461 9.719,0 0,-14.1523 c 0,-5.332 2.066,-7.9766 6.199,-7.9766 3.953,0 5.938,2.6446 5.938,7.9766 l 0,15.0586 c 0,3.6445 -0.938,7.0898 -2.786,10.332 l -14.336,25.0977 c -1.57,2.7461 -2.664,5.039 -3.23,6.8554 -0.606,1.8282 -0.898,4.1094 -0.898,6.8633 l 0,13.0119 c 0,10.535 5.156,15.789 15.48,15.789 5.359,0 9.273,-1.211 11.758,-3.68 2.476,-2.453 3.726,-6.242 3.726,-11.371 l 0,-13.7108 -9.714,0 0,13.1368 c 0,2.461 -0.411,4.309 -1.219,5.539 -0.813,1.219 -2.324,1.836 -4.551,1.836" /><path
         id="path32"
         style="fill:#241d10;fill-opacity:1;fill-rule:nonzero;stroke:none"
         d="m 445.945,106.652 0,8.258 31.575,0 0,-8.258 -10.926,0 0,-99.28872 -9.707,0 0,99.28872 -10.942,0" /><path
         id="path34"
         style="fill:#241d10;fill-opacity:1;fill-rule:nonzero;stroke:none"
         d="m 316.34,340.781 0,-152.652 -19.629,0 -17.395,135.582 -0.351,-135.582 -12.235,0 0,152.652 20.118,0 16.929,-130.593 0.344,130.593 12.219,0" /><path
         id="path36"
         style="fill:#241d10;fill-opacity:1;fill-rule:nonzero;stroke:none"
         d="m 371.023,340.781 0,-11.718 -22.886,0 0,-55.645 21.883,0 0,-11.883 -21.883,0 0,-61.515 22.886,0 0,-11.891 -36.668,0 0,152.652 36.668,0" /><path
         id="path38"
         style="fill:#241d10;fill-opacity:1;fill-rule:nonzero;stroke:none"
         d="m 475.273,340.781 -15.339,-152.652 -17.942,0.012 -10.625,135.57 -10.945,-135.551 -17.856,-0.031 -15.339,152.652 12.988,0 11.465,-136.445 10.871,136.445 17.222,0 11.567,-136.457 10.933,136.457 13,0" /><path
         id="path40"
         style="fill:#241d10;fill-opacity:1;fill-rule:nonzero;stroke:none"
         d="m 277.195,158.027 0,10.582 c 0,1.297 -0.293,2.168 -0.886,2.598 -0.586,0.43 -1.524,0.645 -2.793,0.645 l -2.422,0 0,-17.282 2.89,0 c 1.094,0 1.895,0.235 2.422,0.723 0.528,0.469 0.789,1.387 0.789,2.734 m -3.242,-7.148 -2.859,0 0,-22.781 -4.278,0 0,47.394 8.008,0 c 2.344,0 3.977,-0.301 4.883,-0.906 1.184,-0.781 1.77,-2.297 1.77,-4.551 l 0,-11.953 c 0,-1.871 -0.356,-3.199 -1.047,-3.961 -0.696,-0.781 -1.922,-1.172 -3.66,-1.172 1.636,-0.078 2.859,-0.449 3.66,-1.133 0.808,-0.683 1.203,-1.816 1.203,-3.418 l 0,-20.3 -4.278,0 0,19.91 c 0,1.914 -1.132,2.871 -3.402,2.871" /><path
         id="path42"
         style="fill:#241d10;fill-opacity:1;fill-rule:nonzero;stroke:none"
         d="m 298.652,175.492 0,-3.64 -7.097,0 0,-17.282 6.773,0 0,-3.691 -6.773,0 0,-19.102 7.097,0 0,-3.679 -11.386,0 0,47.394 11.386,0" /><path
         id="path44"
         style="fill:#241d10;fill-opacity:1;fill-rule:nonzero;stroke:none"
         d="m 308.145,175.492 0,-43.715 7.097,0 0,-3.679 -11.387,0 0,47.394 4.29,0" /><path
         id="path46"
         style="fill:#241d10;fill-opacity:1;fill-rule:nonzero;stroke:none"
         d="m 326.465,144.949 6.621,-0.008 -3.262,27.289 -3.359,-27.281 z m -0.418,-3.699 -1.809,-13.152 -4.277,0 6.894,47.394 5.84,0 6.907,-47.394 -4.329,-0.012 -1.804,13.176 -7.422,-0.012" /><path
         id="path48"
         style="fill:#241d10;fill-opacity:1;fill-rule:nonzero;stroke:none"
         d="m 341.484,171.852 0,3.64 13.914,0 0,-3.64 -4.824,0 0,-43.754 -4.273,0 0,43.754 -4.817,0" /><path
         id="path50"
         style="fill:#241d10;fill-opacity:1;fill-rule:nonzero;stroke:none"
         d="m 360.559,128.098 4.27734,0 0,47.3945 -4.27734,0 0,-47.3945 z" /><path
         id="path52"
         style="fill:#241d10;fill-opacity:1;fill-rule:nonzero;stroke:none"
         d="m 378.293,131.406 c 1.258,0 2.145,0.403 2.664,1.242 0.398,0.653 0.598,1.707 0.598,3.18 l 0,31.961 c 0,1.434 -0.2,2.5 -0.598,3.191 -0.519,0.86 -1.406,1.301 -2.664,1.301 -1.313,0 -2.18,-0.371 -2.617,-1.105 -0.434,-0.742 -0.656,-1.856 -0.656,-3.387 l 0,-31.961 c 0,-1.473 0.222,-2.574 0.656,-3.316 0.437,-0.735 1.304,-1.106 2.617,-1.106 m 0,44.516 c 2.723,0 4.695,-0.731 5.918,-2.215 1.07,-1.301 1.617,-3.234 1.617,-5.793 l 0,-32.191 c 0,-2.567 -0.523,-4.481 -1.551,-5.731 -1.269,-1.515 -3.261,-2.277 -5.984,-2.277 -2.734,0 -4.68,0.691 -5.832,2.082 -1.145,1.387 -1.719,3.359 -1.719,5.926 l 0,32.191 c 0,2.559 0.52,4.473 1.555,5.734 1.266,1.524 3.262,2.274 5.996,2.274" /><path
         id="path54"
         style="fill:#241d10;fill-opacity:1;fill-rule:nonzero;stroke:none"
         d="m 407.051,175.492 0,-47.394 -6.106,0 -5.41,42.101 -0.097,-42.101 -3.805,0 0,47.394 6.25,0 5.262,-40.551 0.109,40.551 3.797,0" /><path
         id="path56"
         style="fill:#241d10;fill-opacity:1;fill-rule:nonzero;stroke:none"
         d="m 419.59,172.281 c -0.938,0 -1.594,-0.285 -1.973,-0.84 -0.371,-0.566 -0.566,-1.378 -0.566,-2.421 l 0,-5.012 c 0,-1.688 0.32,-3.106 0.976,-4.238 l 6.844,-11.84 c 1.027,-1.739 1.547,-3.653 1.547,-5.782 l 0,-7.48 c 0,-2.219 -0.605,-3.914 -1.816,-5.137 -1.223,-1.211 -2.903,-1.816 -5.071,-1.816 -4.687,0 -7.031,2.316 -7.031,6.941 l 0,6.504 4.285,0 0,-6.238 c 0,-2.344 0.91,-3.516 2.746,-3.516 1.731,0 2.598,1.172 2.598,3.516 l 0,6.641 c 0,1.613 -0.41,3.117 -1.211,4.55 l -6.316,11.055 c -0.696,1.227 -1.184,2.23 -1.438,3.031 -0.266,0.801 -0.391,1.809 -0.391,3.028 l 0,5.734 c 0,4.648 2.278,6.961 6.817,6.961 2.363,0 4.094,-0.547 5.183,-1.629 1.094,-1.086 1.645,-2.746 1.645,-5 l 0,-6.055 -4.289,0 0,5.789 c 0,1.086 -0.176,1.907 -0.527,2.442 -0.364,0.547 -1.028,0.812 -2.012,0.812" /><path
         id="path58"
         style="fill:#241d10;fill-opacity:1;fill-rule:nonzero;stroke:none"
         d="m 446.965,175.492 0,-47.394 -4.277,0 0,22.781 -6.489,0 0,-22.781 -4.273,0 0,47.394 4.273,0 0,-20.922 6.489,0 0,20.922 4.277,0" /><path
         id="path60"
         style="fill:#241d10;fill-opacity:1;fill-rule:nonzero;stroke:none"
         d="m 452.852,128.098 4.27734,0 0,47.3945 -4.27734,0 0,-47.3945 z" /><path
         id="path62"
         style="fill:#241d10;fill-opacity:1;fill-rule:nonzero;stroke:none"
         d="m 472.141,156.055 0,12.816 c 0,1.125 -0.278,1.906 -0.852,2.336 -0.559,0.43 -1.379,0.645 -2.473,0.645 l -2.078,0 0,-18.727 2.078,0 c 1.133,0 1.977,0.195 2.512,0.586 0.535,0.391 0.813,1.172 0.813,2.344 m -2.864,19.437 c 2.766,0 4.661,-0.508 5.657,-1.551 0.996,-1.046 1.492,-2.929 1.492,-5.664 l 0,-11.636 c 0,-2.676 -0.508,-4.551 -1.531,-5.606 -1.028,-1.074 -2.891,-1.601 -5.618,-1.601 l -2.539,0 0,-21.336 -4.277,0 0,47.394 6.816,0" /></g></g></svg>