<?xml version="1.0" encoding="UTF-8" standalone="no"?>
<svg
   xmlns:dc="http://purl.org/dc/elements/1.1/"
   xmlns:cc="http://creativecommons.org/ns#"
   xmlns:rdf="http://www.w3.org/1999/02/22-rdf-syntax-ns#"
   xmlns:svg="http://www.w3.org/2000/svg"
   xmlns="http://www.w3.org/2000/svg"
   xmlns:sodipodi="http://sodipodi.sourceforge.net/DTD/sodipodi-0.dtd"
   xmlns:inkscape="http://www.inkscape.org/namespaces/inkscape"
   version="1.1"
   id="svg10"
   width="64"
   height="64"
   viewBox="0 0 64 64"
   sodipodi:docname="server-icon.svg"
   inkscape:version="1.0.2-2 (e86c870879, 2021-01-15)">
  <metadata
     id="metadata16">
    <rdf:RDF>
      <cc:Work
         rdf:about="">
        <dc:format>image/svg+xml</dc:format>
        <dc:type
           rdf:resource="http://purl.org/dc/dcmitype/StillImage" />
        <dc:title></dc:title>
      </cc:Work>
    </rdf:RDF>
  </metadata>
  <defs
     id="defs14" />
  <sodipodi:namedview
     pagecolor="#ffffff"
     bordercolor="#666666"
     borderopacity="1"
     objecttolerance="10"
     gridtolerance="10"
     guidetolerance="10"
     inkscape:pageopacity="0"
     inkscape:pageshadow="2"
     inkscape:window-width="1920"
     inkscape:window-height="1017"
     id="namedview12"
     showgrid="false"
     inkscape:zoom="4.7911549"
     inkscape:cx="-30.584423"
     inkscape:cy="17.986253"
     inkscape:window-x="2552"
     inkscape:window-y="-8"
     inkscape:window-maximized="1"
     inkscape:current-layer="g18"
     fit-margin-top="0"
     fit-margin-left="0"
     fit-margin-right="0"
     fit-margin-bottom="0" />
  <g
     inkscape:groupmode="layer"
     inkscape:label="Image"
     id="g18"
     transform="translate(5.2869568,5.2869568)">
    <g
       id="g4198"
       transform="matrix(1.1342272,0,0,1.1342272,-3.585616,-3.585616)">
      <rect
         style="fill:#d3e5ff;fill-opacity:1;stroke:#256fff;stroke-width:3;stroke-miterlimit:4;stroke-dasharray:none;stroke-opacity:1"
         id="rect28"
         width="53.426086"
         height="53.426086"
         x="0"
         y="0"
         rx="4"
         ry="4"
         inkscape:export-filename="G:\Shared drives\Keyman\Resources\Images\Keyman 9.0 Futago\icons\Keyman Developer Server\server-icon-32.png"
         inkscape:export-xdpi="54.439999"
         inkscape:export-ydpi="54.439999" />
      <path
         style="fill:none;stroke:#808080;stroke-width:3;stroke-linecap:round;stroke-linejoin:miter;stroke-miterlimit:4;stroke-dasharray:none;stroke-opacity:1"
         d="m 10.257218,3.9110256 c 32.91165,0 32.91165,0 32.91165,0"
         id="path853"
         inkscape:export-filename="G:\Shared drives\Keyman\Resources\Images\Keyman 9.0 Futago\icons\Keyman Developer Server\server-icon-32.png"
         inkscape:export-xdpi="54.439999"
         inkscape:export-ydpi="54.439999" />
      <path
         style="fill:none;stroke:#808080;stroke-width:3;stroke-linecap:round;stroke-linejoin:miter;stroke-miterlimit:4;stroke-dasharray:none;stroke-opacity:1"
         d="m 10.257218,49.515061 c 32.91165,0 32.91165,0 32.91165,0"
         id="path853-6"
         inkscape:export-filename="G:\Shared drives\Keyman\Resources\Images\Keyman 9.0 Futago\icons\Keyman Developer Server\server-icon-32.png"
         inkscape:export-xdpi="54.439999"
         inkscape:export-ydpi="54.439999" />
      <g
         id="g3817"
         transform="matrix(0.24094196,0,0,0.26151012,5.4446038,-210.21349)"
         inkscape:export-filename="G:\Shared drives\Keyman\Resources\Images\Keyman 9.0 Futago\icons\Keyman Developer Server\server-icon-32.png"
         inkscape:export-xdpi="54.439999"
         inkscape:export-ydpi="54.439999">
        <path
           style="fill:#6fbbd4;fill-rule:nonzero;stroke:none"
           d="m 95.5537,883.809 c 0.4785,-0.06 0.9609,-0.314 1.2852,-0.641 -0.4102,-0.35 -2.3907,-2.119 -2.7188,-0.994 0.3633,0.324 1.4287,1.153 0.7578,1.566 -0.1543,0.096 -1.9306,-0.447 -2.123,-0.499 -0.0938,-0.627 -0.6133,-1.062 -0.3203,-1.72 0.1357,0.032 0.2861,0.042 0.417,0.073 -1.2471,-2.204 -6.8282,0.622 -4.5938,3.12 1.2637,1.413 3.877,-0.305 4.8643,1.831 0.123,0.268 -0.0166,0.637 0.0947,0.888 0.1641,0.373 0.5127,0.705 0.9014,0.988 1.1132,-0.158 2.2705,-0.38 3.4775,-0.676 -0.1221,-0.453 -0.3555,-0.916 -0.5273,-1.146 -0.795,-1.056 -1.1885,-1.625 -1.5147,-2.79 z"
           id="path1953" />
        <path
           style="fill:#6fbbd4;fill-rule:nonzero;stroke:none"
           d="m 113.211,867.851 c -0.315,-0.141 -0.625,-0.288 -0.927,-0.441 -0.006,0.004 -0.01,0.013 -0.015,0.018 0.286,0.271 0.651,0.407 0.942,0.423 z"
           id="path1955" />
        <path
           style="fill:#b90529;fill-rule:nonzero;stroke:none"
           d="m 174.34,896.03 c -1.633,-1.633 -26.503,-28.049 -27.754,-29.474 1.251,1.425 26.094,27.869 27.754,29.474 z"
           id="path1957" />
        <path
           style="fill:#b90529;fill-rule:nonzero;stroke:none"
           d="m 160.487,917.765 c -0.253,-0.417 -0.486,-1.056 0.106,-1.265 0.545,-0.187 0.689,0.499 0.756,1.006 0.046,-0.14 0.155,-0.214 0.214,-0.318 0.267,0.304 0.465,0.677 0.733,1.016 -0.55,0.379 -0.355,0.56 0.127,0.864 l -0.072,-0.176 c 0.02,0.026 0.087,0.228 0.178,0.298 -0.961,0.143 -1.576,-0.665 -2.042,-1.425 z m -4.851,-1.118 c -0.355,0.061 -0.248,-0.168 -0.632,-0.183 -0.233,-0.014 -1.079,-0.1 -1.266,-0.237 -0.392,0.206 -0.373,0.659 -0.37,1.074 l -0.31,-0.659 c -0.208,-0.377 -0.38,-1.088 -0.123,-1.508 0.26,-0.428 1.297,-0.38 1.04,-1.334 -0.257,-0.946 -2.192,-0.862 -2.778,-2.161 0.105,-0.014 0.232,-0.033 0.334,-0.049 0.99,0.829 0.945,1.462 2.485,1.296 0.539,0.314 1.014,0.724 1.39,1.261 0.397,0.564 0.456,1.258 1.23,1.5 -0.098,0.277 -0.646,0.939 -1,1 z m -3.031,-2.358 c -0.282,0.216 -0.249,0.067 -0.361,0.383 -0.04,0.119 0.157,0.13 0.028,0.308 -0.062,0.088 -0.506,0.118 -0.604,0.065 -0.239,-0.122 -0.282,-0.44 -0.266,-0.722 -0.051,0.187 -0.143,0.365 -0.284,0.493 -0.431,-0.236 -1.092,-0.701 -1.07,-1.239 0.203,-0.116 0.409,-0.136 0.621,-0.098 0.353,-0.045 0.764,-0.008 0.996,0.084 0.023,-0.167 -0.058,-0.374 -0.079,-0.544 0.306,-0.106 0.376,0.055 0.533,0.246 0.402,0.488 0.015,0.418 0.787,0.374 0.109,0.414 -0.072,0.482 -0.301,0.65 z m -4.442,-1.365 c 0.56,-0.011 0.996,0.451 0.942,1.046 l -0.068,-0.077 c -0.582,0.283 -0.808,-0.096 -1.222,-0.504 -0.125,-0.124 -0.102,-0.456 -0.339,-0.628 -0.39,-0.283 -0.997,0.038 -1.399,-0.228 -0.198,-0.129 -1.654,-2.116 -1.609,-2.345 0.13,-0.644 1.043,-0.473 1.431,-0.314 0.609,0.254 0.551,0.678 1.044,1.19 1.022,1.044 1.937,0.431 3.13,0.074 0.232,0.244 0.345,0.56 0.304,0.915 0.27,0.126 0.429,0.38 0.637,0.616 -0.41,0.538 -2.758,-0.837 -2.851,0.255 z m 1.041,6.011 c -0.201,-1.004 -0.054,-2.219 -0.152,-3.199 0.743,0.057 0.7,2.372 0.479,2.67 l 0.285,0.018 c -0.156,0.197 -0.42,0.37 -0.612,0.511 z m -21.992,22.686 c -0.466,-0.091 -0.67,-0.132 -1.061,-0.45 -0.306,-0.247 -0.556,-0.561 -0.819,-0.858 -0.384,-0.438 -0.893,-1.051 -0.811,-1.47 l 0.003,-0.086 c 0.713,-0.158 2.161,0.24 2.724,0.814 0.714,0.725 -0.096,1.244 -0.036,2.05 z m 13.573,-48.619 c -0.38,0.056 -0.836,0.017 -1.242,0.056 0.244,0.581 0.827,1.68 -0.126,1.922 -0.16,0.042 -1.728,-0.441 -1.386,0.193 0.141,0.257 0.899,-0.067 1.224,0.105 0.349,0.181 0.931,1.076 1.016,1.429 0.164,0.668 -0.126,0.704 -0.683,0.434 -0.365,-0.174 -1.107,-0.498 -1.385,-0.743 -0.132,0.127 -0.3,0.119 -0.432,0.211 l 0.138,0.519 c -0.927,0.438 -0.929,-2.147 -0.86,-2.534 0.15,-0.833 0.67,-1.254 1.097,-1.94 0.354,-0.571 0.013,-1.175 0.212,-1.771 0.937,0.433 0.182,-1.658 -0.112,-1.95 -0.555,-0.557 -1.519,-0.952 -2.201,-1.299 -0.768,-0.392 -1.463,-0.133 -1.826,-0.984 -0.147,-0.33 -0.196,-0.586 -0.53,-0.816 -0.45,-0.312 -1.035,-0.125 -1.352,-0.735 0.673,-0.667 4.233,-2.328 4.608,-1.319 0.074,0.199 -0.153,1.005 -0.245,1.234 -0.268,0.641 -0.962,0.758 -1.459,1.309 0.393,0.671 1.833,0.186 2.407,0.199 1.223,0.023 1.96,0.855 2.715,1.716 0.568,0.648 1.424,1.261 1.282,2.175 -0.171,1.045 -1.237,1.541 -0.86,2.589 z m -0.088,14.654 c -0.662,-0.068 -2.25,-1.841 -1.391,-2.282 l 0.382,-0.018 c 0.251,0.284 2.503,2.452 1.009,2.3 z M 174.34,896.03 c -1.66,-1.605 -26.503,-28.049 -27.754,-29.474 -1.86,-2.118 -3.508,-1.985 -4.879,-2.053 -1.98,-0.099 -4.665,4.127 -8.637,9.441 0.037,1.387 1.142,2.002 2.012,3.294 -1.361,-0.322 -2.529,-0.746 -4.02,-0.675 -1.474,1.869 -3.11,3.793 -4.918,5.673 0.41,0.125 0.804,0.24 1.286,0.276 0.77,0.058 2.118,-0.38 2.756,0.09 -0.29,0.291 -0.685,0.447 -0.971,0.717 0.711,0.244 1.274,0.441 1.946,0.553 0.532,0.087 0.873,0.071 1.339,0.446 -0.968,1.181 -2.75,-0.261 -3.984,-0.593 -0.995,-0.267 -2.313,-0.54 -3.439,-0.391 -0.099,0.1 -0.208,0.195 -0.309,0.294 2.543,1.084 5.206,3.218 5.286,6.21 0.018,0.808 -0.627,1.623 -0.38,2.457 0.123,0.418 0.48,0.639 0.594,1.053 0.086,0.319 -0.023,0.892 0.001,1.227 1.106,0.051 4.632,-0.746 5.399,0.472 0.262,0.409 -0.007,1.046 -0.304,1.507 -0.712,1.116 -1.302,0.579 -2.389,0.27 -0.432,-0.125 -0.96,-0.305 -1.399,-0.279 -0.664,0.028 -1.124,0.478 -1.771,0.346 -0.478,-0.096 -0.735,-0.541 -1.176,-0.471 -0.456,0.07 -1.39,1.189 -1.614,1.526 -1.118,-1.249 -2.333,0.108 -1.837,1.405 0.878,2.295 3.081,-0.487 3.914,-1.041 -0.114,1.077 -0.1,2.501 0.896,2.933 1.182,0.512 2.759,0.181 3.934,0.661 0.773,0.312 2.004,1.5 2.662,2.088 1.215,1.088 1.709,2.237 1.627,3.79 -0.065,1.253 -0.463,2.242 -1.088,3.326 -0.592,1.022 -2.193,2.413 -0.998,3.457 0.357,0.309 2.109,0.669 1.266,1.725 -0.589,0.736 -2.153,-0.194 -1.751,-1.203 -1.017,-1.046 -1.89,0.408 -1.839,1.391 0.072,1.426 1.859,2.356 3.146,2.463 1.685,0.145 3.555,0.367 4.399,2.047 0.636,1.271 -0.006,3.2 -0.174,4.506 -1.791,-0.064 -4.053,-1.115 -5.901,-0.377 0.149,0.977 1.32,2.621 2.131,3.182 1.109,0.764 2.488,0.62 3.751,0.691 1.122,0.062 1.884,0.145 2.868,0.671 0.78,0.416 1.923,0.617 2.419,1.355 -1.452,0.911 -3.846,0.906 -5.346,0.115 -0.647,-0.34 -1.137,-0.692 -1.874,-0.964 -0.741,-0.27 -1.674,-0.29 -2.334,-0.638 -1.179,-0.624 -1.65,-2.07 -2.807,-2.745 -1.091,-0.635 -2.504,-1.499 -3.757,-1.669 -0.483,2.225 -1.271,0.999 -2.706,0.165 -1.186,-0.689 -3.127,-0.842 -4.466,-1.003 -1.002,-0.123 -0.684,-0.307 -1.194,0.613 -0.317,0.571 -0.749,1.071 -0.811,1.753 -0.09,0.957 0.094,1.761 -0.078,2.763 -0.261,1.537 -0.762,4.249 -0.055,5.666 0.95,1.912 3.269,2.851 3.247,5.167 -0.003,0.498 -0.121,0.961 -0.378,1.385 -1.099,0.077 -2.081,-0.767 -3.074,-1.142 -1.306,-0.491 -2.555,-1.032 -3.858,-1.565 -1.362,-0.562 -2.709,-0.991 -3.745,-2.088 -0.76,-0.801 -1.441,-1.544 -2.324,-2.162 -0.035,0.772 -0.051,1.539 -0.27,2.233 -0.698,-0.075 -1.647,0.111 -2.101,-0.569 0.241,-0.381 0.586,-0.62 0.7,-1.004 -0.812,0.398 -1.889,0.856 -2.917,0.984 3.517,12.017 6.805,23.325 7.059,24.254 0.814,2.988 2.798,4.348 4.939,4.435 1.787,0.077 3.684,-0.732 5.098,-2.217 1.51,-1.589 12.954,-13.908 24.481,-26.352 -0.087,-0.003 -0.172,-0.001 -0.261,-0.006 -1.403,-0.079 -2.624,-0.618 -3.961,-0.992 -0.641,-0.182 -0.882,-0.349 -1.405,-0.786 -0.633,-0.529 -1.039,-0.31 -1.851,-0.285 -0.795,0.031 -2.599,-0.042 -3.153,-0.769 l -0.473,-0.542 c 0.57,0.23 0.811,0.093 1.307,-0.154 0.898,-0.446 1.408,-0.42 2.429,-0.323 1.094,0.101 2.15,0.072 3.25,0.129 0.802,0.039 2.05,-0.076 2.793,0.164 0.159,0.051 0.204,0.361 0.37,0.397 0.245,0.057 0.548,-0.164 0.822,-0.122 0.387,0.057 0.662,0.386 1.128,0.319 -0.173,-0.604 0.436,-0.193 0.772,-0.105 0.225,0.061 0.729,0.015 0.892,0.133 0.012,0.01 0.019,0.032 0.029,0.043 0.86,-0.929 1.716,-1.855 2.565,-2.772 -0.353,0.152 -0.728,0.175 -1.27,-0.031 -1.205,-0.457 -2.612,-1.497 -3.072,-2.774 0.366,-0.113 0.748,-0.278 1.007,-0.566 -0.5,-0.591 0.078,-2.461 0.126,-3.167 0.052,-0.777 0.402,-1.422 0.505,-2.186 0.061,-0.456 -0.293,-1.811 -0.074,-2.074 0.202,-0.241 1.635,-0.186 2,-0.149 0.745,0.07 0.996,-0.102 0.976,0.648 -0.012,0.573 -0.954,0.907 -0.547,1.639 0.239,0.425 1.151,0.739 1.508,1.072 0.428,-0.16 0.876,0.077 1.154,0.45 -1.173,0.848 -0.153,1.451 0.159,2.446 0.184,0.593 0.237,0.898 0.584,1.391 0.533,-0.578 1.064,-1.153 1.588,-1.717 -0.08,-0.281 -0.14,-0.575 -0.214,-0.763 -0.228,-0.587 -0.813,-1.143 -0.97,-1.708 -0.428,-1.564 2.484,-2.503 2.853,-4.066 1.358,1.587 -2.015,2.692 -2.43,3.592 -0.228,0.494 -0.183,0.972 0.645,1.044 0.78,0.066 1.129,-0.744 1.687,-1.239 0.149,0.678 0.038,0.894 0.27,1.148 1.827,-1.975 3.539,-3.831 5.103,-5.525 -0.188,-0.084 -0.358,-0.217 -0.495,-0.438 -0.414,-0.678 0.198,-1.367 0.907,-1.609 0.373,-0.128 0.821,0.008 1.282,0.209 3.772,-4.092 6.326,-6.879 6.676,-7.299 1.025,-1.228 3.439,-4.68 3.464,-7.081 0.012,-1.239 -0.668,-4.444 -2.204,-5.977 z"
           id="path1959" />
        <path
           style="fill:#f18407;fill-rule:nonzero;stroke:none"
           d="m 101.716,961.07 0.596,4.795 c 0.147,-1.323 -0.018,-2.924 -0.596,-4.795 z"
           id="path1961" />
        <path
           style="fill:#f18407;fill-rule:nonzero;stroke:none"
           d="m 63.9072,921.375 c -1.374,-0.866 -2.5722,0.999 -2.7832,2.146 0.2627,0.21 0.3858,0.49 0.5938,0.701 0.9668,-0.692 1.8799,-1.701 2.1894,-2.847 z"
           id="path1963" />
        <path
           style="fill:#f18407;fill-rule:nonzero;stroke:none"
           d="m 61.8184,924.313 c -0.0371,-0.029 -0.0694,-0.061 -0.1006,-0.091 -0.0166,0.009 -0.0332,0.023 -0.0489,0.034 z"
           id="path1965" />
        <path
           style="fill:#f18407;fill-rule:nonzero;stroke:none"
           d="m 79.998,915.738 c 0.3311,0.004 0.6583,-0.037 0.9854,-0.081 -0.7324,-0.008 -1.4639,-0.016 -2.1963,-0.037 0.4121,0.072 0.8203,0.114 1.2109,0.118 z"
           id="path1967" />
        <path
           style="fill:#f18407;fill-rule:nonzero;stroke:none"
           d="m 42.989334,913.249 c 0.2128,-0.79 0.6543,-2.172 0.4248,-2.974 -0.0459,-0.154 -0.0957,-0.242 -0.1436,-0.344 -0.248,-0.523 -0.5605,-0.506 -1.1738,-0.998 -0.9668,-0.774 -1.0996,-2.044 -1.792,-2.694 -0.5508,-0.521 -1.8047,-0.542 -2.4492,-0.718 -2.2784,-0.627 -4.6162,-0.389 -6.7217,-1.53 -0.1533,-0.083 -0.2744,-0.159 -0.417,-0.24 -1.5039,-0.838 -2.4736,-1.572 -3.1436,-3.305 -0.7314,-1.892 -1.0263,-3.757 -1.6406,-5.677 -0.6289,-1.975 -0.8642,-3.259 0.1983,-5.185 0.5322,-0.963 1.1836,-1.47 1.497,-2.611 0.2295,-0.843 0.0508,-1.383 0.5899,-2.179 0.872,-1.281 2.5127,-2.038 3.7002,-2.954 0.7197,-0.555 1.3506,-1.367 2.209,-1.819 0.7519,-0.4 1.707,-0.412 2.3564,-0.863 l -0.0186,0.039 c 0.1963,-0.055 0.253,-0.328 0.3584,-0.503 0.1817,-0.308 0.4493,-0.551 0.6719,-0.826 0.0313,-0.038 0.0654,-0.074 0.0938,-0.115 -1.918,-0.842 -3.2168,-1.393 -3.5889,-1.499 -0.8154,-0.233 -1.7402,-0.487 -2.7324,-0.511 -1.6563,-0.038 -3.5,0.568 -5.3457,2.997 -2.9512,3.884 -24.5625496,37.769 -25.33892563,39.634 -0.269531,0.648 -0.5791021,1.859 -0.58300837,3.275 -0.00976563,2.655 1.0419944,6.032 5.3984444,7.755 2.63672,1.043 16.7792896,7.521 33.1523896,15.034 -0.0195,-0.124 -0.0381,-0.25 -0.0596,-0.374 -0.2734,-1.662 -0.0742,-3.281 0.0742,-4.883 0.0801,-0.849 0.1485,-1.693 0.1162,-2.535 -0.042,-1.205 -0.5761,-2.312 -0.7587,-3.47 -0.0684,-0.426 -0.0928,-0.86 -0.0225,-1.307 0.1894,-1.218 0.9512,-1.759 1.709,-2.415 0.1865,-0.161 0.373,-0.321 0.5498,-0.509 1.1963,-1.276 1.9814,-3.151 2.6582,-4.745 0.8808,-2.085 0.4687,-3.49 0.0137,-5.588 -0.4952,-2.29 -0.4248,-3.213 0.1582,-5.363 z"
           id="path1969" />
        <path
           style="fill:#f18407;fill-rule:nonzero;stroke:none"
           d="m 59.3516,932.372 c 0.3056,1.291 -0.2793,2.396 -0.6006,3.875 0.206,0.15 0.6094,0.296 0.8603,0.31 0.3838,-0.903 1.0362,-2.095 1.169,-3.068 0.2051,-1.479 -0.5225,-1.897 -1.3008,-2.906 -0.8359,-1.088 -0.6211,-1.111 -0.6631,-2.424 -0.0264,-0.778 -0.3144,-1.613 -0.5615,-2.425 l -0.2158,-0.786 c -0.0352,-0.88 -0.4151,-1.698 -1.1348,0.247 -0.4121,1.111 0.1846,2.495 0.5977,3.416 0.5703,1.279 1.5341,2.423 1.8496,3.761 z"
           id="path1971" />
        <path
           style="fill:#931127;fill-rule:nonzero;stroke:none"
           d="m 136.082,877.238 c -0.87,-1.292 -2.459,-2.621 -2.496,-4.008 -1.984,2.578 -0.82,2.44 -1.524,3.333 1.491,-0.071 2.659,0.353 4.02,0.675 z"
           id="path1973" />
        <path
           style="fill:#931127;fill-rule:nonzero;stroke:none"
           d="m 139.921,905.266 c -0.858,0.441 0.729,2.214 1.392,2.282 1.495,0.152 -0.757,-2.016 -1.008,-2.299 z"
           id="path1975" />
        <path
           style="fill:#931127;fill-rule:nonzero;stroke:none"
           d="m 156.935,923.622 c -0.278,-0.373 -0.726,-0.61 -1.154,-0.45 -0.357,-0.333 -1.269,-0.647 -1.508,-1.072 -0.407,-0.732 0.535,-1.066 0.547,-1.639 0.02,-0.75 -0.231,-0.578 -0.976,-0.648 -0.365,-0.037 -1.798,-0.092 -2,0.149 -0.219,0.263 0.135,1.618 0.074,2.074 -0.103,0.764 -0.453,1.409 -0.505,2.186 -0.048,0.706 -0.626,2.576 -0.126,3.167 -0.259,0.288 -0.641,0.453 -1.007,0.566 0.44,1.219 1.743,2.224 2.908,2.709 0.054,0.024 4,-4.281 4,-4.281 0,0 -0.058,-0.2 -0.094,-0.315 -0.312,-0.995 -1.332,-1.598 -0.159,-2.446 z"
           id="path1977" />
        <path
           style="fill:#931127;fill-rule:nonzero;stroke:none"
           d="m 158.028,923.861 c -0.828,-0.072 -0.873,-0.55 -0.644,-1.044 0.414,-0.9 3.788,-2.004 2.429,-3.593 -0.369,1.564 -3.281,2.503 -2.852,4.066 0.156,0.566 0.741,1.122 0.97,1.709 0.044,0.113 0.125,0.428 0.125,0.428 l 1.786,-1.932 c 0,0 -0.029,-0.434 -0.126,-0.873 -0.559,0.495 -0.907,1.305 -1.688,1.239 z"
           id="path1979" />
        <path
           style="fill:#931127;fill-rule:nonzero;stroke:none"
           d="m 126.832,940.313 c 0.263,0.297 0.513,0.611 0.819,0.858 0.391,0.318 0.595,0.359 1.061,0.45 -0.06,-0.806 0.75,-1.325 0.036,-2.05 -0.563,-0.574 -2.011,-0.972 -2.724,-0.814 l -0.003,0.086 c -0.082,0.419 0.427,1.032 0.811,1.47 z"
           id="path1981" />
        <path
           style="fill:#931127;fill-rule:nonzero;stroke:none"
           d="m 150.85,933.251 c 0,0 -0.616,-0.243 -0.486,0.21 -0.466,0.067 -0.741,-0.262 -1.128,-0.319 -0.274,-0.042 -0.577,0.179 -0.822,0.122 -0.166,-0.036 -0.211,-0.346 -0.37,-0.397 -0.743,-0.24 -1.991,-0.125 -2.793,-0.164 -1.1,-0.057 -2.156,-0.028 -3.25,-0.129 -1.021,-0.097 -1.531,-0.123 -2.429,0.323 -0.496,0.247 -0.737,0.384 -1.307,0.154 l 0.473,0.542 c 0.554,0.727 2.358,0.8 3.153,0.769 0.812,-0.025 1.218,-0.244 1.851,0.285 0.523,0.437 0.764,0.604 1.405,0.786 0.975,0.273 2.856,0.838 2.856,0.838 z"
           id="path1983" />
        <path
           style="fill:#931127;fill-rule:nonzero;stroke:none"
           d="m 110.009,936.331 c 0.454,0.68 1.403,0.494 2.101,0.569 0.219,-0.694 0.235,-1.461 0.27,-2.233 0.883,0.618 1.564,1.361 2.324,2.162 1.036,1.097 2.383,1.526 3.745,2.088 1.303,0.533 2.552,1.074 3.858,1.565 0.993,0.375 1.975,1.219 3.074,1.142 0.257,-0.424 0.375,-0.887 0.378,-1.385 0.022,-2.316 -2.297,-3.255 -3.247,-5.167 -0.707,-1.417 -0.206,-4.129 0.055,-5.666 0.172,-1.002 -0.012,-1.806 0.078,-2.763 0.062,-0.682 0.494,-1.182 0.811,-1.753 0.51,-0.92 0.192,-0.736 1.194,-0.613 1.339,0.161 3.28,0.314 4.466,1.003 1.435,0.834 2.223,2.06 2.706,-0.165 1.253,0.17 2.666,1.034 3.757,1.669 1.157,0.675 1.628,2.121 2.807,2.745 0.66,0.348 1.593,0.368 2.334,0.638 0.737,0.272 1.227,0.624 1.874,0.964 1.5,0.791 3.894,0.796 5.346,-0.115 -0.496,-0.738 -1.639,-0.939 -2.419,-1.355 -0.984,-0.526 -1.746,-0.609 -2.868,-0.671 -1.263,-0.071 -2.642,0.073 -3.751,-0.691 -0.811,-0.561 -1.982,-2.205 -2.131,-3.182 1.848,-0.738 4.11,0.313 5.901,0.377 0.168,-1.306 0.81,-3.235 0.174,-4.506 -0.844,-1.68 -2.714,-1.902 -4.399,-2.047 -1.287,-0.107 -3.074,-1.037 -3.146,-2.463 -0.051,-0.983 0.822,-2.437 1.839,-1.391 -0.402,1.009 1.162,1.939 1.751,1.203 0.843,-1.056 -0.909,-1.416 -1.266,-1.725 -1.195,-1.044 0.406,-2.435 0.998,-3.457 0.625,-1.084 1.023,-2.073 1.088,-3.326 0.082,-1.553 -0.412,-2.702 -1.627,-3.79 -0.658,-0.588 -1.889,-1.776 -2.662,-2.088 -1.175,-0.48 -2.752,-0.149 -3.934,-0.661 -0.996,-0.432 -1.01,-1.856 -0.896,-2.933 -0.833,0.554 -3.036,3.336 -3.914,1.041 -0.496,-1.297 0.719,-2.654 1.837,-1.405 0.224,-0.337 1.158,-1.456 1.614,-1.526 0.441,-0.07 0.698,0.375 1.176,0.471 0.647,0.132 1.107,-0.318 1.771,-0.346 0.439,-0.026 0.967,0.154 1.399,0.279 1.087,0.309 1.677,0.846 2.389,-0.27 0.297,-0.461 0.566,-1.098 0.304,-1.507 -0.767,-1.218 -4.293,-0.421 -5.399,-0.472 -0.024,-0.335 0.085,-0.908 -0.001,-1.227 -0.114,-0.414 -0.471,-0.635 -0.594,-1.053 -0.247,-0.834 0.398,-1.649 0.38,-2.457 -0.08,-2.992 -3.847,-5.508 -6.39,-6.592 -1.955,1.898 -2.993,4.092 -5.365,5.678 -10.266,6.867 -17.945,7.428 -20.0197,9.567 -1.0537,1.085 -1.4531,2.456 -1.4854,3.891 -0.0332,1.541 0.3575,3.158 0.8204,4.58 0.7002,2.154 4.8247,16.177 8.6777,29.349 1.028,-0.128 2.105,-0.586 2.917,-0.984 -0.114,0.384 -0.459,0.623 -0.7,1.004 z"
           id="path1985" />
        <path
           style="fill:#931127;fill-rule:nonzero;stroke:none"
           d="m 130.016,883.725 c 1.234,0.332 3.016,1.774 3.984,0.593 -0.466,-0.375 -0.807,-0.359 -1.339,-0.446 -0.672,-0.112 -1.235,-0.309 -1.946,-0.553 0.286,-0.27 0.681,-0.426 0.971,-0.717 -0.638,-0.47 -1.986,-0.032 -2.756,-0.09 -0.482,-0.036 -2.09,-0.469 -2.5,-0.595 -1.344,1.344 0.515,1.055 0.147,1.417 1.126,-0.149 2.444,0.124 3.439,0.391 z"
           id="path1987" />
        <path
           style="fill:#931127;fill-rule:nonzero;stroke:none"
           d="m 149.031,912.986 c 0.092,-1.093 2.44,0.283 2.851,-0.256 -0.209,-0.235 -0.366,-0.489 -0.638,-0.616 0.041,-0.354 -0.072,-0.67 -0.304,-0.915 -1.193,0.358 -2.108,0.971 -3.128,-0.074 -0.494,-0.511 -0.437,-0.935 -1.044,-1.19 -0.389,-0.159 -1.302,-0.329 -1.433,0.315 -0.045,0.229 1.411,2.215 1.609,2.344 0.402,0.267 1.009,-0.054 1.4,0.229 0.236,0.172 0.215,0.503 0.34,0.628 0.412,0.407 0.639,0.787 1.221,0.504 l 0.069,0.077 c 0.053,-0.596 -0.383,-1.057 -0.943,-1.046 z"
           id="path1989" />
        <path
           style="fill:#931127;fill-rule:nonzero;stroke:none"
           d="m 151.047,913.478 c 0.131,0.023 -0.199,0.025 0,0 -0.211,-0.037 -0.418,-0.018 -0.621,0.098 -0.022,0.539 0.638,1.004 1.07,1.239 0.141,-0.127 0.233,-0.305 0.284,-0.492 0.009,-0.125 0.033,-0.109 0,0 -0.016,0.282 0.027,0.599 0.266,0.722 0.098,0.053 0.542,0.022 0.604,-0.065 0.129,-0.178 -0.068,-0.19 -0.028,-0.309 0.112,-0.315 0.079,-0.166 0.361,-0.382 0.229,-0.169 0.41,-0.237 0.301,-0.65 -0.772,0.044 -0.385,0.113 -0.787,-0.374 -0.157,-0.192 -0.227,-0.352 -0.533,-0.246 0.021,0.17 0.1,0.377 0.08,0.544 -0.233,-0.093 -0.644,-0.13 -0.997,-0.085 z"
           id="path1991" />
        <path
           style="fill:#931127;fill-rule:nonzero;stroke:none"
           d="m 151.449,913.991 c -0.021,0.09 1.462,0.208 1.453,0.332 0.033,-0.109 -1.432,-0.219 -1.453,-0.332"
           id="path1993" />
        <path
           style="fill:#931127;fill-rule:nonzero;stroke:none"
           d="m 150.168,913.639 2.397,-0.012 c -0.135,-0.099 -1.765,-0.125 -1.896,-0.148"
           id="path1995" />
        <path
           style="fill:#931127;fill-rule:nonzero;stroke:none"
           d="m 163.092,919.129 c -0.092,-0.07 -0.108,-0.122 -0.108,-0.122 -0.48,-0.304 -0.675,-0.486 -0.127,-0.864 -0.266,-0.339 -0.464,-0.712 -0.732,-1.018 -0.06,0.106 -0.169,0.18 -0.215,0.32 -0.065,-0.507 -0.211,-1.195 -0.756,-1.006 -0.591,0.209 -0.357,0.848 -0.104,1.265 0.466,0.76 1.081,1.567 2.042,1.425 z"
           id="path1997" />
        <path
           style="fill:#931127;fill-rule:nonzero;stroke:none"
           d="m 141.771,896.707 c -0.085,-0.353 -0.667,-1.248 -1.016,-1.429 -0.325,-0.172 -1.083,0.152 -1.224,-0.105 -0.342,-0.634 1.226,-0.151 1.386,-0.193 0.953,-0.242 0.37,-1.341 0.126,-1.922 0.406,-0.039 0.862,0 1.242,-0.056 -0.377,-1.048 0.689,-1.544 0.86,-2.589 0.142,-0.914 -0.714,-1.527 -1.282,-2.175 -0.755,-0.861 -1.492,-1.693 -2.715,-1.716 -0.574,-0.013 -2.014,0.472 -2.407,-0.199 0.497,-0.551 1.191,-0.668 1.459,-1.309 0.092,-0.229 0.319,-1.035 0.245,-1.234 -0.375,-1.009 -3.935,0.652 -4.608,1.319 0.317,0.61 0.902,0.423 1.352,0.735 0.334,0.23 0.383,0.486 0.53,0.816 0.363,0.851 1.058,0.592 1.826,0.984 0.682,0.347 1.646,0.742 2.201,1.299 0.294,0.292 1.049,2.383 0.112,1.95 -0.199,0.596 0.142,1.2 -0.212,1.771 -0.427,0.686 -0.947,1.107 -1.097,1.94 -0.069,0.387 -0.067,2.972 0.86,2.534 l -0.138,-0.519 c 0.132,-0.092 0.3,-0.084 0.432,-0.211 0.278,0.245 1.02,0.569 1.385,0.743 0.557,0.27 0.847,0.234 0.683,-0.434 z"
           id="path1999" />
        <path
           style="fill:#931127;fill-rule:nonzero;stroke:none"
           d="m 154.116,916.227 c 0.187,0.137 1.032,0.222 1.266,0.237 0.384,0.015 0.277,0.244 0.632,0.182 0.354,-0.06 0.903,-0.722 1,-0.999 -0.774,-0.243 -0.833,-0.936 -1.23,-1.5 -0.376,-0.538 -0.851,-0.947 -1.39,-1.262 -1.54,0.167 -1.495,-0.466 -2.485,-1.295 -0.102,0.015 -0.229,0.034 -0.334,0.049 0.586,1.299 2.521,1.214 2.778,2.16 0.257,0.955 -0.78,0.907 -1.04,1.335 -0.257,0.419 -0.085,1.131 0.123,1.507 l 0.31,0.659 c -0.003,-0.415 -0.022,-0.868 0.37,-1.073 z"
           id="path2001" />
        <path
           style="fill:#931127;fill-rule:nonzero;stroke:none"
           d="m 149.408,915.736 c 0.1,0.98 -0.049,2.195 0.154,3.199 0.192,-0.141 0.456,-0.314 0.612,-0.511 l -0.285,-0.018 c 0.219,-0.298 0.262,-2.613 -0.481,-2.67 z"
           id="path2003" />
        <path
           style="fill:#931127;fill-rule:nonzero;stroke:none"
           d="m 165.582,916.137 c -0.709,0.242 -1.321,0.931 -0.907,1.608 0.064,0.106 0.217,0.261 0.217,0.261 l 1.667,-1.783 c 0,0 -0.687,-0.185 -0.977,-0.086 z"
           id="path2005" />
        <path
           style="fill:#fbc88f;fill-rule:nonzero;stroke:none"
           d="m 85.0225,901.439 c -0.21,-0.376 -0.4493,-0.755 -0.7168,-1.135 0.2041,0.407 0.4589,0.799 0.7168,1.135 z"
           id="path2007" />
        <path
           style="fill:#fbc88f;fill-rule:nonzero;stroke:none"
           d="m 37.7031,877.804 c -0.0381,-0.016 -0.0761,-0.033 -0.1142,-0.051 -0.0284,0.041 -0.0625,0.077 -0.0938,0.115 0.0694,-0.023 0.1397,-0.042 0.208,-0.064 z"
           id="path2009" />
        <path
           style="fill:#fbc88f;fill-rule:nonzero;stroke:none"
           d="m 75.248,911.766 c -0.1542,-0.348 -0.3544,-0.711 -0.6455,-1.163 0.0479,0.293 0.128,0.558 0.2627,0.772 0.0938,0.147 0.2461,0.264 0.3828,0.391 z"
           id="path2011" />
        <path
           style="fill:#fbc88f;fill-rule:nonzero;stroke:none"
           d="m 54.2031,903.298 -0.333,-0.346 c 0.0322,0.114 0.1143,0.229 0.2276,0.34 0.0361,-0.002 0.0683,0.014 0.1054,0.006 z"
           id="path2013" />
        <path
           style="fill:#f18407;fill-rule:nonzero;stroke:none"
           d="m 65.1094,949.816 -0.3408,0.185 c -1.127,-0.111 -2.3477,0.31 -2.8038,-1.351 -0.0927,-0.334 -0.0878,-0.628 -0.0468,-0.904 0.1924,-1.332 1.6709,-2.105 2.3496,-3.201 1.0185,-1.641 0.6504,-2.495 2.2461,-3.354 1.6855,-0.901 3.0888,-1.383 4.791,-2.612 0.123,0.222 0.2021,0.463 0.2558,0.716 0.7129,3.345 -4.3603,9.116 -6.4511,10.521 z m 36.6066,11.254 c -0.04,-0.131 -0.066,-0.25 -0.109,-0.382 -2.3716,-7.114 -8.4615,-29.324 -8.4615,-29.324 l -0.1269,-0.243 c -2.71,-9.036 -4.2129,-15.162 -5.0889,-19.118 -0.0498,-0.222 -0.0986,-0.442 -0.1445,-0.65 -2.7022,1.03 -6.4014,1.108 -9.1475,0.942 -2.9522,-0.183 -1.4785,-1.697 -1.6553,-3.941 -0.1103,-1.414 -0.6992,-2.845 -0.7939,-4.285 -0.0977,-1.439 0.2148,-3.025 -0.2549,-4.506 -0.5703,-1.794 -2.0693,-4.802 -3.5986,-5.885 0.4834,2.611 0.5166,5.28 0.5771,7.968 0.0274,1.188 0.0606,2.379 0.1406,3.573 0.1494,2.21 0.3369,3.507 1.5479,5.379 0.001,0.002 0.001,0.003 0.0019,0.005 0.2911,0.452 0.4913,0.815 0.6455,1.163 0.3165,0.714 0.3418,1.343 -0.0917,2.401 1.0107,0.693 2.3417,1.227 3.6308,1.453 0.7324,0.021 1.4639,0.029 2.1963,0.037 0.6338,-0.085 1.2637,-0.179 1.8906,0.033 0.8047,2.602 -3.748,5.454 -5.584,6.256 -1.8554,0.81 -3.9287,0.888 -5.5918,1.849 -1.0732,0.621 -1.8632,1.625 -2.9023,2.381 -1.9814,1.438 -2.1572,1.686 -2.6895,3.992 -0.4501,1.939 -0.8574,3.979 -1.5156,5.863 -0.7734,2.21 -2.5908,3.354 -4.666,4.238 -0.415,0.177 -0.831,0.258 -1.2363,0.346 -0.6114,0.133 -1.1953,0.285 -1.6924,0.819 -0.1953,0.209 -0.335,0.483 -0.4561,0.777 -0.291,0.71 -0.4511,1.567 -0.8222,2.138 -1.0283,1.584 -2.1563,1.405 -3.3858,1.964 -0.2675,0.12 -0.5361,0.264 -0.8134,0.481 -0.5479,0.432 -0.917,0.943 -1.2334,1.471 -0.2471,0.41 -0.4668,0.829 -0.7022,1.235 22.2139,10.191 44.7764,20.506 46.709,20.989 1.6182,0.405 3.3047,0.02 4.488,-1.157 0.797,-0.793 1.36,-1.954 1.532,-3.467 z"
           id="path2015" />
        <path
           style="fill:#d86a09;fill-rule:nonzero;stroke:none"
           d="m 63.7051,924.222 c 0.0312,0.03 0.0635,0.062 0.1006,0.091 l -0.1494,-0.057 c 0.0156,-0.011 0.0322,-0.025 0.0488,-0.034 -0.208,-0.211 -0.3311,-0.491 -0.5938,-0.701 0.211,-1.147 1.4092,-3.012 2.7832,-2.146 -0.3095,1.146 -1.2226,2.155 -2.1894,2.847 z m -2.1065,12.335 c -0.2509,-0.014 -0.6543,-0.16 -0.8603,-0.31 0.3213,-1.479 0.9062,-2.584 0.6006,-3.875 -0.3155,-1.338 -1.2793,-2.482 -1.8496,-3.761 -0.4131,-0.921 -1.0098,-2.305 -0.5977,-3.416 0.7197,-1.945 1.0996,-1.127 1.1348,-0.247 l 0.2158,0.786 c 0.2471,0.812 0.5351,1.647 0.5615,2.425 0.042,1.313 -0.1728,1.336 0.6631,2.424 0.7783,1.009 1.5059,1.427 1.3008,2.906 -0.1328,0.973 -0.7852,2.165 -1.169,3.068 z M 56.085,903.292 c -0.1133,-0.111 -0.1954,-0.226 -0.2276,-0.34 l 0.333,0.346 c -0.0371,0.008 -0.0693,-0.008 -0.1054,-0.006 z m 26.8857,12.365 c -0.3271,0.044 -0.6553,0.085 -0.9853,0.081 -0.3907,-0.004 -0.7979,-0.046 -1.211,-0.118 -1.289,-0.226 -2.6201,-0.76 -3.6308,-1.453 0.4335,-1.058 0.4082,-1.687 0.0918,-2.401 -0.1368,-0.127 -0.2891,-0.244 -0.3829,-0.391 -0.1347,-0.214 -0.2148,-0.479 -0.2627,-0.772 -9e-4,-0.002 -9e-4,-0.003 -0.0019,-0.005 -1.2109,-1.872 -1.3984,-3.169 -1.5479,-5.379 -0.08,-1.194 -0.1132,-2.385 -0.1406,-3.573 -0.0576,-2.536 -0.0859,-4.646 -0.4961,-7.114 -0.0254,-0.149 0.502,-0.143 0.7637,0.148 1.2295,1.37 2.2832,3.404 2.7539,4.883 0.4697,1.481 0.1572,3.067 0.2549,4.506 0.0957,1.44 0.6846,2.871 0.7939,4.285 0.1778,2.244 -1.2881,4.24 1.6631,4.423 2.1514,0.13 7.2637,-0.881 7.2637,-0.881 0,0 -0.0576,-2.373 -4.5449,-5.494 -2.8682,-1.996 -6.6514,-11.004 -10.837,-12.783 -17.2646,-7.338 -33.4345,-15.297 -33.5283,-15.18 -0.0634,0.082 -0.123,0.166 -0.1758,0.255 -0.1054,0.175 -0.1621,0.448 -0.3584,0.503 l 0.0176,-0.039 c -0.6484,0.451 -1.6035,0.463 -2.3554,0.863 -0.8584,0.452 -1.4893,1.264 -2.209,1.819 -1.1865,0.916 -2.8282,1.673 -3.7002,2.954 -0.5391,0.796 -0.3604,1.336 -0.5899,2.179 -0.3134,1.141 -0.9648,1.648 -1.497,2.611 -1.0625,1.926 -0.8272,3.21 -0.1983,5.185 0.6143,1.92 0.9082,3.785 1.6406,5.677 0.67,1.733 1.6387,2.467 3.1436,3.305 0.1426,0.081 0.2637,0.157 0.417,0.24 2.1055,1.141 4.4434,0.903 6.7217,1.53 0.6435,0.176 1.8984,0.197 2.4492,0.718 0.6924,0.65 0.8242,1.92 1.792,2.694 0.6133,0.492 0.9258,0.475 1.1738,0.998 0.0479,0.102 0.0977,0.19 0.1436,0.344 0.2295,0.802 -0.2119,2.184 -0.4248,2.974 -0.583,2.15 -0.6534,3.073 -0.1582,5.363 0.455,2.098 0.8671,3.503 -0.0137,5.588 -0.6768,1.594 -1.4619,3.469 -2.6572,4.745 -0.1778,0.188 -0.3643,0.348 -0.5508,0.509 -0.7578,0.656 -1.5196,1.197 -1.709,2.415 -0.0703,0.447 -0.0459,0.881 0.0215,1.307 0.1846,1.158 0.7178,2.265 0.7597,3.47 0.0313,0.842 -0.0361,1.686 -0.1162,2.535 -0.1484,1.602 -0.3476,3.221 -0.0732,4.883 0.0205,0.124 0.0391,0.25 0.0586,0.374 0.5058,0.232 1.0049,0.461 1.5156,0.695 2.9727,1.365 3.5645,2.543 6.6104,3.941 0.1543,0.07 2.4082,1.1 2.5625,1.172 0.2353,-0.407 0.7988,-1.571 1.0459,-1.981 0.3164,-0.528 0.6855,-1.039 1.2334,-1.471 0.2763,-0.217 0.5459,-0.361 0.8134,-0.481 1.2295,-0.559 2.3575,-0.38 3.3858,-1.964 0.3711,-0.571 0.5312,-1.428 0.8222,-2.138 0.1211,-0.294 0.2608,-0.568 0.4561,-0.777 0.4971,-0.534 1.0811,-0.686 1.6924,-0.819 0.4053,-0.088 0.8213,-0.169 1.2363,-0.346 2.0752,-0.884 3.8926,-2.028 4.666,-4.238 0.6582,-1.884 1.0655,-3.924 1.5157,-5.863 0.5322,-2.306 0.708,-2.554 2.6884,-3.992 1.0401,-0.756 1.8301,-1.76 2.9033,-2.381 1.6631,-0.961 3.7374,-1.039 5.5918,-1.849 1.836,-0.802 6.3887,-3.654 5.584,-6.256 -0.6269,-0.212 -1.2568,-0.118 -1.8906,-0.033 z"
           id="path2017" />
        <path
           style="fill:#d86a09;fill-rule:nonzero;stroke:none"
           d="m 73.5479,939.295 c -0.0538,-0.253 -0.1329,-0.494 -0.2559,-0.716 -1.7022,1.229 -3.1045,1.711 -4.79,2.612 -1.5967,0.859 -1.2286,1.713 -2.2471,3.354 -0.6787,1.096 -2.1572,1.869 -2.3496,3.201 -0.041,0.276 -0.0449,0.57 0.0468,0.904 0.4551,1.661 1.6758,1.24 2.8038,1.351 l 0.3408,-0.185 c 2.0908,-1.405 7.164,-7.176 6.4512,-10.521 z"
           id="path2019" />
        <path
           style="fill:#fbc88f;fill-rule:nonzero;stroke:none"
           d="m 71.5605,939.295 c -0.0537,-0.253 -0.1328,-0.494 -0.2558,-0.716 -1.7022,1.229 -3.1055,1.711 -4.791,2.612 -1.5957,0.859 -1.2276,1.713 -2.2461,3.354 -0.6787,1.096 -2.1572,1.869 -2.3496,3.201 -0.041,0.276 -0.0459,0.57 0.0468,0.904 0.4561,1.661 1.6768,1.24 2.8038,1.351 l 0.3408,-0.185 c 2.0908,-1.405 7.164,-7.176 6.4511,-10.521 z"
           id="path2021" />
        <path
           style="fill:#6fbbd4;fill-rule:nonzero;stroke:none"
           d="m 117.18,863.917 c -2.665,-0.134 -1.569,0.809 -2.452,2.375 l 0.472,0.457 c -1.111,-0.151 -2.995,-1.981 -3.257,-2.936 1.243,0.105 2.432,-1.034 3.651,-1.288 1.551,-0.321 5.307,0.838 5.775,2.399 -1.473,-0.568 -2.568,-0.922 -4.189,-1.007 z m -7.385,1.719 c 0.146,-0.193 0.393,-0.405 0.645,-0.514 l -0.137,-0.079 c 0.263,0.091 0.545,0.305 0.764,0.464 -0.238,0.681 -0.74,0.704 -1.272,0.129 z m -35.8018,-1.885 c -0.8662,0.784 -4.4317,-0.605 -5.2286,-1.221 l 0.1202,0.435 c -0.2832,-0.159 -0.5313,-0.343 -0.709,-0.618 0.7353,-0.263 1.3555,-0.01 2.0879,-0.192 -0.416,-0.498 -0.459,-0.888 -0.0987,-1.377 0.169,0.101 0.3672,0.171 0.5381,0.256 0.0899,-1.193 1.0713,-0.404 1.2832,-0.869 0.3731,-0.834 -0.6572,-1.704 -0.5293,-2.477 0.125,-0.75 1.7237,-2.272 2.7325,-1.752 -0.3047,0.067 -0.7598,0.431 -0.9932,0.508 0.4043,0.348 0.8174,0.738 1.1787,1.114 -0.3701,0.416 -0.7529,0.773 -1.1348,1.077 0.5235,0.998 1.7735,4.189 0.753,5.116 z m -7.3565,-3.912 c -0.2744,-0.089 -0.5635,-0.318 -0.7969,-0.481 0.2715,-0.565 0.9248,-0.659 1.5616,-0.547 -0.0957,-0.396 -0.0703,-1.039 -0.2901,-1.455 0.5479,0.046 1.834,-0.131 2.335,0.049 0.7432,0.266 1.5293,1.142 0.4541,1.265 -0.0654,0.007 -0.1123,0.021 -0.1914,0.023 -0.2119,0.445 -0.5947,0.864 -0.8018,1.315 -0.5771,-0.124 -1.0664,0.048 -1.5654,0.029 -0.2305,-0.011 -0.4619,-0.049 -0.7051,-0.198 z m 61.5263,-5.691 c -2.797,-1.242 -36.1737,-11.093 -39.1249,-12.182 -1.1074,-0.406 -2.3447,-0.617 -3.583,-0.623 -2.0635,-0.011 -4.126,0.547 -5.583,1.712 -2.3311,1.864 -10.7569,12.241 -20.5733,16.831 -8.7861,4.108 -11.9267,3.541 -15.2861,4.363 -1.5801,0.385 -2.3115,1.582 -2.4307,2.211 -0.1679,0.892 -0.0615,2.429 2.3946,3.558 1.4297,0.657 5.1455,2.503 11.5097,5.485 0.0147,-0.004 0.0283,-0.013 0.043,-0.018 1.0693,-0.428 2.6777,-1.006 3.8437,-0.665 1.0284,0.304 1.3545,1.472 2.5655,1.934 1.1582,0.442 2.4678,0.389 3.6719,0.637 1.7587,0.359 7.038,1.828 6.6425,4.387 -0.0781,0.511 -0.3476,0.805 -0.6133,1.064 4.0098,1.737 7.5489,3.179 9.8917,3.946 1.2246,0.401 2.3398,0.72 3.4033,0.999 0.0244,-0.04 0.0381,-0.096 0.0674,-0.127 -0.2881,-0.382 -0.5674,-2.238 -0.3291,-2.599 0.8085,-1.215 2.0654,-0.096 3.1523,0.008 -1.4023,-1.469 -2.9072,-1.537 -4.5537,-2.625 -0.6543,1.171 0.6435,2.495 0.0537,3.646 -0.5088,-0.081 -0.9951,-0.28 -1.4424,-0.585 -0.0869,0.299 -0.4883,0.608 -0.5742,0.904 -1.8281,-0.46 -0.7197,-1.449 -0.5527,-2.502 0.1494,-0.944 -0.1455,-1.928 -0.0391,-2.903 0.0742,-0.656 0.5293,-0.924 0.4248,-1.6 -0.0947,-0.615 -0.9053,-1.243 -1.2168,-1.795 -0.6064,-1.066 -0.8691,-3.183 -2.1728,-3.473 -1.2168,2.306 3.2626,5.352 2.2031,7.268 -0.6914,-0.254 -0.9268,-0.664 -1.3447,-1.082 -0.2754,0.549 -0.6573,0.977 -1.0333,1.354 0.0547,-0.057 -1.4257,1.04 -1.2431,0.996 -1.8486,0.44 -1.3516,-1.132 -1.9004,-2.196 1.1103,-0.655 1.8262,0.897 2.8008,0.358 1.1933,-0.662 0.3838,-2.17 -0.1192,-3.014 -0.6552,-1.101 -0.8183,-1.74 -1.208,-2.97 -0.5859,-1.855 -0.9619,-1.276 -2.539,-1.742 -0.6953,-0.202 -1.6104,-1.137 -2.2842,-1.181 -0.9795,-0.063 -0.8701,0.603 -1.624,0.922 -1.3125,0.561 -2.4454,0.118 -3.7715,1.14 -1.6143,1.238 -1.6944,1.116 -3.8164,0.568 -1.2471,-0.328 -3.1143,-0.92 -3.5957,-2.435 -0.5088,-1.599 1.0674,-2.132 1.8291,-2.898 1.2959,-1.298 1.1738,-2.754 3.2412,-1.724 1.6465,0.823 2.709,2.633 4.4824,1.467 2.3027,-1.511 0.6514,-2.82 0.0176,-4.832 0.6025,0.365 1.3252,0.197 1.9814,0.459 0.8721,0.344 1.1543,0.937 2.2627,0.948 1.3555,0.011 2.8311,-0.8 4.0762,-1.113 0.9062,-0.228 1.4053,-0.343 2.2451,-0.221 0.5781,0.083 1.3887,0.719 1.8936,0.345 0.1894,-0.14 -0.128,-1.342 0.3261,-1.829 0.5743,-0.603 1.378,-0.461 2.0996,-0.245 -0.4043,0.835 -1.7519,1.844 -1.3564,2.701 0.5068,1.098 3.3691,1.441 4.2744,1.878 2.1436,1.042 1.5899,1.749 3.1963,0.189 1.7471,-1.694 0.707,0.326 2.8145,0.48 0.3759,-0.589 -0.2334,-1.525 0.1757,-1.892 0.7676,-0.687 1.9405,0.857 2.5723,1.112 2.5781,1.031 0.1377,-0.97 -1.0498,-1.509 -1.1895,-0.542 -3.1494,-1.559 -1.8955,-3.116 0.9639,-1.198 3.2803,-0.222 3.9473,-1.759 -1.2872,-0.542 -3.0411,-0.737 -4.4385,-0.502 -2.1856,0.363 -1.3623,1.55 -2.0283,2.835 -0.4102,0.789 -1.1807,0.657 -1.6084,0.956 -0.4473,0.312 -0.8301,1.004 -1.3731,1.367 -0.8867,0.598 -4.6806,0.189 -3.3535,-1.161 1.3066,0.437 1.6514,-1.411 1.0625,-2.3 -0.6289,-0.944 -1.7773,-0.164 -2.8066,-1.108 -0.7705,-0.711 -0.753,-2.087 0.0214,-2.93 0.8301,-0.903 1.9258,-0.66 3.0264,-0.872 2.5391,-0.492 4.9219,-0.959 7.3262,-1.821 2.3965,-0.86 2.4922,0.328 4.8213,0.944 0.455,0.119 1.1123,-0.238 1.625,-0.011 0.8008,0.357 1.3652,1.783 1.9355,2.407 l 0.8119,0.829 c 1.059,0.443 2.735,2.614 3.502,3.53 0.826,0.985 1.536,2.066 0.254,3.006 -1.57,-0.614 -1.926,-2.6 -3.533,-3.062 0.284,1.112 0.463,2.649 1.376,3.294 0.081,-0.193 0.293,-0.411 0.398,-0.593 0.867,1.047 1.592,0.484 2.671,0.35 1.713,-0.218 1.174,0.185 1.971,-1.401 0.949,0.36 1.503,1.13 0.69,2 1.582,0.038 2.387,-0.147 3.912,0.753 0.197,0.118 0.401,0.228 0.611,0.337 0.372,-0.484 0.386,-0.428 0.98,-0.137 0.192,0.336 -0.152,0.183 -0.178,0.283 l 0.194,0.298 c -0.02,0 -0.046,-0.002 -0.069,-0.003 0.291,0.127 0.607,0.238 0.907,0.357 0.149,-0.08 0.292,-0.01 0.666,0.173 0.029,0.05 0.026,0.072 0.034,0.101 0.366,0.141 0.713,0.287 1.086,0.428 -0.105,-0.296 -0.073,-0.67 -0.22,-0.98 1.991,1.129 3.74,2.692 5.346,4.249 0.418,-1.177 -0.693,-1.559 0.038,-2.539 0.272,-0.362 1.895,-0.823 2.22,-0.654 0.368,0.193 0.598,0.618 0.734,1.153 4.28,-5.597 7.15,-11.109 6.757,-12.58 -0.412,-1.546 -0.904,-2.651 -2.616,-3.411 z"
           id="path2023" />
        <path
           style="fill:#fbc88f;fill-rule:nonzero;stroke:none"
           d="m 61.7178,924.222 c 0.0312,0.03 0.0635,0.062 0.1006,0.091 l -0.1495,-0.057 c 0.0157,-0.011 0.0323,-0.025 0.0489,-0.034 -0.208,-0.211 -0.3311,-0.491 -0.5938,-0.701 0.211,-1.147 1.4092,-3.012 2.7832,-2.146 -0.3095,1.146 -1.2226,2.155 -2.1894,2.847 z m -2.1065,12.335 c -0.2509,-0.014 -0.6543,-0.16 -0.8603,-0.31 0.3213,-1.479 0.9062,-2.584 0.6006,-3.875 -0.3155,-1.338 -1.2793,-2.482 -1.8496,-3.761 -0.4131,-0.921 -1.0098,-2.305 -0.5977,-3.416 0.7197,-1.945 1.0996,-1.127 1.1348,-0.247 l 0.2158,0.786 c 0.2471,0.812 0.5351,1.647 0.5615,2.425 0.042,1.313 -0.1728,1.336 0.6631,2.424 0.7783,1.009 1.5059,1.427 1.3008,2.906 -0.1328,0.973 -0.7852,2.165 -1.169,3.068 z m -5.5136,-33.265 c -0.1133,-0.111 -0.1954,-0.226 -0.2276,-0.34 l 0.333,0.346 c -0.0371,0.008 -0.0693,-0.008 -0.1054,-0.006 z m 26.8857,12.365 c -0.3271,0.044 -0.6543,0.085 -0.9854,0.081 -0.3906,-0.004 -0.7988,-0.046 -1.2109,-0.118 -1.2891,-0.226 -2.6201,-0.76 -3.6308,-1.453 0.4335,-1.058 0.4082,-1.687 0.0917,-2.401 -0.1367,-0.127 -0.289,-0.244 -0.3828,-0.391 -0.1347,-0.214 -0.2148,-0.479 -0.2627,-0.772 -9e-4,-0.002 -9e-4,-0.003 -0.0019,-0.005 -1.211,-1.872 -1.3985,-3.169 -1.5479,-5.379 -0.08,-1.194 -0.1132,-2.385 -0.1406,-3.573 -0.0605,-2.688 -0.0937,-5.357 -0.5771,-7.968 1.5293,1.083 3.0283,4.091 3.5986,5.885 0.4697,1.481 0.1572,3.067 0.2549,4.506 0.0947,1.44 0.6836,2.871 0.7939,4.285 0.1768,2.244 -1.2969,3.758 1.6553,3.941 2.7461,0.166 6.4453,0.088 9.1475,-0.942 -0.5372,-2.462 -0.8125,-3.991 -0.9942,-4.769 -0.2353,-1.028 -0.5947,-3.033 -1.7685,-5.145 -0.2579,-0.336 -0.5127,-0.728 -0.7168,-1.135 -0.3877,-0.551 -0.8174,-1.099 -1.3487,-1.631 -1.0771,-1.077 -2.4306,-2.195 -4.3047,-2.886 -7.4843,-2.756 -31.5576,-13.849 -40.9492,-17.983 -0.0683,0.022 -0.1386,0.041 -0.208,0.064 -0.2226,0.275 -0.4902,0.518 -0.6719,0.826 -0.1054,0.175 -0.1621,0.448 -0.3584,0.503 l 0.0186,-0.039 c -0.6494,0.451 -1.6045,0.463 -2.3564,0.863 -0.8584,0.452 -1.4893,1.264 -2.209,1.819 -1.1875,0.916 -2.8282,1.673 -3.7002,2.954 -0.5391,0.796 -0.3604,1.336 -0.5899,2.179 -0.3134,1.141 -0.9648,1.648 -1.497,2.611 -1.0625,1.926 -0.8272,3.21 -0.1983,5.185 0.6143,1.92 0.9092,3.785 1.6406,5.677 0.67,1.733 1.6397,2.467 3.1436,3.305 0.1426,0.081 0.2637,0.157 0.417,0.24 2.1055,1.141 4.4433,0.903 6.7217,1.53 0.6445,0.176 1.8984,0.197 2.4492,0.718 0.6924,0.65 0.8252,1.92 1.792,2.694 0.6133,0.492 0.9258,0.475 1.1738,0.998 0.0479,0.102 0.0977,0.19 0.1436,0.344 0.2295,0.802 -0.212,2.184 -0.4248,2.974 -0.583,2.15 -0.6534,3.073 -0.1582,5.363 0.455,2.098 0.8671,3.503 -0.0137,5.588 -0.6768,1.594 -1.4619,3.469 -2.6582,4.745 -0.1768,0.188 -0.3633,0.348 -0.5498,0.509 -0.7578,0.656 -1.5196,1.197 -1.709,2.415 -0.0703,0.447 -0.0459,0.881 0.0225,1.307 0.1826,1.158 0.7167,2.265 0.7587,3.47 0.0323,0.842 -0.0361,1.686 -0.1162,2.535 -0.1484,1.602 -0.3476,3.221 -0.0742,4.883 0.0215,0.124 0.0401,0.25 0.0596,0.374 0.5058,0.232 1.0049,0.461 1.5156,0.695 2.9727,1.365 6.0098,2.759 9.0557,4.156 0.1533,0.07 0.3076,0.14 0.4609,0.211 0.2354,-0.406 0.4551,-0.825 0.7022,-1.235 0.3164,-0.528 0.6855,-1.039 1.2334,-1.471 0.2773,-0.217 0.5459,-0.361 0.8134,-0.481 1.2295,-0.559 2.3575,-0.38 3.3858,-1.964 0.3711,-0.571 0.5312,-1.428 0.8222,-2.138 0.1211,-0.294 0.2608,-0.568 0.4561,-0.777 0.4971,-0.534 1.081,-0.686 1.6924,-0.819 0.4053,-0.088 0.8213,-0.169 1.2363,-0.346 2.0752,-0.884 3.8926,-2.028 4.666,-4.238 0.6582,-1.884 1.0655,-3.924 1.5156,-5.863 0.5323,-2.306 0.7081,-2.554 2.6895,-3.992 1.0391,-0.756 1.8291,-1.76 2.9023,-2.381 1.6631,-0.961 3.7364,-1.039 5.5918,-1.849 1.836,-0.802 6.3887,-3.654 5.584,-6.256 -0.6269,-0.212 -1.2568,-0.118 -1.8906,-0.033 z"
           id="path2025" />
        <path
           style="fill:#de929c;fill-rule:nonzero;stroke:none"
           d="m 139.306,905.374 c -0.859,0.441 0.729,2.214 1.391,2.282 1.494,0.152 -0.758,-2.016 -1.009,-2.3 z"
           id="path2027" />
        <path
           style="fill:#de929c;fill-rule:nonzero;stroke:none"
           d="m 149.636,933.356 c -0.336,-0.088 -0.945,-0.499 -0.772,0.105 -0.466,0.067 -0.741,-0.262 -1.128,-0.319 -0.274,-0.042 -0.577,0.179 -0.822,0.122 -0.166,-0.036 -0.211,-0.346 -0.37,-0.397 -0.743,-0.24 -1.991,-0.125 -2.793,-0.164 -1.1,-0.057 -2.156,-0.028 -3.25,-0.129 -1.021,-0.097 -1.531,-0.123 -2.429,0.323 -0.496,0.247 -0.737,0.384 -1.307,0.154 l 0.473,0.542 c 0.554,0.727 2.358,0.8 3.153,0.769 0.812,-0.025 1.218,-0.244 1.851,0.285 0.523,0.437 0.764,0.604 1.405,0.786 1.337,0.374 2.558,0.913 3.961,0.992 0.089,0.005 0.174,0.003 0.261,0.006 0.899,-0.968 1.793,-1.935 2.688,-2.899 -0.01,-0.011 -0.017,-0.033 -0.029,-0.043 -0.163,-0.118 -0.667,-0.072 -0.892,-0.133 z"
           id="path2029" />
        <path
           style="fill:#de929c;fill-rule:nonzero;stroke:none"
           d="m 148.163,912.924 c 0.093,-1.092 2.441,0.283 2.851,-0.255 -0.208,-0.236 -0.367,-0.49 -0.637,-0.616 0.041,-0.355 -0.072,-0.671 -0.304,-0.915 -1.193,0.357 -2.108,0.97 -3.13,-0.074 -0.493,-0.512 -0.435,-0.936 -1.044,-1.19 -0.388,-0.159 -1.301,-0.33 -1.431,0.314 -0.045,0.229 1.411,2.216 1.609,2.345 0.402,0.266 1.009,-0.055 1.399,0.228 0.237,0.172 0.214,0.504 0.339,0.628 0.414,0.408 0.64,0.787 1.222,0.504 l 0.068,0.077 c 0.054,-0.595 -0.382,-1.057 -0.942,-1.046 z"
           id="path2031" />
        <path
           style="fill:#de929c;fill-rule:nonzero;stroke:none"
           d="m 151.402,914.323 c 0.033,-0.109 0.068,-0.219 0.047,-0.332 -0.021,0.09 -0.038,0.208 -0.047,0.332 z"
           id="path2033" />
        <path
           style="fill:#de929c;fill-rule:nonzero;stroke:none"
           d="m 152.906,913.639 c -0.772,0.044 -0.385,0.114 -0.787,-0.374 -0.157,-0.191 -0.227,-0.352 -0.533,-0.246 0.021,0.17 0.102,0.377 0.079,0.544 -0.232,-0.092 -0.643,-0.129 -0.996,-0.084 -0.212,-0.038 -0.418,-0.018 -0.621,0.098 -0.022,0.538 0.639,1.003 1.07,1.239 0.141,-0.128 0.233,-0.306 0.284,-0.493 0.009,-0.124 0.033,-0.109 0,0 -0.016,0.282 0.027,0.6 0.266,0.722 0.098,0.053 0.542,0.023 0.604,-0.065 0.129,-0.178 -0.068,-0.189 -0.028,-0.308 0.112,-0.316 0.079,-0.167 0.361,-0.383 0.229,-0.168 0.41,-0.236 0.301,-0.65 z"
           id="path2035" />
        <path
           style="fill:#de929c;fill-rule:nonzero;stroke:none"
           d="m 153.738,916.227 c 0.187,0.137 1.033,0.223 1.266,0.237 0.384,0.015 0.277,0.244 0.632,0.183 0.354,-0.061 0.902,-0.723 1,-1 -0.774,-0.242 -0.833,-0.936 -1.23,-1.5 -0.376,-0.537 -0.851,-0.947 -1.39,-1.261 -1.54,0.166 -1.495,-0.467 -2.485,-1.296 -0.102,0.016 -0.229,0.035 -0.334,0.049 0.586,1.299 2.521,1.215 2.778,2.161 0.257,0.954 -0.78,0.906 -1.04,1.334 -0.257,0.42 -0.085,1.131 0.123,1.508 l 0.31,0.659 c -0.003,-0.415 -0.022,-0.868 0.37,-1.074 z"
           id="path2037" />
        <path
           style="fill:#de929c;fill-rule:nonzero;stroke:none"
           d="m 149.052,915.736 c 0.098,0.98 -0.049,2.195 0.152,3.199 0.192,-0.141 0.456,-0.314 0.612,-0.511 l -0.285,-0.018 c 0.221,-0.298 0.264,-2.613 -0.479,-2.67 z"
           id="path2039" />
        <path
           style="fill:#de929c;fill-rule:nonzero;stroke:none"
           d="m 108.509,936.331 c 0.454,0.68 1.403,0.494 2.101,0.569 0.219,-0.694 0.235,-1.461 0.27,-2.233 0.883,0.618 1.564,1.361 2.324,2.162 1.036,1.097 2.383,1.526 3.745,2.088 1.303,0.533 2.552,1.074 3.858,1.565 0.993,0.375 1.975,1.219 3.074,1.142 0.257,-0.424 0.375,-0.887 0.378,-1.385 0.022,-2.316 -2.297,-3.255 -3.247,-5.167 -0.707,-1.417 -0.206,-4.129 0.055,-5.666 0.172,-1.002 -0.012,-1.806 0.078,-2.763 0.062,-0.682 0.494,-1.182 0.811,-1.753 0.51,-0.92 0.192,-0.736 1.194,-0.613 1.339,0.161 3.28,0.314 4.466,1.003 1.435,0.834 2.223,2.06 2.706,-0.165 1.253,0.17 2.666,1.034 3.757,1.669 1.157,0.675 1.628,2.121 2.807,2.745 0.66,0.348 1.593,0.368 2.334,0.638 0.737,0.272 1.227,0.624 1.874,0.964 1.5,0.791 3.894,0.796 5.346,-0.115 -0.496,-0.738 -1.639,-0.939 -2.419,-1.355 -0.984,-0.526 -1.746,-0.609 -2.868,-0.671 -1.263,-0.071 -2.642,0.073 -3.751,-0.691 -0.811,-0.561 -1.982,-2.205 -2.131,-3.182 1.848,-0.738 4.11,0.313 5.901,0.377 0.168,-1.306 0.81,-3.235 0.174,-4.506 -0.844,-1.68 -2.714,-1.902 -4.399,-2.047 -1.287,-0.107 -3.074,-1.037 -3.146,-2.463 -0.051,-0.983 0.822,-2.437 1.839,-1.391 -0.402,1.009 1.162,1.939 1.751,1.203 0.843,-1.056 -0.909,-1.416 -1.266,-1.725 -1.195,-1.044 0.406,-2.435 0.998,-3.457 0.625,-1.084 1.023,-2.073 1.088,-3.326 0.082,-1.553 -0.412,-2.702 -1.627,-3.79 -0.658,-0.588 -1.889,-1.776 -2.662,-2.088 -1.175,-0.48 -2.752,-0.149 -3.934,-0.661 -0.996,-0.432 -1.01,-1.856 -0.896,-2.933 -0.833,0.554 -3.036,3.336 -3.914,1.041 -0.496,-1.297 0.719,-2.654 1.837,-1.405 0.224,-0.337 1.158,-1.456 1.614,-1.526 0.441,-0.07 0.698,0.375 1.176,0.471 0.647,0.132 1.107,-0.318 1.771,-0.346 0.439,-0.026 0.967,0.154 1.399,0.279 1.087,0.309 1.677,0.846 2.389,-0.27 0.297,-0.461 0.566,-1.098 0.304,-1.507 -0.767,-1.218 -4.293,-0.421 -5.399,-0.472 -0.024,-0.335 0.085,-0.908 -0.001,-1.227 -0.114,-0.414 -0.471,-0.635 -0.594,-1.053 -0.247,-0.834 0.398,-1.649 0.38,-2.457 -0.08,-2.992 -2.743,-5.126 -5.286,-6.21 -1.955,1.898 -4.097,3.71 -6.469,5.296 -10.266,6.867 -17.945,7.428 -20.0197,9.567 -1.0537,1.085 -1.4531,2.456 -1.4854,3.891 -0.0332,1.541 0.3575,3.158 0.8204,4.58 0.7002,2.154 4.8247,16.177 8.6777,29.349 1.028,-0.128 2.105,-0.586 2.917,-0.984 -0.114,0.384 -0.459,0.623 -0.7,1.004 z"
           id="path2041" />
        <path
           style="fill:#de929c;fill-rule:nonzero;stroke:none"
           d="m 140.271,896.707 c -0.085,-0.353 -0.667,-1.248 -1.016,-1.429 -0.325,-0.172 -1.083,0.152 -1.224,-0.105 -0.342,-0.634 1.226,-0.151 1.386,-0.193 0.953,-0.242 0.37,-1.341 0.126,-1.922 0.406,-0.039 0.862,0 1.242,-0.056 -0.377,-1.048 0.689,-1.544 0.86,-2.589 0.142,-0.914 -0.714,-1.527 -1.282,-2.175 -0.755,-0.861 -1.492,-1.693 -2.715,-1.716 -0.574,-0.013 -2.014,0.472 -2.407,-0.199 0.497,-0.551 1.191,-0.668 1.459,-1.309 0.092,-0.229 0.319,-1.035 0.245,-1.234 -0.375,-1.009 -3.935,0.652 -4.608,1.319 0.317,0.61 0.902,0.423 1.352,0.735 0.334,0.23 0.383,0.486 0.53,0.816 0.363,0.851 1.058,0.592 1.826,0.984 0.682,0.347 1.646,0.742 2.201,1.299 0.294,0.292 1.049,2.383 0.112,1.95 -0.199,0.596 0.142,1.2 -0.212,1.771 -0.427,0.686 -0.947,1.107 -1.097,1.94 -0.069,0.387 -0.067,2.972 0.86,2.534 l -0.138,-0.519 c 0.132,-0.092 0.3,-0.084 0.432,-0.211 0.278,0.245 1.02,0.569 1.385,0.743 0.557,0.27 0.847,0.234 0.683,-0.434 z"
           id="path2043" />
        <path
           style="fill:#de929c;fill-rule:nonzero;stroke:none"
           d="m 128.516,883.725 c 1.234,0.332 3.016,1.774 3.984,0.593 -0.466,-0.375 -0.807,-0.359 -1.339,-0.446 -0.672,-0.112 -1.235,-0.309 -1.946,-0.553 0.286,-0.27 0.681,-0.426 0.971,-0.717 -0.638,-0.47 -1.986,-0.032 -2.756,-0.09 -0.482,-0.036 -0.876,-0.151 -1.286,-0.276 -0.354,0.367 -0.699,0.736 -1.067,1.098 1.126,-0.149 2.444,0.124 3.439,0.391 z"
           id="path2045" />
        <path
           style="fill:#de929c;fill-rule:nonzero;stroke:none"
           d="m 135.082,877.238 c -0.87,-1.292 -1.975,-1.907 -2.012,-3.294 -0.634,0.851 -1.304,1.726 -2.008,2.619 1.491,-0.071 2.659,0.353 4.02,0.675 z"
           id="path2047" />
        <path
           style="fill:#de929c;fill-rule:nonzero;stroke:none"
           d="m 125.332,940.313 c 0.263,0.297 0.513,0.611 0.819,0.858 0.391,0.318 0.595,0.359 1.061,0.45 -0.06,-0.806 0.75,-1.325 0.036,-2.05 -0.563,-0.574 -2.011,-0.972 -2.724,-0.814 l -0.003,0.086 c -0.082,0.419 0.427,1.032 0.811,1.47 z"
           id="path2049" />
        <path
           style="fill:#de929c;fill-rule:nonzero;stroke:none"
           d="m 162.529,919.19 c -0.091,-0.07 -0.106,-0.122 -0.106,-0.122 -0.482,-0.304 -0.677,-0.485 -0.127,-0.864 -0.268,-0.339 -0.466,-0.712 -0.733,-1.016 -0.059,0.104 -0.168,0.178 -0.214,0.318 -0.067,-0.507 -0.211,-1.193 -0.756,-1.006 -0.592,0.209 -0.359,0.848 -0.106,1.265 0.466,0.76 1.081,1.568 2.042,1.425 z"
           id="path2051" />
        <path
           style="fill:#de929c;fill-rule:nonzero;stroke:none"
           d="m 165.122,916.178 c -0.709,0.242 -1.321,0.931 -0.907,1.609 0.137,0.221 0.307,0.354 0.495,0.438 0.589,-0.637 1.153,-1.251 1.694,-1.838 -0.461,-0.201 -0.909,-0.337 -1.282,-0.209 z"
           id="path2053" />
        <path
           style="fill:#de929c;fill-rule:nonzero;stroke:none"
           d="m 157.65,923.841 c -0.828,-0.072 -0.873,-0.55 -0.645,-1.044 0.415,-0.9 3.788,-2.005 2.43,-3.592 -0.369,1.563 -3.281,2.502 -2.853,4.066 0.157,0.565 0.742,1.121 0.97,1.708 0.074,0.188 0.134,0.482 0.214,0.763 0.624,-0.674 1.239,-1.34 1.841,-1.992 -0.232,-0.254 -0.121,-0.47 -0.27,-1.148 -0.558,0.495 -0.907,1.305 -1.687,1.239 z"
           id="path2055" />
        <path
           style="fill:#de929c;fill-rule:nonzero;stroke:none"
           d="m 155.435,923.622 c -0.278,-0.373 -0.726,-0.61 -1.154,-0.45 -0.357,-0.333 -1.269,-0.647 -1.508,-1.072 -0.407,-0.732 0.535,-1.066 0.547,-1.639 0.02,-0.75 -0.231,-0.578 -0.976,-0.648 -0.365,-0.037 -1.798,-0.092 -2,0.149 -0.219,0.263 0.135,1.618 0.074,2.074 -0.103,0.764 -0.453,1.409 -0.505,2.186 -0.048,0.706 -0.626,2.576 -0.126,3.167 -0.259,0.288 -0.641,0.453 -1.007,0.566 0.46,1.277 1.867,2.317 3.072,2.774 0.542,0.206 0.917,0.183 1.27,0.031 1.035,-1.118 2.053,-2.217 3.056,-3.301 -0.347,-0.493 -0.4,-0.798 -0.584,-1.391 -0.312,-0.995 -1.332,-1.598 -0.159,-2.446 z"
           id="path2057" />
        <path
           style="fill:#3999ac;fill-rule:nonzero;stroke:none"
           d="m 116.633,862.825 c -1.219,0.254 -2.407,1.393 -3.651,1.287 0.262,0.956 2.146,2.786 3.257,2.937 l -0.472,-0.457 c 0.884,-1.567 -0.212,-2.509 2.453,-2.375 1.62,0.085 2.715,0.439 4.189,1.007 -0.469,-1.561 -4.224,-2.721 -5.776,-2.399 z"
           id="path2753" />
        <path
           style="fill:#3999ac;fill-rule:nonzero;stroke:none"
           d="m 74.2803,858.935 c 0.3808,-0.304 0.7636,-0.662 1.1338,-1.077 -0.3604,-0.377 -0.7745,-0.766 -1.1787,-1.114 0.2334,-0.077 0.6884,-0.441 0.9941,-0.508 -1.0098,-0.52 -2.6074,1.002 -2.7324,1.752 -0.1289,0.773 0.9013,1.642 0.5293,2.476 -0.2119,0.466 -1.1944,-0.323 -1.2842,0.87 -0.1699,-0.085 -0.3692,-0.155 -0.5371,-0.256 -0.3613,0.488 -0.3174,0.879 0.0976,1.377 -0.7314,0.182 -1.3525,-0.071 -2.0879,0.192 0.1788,0.275 0.4268,0.459 0.709,0.618 l -0.1191,-0.435 c 0.7969,0.615 4.3613,2.004 5.2285,1.221 1.0195,-0.927 -0.2295,-4.118 -0.7529,-5.116 z"
           id="path2755" />
        <path
           style="fill:#3999ac;fill-rule:nonzero;stroke:none"
           d="m 92.0215,876.401 c -0.0361,-0.002 -0.0654,-0.024 -0.1006,-0.027 -0.0898,-0.129 -0.1484,-0.257 -0.1631,-0.377 z m 32.3055,-7.116 c -0.324,-0.168 -1.948,0.292 -2.219,0.654 -0.731,0.98 0.379,1.363 -0.038,2.54 -1.606,-1.558 -3.356,-3.121 -5.346,-4.249 0.147,0.31 0.115,0.684 0.22,0.979 -0.373,-0.141 -0.72,-0.287 -1.087,-0.427 0.046,0.178 -0.187,0.096 -0.211,0.181 l 0.196,0.298 c -0.022,0 -0.046,-0.002 -0.071,-0.002 -0.314,-0.14 -0.625,-0.287 -0.926,-0.442 0.137,-0.179 0.225,-0.263 0.313,-0.31 -0.3,-0.118 -0.616,-0.229 -0.908,-0.357 -0.291,-0.015 -0.655,-0.151 -0.941,-0.422 0.004,-0.005 0.008,-0.015 0.014,-0.019 -0.209,-0.108 -0.413,-0.218 -0.61,-0.336 -1.525,-0.9 -2.33,-0.715 -3.913,-0.753 0.813,-0.87 0.259,-1.641 -0.69,-2.001 -0.796,1.587 -0.257,1.184 -1.97,1.402 -1.079,0.133 -1.804,0.697 -2.671,-0.351 -0.105,0.183 -0.318,0.4 -0.398,0.594 -0.913,-0.645 -1.092,-2.182 -1.377,-3.294 1.607,0.462 1.964,2.447 3.534,3.062 1.281,-0.941 0.572,-2.021 -0.254,-3.006 -0.768,-0.917 -2.443,-3.087 -3.502,-3.529 l -0.813,-0.83 c -0.569,-0.624 -1.1336,-2.05 -1.9354,-2.407 -0.5127,-0.227 -1.1689,0.13 -1.625,0.011 -2.3291,-0.616 -2.4238,-1.804 -4.8213,-0.944 -2.4043,0.862 -4.7861,1.329 -7.3261,1.82 -1.0996,0.213 -2.1953,-0.03 -3.0254,0.874 -0.7744,0.841 -0.793,2.218 -0.0225,2.929 1.0303,0.944 2.1778,0.164 2.8067,1.108 0.5888,0.888 0.2451,2.736 -1.0625,2.299 -1.3262,1.351 2.4668,1.76 3.3545,1.162 0.5419,-0.363 0.9248,-1.056 1.373,-1.367 0.4268,-0.299 1.1973,-0.167 1.6074,-0.958 0.666,-1.283 -0.1562,-2.47 2.0283,-2.834 1.3975,-0.234 3.1524,-0.04 4.4395,0.502 -0.667,1.537 -2.9844,0.561 -3.9482,1.759 -1.254,1.558 0.707,2.575 1.8955,3.116 1.1875,0.54 3.6289,2.541 1.0498,1.51 -0.6319,-0.255 -1.8037,-1.799 -2.5713,-1.112 -0.4092,0.366 0.1992,1.303 -0.1758,1.892 -2.1074,-0.154 -1.0684,-2.174 -2.8154,-0.48 -1.6065,1.56 -1.0528,0.852 -3.1953,-0.189 -0.9053,-0.438 -3.7676,-0.78 -4.2754,-1.879 -0.3955,-0.856 0.9531,-1.865 1.3574,-2.7 -0.7227,-0.216 -1.5264,-0.359 -2.0996,0.245 -0.4541,0.487 -0.1367,1.689 -0.3262,1.829 -0.5059,0.374 -1.3154,-0.263 -1.8945,-0.346 -0.8399,-0.121 -1.3379,-0.007 -2.2451,0.222 -1.2452,0.313 -2.7207,1.124 -4.0752,1.113 -1.1084,-0.011 -1.3916,-0.604 -2.2637,-0.948 -0.6563,-0.262 -1.3779,-0.095 -1.9815,-0.459 0.6348,2.011 2.2862,3.32 -0.0175,4.832 -1.7725,1.166 -2.835,-0.644 -4.4825,-1.467 -2.0673,-1.029 -1.9453,0.426 -3.2412,1.723 -0.7607,0.767 -2.3379,1.3 -1.8291,2.899 0.4825,1.516 2.3487,2.108 3.5967,2.434 2.1211,0.548 2.2022,0.671 3.8154,-0.567 1.3272,-1.022 2.46,-0.58 3.7725,-1.14 0.7529,-0.32 0.6436,-0.986 1.623,-0.922 0.6749,0.044 1.5899,0.979 2.2852,1.181 1.5772,0.466 1.9522,-0.114 2.5391,1.742 0.3886,1.229 0.5527,1.869 1.208,2.97 0.5019,0.843 0.7685,2.127 -0.4248,2.788 -0.9746,0.539 -1.1465,-0.787 -2.2578,-0.132 0.5498,1.063 0.0527,2.635 1.9003,2.196 -0.1826,0.044 1.2989,-1.054 1.2432,-0.996 0.376,-0.377 0.7578,-0.805 1.0342,-1.354 0.418,0.418 0.6523,0.828 1.3437,1.083 1.0606,-1.917 -3.4199,-4.963 -2.2021,-7.269 1.3037,0.29 1.5664,2.407 2.1719,3.473 0.3125,0.551 1.122,1.179 1.2168,1.796 0.1045,0.674 -0.3496,0.943 -0.4248,1.599 -0.1065,0.976 0.1884,1.959 0.04,2.903 -0.168,1.053 -1.2754,2.042 0.5518,2.502 0.0869,-0.296 0.4873,-0.605 0.5752,-0.904 0.4462,0.304 0.9326,0.504 1.4414,0.585 0.5908,-1.151 -0.7071,-2.475 -0.0538,-3.646 1.6465,1.088 3.1514,1.156 4.5547,2.625 -1.0879,-0.104 -2.3437,-1.223 -3.1533,-0.008 -0.2383,0.361 0.041,2.217 0.3291,2.598 -0.0176,0.02 3.8809,0.403 6.3887,0.521 1.3281,0.062 2.3262,-0.092 2.2656,-0.156 -0.1572,-0.166 -0.3564,-0.405 -0.4394,-0.592 -0.1104,-0.251 0.0293,-0.619 -0.0938,-0.887 -0.9873,-2.136 -3.6016,-0.418 -4.8642,-1.831 -2.2344,-2.498 3.3457,-5.325 4.5937,-3.12 -0.1318,-0.032 -0.2812,-0.041 -0.418,-0.073 -0.2929,0.658 0.2266,1.092 0.3203,1.72 0.1924,0.052 1.9698,0.595 2.1241,0.499 0.6709,-0.414 -0.3955,-1.243 -0.7588,-1.566 0.3291,-1.125 2.3096,0.645 2.7197,0.994 -0.3242,0.326 -0.8066,0.581 -1.2851,0.641 0.3251,1.165 0.7197,1.734 1.5136,2.789 0.1436,0.192 18.0386,-10.681 24.0096,-14.84 1.187,-0.826 2.451,-2.598 2.408,-2.636 -0.06,-0.053 -0.127,-0.099 -0.198,-0.137 z"
           id="path2757" />
        <path
           style="fill:#3999ac;fill-rule:nonzero;stroke:none"
           d="m 110.494,865.841 c 0.533,0.576 1.034,0.552 1.274,-0.129 -0.22,-0.159 -0.501,-0.373 -0.765,-0.463 0,0 -0.361,0.399 -0.509,0.592 z"
           id="path2759" />
        <path
           style="fill:#3999ac;fill-rule:nonzero;stroke:none"
           d="m 113.904,868.154 -0.194,-0.299 c 0.026,-0.1 0.37,0.054 0.178,-0.282 -0.594,-0.291 -0.608,-0.347 -0.98,0.136 0.302,0.155 0.613,0.301 0.927,0.441 0.023,0.002 0.049,0.004 0.069,0.004 z"
           id="path2761" />
        <path
           style="fill:#3999ac;fill-rule:nonzero;stroke:none"
           d="m 66.6494,877.69 c -1.2031,-0.248 -2.5137,-0.194 -3.6719,-0.636 -1.2099,-0.463 -1.5371,-1.63 -2.5644,-1.935 -1.166,-0.341 -2.7744,0.237 -3.8447,0.666 -0.0137,0.005 -0.0284,0.013 -0.042,0.018 5.166,2.424 10.9804,5.242 16.0908,7.458 0.2646,-0.259 0.5967,-0.672 0.6758,-1.182 0.3955,-2.56 -4.8838,-4.029 -6.6436,-4.389 z"
           id="path2763" />
        <path
           style="fill:#3999ac;fill-rule:nonzero;stroke:none"
           d="m 115.857,868.782 c -0.007,-0.03 -0.004,-0.052 -0.033,-0.101 -0.374,-0.183 -0.517,-0.253 -0.666,-0.174 -0.088,0.047 -0.176,0.131 -0.313,0.31 0.301,0.155 0.612,0.302 0.926,0.442 0.025,0 0.049,0.002 0.071,0.002 l -0.196,-0.298 c 0.024,-0.085 0.257,-0.003 0.211,-0.181 z"
           id="path2765" />
        <path
           style="fill:#3999ac;fill-rule:nonzero;stroke:none"
           d="m 92.0215,876.401 -0.2637,-0.404 c 0.0147,0.12 0.0733,0.248 0.1631,0.377 0.0352,0.003 0.0645,0.025 0.1006,0.027 z"
           id="path2767" />
        <path
           style="fill:#3999ac;fill-rule:nonzero;stroke:none"
           d="m 70.4854,857.705 c -0.5,-0.181 -1.7862,-0.004 -2.334,-0.049 0.2187,0.416 0.1933,1.058 0.29,1.455 -0.6367,-0.112 -1.29,-0.018 -1.5615,0.547 0.2334,0.164 0.5215,0.392 0.7969,0.481 0.2421,0.148 0.4746,0.187 0.7041,0.197 0.5,0.019 0.9882,-0.152 1.5664,-0.028 0.206,-0.451 0.5888,-0.87 0.8007,-1.315 0.0791,-0.002 0.127,-0.016 0.1915,-0.023 1.0751,-0.123 0.29,-0.999 -0.4541,-1.265 z"
           id="path2769" />
        <path
           style="fill:#b3dbe7;fill-rule:nonzero;stroke:none"
           d="m 115.594,862.525 c -1.219,0.254 -2.408,1.393 -3.651,1.288 0.262,0.955 2.146,2.785 3.257,2.936 l -0.472,-0.457 c 0.883,-1.566 -0.213,-2.509 2.452,-2.375 1.621,0.085 2.716,0.439 4.189,1.007 -0.468,-1.561 -4.224,-2.72 -5.775,-2.399 z"
           id="path2771" />
        <path
           style="fill:#b3dbe7;fill-rule:nonzero;stroke:none"
           d="m 73.2402,858.635 c 0.3819,-0.304 0.7647,-0.661 1.1348,-1.077 -0.3613,-0.376 -0.7744,-0.766 -1.1787,-1.114 0.2334,-0.077 0.6885,-0.441 0.9932,-0.508 -1.0088,-0.52 -2.6075,1.002 -2.7325,1.752 -0.1279,0.773 0.9024,1.643 0.5293,2.477 -0.2119,0.465 -1.1933,-0.324 -1.2832,0.869 -0.1709,-0.085 -0.3691,-0.155 -0.5381,-0.256 -0.3603,0.489 -0.3173,0.879 0.0987,1.377 -0.7324,0.182 -1.3526,-0.071 -2.0879,0.192 0.1777,0.275 0.4258,0.459 0.709,0.618 l -0.1202,-0.435 c 0.7969,0.616 4.3624,2.005 5.2286,1.221 1.0205,-0.927 -0.2295,-4.118 -0.753,-5.116 z"
           id="path2773" />
        <path
           style="fill:#b3dbe7;fill-rule:nonzero;stroke:none"
           d="m 90.9814,876.101 c -0.0361,-0.002 -0.0644,-0.023 -0.1005,-0.027 -0.0889,-0.128 -0.1475,-0.257 -0.1621,-0.377 z m 32.3066,-7.115 c -0.325,-0.169 -1.948,0.292 -2.22,0.654 -0.731,0.98 0.38,1.362 -0.038,2.539 -1.606,-1.557 -3.355,-3.12 -5.346,-4.249 0.147,0.31 0.115,0.684 0.22,0.98 -0.373,-0.141 -0.72,-0.287 -1.086,-0.428 0.046,0.179 -0.188,0.097 -0.211,0.181 l 0.195,0.298 c -0.022,0 -0.045,-0.002 -0.071,-0.002 -0.313,-0.14 -0.625,-0.287 -0.925,-0.442 0.137,-0.179 0.225,-0.263 0.312,-0.309 -0.3,-0.119 -0.616,-0.23 -0.907,-0.357 -0.291,-0.016 -0.656,-0.152 -0.942,-0.423 0.005,-0.005 0.009,-0.014 0.015,-0.018 -0.21,-0.109 -0.414,-0.219 -0.611,-0.337 -1.525,-0.9 -2.33,-0.715 -3.912,-0.753 0.813,-0.87 0.259,-1.64 -0.69,-2 -0.797,1.586 -0.258,1.183 -1.971,1.401 -1.079,0.134 -1.804,0.697 -2.671,-0.35 -0.105,0.182 -0.317,0.4 -0.398,0.593 -0.913,-0.645 -1.092,-2.182 -1.376,-3.294 1.607,0.462 1.963,2.448 3.533,3.062 1.282,-0.94 0.572,-2.021 -0.254,-3.006 -0.767,-0.916 -2.443,-3.087 -3.502,-3.53 l -0.8119,-0.829 c -0.5703,-0.624 -1.1347,-2.05 -1.9355,-2.407 -0.5127,-0.227 -1.17,0.13 -1.625,0.011 -2.3291,-0.616 -2.4248,-1.804 -4.8213,-0.944 -2.4043,0.862 -4.7871,1.329 -7.3262,1.821 -1.1006,0.212 -2.1963,-0.031 -3.0264,0.872 -0.7744,0.843 -0.7919,2.219 -0.0214,2.93 1.0293,0.944 2.1777,0.164 2.8066,1.108 0.5889,0.889 0.2441,2.737 -1.0625,2.3 -1.3271,1.35 2.4668,1.759 3.3535,1.161 0.543,-0.363 0.9258,-1.055 1.3731,-1.367 0.4277,-0.299 1.1982,-0.167 1.6084,-0.956 0.666,-1.285 -0.1573,-2.472 2.0283,-2.835 1.3974,-0.235 3.1513,-0.04 4.4385,0.502 -0.667,1.537 -2.9834,0.561 -3.9473,1.759 -1.2539,1.557 0.706,2.574 1.8955,3.116 1.1875,0.539 3.6279,2.54 1.0498,1.509 -0.6318,-0.255 -1.8047,-1.799 -2.5723,-1.112 -0.4091,0.367 0.2002,1.303 -0.1757,1.892 -2.1075,-0.154 -1.0674,-2.174 -2.8145,-0.48 -1.6064,1.56 -1.0527,0.853 -3.1963,-0.189 -0.9053,-0.437 -3.7676,-0.78 -4.2744,-1.878 -0.3955,-0.857 0.9521,-1.866 1.3564,-2.701 -0.7216,-0.216 -1.5253,-0.358 -2.0996,0.245 -0.4541,0.487 -0.1367,1.689 -0.3261,1.829 -0.5049,0.374 -1.3155,-0.262 -1.8936,-0.345 -0.8398,-0.122 -1.3389,-0.007 -2.2451,0.221 -1.2451,0.313 -2.7207,1.124 -4.0762,1.113 -1.1084,-0.011 -1.3906,-0.604 -2.2627,-0.948 -0.6562,-0.262 -1.3789,-0.094 -1.9814,-0.459 0.6338,2.012 2.2851,3.321 -0.0176,4.832 -1.7734,1.166 -2.8359,-0.644 -4.4824,-1.467 -2.0674,-1.03 -1.9453,0.426 -3.2412,1.724 -0.7617,0.766 -2.3379,1.299 -1.8291,2.898 0.4814,1.515 2.3486,2.107 3.5957,2.435 2.122,0.548 2.2021,0.67 3.8164,-0.568 1.3261,-1.022 2.459,-0.579 3.7715,-1.14 0.7539,-0.319 0.6445,-0.985 1.624,-0.922 0.6738,0.044 1.5889,0.979 2.2842,1.181 1.5771,0.466 1.9531,-0.113 2.539,1.742 0.3897,1.23 0.5528,1.869 1.208,2.97 0.503,0.844 1.3125,2.352 0.1192,3.014 -0.9746,0.539 -1.6905,-1.013 -2.8008,-0.358 0.5488,1.064 0.0518,2.636 1.9004,2.196 -0.1826,0.044 1.2978,-1.053 1.2431,-0.996 0.376,-0.377 0.7579,-0.805 1.0333,-1.354 0.4179,0.418 0.6533,0.828 1.3447,1.082 1.0595,-1.916 -3.4199,-4.962 -2.2031,-7.268 1.3037,0.29 1.5664,2.407 2.1728,3.473 0.3115,0.552 1.1221,1.18 1.2168,1.795 0.1045,0.676 -0.3506,0.944 -0.4248,1.6 -0.1064,0.975 0.1885,1.959 0.0391,2.903 -0.167,1.053 -1.2754,2.042 0.5527,2.502 0.0859,-0.296 0.4873,-0.605 0.5742,-0.904 0.4473,0.305 0.9336,0.504 1.4424,0.585 0.5898,-1.151 -0.708,-2.475 -0.0537,-3.646 1.6465,1.088 3.1514,1.156 4.5537,2.625 -1.0869,-0.104 -2.3438,-1.223 -3.1523,-0.008 -0.2383,0.361 0.041,2.217 0.3291,2.599 -0.0293,0.031 -0.043,0.087 -0.0674,0.127 1.9092,0.497 3.5986,0.815 5.0556,0.899 1.2198,0.069 2.6368,-0.053 4.128,-0.265 -0.3887,-0.283 -0.7373,-0.615 -0.9014,-0.988 -0.1113,-0.251 0.0283,-0.62 -0.0947,-0.888 -0.9873,-2.136 -3.6006,-0.418 -4.8643,-1.831 -2.2344,-2.498 3.3467,-5.324 4.5938,-3.12 -0.1309,-0.031 -0.2813,-0.041 -0.417,-0.073 -0.293,0.658 0.2265,1.093 0.3203,1.72 0.1924,0.052 1.9687,0.595 2.123,0.499 0.6709,-0.413 -0.3945,-1.242 -0.7578,-1.566 0.3281,-1.125 2.3086,0.644 2.7188,0.994 -0.3243,0.327 -0.8067,0.581 -1.2852,0.641 0.3262,1.165 0.7197,1.734 1.5147,2.79 0.1718,0.23 0.4052,0.693 0.5273,1.146 5.4983,-1.347 11.6733,-4 16.1483,-7.193 3.706,-2.645 7.325,-6.549 10.278,-10.413 -0.136,-0.535 -0.366,-0.96 -0.734,-1.153 z"
           id="path2775" />
        <path
           style="fill:#b3dbe7;fill-rule:nonzero;stroke:none"
           d="m 110.44,865.122 c -0.252,0.109 -0.499,0.321 -0.645,0.514 0.532,0.575 1.034,0.552 1.272,-0.129 -0.219,-0.159 -0.501,-0.373 -0.764,-0.464 z"
           id="path2777" />
        <path
           style="fill:#b3dbe7;fill-rule:nonzero;stroke:none"
           d="m 113.28,867.854 -0.194,-0.298 c 0.026,-0.1 0.37,0.053 0.178,-0.283 -0.594,-0.291 -0.608,-0.347 -0.98,0.137 0.302,0.153 0.612,0.3 0.927,0.441 0.023,10e-4 0.049,0.003 0.069,0.003 z"
           id="path2779" />
        <path
           style="fill:#b3dbe7;fill-rule:nonzero;stroke:none"
           d="m 65.6104,877.391 c -1.2041,-0.248 -2.5137,-0.195 -3.6719,-0.637 -1.211,-0.462 -1.5371,-1.63 -2.5655,-1.934 -1.166,-0.341 -2.7744,0.237 -3.8437,0.665 -0.0147,0.005 -0.0283,0.014 -0.043,0.018 5.166,2.424 11.044,5.122 16.1533,7.339 0.2657,-0.259 0.5352,-0.553 0.6133,-1.064 0.3955,-2.559 -4.8838,-4.028 -6.6425,-4.387 z"
           id="path2781" />
        <path
           style="fill:#b3dbe7;fill-rule:nonzero;stroke:none"
           d="m 114.818,868.482 c -0.008,-0.029 -0.005,-0.051 -0.034,-0.101 -0.374,-0.183 -0.517,-0.253 -0.666,-0.173 -0.087,0.046 -0.175,0.13 -0.312,0.309 0.3,0.155 0.612,0.302 0.925,0.442 0.026,0 0.049,0.002 0.071,0.002 l -0.195,-0.298 c 0.023,-0.084 0.257,-0.002 0.211,-0.181 z"
           id="path2783" />
        <path
           style="fill:#b3dbe7;fill-rule:nonzero;stroke:none"
           d="m 90.9814,876.101 -0.2626,-0.404 c 0.0146,0.12 0.0732,0.249 0.1621,0.377 0.0361,0.004 0.0644,0.025 0.1005,0.027 z"
           id="path2785" />
        <path
           style="fill:#b3dbe7;fill-rule:nonzero;stroke:none"
           d="m 69.4463,857.405 c -0.501,-0.18 -1.7871,-0.003 -2.335,-0.049 0.2198,0.416 0.1944,1.059 0.2901,1.455 -0.6368,-0.112 -1.2901,-0.018 -1.5616,0.547 0.2334,0.163 0.5225,0.392 0.7969,0.481 0.2432,0.149 0.4746,0.187 0.7051,0.198 0.499,0.019 0.9883,-0.153 1.5654,-0.029 0.2071,-0.451 0.5899,-0.87 0.8018,-1.315 0.0791,-0.002 0.126,-0.016 0.1914,-0.023 1.0752,-0.123 0.2891,-0.999 -0.4541,-1.265 z"
           id="path2787" />
      </g>
    </g>
  </g>
</svg>
