<svg xmlns="http://www.w3.org/2000/svg" xmlns:xlink="http://www.w3.org/1999/xlink" version="1.1" id="Layer_1" x="0px" y="0px" width="60px" height="60px" viewBox="0 0 60 60" xml:space="preserve" enable-background="new 0 0 60 60">
  <style type="text/css">
    
	.st0{fill:#FFFFFF;}
	.st1{fill:#9ACD32;}

  </style>
  <circle class="st0" cx="30" cy="30" r="21.8"/>
  <path class="st1" d="M30 0C13.5 0 0 13.5 0 30s13.5 30 30 30 30-13.5 30-30S46.5 0 30 0zM43.3 21.9L24.4 39.6c-0.2 0.2-0.4 0.3-0.7 0.3 -0.3 0-0.5-0.1-0.7-0.3l-6.3-6.3c-0.4-0.4-0.4-1 0-1.4 0.4-0.4 1-0.4 1.4 0l5.6 5.6 18.2-17c0.4-0.4 1-0.4 1.4 0C43.7 20.9 43.7 21.5 43.3 21.9z"/>
  <g/>
  <g/>
  <g/>
  <g/>
  <g/>
  <g/>
  <g/>
  <g/>
  <g/>
  <g/>
  <g/>
  <g/>
  <g/>
  <g/>
  <g/>
</svg>
