<?xml version="1.0" encoding="UTF-8" standalone="no"?>
<svg
   xmlns:dc="http://purl.org/dc/elements/1.1/"
   xmlns:cc="http://creativecommons.org/ns#"
   xmlns:rdf="http://www.w3.org/1999/02/22-rdf-syntax-ns#"
   xmlns:svg="http://www.w3.org/2000/svg"
   xmlns="http://www.w3.org/2000/svg"
   viewBox="0 0 4502.1875 1143.75"
   height="1143.75"
   width="4502.1875"
   xml:space="preserve"
   version="1.1"
   id="svg2"><metadata
     id="metadata8"><rdf:RDF><cc:Work
         rdf:about=""><dc:format>image/svg+xml</dc:format><dc:type
           rdf:resource="http://purl.org/dc/dcmitype/StillImage" /></cc:Work></rdf:RDF></metadata><defs
     id="defs6" /><g
     transform="matrix(1.25,0,0,-1.25,0,1143.75)"
     id="g10"><g
       transform="scale(0.245535,0.245535)"
       id="g12"><path
         id="path14"
         style="fill:#a0201e;fill-opacity:1;fill-rule:nonzero;stroke:none"
         d="m 5211.55,2140.41 0,-198.41 339.59,0 c 37.35,0 68.26,-30.93 68.26,-68.16 0,-38.5 -30.91,-68.21 -68.26,-68.21 l -339.59,0 0,-354.4 -158.55,0 0,746.08 c 0,43.4 35.97,79.35 79.3,79.35 l 534.18,0 0,-136.25 -454.93,0" /><path
         id="path16"
         style="fill:#a0201e;fill-opacity:1;fill-rule:nonzero;stroke:none"
         d="m 5821.53,1451.23 158.59,0 0,825.305 -158.59,0 0,-825.305 z" /><path
         id="path18"
         style="fill:#a0201e;fill-opacity:1;fill-rule:nonzero;stroke:none"
         d="m 6619.75,2140.41 -257.73,0 0,-241.81 257.73,0 c 71.96,0 135.13,43.4 135.13,122.75 0,77.95 -63.17,119.06 -135.13,119.06 m 152.56,-689.18 -182.29,311.12 -228,0 0,-311.12 -158.55,0 0,746.08 c 0,43.4 35.88,79.35 79.34,79.35 l 366.71,0 c 157.33,0 266.48,-115.18 266.48,-257.86 0,-105.32 -63.17,-195.67 -159.9,-234.24 l 197,-333.33 -180.79,0" /><path
         id="path20"
         style="fill:#a0201e;fill-opacity:1;fill-rule:nonzero;stroke:none"
         d="m 7400.9,1437.61 c -109.15,0 -221.88,24.82 -325.99,64.4 l 29.73,122.69 c 91.68,-30.99 202.01,-53.26 298.7,-53.26 116.52,0 174.76,35.95 174.76,91.64 0,49.63 -64.39,79.35 -235.53,157.43 -162.29,73.06 -241.63,133.9 -241.63,252.83 0,148.72 100.35,215.79 324.72,215.79 90.41,0 220.41,-19.85 293.8,-40.98 l -23.82,-127.65 c -92.69,18.58 -190.6,32.26 -267.54,32.26 -127.64,0 -168.61,-21.13 -168.61,-71.85 0,-53.32 40.97,-74.45 218.18,-156.1 178.34,-82.02 259.03,-121.61 259.03,-249.26 0,-153.68 -139.9,-237.94 -335.8,-237.94" /><path
         id="path22"
         style="fill:#a0201e;fill-opacity:1;fill-rule:nonzero;stroke:none"
         d="m 8237.56,2137.8 0,-686.57 -158.59,0 0,686.57 -274.02,0 0,138.86 706.71,0 0,-138.86 -274.1,0" /><path
         id="path24"
         style="fill:#a0201e;fill-opacity:1;fill-rule:nonzero;stroke:none"
         d="m 9288.73,2140.41 -239.15,0 0,-255.37 239.15,0 c 71.85,0 133.79,50.78 133.79,128.8 0,79.36 -61.94,126.57 -133.79,126.57 m 22.28,-391.8 -261.43,0 0,-297.38 -158.59,0 0,746.08 c 0,43.4 35.88,79.35 79.17,79.35 l 340.85,0 c 163.69,0 271.53,-120.21 271.53,-262.82 0,-142.48 -107.84,-265.23 -271.53,-265.23" /><path
         id="path26"
         style="fill:#a0201e;fill-opacity:1;fill-rule:nonzero;stroke:none"
         d="m 9785.97,1451.23 c -43.61,0 -79.45,35.95 -79.45,79.29 l 0,666.79 c 0,43.46 35.84,79.23 79.45,79.23 l 512.93,0 0,-136.25 -433.79,0 0,-198.23 327.29,0 c 38.5,0 69.4,-30.99 69.4,-68.22 0,-38.5 -30.9,-68.09 -69.4,-68.09 l -327.29,0 0,-218.21 435.09,0 0,-136.31 -514.23,0" /><path
         id="path28"
         style="fill:#a0201e;fill-opacity:1;fill-rule:nonzero;stroke:none"
         d="m 10838.4,2147.67 c -161.1,0 -264.1,-120.08 -264.1,-285.03 0,-164.75 103,-283.69 264.1,-283.69 161.1,0 265.2,118.94 265.2,283.69 0,164.95 -104.1,285.03 -265.2,285.03 m 0,-710.06 c -249.3,0 -422.9,188.3 -422.9,425.03 0,236.73 173.6,426.31 422.9,426.31 249.1,0 422.5,-189.58 422.5,-426.31 0,-236.73 -173.4,-425.03 -422.5,-425.03" /><path
         id="path30"
         style="fill:#a0201e;fill-opacity:1;fill-rule:nonzero;stroke:none"
         d="m 11813.9,2140.41 -239,0 0,-255.37 239,0 c 72,0 133.7,50.78 133.7,128.8 0,79.36 -61.7,126.57 -133.7,126.57 m 22.3,-391.8 -261.3,0 0,-297.38 -158.7,0 0,746.08 c 0,43.4 35.8,79.35 79.3,79.35 l 340.7,0 c 163.6,0 271.4,-120.21 271.4,-262.82 0,-142.48 -107.8,-265.23 -271.4,-265.23" /><path
         id="path32"
         style="fill:#a0201e;fill-opacity:1;fill-rule:nonzero;stroke:none"
         d="m 12309.8,1451.23 c -42.1,0 -78.2,35.95 -78.2,79.29 l 0,746.02 158.8,0 0,-687.92 436.2,0 0,-137.39 -516.8,0" /><path
         id="path34"
         style="fill:#a0201e;fill-opacity:1;fill-rule:nonzero;stroke:none"
         d="m 13036.4,1451.23 c -43.5,0 -79.4,35.95 -79.4,79.29 l 0,666.79 c 0,43.46 35.9,79.23 79.4,79.23 l 512.9,0 0,-136.25 -433.6,0 0,-198.23 327,0 c 38.5,0 69.5,-30.99 69.5,-68.22 0,-38.5 -31,-68.09 -69.5,-68.09 l -327,0 0,-218.21 435,0 0,-136.31 -514.3,0" /><path
         id="path36"
         style="fill:#a0201e;fill-opacity:1;fill-rule:nonzero;stroke:none"
         d="m 14004.3,1437.61 c -108.9,0 -221.7,24.82 -325.8,64.4 l 29.7,122.69 c 91.6,-30.99 202,-53.26 298.6,-53.26 116.5,0 174.8,35.95 174.8,91.64 0,49.63 -64.5,79.35 -235.4,157.43 -162.5,73.06 -241.8,133.9 -241.8,252.83 0,148.72 100.4,215.79 324.8,215.79 90.6,0 220.8,-19.85 293.7,-40.98 l -23.5,-127.65 c -92.9,18.58 -190.8,32.26 -267.7,32.26 -127.7,0 -168.6,-21.13 -168.6,-71.85 0,-53.32 40.9,-74.45 218.1,-156.1 178.5,-82.02 258.9,-121.61 258.9,-249.26 0,-153.68 -139.9,-237.94 -335.8,-237.94" /><path
         id="path38"
         style="fill:#a0201e;fill-opacity:1;fill-rule:nonzero;stroke:none"
         d="m 14661.4,2157.66 c -43.4,-94.18 -110.2,-231.7 -110.2,-231.7 l -74.6,0 69.5,180.98 c -38.6,11.13 -65.7,47.03 -65.7,89.16 0,52.05 42.2,92.85 94.3,92.85 52,0 94.3,-40.8 94.3,-92.85 0,-12.41 -1.4,-26.03 -7.6,-38.44" /><path
         id="path40"
         style="fill:#220e04;fill-opacity:1;fill-rule:nonzero;stroke:none"
         d="m 5343.31,1024.61 c -30.18,8.46 -69.48,12.6 -105.08,12.6 -112.32,0 -178.63,-69.362 -178.63,-161.128 0,-92.465 66.31,-162.016 178.63,-162.016 35.6,0 72.05,5.727 105.08,15.653 l 18.12,-72.289 c -35.67,-14.703 -86.05,-22.399 -133.09,-22.399 -152,0 -260.01,100.926 -260.01,241.051 0,140.068 105.85,240.228 260.01,240.228 45.49,0 91.75,-4.9 134.52,-18.77 l -19.55,-72.93" /><path
         id="path42"
         style="fill:#220e04;fill-opacity:1;fill-rule:nonzero;stroke:none"
         d="m 5706.23,635.031 c -126.21,0 -203.84,91.762 -203.84,195.489 l 0,278.92 89.52,0 0,-279.62 c 0,-70.062 46.27,-114.929 114.32,-114.929 67.16,0 114.08,44.867 114.08,114.929 l 0,279.62 89.92,0 0,-278.92 c 0,-103.727 -78.52,-195.489 -204,-195.489" /><path
         id="path44"
         style="fill:#220e04;fill-opacity:1;fill-rule:nonzero;stroke:none"
         d="m 6118.23,642.727 c -23.87,0 -44.15,20.238 -44.15,44.992 l 0,421.721 89.76,0 0,-388.881 246.61,0 0,-77.832 -292.22,0" /><path
         id="path46"
         style="fill:#220e04;fill-opacity:1;fill-rule:nonzero;stroke:none"
         d="m 6671.67,1030.91 0,-388.117 -89.76,0 0,388.117 -154.77,0 0,78.47 399.3,0 0,-78.47 -154.77,0" /><path
         id="path48"
         style="fill:#220e04;fill-opacity:1;fill-rule:nonzero;stroke:none"
         d="m 7138.37,635.031 c -126.17,0 -204.05,91.762 -204.05,195.489 l 0,278.92 89.68,0 0,-279.62 c 0,-70.062 46.36,-114.929 114.37,-114.929 67.12,0 114.24,44.867 114.24,114.929 l 0,279.62 89.68,0 0,-278.92 c 0,-103.727 -78.48,-195.489 -203.92,-195.489" /><path
         id="path50"
         style="fill:#220e04;fill-opacity:1;fill-rule:nonzero;stroke:none"
         d="m 7741.62,1032.38 -145.92,0 0,-136.696 145.92,0 c 40.61,0 76.28,24.629 76.28,69.363 0,44.163 -35.67,67.333 -76.28,67.333 m 86.1,-389.653 -103,175.828 -129.02,0 0,-175.828 -89.61,0 0,421.723 c 0,24.69 20.45,44.99 45.09,44.99 l 207.14,0 c 89.07,0 150.69,-65.36 150.69,-145.858 0,-59.434 -35.67,-110.602 -90.33,-132.363 l 111.51,-188.492 -102.47,0" /><path
         id="path52"
         style="fill:#220e04;fill-opacity:1;fill-rule:nonzero;stroke:none"
         d="m 8252.22,982.484 -63.58,-164.629 128.05,0 -64.47,164.629 z m 131.1,-339.757 -40.68,104.429 -180.71,0 -40.61,-104.429 -91.75,0 185.71,446.343 c 7.01,16.04 21.63,25.2 36.94,25.2 16.33,0 30.83,-9.16 38,-25.2 l 184.9,-446.343 -91.8,0" /><path
         id="path54"
         style="fill:#220e04;fill-opacity:1;fill-rule:nonzero;stroke:none"
         d="m 8634.16,642.727 c -23.78,0 -43.98,20.238 -43.98,44.992 l 0,421.721 89.52,0 0,-388.881 246.68,0 0,-77.832 -292.22,0" /><path
         id="path56"
         style="fill:#220e04;fill-opacity:1;fill-rule:nonzero;stroke:none"
         d="m 9584.41,1024.61 c -30.3,8.46 -69.48,12.6 -105.23,12.6 -112.09,0 -178.64,-69.362 -178.64,-161.128 0,-92.465 66.55,-162.016 178.64,-162.016 35.75,0 72.08,5.727 105.23,15.653 l 18.21,-72.289 c -36.05,-14.703 -86.26,-22.399 -133.18,-22.399 -152.12,0 -260,100.926 -260,241.051 0,140.068 105.81,240.228 260,240.228 45.49,0 91.76,-4.9 134.4,-18.77 l -19.43,-72.93" /><path
         id="path58"
         style="fill:#220e04;fill-opacity:1;fill-rule:nonzero;stroke:none"
         d="m 9954.14,1036.51 c -91.11,0 -149.19,-67.901 -149.19,-161.127 0,-93.227 58.08,-160.492 149.19,-160.492 91.16,0 150.06,67.265 150.06,160.492 0,93.226 -58.9,161.127 -150.06,161.127 m 0,-401.545 c -140.68,0 -238.79,106.652 -238.79,240.418 0,133.827 98.11,240.997 238.79,240.997 140.96,0 239.06,-107.17 239.06,-240.997 0,-133.766 -98.1,-240.418 -239.06,-240.418" /><path
         id="path60"
         style="fill:#220e04;fill-opacity:1;fill-rule:nonzero;stroke:none"
         d="m 10525.9,635.031 c -126,0 -203.9,91.762 -203.9,195.489 l 0,278.92 89.6,0 0,-279.62 c 0,-70.062 46.4,-114.929 114.3,-114.929 67.4,0 114.4,44.867 114.4,114.929 l 0,279.62 89.7,0 0,-278.92 c 0,-103.727 -78.5,-195.489 -204.1,-195.489" /><path
         id="path62"
         style="fill:#220e04;fill-opacity:1;fill-rule:nonzero;stroke:none"
         d="m 11258.9,639.227 c -14,-2.102 -30,2.039 -39.9,14.64 l -235.4,299.981 0,-311.121 -89.8,0 0,426.743 c 0,24.57 20.4,44.8 44.9,44.8 13.9,0 24.4,-3.5 34.2,-15.52 l 235.7,-299.031 0,309.721 89.6,0 0,-426.174 c 0,-23.102 -17.1,-41.43 -39.3,-44.039" /><path
         id="path64"
         style="fill:#220e04;fill-opacity:1;fill-rule:nonzero;stroke:none"
         d="m 11809,1024.61 c -30.2,8.46 -69.4,12.6 -105.1,12.6 -112.2,0 -178.6,-69.362 -178.6,-161.128 0,-92.465 66.4,-162.016 178.6,-162.016 35.7,0 72.3,5.727 105.1,15.653 l 18.1,-72.289 c -35.6,-14.703 -86,-22.399 -133.1,-22.399 -152,0 -260,100.926 -260,241.051 0,140.068 105.9,240.228 260,240.228 45.6,0 91.9,-4.9 134.6,-18.77 l -19.6,-72.93" /><path
         id="path66"
         style="fill:#220e04;fill-opacity:1;fill-rule:nonzero;stroke:none"
         d="m 11978.7,642.727 89.52,0 0,466.648 -89.52,0 0,-466.648 z" /><path
         id="path68"
         style="fill:#220e04;fill-opacity:1;fill-rule:nonzero;stroke:none"
         d="m 12286.8,642.727 c -23.9,0 -44.2,20.238 -44.2,44.992 l 0,421.721 89.7,0 0,-388.881 246.7,0 0,-77.832 -292.2,0" /><path
         id="path70"
         style="fill:#ffffff;fill-opacity:1;fill-rule:evenodd;stroke:none"
         d="m 0.144531,0 3972.729969,0 0,3726.55 -3972.729969,0 0,-3726.55 z" /><path
         id="path72"
         style="fill:#231f20;fill-opacity:1;fill-rule:evenodd;stroke:none"
         d="m 608.891,3726.55 110.304,0 c 175.77,-233.41 396.235,-491.14 639.045,-795.26 229.49,-287.51 497.09,-741.18 992.02,-662.65 512.27,81.14 979.63,868.96 572.94,1457.91 l 88.17,0 C 3566.82,2968.96 2593.86,1814.34 1843.15,2290.66 1355.09,2600.44 1003.12,3343.02 608.891,3726.55" /><path
         id="path74"
         style="fill:#231f20;fill-opacity:1;fill-rule:evenodd;stroke:none"
         d="m 829.355,3726.55 2005.525,0 c 554.39,-720.3 -388.71,-1768.58 -1035.71,-1192.86 -355.05,315.83 -663.54,857.18 -969.815,1192.86" /><path
         id="path76"
         style="fill:#231f20;fill-opacity:1;fill-rule:evenodd;stroke:none"
         d="m 3187.57,3726.55 784.59,0 0.72,-1301.68 C 3797.75,1716.34 3371.14,1068.46 2658.61,1097.86 c -486.48,20.17 -702.43,402.37 -881.5,839.43 284.14,-512.27 929.56,-733.29 1366.41,-331.23 509.69,468.87 330.41,1562.65 44.05,2120.49" /><path
         id="path78"
         style="fill:#a0201e;fill-opacity:1;fill-rule:evenodd;stroke:none"
         d="M 0.144531,3641.28 C 362.785,3330.99 756.297,2952.35 1159.98,2511.73 1555.93,2079.13 1975.52,1607.39 1975.52,987.449 1975.52,414.719 1653.91,115.883 1145.8,0 L 0.144531,0 0,952.254 C 232.352,844.457 887.801,564.711 983.566,854.957 1060.28,1087.61 681.23,1309.96 520.648,1429.34 322.387,1576.72 170.758,1692.35 0.5,1802.06 L 0.144531,2079.39 C 421.875,1764.96 900.84,1508.5 1049.75,921.266 1113.85,1308.18 813.309,1541.21 608.891,1738.29 414.785,1925.83 207.07,2116.93 0.359375,2278.06 L 0.144531,3641.28" /><path
         id="path80"
         style="fill:#a0201e;fill-opacity:1;fill-rule:evenodd;stroke:none"
         d="M 3972.88,870.355 C 3851.11,415.102 3595.41,94.1836 3113.51,0.0625 l -1567.03,0 c 437.99,87.1172 387.92,721.2575 825.63,899.0585 404.32,164.239 806.93,80.692 1124.16,331.419 244.96,193.46 350.11,449.46 476.61,739.52" /><path
         id="path82"
         style="fill:#231f20;fill-opacity:1;fill-rule:evenodd;stroke:none"
         d="m 3972.88,0 -539.99,0.0625 c 262.07,71.2109 445.29,221.9605 539.99,461.1755" /><path
         id="path84"
         style="fill:#a0201e;fill-opacity:1;fill-rule:evenodd;stroke:none"
         d="m 0.144531,3641.28 0,-1363.22" /></g></g></svg>