<?xml version="1.0" standalone="no"?>
<!DOCTYPE svg PUBLIC "-//W3C//DTD SVG 1.1//EN" "http://www.w3.org/Graphics/SVG/1.1/DTD/svg11.dtd" >
<svg xmlns="http://www.w3.org/2000/svg" xmlns:xlink="http://www.w3.org/1999/xlink" version="1.1">
<metadata></metadata>
<defs>
<font id="nunitoregular" horiz-adv-x="1163" >
<font-face units-per-em="2048" ascent="1638" descent="-410" />
<missing-glyph horiz-adv-x="581" />
<glyph unicode=" "  horiz-adv-x="581" />
<glyph unicode="&#x09;" horiz-adv-x="581" />
<glyph unicode="&#xa0;" horiz-adv-x="581" />
<glyph unicode="!" horiz-adv-x="791" d="M360 458q2 -27 17 -42.5t35 -15.5t35 15t17 43l55 934v8q0 44 -31.5 68t-74.5 24t-74.5 -24t-31.5 -68v-8zM415 -5q52 0 84 32t32 76q0 43 -32.5 74.5t-83.5 31.5q-52 0 -84 -32t-32 -74q0 -44 32 -76t84 -32z" />
<glyph unicode="&#x22;" horiz-adv-x="669" d="M471 985q23 0 39.5 16.5t19.5 52.5l28 355q1 33 -24.5 51.5t-61.5 18.5t-62.5 -19t-24.5 -51q0 -1 5 -67.5t12 -155t11 -132.5q6 -69 58 -69zM190 985q23 0 39.5 16.5t19.5 52.5l29 355q1 33 -25 51.5t-62 18.5q-37 0 -63 -19t-24 -55q0 -46 28 -351q3 -36 19 -52.5 t39 -16.5z" />
<glyph unicode="#" horiz-adv-x="1186" d="M453 592l39 270h258l-40 -270h-257zM296 -48q26 0 47 17t25 47l65 439h258q-5 -35 -22 -153t-28.5 -197t-11.5 -80v-9q0 -31 21 -47.5t49 -16.5q26 0 46.5 16.5t25.5 47.5l65 439h143q33 0 51 20t18 48t-18 48.5t-51 20.5h-123l40 270h140q33 0 51 20t18 48t-18 48.5 t-51 20.5h-121q58 370 58 393v7q0 30 -21 46t-50 16q-27 0 -48.5 -16.5t-26.5 -47.5l-58 -398h-257q6 40 21 142t26 177l11 74v8q0 29 -21 45t-50 16q-27 0 -48.5 -16.5t-26.5 -47.5l-58 -398h-161q-33 0 -50.5 -20t-17.5 -48t18 -48.5t50 -20.5h141l-39 -270h-158 q-33 0 -51 -20t-18 -48t18.5 -48.5t50.5 -20.5h139q-6 -43 -22.5 -155t-27.5 -193l-12 -81q0 -2 -0.5 -5.5t-0.5 -4.5q0 -31 21 -47.5t50 -16.5z" />
<glyph unicode="$" horiz-adv-x="1246" d="M574 0q0 -30 18 -46t43 -16q26 0 45 16.5t19 45.5v205q149 15 237.5 91t88.5 211q0 108 -64.5 177.5t-215.5 106.5l-173 43q-109 27 -142 51.5t-33 84.5q0 73 64 108t172 35q29 0 58.5 -3.5t52 -8.5t49 -13t40.5 -13t36 -13.5t27 -10.5q16 -6 31 -6q17 0 30 8t20 20.5 t7 27.5q0 17 -10 33t-29 26q-110 59 -252 73v205q0 29 -19 45.5t-45 16.5q-25 0 -43 -16t-18 -46v-204q-40 -3 -77 -9.5t-71 -18t-63 -27.5t-53 -38t-40.5 -48t-25.5 -59t-9 -71t7.5 -69.5t19.5 -55t34 -43t44 -33.5t56.5 -27t64.5 -21.5t76 -20.5l177 -44q44 -11 75 -25 t51 -33t29 -42t9 -54q0 -42 -18.5 -75t-51.5 -54t-77.5 -31.5t-97.5 -10.5q-153 1 -290 86q-23 14 -46 14q-17 0 -31 -8.5t-21.5 -22t-7.5 -28.5t7.5 -29t22.5 -25q52 -38 136 -68.5t177 -38.5v-204z" />
<glyph unicode="%" horiz-adv-x="2067" d="M1515 -32q104 0 182.5 53.5t118 141.5t39.5 196q0 74 -20.5 142t-60 124t-107 89.5t-152.5 33.5q-155 0 -248 -111.5t-93 -277.5q0 -170 91.5 -280.5t249.5 -110.5zM1515 82q-68 0 -112.5 41t-61.5 100.5t-17 135.5t17 135.5t61.5 100.5t112.5 41q51 0 89 -23t59.5 -63 t31.5 -87.5t10 -103.5q0 -77 -17.5 -136.5t-61.5 -100t-111 -40.5zM551 631q156 0 249 111.5t93 278.5q0 74 -20.5 142t-60.5 124.5t-107.5 90t-153.5 33.5q-156 0 -248 -112t-92 -278q0 -171 91.5 -280.5t248.5 -109.5zM551 743q-67 0 -111 41t-61.5 101t-17.5 136 t17.5 135.5t61.5 100t111 40.5q68 0 112.5 -40.5t62 -100t17.5 -135.5t-17.5 -136t-62 -101t-112.5 -41zM609 -70q33 0 54 38l779 1374q13 26 13 42q0 24 -17 41.5t-40 17.5q-36 0 -58 -39l-781 -1382q-12 -21 -12 -35q0 -24 19 -40.5t43 -16.5z" />
<glyph unicode="&#x26;" horiz-adv-x="1523" d="M610 953q-155 157 -155 274q0 71 51.5 106t126.5 35q70 0 121.5 -37t51.5 -104q0 -28 -10 -56t-21 -48.5t-36.5 -48t-39 -41t-46.5 -42.5t-43 -38zM647 123q-92 0 -171 35t-130 106.5t-51 165.5q0 164 281 314l425 -455q-156 -166 -354 -166zM989 1235q0 68 -30 121.5 t-79.5 85.5t-108 48.5t-120.5 16.5q-105 0 -190 -30t-139.5 -95t-54.5 -155q0 -97 51.5 -180.5t144.5 -182.5q-80 -43 -138 -84t-113.5 -97t-84.5 -126t-29 -152q0 -204 151 -318.5t403 -114.5q142 0 251 53t202 156l149 -161q26 -30 59 -30q36 0 67.5 30.5t31.5 67.5 q0 24 -25 53l-156 167q81 134 121.5 290.5t40.5 256.5q0 35 -25.5 55.5t-59.5 20.5q-31 0 -53.5 -16.5t-26.5 -49.5q-4 -106 -35.5 -221t-80.5 -216l-391 416q59 44 101.5 81.5t83.5 86.5t62 105.5t21 117.5z" />
<glyph unicode="'" horiz-adv-x="593" d="M295 985q55 0 60 58l28 366q0 33 -25 51.5t-61 18.5t-62 -18.5t-26 -51.5q0 -1 5.5 -70.5t12.5 -161t11 -134.5q4 -58 57 -58z" />
<glyph unicode="(" horiz-adv-x="606" d="M430 -225q29 0 49.5 19t20.5 49q0 14 -8 36q-147 406 -147 751q0 349 149 758q7 17 7 35q0 30 -21 50t-50 20q-51 0 -76 -63q-95 -230 -147.5 -422.5t-52.5 -378.5q0 -189 53.5 -381.5t150.5 -421.5q23 -51 72 -51z" />
<glyph unicode=")" horiz-adv-x="606" d="M177 -226q49 0 73 52q97 228 150.5 421t53.5 381q0 187 -52.5 379.5t-147.5 422.5q-28 62 -75 62q-29 0 -50.5 -20t-21.5 -49q0 -16 8 -35q148 -412 148 -758q0 -351 -147 -751q-8 -21 -8 -37q0 -29 20.5 -48.5t48.5 -19.5z" />
<glyph unicode="*" horiz-adv-x="1084" d="M430 779l111 201l112 -201q19 -36 53 -36q25 0 45.5 20t20.5 47q0 18 -10 35l-117 191l236 -8q31 0 48 18.5t17 44.5t-17 44.5t-48 18.5l-235 -9l121 194q9 17 9 33q0 27 -19 47t-45 20q-35 0 -58 -37l-113 -205l-114 206q-20 35 -54 35q-26 0 -46.5 -19.5t-20.5 -46.5 q0 -18 10 -35l119 -192l-231 9q-31 0 -48.5 -19t-17.5 -44q0 -26 17.5 -44.5t48.5 -18.5l234 8l-120 -193q-10 -16 -10 -34q0 -27 20.5 -46.5t46.5 -19.5q34 0 55 36z" />
<glyph unicode="+" horiz-adv-x="1333" d="M666 4q32 0 53 22.5t21 53.5v346h361q33 0 56 20.5t23 51.5q0 32 -23.5 51.5t-55.5 19.5h-361v349q0 33 -21 55t-53 22q-33 0 -53.5 -22.5t-20.5 -54.5v-349h-360q-34 0 -56.5 -19.5t-22.5 -51.5q0 -31 23.5 -51.5t55.5 -20.5h360v-346q0 -33 20.5 -54.5t53.5 -21.5z" />
<glyph unicode="," horiz-adv-x="593" d="M154 -335h56q38 0 53 43l164 475q3 12 3 18q0 35 -37 38h-106q-64 -2 -73 -56l-84 -475q-1 -3 -1 -12q0 -30 25 -31z" />
<glyph unicode="-" horiz-adv-x="683" d="M119 459h445q35 0 57.5 19t22.5 49q0 32 -22 51.5t-58 19.5h-445q-36 0 -58 -19.5t-22 -51.5q0 -30 22.5 -49t57.5 -19z" />
<glyph unicode="." horiz-adv-x="593" d="M296 -2q52 0 84 32t32 76q0 43 -32.5 74.5t-83.5 31.5q-52 0 -84 -32t-32 -74q0 -44 32 -76t84 -32z" />
<glyph unicode="/" horiz-adv-x="747" d="M131 -166q51 0 70 52l484 1451q5 18 5 29q0 31 -22.5 50t-52.5 19q-56 0 -73 -52l-480 -1452q-5 -18 -5 -28q0 -31 22 -50t52 -19z" />
<glyph unicode="0" horiz-adv-x="1186" d="M593 -22q115 0 204 41t144.5 108.5t91 164.5t49 199t13.5 222q0 737 -502 737q-503 0 -503 -737q0 -121 14 -223t49.5 -199t91 -164.5t144.5 -108t204 -40.5zM593 140q-55 0 -99.5 19.5t-74.5 50.5t-52.5 78t-35.5 95t-20.5 108.5t-10 111.5t-2.5 110q0 62 2.5 114.5 t10.5 113.5t20.5 109t35.5 94t53 76.5t74 49t99 18.5t99 -18.5t74.5 -49.5t53 -77t35.5 -94t21 -108.5t10.5 -113t2.5 -114.5q0 -59 -2.5 -109.5t-10 -111t-20.5 -108.5t-35.5 -95t-53 -78.5t-75 -51t-99.5 -19.5z" />
<glyph unicode="1" horiz-adv-x="1175" d="M658 0q41 0 71 25t30 70l-1 1236q0 47 -27.5 72.5t-67.5 25.5q-33 0 -55 -15l-343 -214q-34 -23 -34 -58q0 -30 21.5 -52t51.5 -22q20 0 39 11l216 139v-1123q0 -45 29.5 -70t69.5 -25z" />
<glyph unicode="2" horiz-adv-x="1179" d="M1043 1038q0 168 -124.5 285t-312.5 117q-132 0 -222.5 -31.5t-189.5 -91.5q-39 -24 -39 -62q0 -32 24.5 -57.5t55.5 -25.5q15 0 29 7q9 5 55.5 32.5t70 37.5t80 22t122.5 12q111 0 187.5 -72.5t76.5 -190.5q0 -70 -38 -139.5t-119 -152.5l-520 -527q-47 -47 -47 -98 q0 -44 36 -73.5t95 -29.5h688q37 0 58 22.5t21 53.5t-21 53.5t-58 22.5h-602l457 445q127 117 182 221t55 220z" />
<glyph unicode="3" horiz-adv-x="1175" d="M558 -22q98 0 183.5 23.5t155 70.5t110 126t40.5 180q0 140 -74 238t-202 130q109 36 175.5 116.5t66.5 200.5q0 126 -64 215.5t-167 130.5t-234 41q-102 0 -208.5 -28.5t-153.5 -57.5q-33 -19 -33 -58q0 -34 23 -62.5t53 -28.5q14 0 24 5q136 68 292 68q112 0 189 -60 t77 -169q0 -121 -84.5 -184.5t-224.5 -63.5h-65q-34 0 -52.5 -22t-18.5 -53q0 -30 18.5 -51t52.5 -21h73q147 0 242 -78t95 -209q0 -113 -82.5 -175t-215.5 -62q-132 0 -275 66q-15 5 -25 5q-31 0 -54 -25t-23 -58q0 -48 52 -75q142 -75 334 -75z" />
<glyph unicode="4" horiz-adv-x="1175" d="M265 456l478 768v-768h-478zM841 -1q38 0 67 24t29 66v221h146q35 0 54 21.5t19 51.5t-19 51.5t-54 21.5h-145v834q0 69 -40 104t-100 35q-102 0 -163 -95l-546 -858q-19 -29 -19 -62q0 -42 28.5 -73t74.5 -31h570v-221q0 -42 30 -66t68 -24z" />
<glyph unicode="5" horiz-adv-x="1175" d="M607 -22q214 0 349.5 127t135.5 337q0 202 -120 329.5t-320 127.5q-60 0 -114.5 -12t-89 -28.5t-60 -33.5t-36.5 -29l-12 -12l1 483h593q36 0 55 22t19 53t-19.5 53.5t-54.5 22.5h-656q-97 0 -97 -90v-653q0 -30 41 -51.5t82 -21.5q28 0 39 12q46 56 124.5 92.5 t158.5 36.5q124 0 199 -81.5t75 -214.5q0 -145 -76 -226t-224 -81q-180 0 -318 120q-16 13 -35 13q-31 0 -58 -29.5t-27 -62.5q0 -26 20 -43q91 -80 192 -120t233 -40z" />
<glyph unicode="6" horiz-adv-x="1175" d="M623 762q138 0 207.5 -88t69.5 -226q0 -143 -77 -227.5t-220 -84.5q-139 0 -216 88.5t-77 220.5q0 145 82 231t231 86zM613 -22q220 0 351 133t131 339q0 202 -123.5 328t-329.5 127q-130 0 -226.5 -62.5t-119.5 -143.5q0 77 3.5 138.5t14 124.5t28 110t46 89t67 69 t92.5 42.5t121 15.5q122 0 252 -60q14 -6 25 -6q30 0 51.5 28.5t21.5 62.5q0 45 -37 63q-151 74 -309 74q-106 0 -192 -26.5t-145.5 -71t-105 -110.5t-71.5 -135t-42.5 -155t-22 -161.5t-5.5 -162.5q0 -106 15.5 -197.5t53.5 -176.5t96.5 -145t150 -95.5t209.5 -35.5z" />
<glyph unicode="7" horiz-adv-x="1175" d="M437 0q62 0 86 56l512 1185q18 42 18 86q0 43 -29 68.5t-83 25.5h-766q-39 0 -60 -24t-21 -56q0 -33 21 -56.5t60 -23.5h659l-490 -1125q-10 -25 -10 -43q0 -40 31 -66.5t72 -26.5z" />
<glyph unicode="8" horiz-adv-x="1175" d="M588 832q-130 0 -205 61.5t-75 178.5q0 61 23 107.5t63.5 73t89 39.5t104.5 13q120 0 200 -57t80 -176q0 -117 -74.5 -178.5t-205.5 -61.5zM588 130q-83 0 -147.5 25t-105.5 83t-41 143q0 131 83.5 201.5t210.5 70.5q126 0 209 -70.5t83 -201.5q0 -126 -82 -188.5 t-210 -62.5zM587 -22q142 0 252.5 45.5t176.5 138.5t66 220q0 137 -71 228.5t-211 129.5q125 30 192 116t67 212q0 92 -37 166t-101.5 120.5t-149.5 71t-184 24.5q-132 0 -237 -42t-169 -130t-64 -210q0 -124 65.5 -210.5t195.5 -117.5q-136 -28 -210 -125.5t-74 -232.5 q0 -127 65.5 -220t176 -138.5t251.5 -45.5z" />
<glyph unicode="9" horiz-adv-x="1175" d="M555 666q-138 0 -207.5 88t-69.5 226q0 143 76.5 227.5t220.5 84.5q139 0 215.5 -88.5t76.5 -220.5q0 -145 -81.5 -231t-230.5 -86zM506 -22q106 0 192 26.5t145.5 71t105 110.5t71.5 135t42.5 155t22 161.5t5.5 162.5q0 106 -15.5 197.5t-53.5 176.5t-96.5 145 t-150.5 95.5t-210 35.5q-219 0 -350 -132.5t-131 -339.5q0 -202 123 -328t329 -127q130 0 226.5 62.5t120.5 143.5q0 -77 -3.5 -138.5t-14 -124.5t-28 -110t-46 -89t-67 -69t-92.5 -42.5t-121 -15.5q-123 0 -252 60q-14 6 -25 6q-30 0 -51.5 -28.5t-21.5 -62.5q0 -45 37 -63 q151 -74 309 -74z" />
<glyph unicode=":" horiz-adv-x="593" d="M296 794q53 0 84.5 31t31.5 75t-32 75.5t-84 31.5t-84 -31.5t-32 -75.5q0 -45 31.5 -75.5t84.5 -30.5zM296 -2q52 0 84 32t32 76q0 43 -32.5 74.5t-83.5 31.5q-52 0 -84 -32t-32 -74q0 -44 32 -76t84 -32z" />
<glyph unicode=";" horiz-adv-x="593" d="M323 813q53 0 85 31.5t32 76.5q0 43 -32.5 74t-84.5 31q-53 0 -84.5 -31t-31.5 -74q0 -45 32 -76.5t84 -31.5zM162 -222h56q38 0 53 43l164 475q3 12 3 18q0 35 -37 38h-106q-64 -2 -73 -56l-84 -475q-1 -3 -1 -12q0 -30 25 -31z" />
<glyph unicode="&#x3c;" horiz-adv-x="1333" d="M1079 31q8 -4 18 -4q24 0 41.5 24.5t17.5 53.5q0 36 -27 47l-781 345l779 326q34 15 34 49q0 28 -20.5 52t-46.5 24q-11 0 -19 -4l-870 -369q-57 -24 -57 -78q0 -25 14 -46t39 -32z" />
<glyph unicode="=" horiz-adv-x="1333" d="M228 625h871q33 0 56.5 20.5t23.5 51.5q0 33 -23.5 53t-56.5 20h-866q-34 0 -57 -20t-23 -53q0 -29 22 -50.5t53 -21.5zM228 226h872q33 0 56 20t23 51q0 33 -22.5 53t-54.5 20h-869q-34 0 -57 -20.5t-23 -52.5q0 -29 22 -50t53 -21z" />
<glyph unicode="&#x3e;" horiz-adv-x="1333" d="M230 31l879 388q25 11 39 32.5t14 45.5q0 53 -58 78l-870 369q-8 4 -19 4q-26 0 -46.5 -23.5t-20.5 -51.5q0 -35 35 -50l778 -326l-781 -345q-26 -11 -26 -46q0 -28 17.5 -53.5t41.5 -25.5q9 0 17 4z" />
<glyph unicode="?" horiz-adv-x="1036" d="M425 -18q52 0 84 32t32 77q0 43 -32 74t-84 31q-53 0 -84.5 -31t-31.5 -74q0 -45 31.5 -77t84.5 -32zM333 447q1 -37 27.5 -58t62.5 -21q35 0 60 20t25 55l-1 100q0 32 21.5 64t56 61.5t76.5 61t84 68.5t77 78t56.5 95.5t21.5 115.5q0 94 -32.5 164.5t-90 112t-130 61.5 t-159.5 20q-134 0 -288 -41q-34 -8 -50.5 -30.5t-16.5 -49.5q0 -34 19.5 -58t51.5 -24q20 0 116 17.5t123 17.5q53 0 94 -8.5t79 -29.5t58.5 -63t20.5 -103q0 -48 -19.5 -92t-51 -77.5t-70 -65.5t-76.5 -62t-70 -61t-52.5 -68.5t-21.5 -78.5z" />
<glyph unicode="@" horiz-adv-x="1638" d="M710 430q-80 0 -121 55t-41 146q0 100 39.5 197.5t116 164.5t168.5 67q35 0 67.5 -13.5t53 -33t36 -39t22.5 -32.5l7 -14l-91 -311q-24 -81 -100 -134t-157 -53zM808 -26q154 0 321 51q37 10 37 51q0 23 -14.5 39t-40.5 16q-15 0 -26 -4q-130 -40 -260 -40 q-129 0 -241.5 41t-199.5 118.5t-137.5 201t-50.5 278.5q0 123 40.5 232t110 187.5t159 135.5t189 85t199.5 28q105 0 197.5 -32t165.5 -94.5t115.5 -165.5t42.5 -234q0 -110 -40.5 -213t-107.5 -167t-141 -64q-54 0 -54 51q0 35 23 109l148 476q4 11 4 25q0 26 -19 41.5 t-45 15.5t-47.5 -14t-29.5 -40l-9 -29q-31 63 -93.5 97t-137.5 34q-85 0 -162.5 -33.5t-134.5 -90t-99.5 -129.5t-64 -155t-21.5 -163q0 -134 79 -224.5t212 -90.5q155 0 254 116q12 -56 60 -85.5t106 -29.5q79 0 160 44t147 117.5t108 181.5t42 225q0 127 -36 233.5 t-98 180.5t-146.5 125.5t-180 75.5t-199.5 24q-122 0 -241.5 -32t-226.5 -98t-189.5 -156.5t-130.5 -217t-48 -271.5q0 -234 99 -408.5t268.5 -264.5t384.5 -90z" />
<glyph unicode="A" horiz-adv-x="1428" d="M1176 60q25 -66 92 -66q39 0 70 25t31 63q0 16 -8 37l-475 1179q-34 85 -73.5 112.5t-98.5 27.5t-98.5 -27.5t-73.5 -112.5l-475 -1179q-8 -21 -8 -37q0 -38 30.5 -63t69.5 -25q68 0 93 66l118 304h688zM1001 509h-574l287 739z" />
<glyph unicode="B" horiz-adv-x="1318" d="M377 813v461h294q55 0 95.5 -4.5t81.5 -17.5t67 -36t42.5 -62t16.5 -93q0 -132 -77.5 -190t-246.5 -58h-273zM377 157v501h251q204 0 298 -53t94 -197q0 -146 -75.5 -198.5t-244.5 -52.5h-323zM276 0h465q122 0 218 32t153.5 86.5t87.5 122t30 142.5q0 159 -92.5 250.5 t-255.5 109.5v4q139 18 213.5 108t74.5 218q0 169 -120 262.5t-371 93.5h-403q-41 0 -70 -28t-29 -69v-1235q0 -40 29 -68.5t70 -28.5z" />
<glyph unicode="C" horiz-adv-x="1354" d="M784 -22q227 0 394 109q50 32 50 78q0 31 -22 54t-53 23q-18 0 -38 -11q-78 -44 -145 -67.5t-156 -23.5q-99 0 -179.5 30t-135 82t-91.5 124.5t-54 156.5t-17 179t17 179.5t54 157.5t91 126t133 83t176 30q40 0 77.5 -4t62.5 -9.5t52 -15t40 -15t33.5 -16t24.5 -12.5 q18 -8 33 -8q31 0 53 24t22 56q0 45 -44 69q-167 93 -361 93q-157 0 -286 -58t-214 -158.5t-131.5 -235.5t-46.5 -289q0 -207 76 -371t228 -262t357 -98z" />
<glyph unicode="D" horiz-adv-x="1509" d="M379 163v1108h225q297 0 435 -128t138 -426q0 -141 -28 -241.5t-90.5 -172t-166.5 -106t-254 -34.5h-259zM278 3h350q363 0 561 182.5t198 528.5q0 351 -196 534.5t-572 183.5h-341q-42 0 -71.5 -28.5t-29.5 -69.5v-1233q0 -41 29.5 -69.5t71.5 -28.5z" />
<glyph unicode="E" horiz-adv-x="1241" d="M277 0h762q38 0 59 23.5t21 56.5t-21 57t-59 24h-660v495h600q38 0 59.5 23.5t21.5 55.5t-21 55t-60 23h-600v455h634q38 0 59 24t21 57t-21 56.5t-59 23.5h-741q-40 0 -67.5 -29.5t-27.5 -68.5v-1233q0 -39 30.5 -68.5t69.5 -29.5z" />
<glyph unicode="F" horiz-adv-x="1151" d="M277 0q42 0 72 25t30 72v564h568q38 0 59.5 23.5t21.5 56.5q0 32 -21.5 55t-59.5 23h-568v449h595q38 0 59 24t21 57t-21 56.5t-59 23.5h-701q-40 0 -68.5 -27.5t-28.5 -70.5v-1234q0 -46 30 -71.5t71 -25.5z" />
<glyph unicode="G" horiz-adv-x="1460" d="M807 -22q234 0 457 75q78 25 78 110v500q0 41 -21.5 65.5t-61.5 24.5h-386q-33 0 -52.5 -24.5t-19.5 -54.5q0 -28 19.5 -52t52.5 -24h267v-415q-155 -43 -315 -43q-125 0 -219.5 42t-152.5 119.5t-87 181.5t-29 234q0 128 30.5 231t91.5 179.5t159 118.5t227 42 q135 0 352 -62q10 -2 20 -2q31 0 51.5 26t20.5 58q0 49 -46 69q-176 73 -405 73q-141 0 -259 -39t-201.5 -107t-141.5 -160.5t-85.5 -200.5t-27.5 -226q0 -180 51 -321.5t142.5 -232t216 -138t274.5 -47.5z" />
<glyph unicode="H" horiz-adv-x="1481" d="M277 1q42 0 72 25t30 71v564h723v-564q0 -45 29.5 -70.5t70.5 -25.5q42 0 72 25t30 71v1235q0 46 -30 71.5t-71 25.5t-71 -26t-30 -71v-510h-723v510q0 46 -29.5 71.5t-70.5 25.5q-42 0 -72 -25.5t-30 -71.5v-1235q0 -45 29.5 -70.5t70.5 -25.5z" />
<glyph unicode="I" horiz-adv-x="605" d="M302 1q42 0 72 25t30 71v1236q0 46 -29.5 71.5t-70.5 25.5t-71.5 -26t-30.5 -71v-1236q0 -45 29.5 -70.5t70.5 -25.5z" />
<glyph unicode="J" horiz-adv-x="1018" d="M427 -25q91 0 169 26t141.5 79.5t100 146t36.5 215.5v892q0 45 -29.5 70t-71.5 25t-72 -25t-30 -70v-877q0 -165 -61.5 -239t-185.5 -74q-106 0 -213 68q-31 23 -60 23q-33 0 -54 -27t-21 -63q0 -45 33 -68q136 -102 318 -102z" />
<glyph unicode="K" horiz-adv-x="1271" d="M276 0q41 0 71.5 25t30.5 70v614l635 -667q39 -42 79 -42t69.5 26.5t29.5 65.5q0 36 -23 60l-583 596l530 542q22 22 22 56q0 35 -27 59t-64 24q-39 0 -75 -38l-593 -626v568q0 45 -30 70.5t-70 25.5q-41 0 -71 -25.5t-30 -70.5v-1238q0 -45 29 -70t70 -25z" />
<glyph unicode="L" horiz-adv-x="1105" d="M279 0h729q38 0 59.5 24t21.5 56q0 33 -21 57t-60 24h-629v1171q0 46 -29.5 71.5t-70.5 25.5q-42 0 -72 -25.5t-30 -71.5v-1232q0 -42 30 -71t72 -29z" />
<glyph unicode="M" horiz-adv-x="1906" d="M951 37q35 0 68 23t52 66l466 1046v-1089q0 -34 27.5 -53t65.5 -19q37 0 65 19t28 53v1184q0 58 -46 97t-107 39q-50 0 -94.5 -29.5t-70.5 -89.5l-454 -1008l-454 1008q-27 60 -71.5 89.5t-94.5 29.5q-61 0 -106.5 -39t-45.5 -97v-1184q0 -34 28 -53t65 -19q38 0 65.5 19 t27.5 53v1089l466 -1046q19 -43 52 -66t68 -23z" />
<glyph unicode="N" horiz-adv-x="1515" d="M268 0q38 0 66 23.5t28 65.5v1037l731 -1060q22 -32 56 -49t68 -17q52 0 87.5 35t35.5 94v1211q0 42 -28 65.5t-65 23.5q-39 0 -66 -23.5t-27 -65.5v-1050l-728 1060q-27 39 -64.5 59t-72.5 20q-49 0 -81.5 -34.5t-32.5 -94.5v-1211q0 -42 27.5 -65.5t65.5 -23.5z" />
<glyph unicode="O" horiz-adv-x="1599" d="M800 -22q315 0 495.5 199t180.5 537t-180.5 537t-495.5 199t-496 -199t-181 -537t181 -537t496 -199zM800 140q-219 0 -341 153.5t-122 420.5t121.5 420.5t341.5 153.5q219 0 340.5 -153.5t121.5 -420.5t-121.5 -420.5t-340.5 -153.5z" />
<glyph unicode="P" horiz-adv-x="1234" d="M379 769v500h315q165 0 239 -56t74 -191q0 -138 -78.5 -195.5t-245.5 -57.5h-304zM278 0q42 0 71.5 25t29.5 71v519h305q119 0 211 21t163.5 66.5t109.5 126t38 193.5q0 217 -129 312t-375 95h-423q-43 0 -72.5 -29t-29.5 -71v-1233q0 -45 30 -70.5t71 -25.5z" />
<glyph unicode="Q" horiz-adv-x="1599" d="M1304 -221q30 0 53 23.5t23 56.5q0 47 -47 70l-328 148l-280 -45l544 -245q16 -8 35 -8zM800 -22q315 0 495.5 199t180.5 537t-180.5 537t-495.5 199t-496 -199t-181 -537t181 -537t496 -199zM800 140q-219 0 -341 153.5t-122 420.5t121.5 420.5t341.5 153.5 q219 0 340.5 -153.5t121.5 -420.5t-121.5 -420.5t-340.5 -153.5z" />
<glyph unicode="R" horiz-adv-x="1365" d="M379 809v460h318q43 0 74 -2t72 -8.5t69.5 -21t54.5 -37.5t39.5 -61t13.5 -88q0 -61 -20 -105.5t-51.5 -70.5t-79.5 -41t-94 -20t-105 -5h-291zM277 1q41 0 71.5 25t30.5 71v557h334q80 0 127 -11.5t78.5 -45.5t45.5 -85t24 -142l31 -279q4 -43 36.5 -66.5t72.5 -23.5 q39 0 67 25t28 65q0 9 -1 14l-36 314q-31 270 -266 321v4q150 28 226 115t76 211q0 86 -29.5 151.5t-76.5 104t-116 62.5t-137.5 32.5t-150.5 8.5h-434q-42 0 -71.5 -28.5t-29.5 -69.5v-1234q0 -46 29.5 -71t70.5 -25z" />
<glyph unicode="S" horiz-adv-x="1286" d="M636 -22q248 0 392.5 109t144.5 305q0 81 -24.5 143t-74 106.5t-110 75.5t-147.5 59l-288 93q-102 34 -148.5 80.5t-46.5 124.5q0 104 90 159t240 55q105 0 197.5 -33.5t153.5 -73.5q21 -14 44 -14q32 0 55 25t23 56q0 30 -23 50q-68 61 -196.5 106.5t-269.5 45.5 q-144 0 -258.5 -45t-182 -133t-67.5 -204q0 -144 78 -226t237 -136l287 -96q64 -22 104 -41t71.5 -47t45 -65.5t13.5 -90.5q0 -110 -92.5 -168t-238.5 -58q-224 0 -394 132q-11 8 -25 8q-31 0 -61.5 -34t-30.5 -66q0 -19 12 -30q185 -172 490 -172z" />
<glyph unicode="T" horiz-adv-x="1169" d="M587 0q41 0 71 26t30 71v1171h372q39 0 61 24t22 57t-21.5 56.5t-61.5 23.5h-951q-39 0 -61 -24t-22 -56q0 -33 22 -57t61 -24h377v-1171q0 -45 30 -71t71 -26z" />
<glyph unicode="U" horiz-adv-x="1496" d="M748 -22q91 0 173.5 20t154.5 62t124.5 102.5t83 146t30.5 188.5v837q0 46 -29.5 72t-70.5 26q-42 0 -72 -26t-30 -72v-832q0 -90 -31 -161t-83 -114t-116 -65t-134 -22t-133.5 22t-115 65t-82.5 114t-31 161v832q0 46 -30 72t-71 26q-42 0 -72 -26t-30 -72v-837 q0 -127 46 -228t125 -163.5t179.5 -95t214.5 -32.5z" />
<glyph unicode="V" horiz-adv-x="1310" d="M661 -8q118 0 170 141l433 1178q6 17 6 32q0 38 -31.5 63.5t-71.5 25.5q-67 0 -90 -64l-416 -1156l-415 1156q-23 64 -90 64q-40 0 -72 -25.5t-32 -63.5q0 -15 6 -32l433 -1178q52 -141 170 -141z" />
<glyph unicode="W" horiz-adv-x="2110" d="M1711 110l327 1201q4 15 4 30q0 41 -30 66t-69 25q-32 0 -58 -18t-35 -51l-299 -1167l-359 1110q-25 75 -57 99.5t-84 24.5q-50 0 -83.5 -26.5t-56.5 -97.5l-359 -1110l-299 1167q-9 33 -35 51t-58 18q-39 0 -69 -25t-30 -66q0 -15 4 -30l327 -1201q15 -55 56 -84.5 t91 -29.5t93 29.5t61 82.5l358 1092l359 -1092q18 -54 60 -83t92 -29q51 0 93 30t56 84z" />
<glyph unicode="X" horiz-adv-x="1287" d="M1034 39q28 -39 75 -39q39 0 71 26.5t32 63.5q0 26 -18 51l-427 583l430 577q18 24 18 51q0 32 -24.5 55t-58.5 23q-48 0 -83 -46l-387 -517l-381 519q-32 43 -77 43q-40 0 -71.5 -30t-31.5 -67q0 -25 15 -44l418 -569l-444 -581q-20 -26 -20 -55q0 -34 26.5 -59.5 t61.5 -25.5q46 0 80 45l399 536z" />
<glyph unicode="Y" horiz-adv-x="1285" d="M541 98q0 -46 30 -71.5t72 -25.5q41 0 71 25.5t30 70.5v506l454 700q15 23 15 48q0 32 -25.5 55t-59.5 23q-48 0 -78 -47l-396 -627l-394 624q-30 48 -82 48q-40 0 -71.5 -27t-31.5 -64q0 -25 14 -46l452 -694v-498z" />
<glyph unicode="Z" horiz-adv-x="1174" d="M208 0h825q39 0 60 24t21 57t-21 56.5t-60 23.5h-705l770 1106q25 37 25 73q0 39 -27 64t-71 25h-841q-38 0 -59 -23.5t-21 -55.5q0 -33 21 -57.5t59 -24.5h702l-770 -1105q-22 -33 -22 -68q0 -40 29 -67.5t85 -27.5z" />
<glyph unicode="[" horiz-adv-x="634" d="M263 -206h194q33 1 51 21.5t18 48.5t-18 47.5t-51 19.5h-105v1362h105q33 0 51 20.5t18 48.5t-18 47.5t-51 19.5h-194q-39 0 -65 -26t-26 -62v-1458q0 -37 26 -63t65 -26z" />
<glyph unicode="\" horiz-adv-x="599" d="M542 -101q30 0 51.5 19t21.5 50q0 15 -4 28l-480 1451q-19 53 -73 53q-30 0 -52.5 -19t-22.5 -50q0 -9 5 -29l484 -1451q17 -52 70 -52z" />
<glyph unicode="]" horiz-adv-x="634" d="M175 -206h195q38 0 64.5 26t26.5 63v1458q0 36 -26.5 62t-64.5 26h-195q-33 0 -50.5 -19.5t-17.5 -47.5t18 -48.5t50 -20.5h106v-1362h-106q-32 0 -50 -20t-18 -47q0 -28 18 -48.5t50 -21.5z" />
<glyph unicode="^" horiz-adv-x="1333" d="M258 498q47 0 69 51l340 683l338 -683q24 -50 70 -50q30 0 52.5 20t22.5 49q0 14 -10 36l-378 738q-34 66 -95 66q-59 0 -95 -66l-379 -738q-10 -22 -10 -37q0 -30 22.5 -49.5t52.5 -19.5z" />
<glyph unicode="_" horiz-adv-x="1024" d="M56 -254h908q28 0 43.5 18t15.5 42q0 25 -15.5 43t-43.5 18h-908q-26 0 -41.5 -18t-15.5 -43q0 -24 15.5 -42t41.5 -18z" />
<glyph unicode="`" horiz-adv-x="569" d="M461 1194q18 0 29.5 12t11.5 30t-14 35l-258 298q-29 33 -60 33q-36 0 -66.5 -29.5t-30.5 -64.5q0 -28 24 -47l318 -248q24 -19 46 -19z" />
<glyph unicode="a" horiz-adv-x="1048" d="M440 102q-93 0 -147 42.5t-54 133.5q0 50 14.5 82t44.5 54.5t90 34t138 16t202 4.5v-30q0 -147 -86.5 -242t-201.5 -95zM421 -18q215 0 308 195v-96q0 -39 25.5 -60.5t61.5 -21.5t63.5 22.5t27.5 61.5v583q0 177 -103.5 262t-286.5 85q-214 0 -369 -87q-28 -16 -28 -46 q0 -26 19 -47.5t45 -21.5q14 0 24 5q51 23 86 36t96 26t122 13q102 0 159 -51t57 -158v-109q-111 0 -189.5 -3t-152.5 -10.5t-122 -22t-88 -37t-62 -55t-34 -75.5t-12 -100q0 -138 98 -213t255 -75z" />
<glyph unicode="b" horiz-adv-x="1190" d="M644 106q-310 0 -310 396q0 76 17 143t51.5 123t94 89t138.5 33q78 0 136.5 -35t90.5 -93.5t47.5 -124.5t15.5 -138q0 -70 -14 -134.5t-44 -124.5t-87.5 -96.5t-135.5 -37.5zM676 -18q104 0 187.5 42.5t135.5 115t79.5 165.5t27.5 198q0 107 -30 199.5t-85.5 162 t-141 109t-189.5 39.5q-111 0 -196.5 -48t-130.5 -139v519q0 39 -27 61.5t-64 22.5q-36 0 -63 -22.5t-27 -61.5v-1258q0 -40 27 -62.5t63 -22.5q45 0 68 22.5t23 61.5v89q48 -96 137.5 -144.5t205.5 -48.5z" />
<glyph unicode="c" horiz-adv-x="959" d="M557 -19q196 0 304 87q34 28 34 61q0 23 -16 38.5t-39 15.5q-21 0 -40 -13q-92 -64 -229 -64q-78 0 -138 32.5t-96 88t-54 123.5t-18 144q0 182 89 289.5t232 107.5q110 0 201 -59q20 -13 42 -13q24 0 40.5 15t16.5 37q0 31 -34 58q-43 36 -116 60t-159 24 q-147 0 -260 -69t-173 -186t-60 -261q0 -223 128 -369.5t345 -146.5z" />
<glyph unicode="d" horiz-adv-x="1190" d="M546 106q-78 1 -135.5 37.5t-87.5 96.5t-44 124.5t-14 134.5q0 72 15.5 138t47.5 124.5t90.5 93.5t136.5 35q79 0 138.5 -33t94 -89t51.5 -123t17 -143q0 -396 -310 -396zM514 -18q116 0 205.5 48.5t137.5 144.5v-89q0 -39 23 -61.5t68 -22.5q36 0 63 22.5t27 62.5v1258 q0 39 -27 61.5t-63 22.5q-37 0 -64 -22.5t-27 -61.5v-519q-45 91 -130.5 139t-196.5 48q-104 0 -189.5 -39.5t-141 -109t-85.5 -162t-30 -199.5q0 -105 27.5 -198t79.5 -165.5t135.5 -115t187.5 -42.5z" />
<glyph unicode="e" horiz-adv-x="1119" d="M275 572q5 62 26.5 117.5t58 101t93.5 72.5t127 27q135 0 205 -89t79 -229h-589zM583 -18q224 0 382 142q28 25 28 57q0 25 -16.5 43.5t-40.5 18.5q-20 0 -38 -14q-72 -55 -143 -87t-160 -32q-141 2 -231 90.5t-92 260.5h686q32 0 48 19t16 48q-3 101 -29 185.5t-78 153 t-140 107.5t-205 39q-148 0 -259 -72t-166 -187t-55 -254q0 -158 65.5 -276.5t176.5 -179.5t251 -62z" />
<glyph unicode="f" horiz-adv-x="704" d="M326 0q37 0 64 23.5t27 65.5v777h169q64 0 64 58q0 26 -15.5 43t-48.5 17h-169v78q0 81 6.5 128.5t25 73t42.5 33t67 7.5h85q30 0 46.5 20t16.5 48t-16.5 48.5t-45.5 20.5h-122q-134 0 -210 -75.5t-76 -254.5v-127h-131q-33 0 -49 -17t-16 -43q0 -25 16 -41.5t49 -16.5 h131v-777q0 -42 26.5 -65.5t63.5 -23.5z" />
<glyph unicode="g" horiz-adv-x="1178" d="M569 120q-132 0 -218 96t-86 282q0 111 31 197t101 140.5t172 54.5q64 0 115 -21.5t83.5 -58t54 -87t30.5 -105t9 -116.5q0 -181 -82 -281.5t-210 -100.5zM561 -423q221 0 348.5 108t127.5 321v903q0 40 -25 62.5t-60 22.5q-32 0 -56.5 -19.5t-27.5 -53.5v-101 q-99 193 -332 193q-141 0 -245 -71t-155.5 -187.5t-51.5 -262.5q0 -103 30.5 -192t87 -156t144 -105.5t195.5 -38.5q115 0 197.5 53.5t123.5 144.5v-198q0 -144 -79 -220.5t-234 -76.5q-24 0 -47.5 2t-42 4.5t-41 7.5l-36 8t-35 10t-29.5 10t-28.5 11t-24.5 9q-11 4 -23 4 q-25 0 -42.5 -18.5t-17.5 -43.5q0 -37 38 -58q135 -72 341 -72z" />
<glyph unicode="h" horiz-adv-x="1158" d="M241 0q37 0 64.5 23t27.5 63v485q0 147 84 227.5t207 80.5q101 0 158.5 -59t57.5 -178v-556q0 -40 26.5 -63t62.5 -23q37 0 64 23t27 63v546q0 99 -28.5 174t-79 119.5t-113 66t-136.5 21.5q-110 0 -200 -46.5t-130 -128.5v507q0 40 -26.5 61.5t-63.5 21.5t-64 -22 t-27 -61v-1259q0 -40 26.5 -63t62.5 -23z" />
<glyph unicode="i" horiz-adv-x="491" d="M253 1225q53 0 85 30.5t32 79.5q0 50 -32 80.5t-84 30.5q-53 0 -85.5 -31t-32.5 -80t32 -79.5t85 -30.5zM252 0q37 0 64.5 24.5t27.5 66.5v813q0 42 -26.5 66t-62.5 24q-37 0 -64.5 -24t-27.5 -66v-813q0 -44 26 -67.5t63 -23.5z" />
<glyph unicode="j" horiz-adv-x="502" d="M256 1225q53 0 85 30.5t32 79.5q0 50 -32 80.5t-84 30.5q-53 0 -85.5 -30.5t-32.5 -80.5q0 -49 32 -79.5t85 -30.5zM20 -378q77 0 131.5 7.5t91.5 28t58 44.5t32.5 68.5t14.5 88t3 114.5v931q0 42 -26.5 66t-62.5 24q-37 0 -64.5 -24t-27.5 -66v-967q0 -43 -1.5 -69.5 t-8.5 -48t-15.5 -32t-28 -17.5t-41 -8.5t-58.5 -1.5q-29 0 -45.5 -20.5t-16.5 -48.5t17 -48.5t48 -20.5z" />
<glyph unicode="k" horiz-adv-x="999" d="M241 0q37 0 64.5 24t27.5 67v436l470 -500q25 -28 60 -28q33 0 58.5 25t25.5 57q0 29 -22 52l-397 418l363 325q24 23 24 51q0 31 -24.5 56t-56.5 25q-25 0 -47 -19l-454 -416v765q0 42 -26.5 66t-62.5 24q-37 0 -64.5 -24t-27.5 -66v-1247q0 -44 26 -67.5t63 -23.5z" />
<glyph unicode="l" horiz-adv-x="498" d="M254 0q37 0 64.5 24.5t27.5 66.5v1247q0 42 -26.5 66t-62.5 24q-37 0 -64.5 -24t-27.5 -66v-1247q0 -44 26 -67.5t63 -23.5z" />
<glyph unicode="m" horiz-adv-x="1846" d="M241 0q38 0 65.5 22.5t27.5 62.5v488q0 150 78 233.5t208 83.5q218 0 218 -276v-528q0 -40 26.5 -63t62.5 -23q37 0 64 23t27 63v482q0 158 81 240t206 82q105 0 162 -63.5t57 -187.5v-554q0 -40 26 -62.5t63 -22.5t64.5 22.5t27.5 62.5v547q0 98 -28.5 173t-79 119.5 t-114.5 66.5t-140 22q-132 0 -224 -58.5t-134 -174.5q-31 112 -118 172.5t-211 60.5q-109 0 -194 -49.5t-128 -141.5v93q0 37 -27.5 58t-63.5 21t-63.5 -22.5t-27.5 -61.5v-825q0 -40 26 -62.5t63 -22.5z" />
<glyph unicode="n" horiz-adv-x="1161" d="M241 0q37 0 64.5 23t27.5 63v499q7 141 86 223t194 82q108 0 167.5 -67t59.5 -195v-542q0 -41 26.5 -63.5t63.5 -22.5t63.5 22.5t26.5 63.5v540q0 195 -98 291t-263 96q-115 0 -201.5 -49t-124.5 -140v87q0 39 -26.5 60.5t-63.5 21.5t-64 -22.5t-27 -62.5v-822 q0 -41 26 -63.5t63 -22.5z" />
<glyph unicode="o" horiz-adv-x="1158" d="M585 -18q231 0 366 145t135 370q0 227 -135.5 371.5t-365.5 144.5t-365.5 -145t-135.5 -371q0 -225 135.5 -370t365.5 -145zM583 106q-150 0 -234.5 105.5t-84.5 285.5q0 182 85 287.5t236 105.5q150 0 235.5 -106t85.5 -287q0 -182 -84.5 -286.5t-238.5 -104.5z" />
<glyph unicode="p" horiz-adv-x="1190" d="M635 106q-79 0 -138.5 33t-94 89t-51.5 122.5t-17 142.5q0 397 310 397q63 -1 112.5 -26t80.5 -64t51.5 -92t28.5 -105t8 -107q0 -72 -15.5 -138t-47.5 -124.5t-90.5 -93t-136.5 -34.5zM242 -380q37 0 64 22.5t27 61.5v465q45 -90 130.5 -138.5t196.5 -48.5 q104 0 189.5 39.5t141 109t85.5 162t30 199.5q0 105 -27.5 198t-79.5 165.5t-135.5 115t-187.5 42.5q-116 0 -205.5 -48.5t-137.5 -144.5v89q0 39 -23 61.5t-68 22.5q-37 0 -63.5 -22t-26.5 -62v-1205q0 -39 27 -61.5t63 -22.5z" />
<glyph unicode="q" horiz-adv-x="1190" d="M555 106q-78 0 -136.5 34.5t-90.5 93t-47.5 124.5t-15.5 138q0 55 8 107t28.5 105t51.5 92t80.5 64t112.5 26q310 0 310 -397q0 -76 -17 -142.5t-51.5 -122.5t-94 -89t-138.5 -33zM948 -380q36 0 63 22.5t27 61.5v1205q0 40 -26.5 62t-63.5 22q-45 0 -68 -22.5t-23 -61.5 v-89q-48 96 -137.5 144.5t-205.5 48.5q-104 0 -187.5 -42.5t-135.5 -115t-79.5 -165.5t-27.5 -198q0 -107 30 -199.5t85.5 -162t141 -109t189.5 -39.5q111 0 196.5 48.5t130.5 138.5v-465q0 -39 27 -61.5t64 -22.5z" />
<glyph unicode="r" horiz-adv-x="728" d="M243 0q37 0 64.5 22t27.5 62v515q0 117 74.5 187t209.5 70q32 0 49 21.5t17 51.5q0 32 -18.5 56t-50.5 24q-106 0 -181.5 -62.5t-100.5 -155.5l1 120q0 38 -26.5 59.5t-63.5 21.5t-64 -21.5t-27 -61.5v-825q0 -40 26 -62t63 -22z" />
<glyph unicode="s" horiz-adv-x="1006" d="M145 90q60 -44 160.5 -76.5t207.5 -32.5q115 0 202 31.5t140.5 101.5t53.5 172q0 108 -64.5 177.5t-215.5 106.5l-173 43q-109 27 -142 51.5t-33 84.5q0 74 64 108.5t172 34.5q34 0 67 -4.5t65 -13t50.5 -14.5t48 -17.5t32.5 -12.5q16 -6 31 -6q26 0 41.5 16.5t15.5 39.5 q0 39 -39 59q-54 29 -139.5 52.5t-182.5 23.5q-81 0 -150 -15.5t-124.5 -47t-87.5 -85.5t-32 -125q0 -45 9 -80t29 -61t43 -44.5t61.5 -34.5t72 -26t87.5 -24l177 -44q88 -22 126 -58t38 -96q0 -84 -67.5 -127.5t-177.5 -43.5q-153 1 -290 86q-22 14 -46 14q-26 0 -43 -17.5 t-17 -41.5q0 -33 30 -54z" />
<glyph unicode="t" horiz-adv-x="740" d="M475 -14h59q36 0 58.5 2t45 9t33.5 22.5t11 40.5q0 28 -19 49t-52 21h-6l-68 -3h-11q-63 0 -92 45.5t-29 148.5v545h184q66 0 66 57q0 27 -16.5 44t-49.5 17h-184v290q0 35 -20 53.5t-50 18.5q-32 0 -58.5 -23t-28.5 -55l-24 -284h-123q-33 0 -50 -16.5t-17 -42.5 q0 -27 17.5 -43t50.5 -16h122v-576q0 -155 68 -229.5t183 -74.5z" />
<glyph unicode="u" horiz-adv-x="1161" d="M502 -18q115 0 202 49t125 140v-89q0 -39 26 -60.5t63 -21.5t64 22.5t27 62.5v823q0 41 -26 63.5t-63 22.5t-64 -23t-27 -63v-497q-7 -142 -87 -223.5t-196 -81.5q-108 0 -166 66.5t-58 194.5v541q0 41 -26.5 63.5t-63.5 22.5t-64 -22.5t-27 -63.5v-539 q0 -194 98.5 -290.5t262.5 -96.5z" />
<glyph unicode="v" horiz-adv-x="1039" d="M524 -1q57 0 89.5 30.5t63.5 104.5l312 747q6 13 6 28q0 34 -28.5 59.5t-63.5 25.5q-52 0 -74 -57l-305 -753l-306 753q-22 57 -74 57q-35 0 -63.5 -25.5t-28.5 -59.5q0 -15 6 -28l312 -747q31 -74 63.5 -104.5t90.5 -30.5z" />
<glyph unicode="w" horiz-adv-x="1700" d="M1241 0q84 0 118 100l273 782q6 16 6 32q0 35 -25.5 56.5t-58.5 21.5q-60 0 -79 -59l-248 -741l-248 702q-35 100 -121 100q-85 0 -120 -100l-248 -702l-248 741q-19 59 -79 59q-33 0 -58.5 -21.5t-25.5 -56.5q0 -16 6 -32l273 -782q34 -100 118 -100q88 0 128 110 l254 712l255 -712q39 -110 128 -110z" />
<glyph unicode="x" horiz-adv-x="1045" d="M870 0q36 0 62.5 25.5t26.5 59.5q0 25 -18 48l-307 381l287 359q17 23 17 45q0 30 -24.5 53t-56.5 23q-38 0 -63 -34l-259 -324l-258 320q-31 38 -71 38q-37 0 -63 -26t-26 -61q0 -26 18 -48l282 -349l-315 -388q-16 -19 -16 -42q0 -32 25.5 -56t59.5 -24q35 0 61 33 l283 356l284 -352q28 -37 71 -37z" />
<glyph unicode="y" horiz-adv-x="1042" d="M438 -341l578 1219q7 17 7 34q0 34 -26.5 58.5t-61.5 24.5q-52 0 -79 -55l-306 -648l-304 645q-25 53 -78 53q-35 0 -62.5 -24t-27.5 -60q0 -22 9 -40l372 -767l-179 -379q-9 -20 -9 -38q0 -34 26 -56.5t60 -22.5q54 0 81 56z" />
<glyph unicode="z" horiz-adv-x="941" d="M173 0h604q35 0 54 21t19 50q0 28 -19 49t-54 21h-482l535 705q26 35 26 69q0 35 -25.5 57t-72.5 22h-591q-34 0 -53 -21t-19 -50q0 -28 19 -48.5t53 -20.5h472l-534 -706q-24 -31 -24 -66t25 -58.5t67 -23.5z" />
<glyph unicode="{" horiz-adv-x="636" d="M430 -213h123q31 0 47.5 20t17.5 49q0 30 -17 50.5t-47 20.5h-58q-46 0 -65.5 39.5t-19.5 119.5v272q0 65 -18 118t-46 84.5t-48.5 47.5t-36.5 23q57 26 87 63q62 75 62 216v270q0 80 19.5 119.5t64.5 39.5h56q32 0 49 20t17 50q0 31 -17.5 50.5t-48.5 19.5h-121 q-81 0 -140.5 -66.5t-59.5 -164.5v-301q0 -118 -29.5 -176t-112.5 -66q-36 -1 -55 -22.5t-19 -52.5t20 -52t54 -22q84 -8 113 -65t29 -174v-300q0 -100 61 -165t139 -65z" />
<glyph unicode="|" horiz-adv-x="455" d="M227 -422q30 0 52 20t22 55v1754q0 35 -21.5 54t-51.5 19t-52 -19t-22 -54v-1754q0 -35 21.5 -55t51.5 -20z" />
<glyph unicode="}" horiz-adv-x="636" d="M81 -213h122q80 0 140.5 66.5t60.5 165.5v298q0 118 29.5 175t114.5 65q33 0 52.5 22t19.5 51q0 32 -20 53.5t-54 21.5q-85 9 -113.5 66.5t-28.5 175.5v303q0 99 -61.5 164t-139.5 65h-122q-31 0 -48 -20.5t-17 -49.5q0 -30 18 -50t49 -20h56q84 0 84 -157v-276 q0 -53 12.5 -97.5t33.5 -74.5t39 -49t39 -35t24 -19q-17 -8 -37 -24t-47.5 -47.5t-45.5 -84.5t-18 -117v-276q0 -155 -83 -155h-59q-31 0 -48 -20.5t-17 -49.5q0 -30 17.5 -50t47.5 -20z" />
<glyph unicode="~" horiz-adv-x="1333" d="M770 1174q128 0 171 127q2 5 2 15q0 21 -15.5 36t-35.5 15q-28 0 -47 -30q-23 -38 -65 -38q-29 0 -115 35.5t-138 35.5q-122 0 -171 -122q-5 -13 -5 -22q0 -20 15.5 -33t36.5 -13q30 0 45 25q27 43 76 43q33 0 117.5 -37t128.5 -37z" />
<glyph unicode="&#xa1;" horiz-adv-x="791" d="M382 651q2 27 17 42.5t35 15.5t35 -15t17 -43l55 -934v-8q0 -44 -31.5 -68t-74.5 -24t-74.5 24t-31.5 68v8zM437 1114q52 0 84 -32t32 -76q0 -43 -32.5 -74.5t-83.5 -31.5q-52 0 -84 32t-32 74q0 44 32 76t84 32z" />
<glyph unicode="&#xa2;" horiz-adv-x="1035" d="M501 956l108 1v256q0 26 -15.5 40.5t-37.5 14.5t-38.5 -14.5t-16.5 -40.5v-257zM556 -268q22 0 37.5 14.5t15.5 40.5v256l-108 1v-257q0 -26 16.5 -40.5t38.5 -14.5zM557 -19q196 0 304 87q34 28 34 61q0 23 -16 38.5t-39 15.5q-21 0 -40 -13q-92 -64 -229 -64 q-78 0 -138 32.5t-96 88t-54 123.5t-18 144q0 182 89 289.5t232 107.5q110 0 201 -59q20 -13 42 -13q24 0 40.5 15t16.5 37q0 31 -34 58q-43 36 -116 60t-159 24q-147 0 -260 -69t-173 -186t-60 -261q0 -223 128 -369.5t345 -146.5z" />
<glyph unicode="&#xa3;" horiz-adv-x="1366" d="M228 -1h854q20 0 31 23t11 54t-11 53.5t-31 22.5h-572v596h361q19 0 29.5 19.5t10.5 46.5t-10.5 47.5t-28.5 20.5h-362v117q0 73 4.5 118t17.5 84t38.5 58.5t66.5 30.5t103 11q25 0 48.5 -1.5t51.5 -5.5t43 -6t49.5 -8t43.5 -8h4q21 0 34.5 30.5t13.5 62.5t-13 36 q-151 44 -297 44q-186 0 -290 -87.5t-104 -275.5v-200h-131q-18 0 -27.5 -18.5t-9.5 -45.5q0 -28 10 -49t27 -21h131v-597h-99q-18 0 -28.5 -22t-10.5 -52q0 -32 11 -55t31 -23z" />
<glyph unicode="&#xa4;" horiz-adv-x="1175" d="M592 290q-142 0 -222 93t-80 220q0 126 80 220t222 94q96 0 167 -47t103.5 -116.5t32.5 -150.5q0 -127 -80 -220t-223 -93zM206 159q21 0 38 16l86 87q109 -77 262 -77q157 0 263 78l88 -88q16 -16 35 -16q22 0 38.5 16t16.5 38t-15 38l-87 84q91 115 91 268 q0 150 -88 263l84 83q15 15 15 37t-16 38t-37 16t-38 -16l-83 -84q-109 82 -267 82q-154 0 -266 -82l-82 84q-17 16 -38 16t-37 -16t-16 -37q0 -22 16 -38l82 -83q-88 -112 -88 -263q0 -155 91 -268l-85 -84q-16 -17 -16 -38q0 -22 16 -38t37 -16z" />
<glyph unicode="&#xa5;" horiz-adv-x="1200" d="M200 543h864q29 0 45 18t16 44q0 25 -16 44t-45 19h-864q-29 0 -45 -18.5t-16 -42.5q0 -26 16 -45t45 -19zM200 298h864q29 0 45 18t16 44q0 25 -16 44t-45 19h-864q-29 0 -45 -18.5t-16 -42.5q0 -26 16 -45t45 -19zM541 98q0 -46 30 -71.5t72 -25.5q41 0 71 25.5 t30 70.5v506l454 700q15 23 15 48q0 32 -25.5 55t-59.5 23q-48 0 -78 -47l-396 -627l-394 624q-30 48 -82 48q-40 0 -71.5 -27t-31.5 -64q0 -25 14 -46l452 -694v-498z" />
<glyph unicode="&#xa6;" horiz-adv-x="455" d="M221 808q35 0 53.5 24t18.5 61v549q0 39 -19 62t-53 23q-32 0 -52.5 -19.5t-20.5 -53.5v-561q0 -40 19.5 -62.5t53.5 -22.5zM219 -104q36 0 54.5 24t18.5 62v539q0 40 -19 63t-53 23q-31 0 -52 -20t-21 -52v-553q0 -40 19 -63t53 -23z" />
<glyph unicode="&#xa7;" horiz-adv-x="1186" d="M599 586q-6 2 -30.5 12.5t-34.5 15t-33 15.5t-34 18.5t-27.5 20.5t-24.5 24.5t-14 27t-6 32.5q0 20 3.5 37t15 32.5t18.5 25.5t27.5 25t28 20t34.5 21.5t33 20.5q19 -9 56 -23.5t62 -26t52.5 -28t41.5 -39t14 -50.5q0 -20 -5 -37t-17.5 -32.5t-22.5 -26.5t-32 -25 t-32.5 -20.5t-37.5 -21t-35 -18.5zM667 1374q36 0 105 -16.5t83 -16.5q27 0 47.5 21t20.5 49q0 47 -48 61q-143 39 -240 39q-81 0 -148.5 -16t-121.5 -48.5t-84.5 -88.5t-30.5 -130q0 -36 11 -67.5t24 -52.5t43 -46.5t49.5 -38.5t61.5 -40q-91 -35 -156 -102.5t-65 -149.5 q0 -64 29.5 -113t76.5 -78t104 -52t114.5 -41.5t104.5 -38.5t76.5 -51t29.5 -72q0 -91 -71.5 -135.5t-169.5 -44.5q-128 0 -218 33q-17 5 -27 5q-29 0 -46 -20.5t-17 -48.5q0 -45 48 -61q134 -45 295 -45q112 0 202 33t147 105.5t57 174.5q0 95 -57 154.5t-158 99.5 q93 39 155.5 106t62.5 152q0 56 -28 100t-72.5 73t-98 53t-107.5 45t-98.5 43t-72.5 54t-28 72t20 69t53.5 44t68.5 21.5t74 6.5z" />
<glyph unicode="&#xa8;" horiz-adv-x="569" d="M480 1203q49 0 79 30t30 72q0 41 -30 70.5t-79 29.5q-50 0 -80.5 -30t-30.5 -70q0 -42 30.5 -72t80.5 -30zM90 1203q50 0 80 30t30 72q0 40 -30 70t-80 30q-49 0 -79 -30t-30 -70q0 -42 30 -72t79 -30z" />
<glyph unicode="&#xa9;" horiz-adv-x="1666" d="M842 119q188 0 348 89.5t253 243.5t93 335q0 136 -55 259.5t-148 213t-221.5 142.5t-269.5 53q-142 0 -271.5 -53t-223 -142.5t-149 -213t-55.5 -259.5q0 -181 93.5 -335t254.5 -243.5t351 -89.5zM842 235q-163 0 -294.5 71t-205.5 197t-74 284q0 238 163 394.5 t411 156.5q162 0 292.5 -71t203.5 -197t73 -283q0 -240 -161 -396t-408 -156zM852 395q45 0 102.5 11.5t106.5 38t49 60.5q0 19 -12.5 33t-29.5 14q-10 0 -20 -5q-93 -49 -176 -49q-117 0 -198.5 78.5t-81.5 217.5q0 142 76 213.5t194 71.5q99 0 193 -48q13 -5 19 -5 q20 0 33 16t13 37q0 32 -53.5 57t-113.5 36t-103 11q-105 0 -191 -42.5t-140.5 -133t-54.5 -215.5t56 -217t142.5 -136t189.5 -44z" />
<glyph unicode="&#xaa;" horiz-adv-x="1053" d="M432 802q-71 2 -115.5 37.5t-44.5 103.5q0 43 21.5 73t53.5 46.5t86.5 25.5t101 11t115.5 2v-68q-5 -111 -65 -170t-153 -61zM399 706q82 0 152 39t101 107v-68q0 -27 18.5 -42t43.5 -15q26 0 45 15.5t19 43.5l1 460q0 135 -77.5 200t-216.5 65q-194 0 -286 -100 q-14 -16 -14 -31q0 -19 13 -32.5t33 -13.5q17 0 26 7q38 22 63 33.5t68 21t92 9.5q170 0 170 -149v-63q-41 3 -85 3q-427 0 -427 -257q0 -108 74 -170.5t187 -62.5z" />
<glyph unicode="&#xab;" horiz-adv-x="1169" d="M876 100q27 0 46 17.5t19 44.5q0 11 -6 27l-165 353l164 349q7 18 7 31q0 26 -19 43.5t-46 17.5q-46 0 -75 -51l-219 -390l216 -387q30 -55 76 -55h2zM474 100q27 0 45.5 17t18.5 44q0 12 -6 28l-165 353l164 349q7 15 7 31q0 26 -18.5 43.5t-45.5 17.5q-46 0 -76 -51 l-218 -390l216 -387q31 -55 78 -55z" />
<glyph unicode="&#xac;" horiz-adv-x="1333" d="M1106 230q30 0 52 19t22 53v418q0 28 -23.5 51.5t-52.5 23.5h-882q-32 0 -49.5 -22t-17.5 -52t17.5 -51.5t49.5 -21.5h810v-346q0 -34 21.5 -53t52.5 -19z" />
<glyph unicode="&#xad;" horiz-adv-x="710" d="M119 461h469q38 0 60 18t22 48q0 32 -22 50.5t-60 18.5h-466q-38 0 -60.5 -18.5t-22.5 -50.5q0 -30 21.5 -48t58.5 -18z" />
<glyph unicode="&#xae;" horiz-adv-x="1668" d="M839 87q191 0 353.5 91t257.5 246t95 337q0 183 -95 339t-257.5 247t-353.5 91q-144 0 -275 -54t-226 -144.5t-151.5 -216t-56.5 -262.5q0 -136 56.5 -260.5t151.5 -215t226 -144.5t275 -54zM839 202q-251 0 -415 158.5t-164 400.5q0 241 164 399t415 158q164 0 296 -72 t206 -199.5t74 -285.5q0 -242 -163 -400.5t-413 -158.5zM700 826v214h192q80 0 125 -21t45 -80q0 -31 -10 -53t-24 -33.5t-39 -17.5t-45 -7.5t-53 -1.5h-191zM639 388q25 0 43 15t18 41v284h143l201 -315q16 -26 44 -26q23 0 41.5 17.5t18.5 39.5q0 14 -8 26l-180 259 q109 12 168.5 57.5t59.5 147.5q0 107 -64 157t-215 50h-252q-38 0 -57 -23t-19 -56v-618q0 -27 17 -41.5t41 -14.5z" />
<glyph unicode="&#xaf;" horiz-adv-x="569" d="M35 1264h504q33 0 50 18t17 47q0 27 -17 45.5t-50 18.5h-504q-33 0 -51 -18.5t-18 -45.5q0 -29 17.5 -47t51.5 -18z" />
<glyph unicode="&#xb0;" horiz-adv-x="819" d="M410 821q125 0 215 86t90 208t-90 208.5t-215 86.5q-127 0 -216 -86.5t-89 -208.5t89 -208t216 -86zM410 924q-86 0 -142.5 54t-56.5 137q0 82 55.5 137.5t141.5 55.5q85 0 143 -55.5t58 -137.5q0 -83 -57 -137t-142 -54z" />
<glyph unicode="&#xb1;" horiz-adv-x="1333" d="M228 0h877q34 0 54 21.5t20 49.5q0 31 -19 51.5t-55 20.5h-877q-35 0 -54 -21t-19 -51q0 -29 19 -50t54 -21zM665 219q30 0 52.5 18.5t22.5 51.5v244h365q34 0 53.5 21.5t19.5 49.5q0 30 -19 51t-54 21h-365v246q0 33 -21.5 52t-52.5 19q-30 0 -52 -19t-22 -52v-246h-364 q-35 0 -53.5 -21t-18.5 -50q0 -30 19 -51t53 -21h364v-244q0 -33 21 -51.5t52 -18.5z" />
<glyph unicode="&#xb2;" horiz-adv-x="748" d="M163 575h434q21 0 33 13.5t12 31.5q0 19 -12 33t-33 14h-373q74 63 132.5 118t128.5 132t109.5 152t39.5 139q0 96 -73.5 150t-182.5 54q-76 0 -160 -36t-84 -76q0 -17 12 -28.5t31 -11.5q15 0 32 9q83 48 159 48q60 0 103.5 -31.5t43.5 -86.5q0 -43 -34.5 -104.5 t-92.5 -127.5t-107.5 -116t-104.5 -100q-7 -7 -20.5 -20t-19.5 -19.5t-15.5 -16.5t-14.5 -16.5t-10 -15.5t-7 -16.5t-2 -15.5q0 -25 19 -40.5t57 -15.5z" />
<glyph unicode="&#xb3;" horiz-adv-x="797" d="M397 542q119 0 198.5 59.5t79.5 169.5q0 83 -46.5 140.5t-125.5 75.5q156 45 156 190q0 111 -77.5 170.5t-190.5 59.5q-77 0 -156 -24t-79 -62q0 -18 13 -32t33 -14q1 0 70 20t121 20q68 0 114 -37.5t46 -101.5q0 -71 -52 -108.5t-129 -39.5l-39 -1q-21 -1 -31.5 -13.5 t-10.5 -31.5q0 -18 11.5 -31t31.5 -13h46q78 0 132 -45t54 -120q0 -68 -44.5 -103.5t-122.5 -35.5q-84 0 -177 41q-5 2 -14 2q-18 0 -30.5 -14t-12.5 -31q0 -26 42.5 -47.5t95 -32t94.5 -10.5z" />
<glyph unicode="&#xb4;" horiz-adv-x="569" d="M95 1202q18 0 43 18l318 248q26 19 26 50q0 35 -30.5 64t-66.5 29q-32 0 -59 -32l-259 -299q-13 -17 -13 -35q0 -19 11.5 -31t29.5 -12z" />
<glyph unicode="&#xb5;" horiz-adv-x="1168" d="M238 -261q38 0 65.5 24t27.5 66v213q74 -53 187 -53q102 0 191 47.5t129 132.5v-85q0 -40 26.5 -62t62.5 -22q37 0 64 22.5t27 62.5v823q0 41 -26 63t-63 22t-64 -22.5t-27 -62.5v-524q-9 -136 -89 -209t-198 -73q-93 0 -156.5 63.5t-63.5 182.5v559q0 41 -27 63.5 t-64 22.5t-63.5 -22.5t-26.5 -63.5v-1078q0 -44 25.5 -67t62.5 -23z" />
<glyph unicode="&#xb6;" horiz-adv-x="1322" d="M601 -253q32 0 55 20t23 55v1476h224v-1476q0 -35 23 -55t55 -20t55 20t23 55v1486q0 27 -3.5 45t-14 37.5t-35.5 29t-64 9.5h-367q-213 0 -332 -100.5t-119 -277.5q0 -151 117 -260t282 -109v-860q0 -35 23 -55t55 -20z" />
<glyph unicode="&#xb7;" horiz-adv-x="593" d="M282 411q53 0 84.5 32t31.5 77q0 44 -32 75.5t-84 31.5q-53 0 -85.5 -32t-32.5 -75q0 -45 32.5 -77t85.5 -32z" />
<glyph unicode="&#xb8;" horiz-adv-x="569" d="M295 -400q80 0 139 39.5t59 111.5q0 144 -183 146q-8 0 -32 -2l36 113h-66l-47 -132q-3 -10 -3 -19q0 -31 38 -31q2 0 8 0.5t8 0.5q45 0 76.5 -17.5t31.5 -54.5q0 -41 -21.5 -61.5t-73.5 -20.5q-62 0 -161 35q-8 2 -12 2q-13 0 -21 -10.5t-8 -24.5q0 -32 72 -53.5 t160 -21.5z" />
<glyph unicode="&#xb9;" horiz-adv-x="691" d="M426 575q21 0 37.5 13.5t16.5 38.5v705q0 28 -14.5 42.5t-35.5 14.5q-16 0 -31 -9l-200 -126q-20 -11 -20 -34q0 -16 12.5 -29.5t30.5 -13.5q10 0 23 8l127 81v-639q0 -25 16 -38.5t38 -13.5z" />
<glyph unicode="&#xba;" horiz-adv-x="1106" d="M536 717q97 0 173.5 33t122.5 89.5t70 126t24 147.5t-24 148t-70 126.5t-122.5 90t-173.5 33.5t-173 -33.5t-122 -90t-69.5 -126.5t-23.5 -148t23.5 -147.5t69.5 -126t122 -89.5t173 -33zM536 818q-61 0 -109 26.5t-75.5 70.5t-41.5 94.5t-14 103.5q0 54 14 104.5 t41.5 94t75.5 70t109 26.5q62 0 110 -26.5t75.5 -69.5t41.5 -93.5t14 -104.5t-14 -104.5t-41.5 -94.5t-75.5 -70.5t-110 -26.5z" />
<glyph unicode="&#xbb;" horiz-adv-x="1169" d="M692 100q47 0 77 55l216 387l-216 385q-32 56 -78 56q-27 0 -46 -17.5t-19 -43.5q0 -13 8 -31l164 -349l-164 -351q-8 -18 -8 -31q0 -26 19 -43t47 -17zM289 100q47 0 77 55l216 387l-216 385q-32 56 -78 56q-27 0 -46 -17.5t-19 -43.5q0 -14 8 -30l164 -350l-164 -351 q-8 -18 -8 -31q0 -26 19.5 -43t46.5 -17z" />
<glyph unicode="&#xbc;" horiz-adv-x="1568" d="M949 265l303 472v-472h-303zM521 -85q43 0 58 43l475 1398q5 15 5 24q0 26 -19 42t-44 16q-44 0 -59 -44l-473 -1397q-4 -11 -4 -24q0 -26 18.5 -42t42.5 -16zM396 575q22 0 38.5 13.5t16.5 38.5v705q0 28 -15 42.5t-36 14.5q-16 0 -30 -9l-201 -126q-20 -11 -20 -34 q0 -16 12.5 -29.5t30.5 -13.5q10 0 23 8l127 81v-639q0 -25 16 -38.5t38 -13.5zM1304 1q21 0 37 14t16 39v134h87q20 0 31 11.5t11 27.5t-11 27.5t-31 11.5h-87v490q0 41 -21 62t-55 21q-61 0 -94 -58l-326 -499q-12 -20 -12 -39q0 -23 16.5 -39t44.5 -16h342v-134 q0 -25 15.5 -39t36.5 -14z" />
<glyph unicode="&#xbd;" horiz-adv-x="1587" d="M518 -85q43 0 58 43l475 1398q4 12 4 24q0 26 -18.5 42t-43.5 16q-46 0 -59 -44l-473 -1397q-4 -11 -4 -24q0 -26 18.5 -42t42.5 -16zM396 575q22 0 38.5 13.5t16.5 38.5v705q0 28 -15 42.5t-36 14.5q-16 0 -30 -9l-201 -126q-20 -11 -20 -34q0 -16 12.5 -29.5 t30.5 -13.5q10 0 23 8l127 81v-639q0 -25 16 -38.5t38 -13.5zM993 0h434q22 0 34 13.5t12 32.5t-12.5 33t-33.5 14h-371q60 52 103 91t105.5 103.5t102 117.5t68.5 115t29 114q0 96 -73 149.5t-182 53.5q-75 0 -159.5 -36.5t-84.5 -75.5q0 -16 12 -27.5t30 -11.5q19 0 32 9 q87 48 160 48q60 0 103.5 -31t43.5 -87q0 -44 -33.5 -103.5t-96 -129.5t-104.5 -112.5t-105 -102.5l-20 -20t-19 -19.5t-16 -17t-14.5 -17t-9.5 -15.5t-7 -16.5t-2 -15.5q0 -25 18.5 -40.5t55.5 -15.5z" />
<glyph unicode="&#xbe;" horiz-adv-x="1636" d="M973 265l303 472v-472h-303zM560 -85q43 0 58 43l475 1398q4 11 4 24q0 26 -18.5 42t-43.5 16q-45 0 -60 -44l-472 -1397q-4 -11 -4 -24q0 -26 18.5 -42t42.5 -16zM1329 1q21 0 36.5 14t15.5 39v134h88q20 0 31 11.5t11 27.5t-11 27.5t-31 11.5h-88v490q0 41 -21 62 t-55 21q-60 0 -93 -58l-326 -499q-12 -18 -12 -39q0 -23 16.5 -39t44.5 -16h341v-134q0 -25 15.5 -39t37.5 -14zM302 549q119 0 198.5 59t79.5 170q0 83 -48 140t-127 75q6 4 28.5 18.5t32 21t28.5 21.5t28.5 27t21 28.5t16 35.5t4.5 40q0 74 -39 127t-99 77.5t-133 24.5 q-77 0 -154.5 -24.5t-77.5 -62.5q0 -19 12.5 -32t33.5 -13q1 0 70.5 19t119.5 19q68 0 114.5 -37t46.5 -100q0 -71 -52 -108.5t-129 -39.5l-38 -1q-21 -1 -32 -14t-11 -31t11 -30.5t32 -12.5h45q78 0 132.5 -45.5t54.5 -120.5q0 -67 -44.5 -102.5t-122.5 -35.5 q-77 0 -176 38q-10 2 -15 2q-19 0 -31 -13t-12 -30q0 -38 80.5 -64t151.5 -26z" />
<glyph unicode="&#xbf;" horiz-adv-x="1036" d="M604 1132q-52 0 -84 -32t-32 -77q0 -43 32 -74t84 -31q53 0 84.5 31t31.5 74q0 45 -31.5 77t-84.5 32zM696 667q-1 37 -27.5 58t-62.5 21q-35 0 -60 -20t-25 -55l1 -100q0 -32 -21.5 -64t-56 -61.5t-76.5 -61t-84 -68.5t-77 -78t-56.5 -95.5t-21.5 -115.5 q0 -94 32.5 -164.5t90 -112t130 -61.5t159.5 -20q134 0 288 41q34 8 50.5 30.5t16.5 49.5q0 34 -19.5 58t-51.5 24q-20 0 -116 -17.5t-123 -17.5q-53 0 -94 8.5t-79 29.5t-58.5 63t-20.5 103q0 48 19.5 92t51 77.5t70 65.5t76.5 62t70 61t52.5 68.5t21.5 78.5z" />
<glyph unicode="&#xc0;" horiz-adv-x="1424" d="M726 1592q18 0 29.5 12t11.5 30t-14 35l-258 298q-29 33 -60 33q-36 0 -66.5 -29.5t-30.5 -64.5q0 -28 24 -47l318 -248q24 -19 46 -19zM1176 60q25 -66 92 -66q39 0 70 25t31 63q0 16 -8 37l-475 1179q-34 85 -73.5 112.5t-98.5 27.5t-98.5 -27.5t-73.5 -112.5 l-475 -1179q-8 -21 -8 -37q0 -38 30.5 -63t69.5 -25q68 0 93 66l118 304h688zM1001 509h-574l287 739z" />
<glyph unicode="&#xc1;" horiz-adv-x="1424" d="M690 1600q18 0 43 18l318 248q26 19 26 50q0 35 -30.5 64t-66.5 29q-32 0 -59 -32l-259 -299q-13 -17 -13 -35q0 -19 11.5 -31t29.5 -12zM1176 60q25 -66 92 -66q39 0 70 25t31 63q0 16 -8 37l-475 1179q-34 85 -73.5 112.5t-98.5 27.5t-98.5 -27.5t-73.5 -112.5 l-475 -1179q-8 -21 -8 -37q0 -38 30.5 -63t69.5 -25q68 0 93 66l118 304h688zM1001 509h-574l287 739z" />
<glyph unicode="&#xc2;" horiz-adv-x="1424" d="M464 1553q39 0 69 38l171 229l170 -229q30 -37 67 -37q25 0 42 16t17 40q0 22 -18 48l-189 264q-40 52 -90 52q-52 0 -90 -52l-189 -264q-18 -24 -18 -49q0 -24 16.5 -40t41.5 -16zM1176 60q25 -66 92 -66q39 0 70 25t31 63q0 16 -8 37l-475 1179q-34 85 -73.5 112.5 t-98.5 27.5t-98.5 -27.5t-73.5 -112.5l-475 -1179q-8 -21 -8 -37q0 -38 30.5 -63t69.5 -25q68 0 93 66l118 304h688zM1001 509h-574l287 739z" />
<glyph unicode="&#xc3;" horiz-adv-x="1424" d="M955 1784q-24 0 -61 -38t-62 -38q-29 0 -114.5 36t-137.5 36q-133 0 -177 -141q-4 -8 -4 -17q0 -19 12.5 -29.5t31.5 -10.5q34 0 57 32q34 43 76 43q33 0 116.5 -37t127.5 -37q66 0 120.5 43t54.5 106q0 15 -9 20q-2 32 -31 32zM1176 60q25 -66 92 -66q39 0 70 25t31 63 q0 16 -8 37l-475 1179q-34 85 -73.5 112.5t-98.5 27.5t-98.5 -27.5t-73.5 -112.5l-475 -1179q-8 -21 -8 -37q0 -38 30.5 -63t69.5 -25q68 0 93 66l118 304h688zM1001 509h-574l287 739z" />
<glyph unicode="&#xc4;" horiz-adv-x="1424" d="M904 1601q49 0 79 30t30 72q0 41 -30 70.5t-79 29.5q-50 0 -80.5 -30t-30.5 -70q0 -42 30.5 -72t80.5 -30zM514 1601q50 0 80 30t30 72q0 40 -30 70t-80 30q-49 0 -79 -30t-30 -70q0 -42 30 -72t79 -30zM1176 60q25 -66 92 -66q39 0 70 25t31 63q0 16 -8 37l-475 1179 q-34 85 -73.5 112.5t-98.5 27.5t-98.5 -27.5t-73.5 -112.5l-475 -1179q-8 -21 -8 -37q0 -38 30.5 -63t69.5 -25q68 0 93 66l118 304h688zM1001 509h-574l287 739z" />
<glyph unicode="&#xc5;" horiz-adv-x="1424" d="M711 1582q88 0 141 52t53 137t-53 136t-141 51t-141.5 -51t-53.5 -136q0 -86 53.5 -137.5t141.5 -51.5zM711 1666q-50 0 -79.5 28.5t-29.5 76.5q0 47 30 76t79 29t79 -29t30 -76q0 -48 -29.5 -76.5t-79.5 -28.5zM1176 60q25 -66 92 -66q39 0 70 25t31 63q0 16 -8 37 l-475 1179q-34 85 -73.5 112.5t-98.5 27.5t-98.5 -27.5t-73.5 -112.5l-475 -1179q-8 -21 -8 -37q0 -38 30.5 -63t69.5 -25q68 0 93 66l118 304h688zM1001 509h-574l287 739z" />
<glyph unicode="&#xc6;" horiz-adv-x="1967" d="M509 512l454 776h3l118 -776h-575zM1255 0h595q36 1 54.5 21.5t18.5 49.5q0 34 -24.5 61.5t-64.5 27.5h-498l-81 495h545q35 0 54 20.5t19 50.5q0 35 -24 61.5t-65 26.5h-552l-72 456h673q35 0 53.5 20.5t18.5 49.5q0 35 -24.5 62t-64.5 27h-821q-64 0 -112 -32.5 t-102 -131.5l-713 -1143q-15 -30 -15 -47q0 -34 24 -55t60 -21q65 0 97 63l194 305h674l52 -305q9 -62 101 -62z" />
<glyph unicode="&#xc7;" horiz-adv-x="1361" d="M785 -392q80 0 139 39.5t59 111.5q0 144 -183 146q-8 0 -32 -2l36 113h-66l-47 -132q-3 -10 -3 -19q0 -31 38 -31q2 0 8 0.5t8 0.5q45 0 76.5 -17.5t31.5 -54.5q0 -41 -21.5 -61.5t-73.5 -20.5q-62 0 -161 35q-8 2 -12 2q-13 0 -21 -10.5t-8 -24.5q0 -32 72 -53.5 t160 -21.5zM784 -22q227 0 394 109q50 32 50 78q0 31 -22 54t-53 23q-18 0 -38 -11q-78 -44 -145 -67.5t-156 -23.5q-99 0 -179.5 30t-135 82t-91.5 124.5t-54 156.5t-17 179t17 179.5t54 157.5t91 126t133 83t176 30q40 0 77.5 -4t62.5 -9.5t52 -15t40 -15t33.5 -16 t24.5 -12.5q18 -8 33 -8q31 0 53 24t22 56q0 45 -44 69q-167 93 -361 93q-157 0 -286 -58t-214 -158.5t-131.5 -235.5t-46.5 -289q0 -207 76 -371t228 -262t357 -98z" />
<glyph unicode="&#xc8;" horiz-adv-x="1236" d="M663 1592q18 0 29.5 12t11.5 30t-14 35l-258 298q-29 33 -60 33q-36 0 -66.5 -29.5t-30.5 -64.5q0 -28 24 -47l318 -248q24 -19 46 -19zM277 0h762q38 0 59 23.5t21 56.5t-21 57t-59 24h-660v495h600q38 0 59.5 23.5t21.5 55.5t-21 55t-60 23h-600v455h634q38 0 59 24 t21 57t-21 56.5t-59 23.5h-741q-40 0 -67.5 -29.5t-27.5 -68.5v-1233q0 -39 30.5 -68.5t69.5 -29.5z" />
<glyph unicode="&#xc9;" horiz-adv-x="1236" d="M627 1600q18 0 43 18l318 248q26 19 26 50q0 35 -30.5 64t-66.5 29q-32 0 -59 -32l-259 -299q-13 -17 -13 -35q0 -19 11.5 -31t29.5 -12zM277 0h762q38 0 59 23.5t21 56.5t-21 57t-59 24h-660v495h600q38 0 59.5 23.5t21.5 55.5t-21 55t-60 23h-600v455h634q38 0 59 24 t21 57t-21 56.5t-59 23.5h-741q-40 0 -67.5 -29.5t-27.5 -68.5v-1233q0 -39 30.5 -68.5t69.5 -29.5z" />
<glyph unicode="&#xca;" horiz-adv-x="1236" d="M401 1553q39 0 69 38l171 229l170 -229q30 -37 67 -37q25 0 42 16t17 40q0 22 -18 48l-189 264q-40 52 -90 52q-52 0 -90 -52l-189 -264q-18 -24 -18 -49q0 -24 16.5 -40t41.5 -16zM277 0h762q38 0 59 23.5t21 56.5t-21 57t-59 24h-660v495h600q38 0 59.5 23.5t21.5 55.5 t-21 55t-60 23h-600v455h634q38 0 59 24t21 57t-21 56.5t-59 23.5h-741q-40 0 -67.5 -29.5t-27.5 -68.5v-1233q0 -39 30.5 -68.5t69.5 -29.5z" />
<glyph unicode="&#xcb;" horiz-adv-x="1236" d="M841 1601q49 0 79 30t30 72q0 41 -30 70.5t-79 29.5q-50 0 -80.5 -30t-30.5 -70q0 -42 30.5 -72t80.5 -30zM451 1601q50 0 80 30t30 72q0 40 -30 70t-80 30q-49 0 -79 -30t-30 -70q0 -42 30 -72t79 -30zM277 0h762q38 0 59 23.5t21 56.5t-21 57t-59 24h-660v495h600 q38 0 59.5 23.5t21.5 55.5t-21 55t-60 23h-600v455h634q38 0 59 24t21 57t-21 56.5t-59 23.5h-741q-40 0 -67.5 -29.5t-27.5 -68.5v-1233q0 -39 30.5 -68.5t69.5 -29.5z" />
<glyph unicode="&#xcc;" horiz-adv-x="606" d="M325 1592q18 0 29.5 12t11.5 30t-14 35l-258 298q-29 33 -60 33q-36 0 -66.5 -29.5t-30.5 -64.5q0 -28 24 -47l318 -248q24 -19 46 -19zM302 1q42 0 72 25t30 71v1236q0 46 -29.5 71.5t-70.5 25.5t-71.5 -26t-30.5 -71v-1236q0 -45 29.5 -70.5t70.5 -25.5z" />
<glyph unicode="&#xcd;" horiz-adv-x="606" d="M289 1600q18 0 43 18l318 248q26 19 26 50q0 35 -30.5 64t-66.5 29q-32 0 -59 -32l-259 -299q-13 -17 -13 -35q0 -19 11.5 -31t29.5 -12zM302 1q42 0 72 25t30 71v1236q0 46 -29.5 71.5t-70.5 25.5t-71.5 -26t-30.5 -71v-1236q0 -45 29.5 -70.5t70.5 -25.5z" />
<glyph unicode="&#xce;" horiz-adv-x="606" d="M63 1553q39 0 69 38l171 229l170 -229q30 -37 67 -37q25 0 42 16t17 40q0 22 -18 48l-189 264q-40 52 -90 52q-52 0 -90 -52l-189 -264q-18 -24 -18 -49q0 -24 16.5 -40t41.5 -16zM302 1q42 0 72 25t30 71v1236q0 46 -29.5 71.5t-70.5 25.5t-71.5 -26t-30.5 -71v-1236 q0 -45 29.5 -70.5t70.5 -25.5z" />
<glyph unicode="&#xcf;" horiz-adv-x="606" d="M503 1601q49 0 79 30t30 72q0 41 -30 70.5t-79 29.5q-50 0 -80.5 -30t-30.5 -70q0 -42 30.5 -72t80.5 -30zM113 1601q50 0 80 30t30 72q0 40 -30 70t-80 30q-49 0 -79 -30t-30 -70q0 -42 30 -72t79 -30zM302 1q42 0 72 25t30 71v1236q0 46 -29.5 71.5t-70.5 25.5 t-71.5 -26t-30.5 -71v-1236q0 -45 29.5 -70.5t70.5 -25.5z" />
<glyph unicode="&#xd0;" horiz-adv-x="1505" d="M74 656h445q35 0 57.5 19t22.5 49q0 32 -22 51.5t-58 19.5h-445q-36 0 -58 -19.5t-22 -51.5q0 -30 22.5 -49t57.5 -19zM379 163v1108h225q297 0 435 -128t138 -426q0 -141 -28 -241.5t-90.5 -172t-166.5 -106t-254 -34.5h-259zM278 3h350q363 0 561 182.5t198 528.5 q0 351 -196 534.5t-572 183.5h-341q-42 0 -71.5 -28.5t-29.5 -69.5v-1233q0 -41 29.5 -69.5t71.5 -28.5z" />
<glyph unicode="&#xd1;" horiz-adv-x="1515" d="M1049 1786q-24 0 -61 -38t-62 -38q-29 0 -114.5 36t-137.5 36q-133 0 -177 -141q-4 -8 -4 -17q0 -19 12.5 -29.5t31.5 -10.5q34 0 57 32q34 43 76 43q33 0 116.5 -37t127.5 -37q66 0 120.5 43t54.5 106q0 15 -9 20q-2 32 -31 32zM268 0q38 0 66 23.5t28 65.5v1037 l731 -1060q22 -32 56 -49t68 -17q52 0 87.5 35t35.5 94v1211q0 42 -28 65.5t-65 23.5q-39 0 -66 -23.5t-27 -65.5v-1050l-728 1060q-27 39 -64.5 59t-72.5 20q-49 0 -81.5 -34.5t-32.5 -94.5v-1211q0 -42 27.5 -65.5t65.5 -23.5z" />
<glyph unicode="&#xd2;" horiz-adv-x="1602" d="M816 1594q18 0 29.5 12t11.5 30t-14 35l-258 298q-29 33 -60 33q-36 0 -66.5 -29.5t-30.5 -64.5q0 -28 24 -47l318 -248q24 -19 46 -19zM800 -22q315 0 495.5 199t180.5 537t-180.5 537t-495.5 199t-496 -199t-181 -537t181 -537t496 -199zM800 140q-219 0 -341 153.5 t-122 420.5t121.5 420.5t341.5 153.5q219 0 340.5 -153.5t121.5 -420.5t-121.5 -420.5t-340.5 -153.5z" />
<glyph unicode="&#xd3;" horiz-adv-x="1602" d="M780 1602q18 0 43 18l318 248q26 19 26 50q0 35 -30.5 64t-66.5 29q-32 0 -59 -32l-259 -299q-13 -17 -13 -35q0 -19 11.5 -31t29.5 -12zM800 -22q315 0 495.5 199t180.5 537t-180.5 537t-495.5 199t-496 -199t-181 -537t181 -537t496 -199zM800 140q-219 0 -341 153.5 t-122 420.5t121.5 420.5t341.5 153.5q219 0 340.5 -153.5t121.5 -420.5t-121.5 -420.5t-340.5 -153.5z" />
<glyph unicode="&#xd4;" horiz-adv-x="1602" d="M554 1555q39 0 69 38l171 229l170 -229q30 -37 67 -37q25 0 42 16t17 40q0 22 -18 48l-189 264q-40 52 -90 52q-52 0 -90 -52l-189 -264q-18 -24 -18 -49q0 -24 16.5 -40t41.5 -16zM800 -22q315 0 495.5 199t180.5 537t-180.5 537t-495.5 199t-496 -199t-181 -537 t181 -537t496 -199zM800 140q-219 0 -341 153.5t-122 420.5t121.5 420.5t341.5 153.5q219 0 340.5 -153.5t121.5 -420.5t-121.5 -420.5t-340.5 -153.5z" />
<glyph unicode="&#xd5;" horiz-adv-x="1602" d="M1045 1786q-24 0 -61 -38t-62 -38q-29 0 -114.5 36t-137.5 36q-133 0 -177 -141q-4 -8 -4 -17q0 -19 12.5 -29.5t31.5 -10.5q34 0 57 32q34 43 76 43q33 0 116.5 -37t127.5 -37q66 0 120.5 43t54.5 106q0 15 -9 20q-2 32 -31 32zM800 -22q315 0 495.5 199t180.5 537 t-180.5 537t-495.5 199t-496 -199t-181 -537t181 -537t496 -199zM800 140q-219 0 -341 153.5t-122 420.5t121.5 420.5t341.5 153.5q219 0 340.5 -153.5t121.5 -420.5t-121.5 -420.5t-340.5 -153.5z" />
<glyph unicode="&#xd6;" horiz-adv-x="1602" d="M994 1603q49 0 79 30t30 72q0 41 -30 70.5t-79 29.5q-50 0 -80.5 -30t-30.5 -70q0 -42 30.5 -72t80.5 -30zM604 1603q50 0 80 30t30 72q0 40 -30 70t-80 30q-49 0 -79 -30t-30 -70q0 -42 30 -72t79 -30zM800 -22q315 0 495.5 199t180.5 537t-180.5 537t-495.5 199 t-496 -199t-181 -537t181 -537t496 -199zM800 140q-219 0 -341 153.5t-122 420.5t121.5 420.5t341.5 153.5q219 0 340.5 -153.5t121.5 -420.5t-121.5 -420.5t-340.5 -153.5z" />
<glyph unicode="&#xd7;" horiz-adv-x="1333" d="M358 115q28 0 50 22l258 258l248 -248q21 -21 47 -21q31 0 54 23.5t23 54.5q0 27 -20 47l-248 248l258 259q22 22 22 50q0 29 -22 51t-51 22t-51 -22l-258 -258l-249 249q-22 22 -48 22q-30 0 -54 -24.5t-24 -53.5q0 -27 22 -48l249 -250l-258 -258q-22 -22 -22 -50 t22.5 -50.5t51.5 -22.5z" />
<glyph unicode="&#xd8;" horiz-adv-x="1599" d="M281 -135q33 0 64 41l106 155q150 -83 349 -83q315 0 495.5 199t180.5 537q0 176 -51 317.5t-148 238.5l115 169q21 31 21 60q0 26 -18 43t-43 17q-40 0 -63 -36l-116 -171q-157 98 -373 98q-315 0 -496 -199t-181 -537q0 -187 58 -335t167 -245l-113 -166 q-15 -22 -15 -44q0 -25 18 -42t43 -17zM1163 1104q49 -74 74 -172.5t25 -217.5q0 -267 -121.5 -420.5t-340.5 -153.5q-144 0 -248 69zM1072 1202l-615 -906q-120 152 -120 418q0 267 121.5 420.5t341.5 153.5q161 0 272 -86z" />
<glyph unicode="&#xd9;" horiz-adv-x="1495" d="M773 1592q18 0 29.5 12t11.5 30t-14 35l-258 298q-29 33 -60 33q-36 0 -66.5 -29.5t-30.5 -64.5q0 -28 24 -47l318 -248q24 -19 46 -19zM748 -22q91 0 173.5 20t154.5 62t124.5 102.5t83 146t30.5 188.5v837q0 46 -29.5 72t-70.5 26q-42 0 -72 -26t-30 -72v-832 q0 -90 -31 -161t-83 -114t-116 -65t-134 -22t-133.5 22t-115 65t-82.5 114t-31 161v832q0 46 -30 72t-71 26q-42 0 -72 -26t-30 -72v-837q0 -127 46 -228t125 -163.5t179.5 -95t214.5 -32.5z" />
<glyph unicode="&#xda;" horiz-adv-x="1495" d="M737 1600q18 0 43 18l318 248q26 19 26 50q0 35 -30.5 64t-66.5 29q-32 0 -59 -32l-259 -299q-13 -17 -13 -35q0 -19 11.5 -31t29.5 -12zM748 -22q91 0 173.5 20t154.5 62t124.5 102.5t83 146t30.5 188.5v837q0 46 -29.5 72t-70.5 26q-42 0 -72 -26t-30 -72v-832 q0 -90 -31 -161t-83 -114t-116 -65t-134 -22t-133.5 22t-115 65t-82.5 114t-31 161v832q0 46 -30 72t-71 26q-42 0 -72 -26t-30 -72v-837q0 -127 46 -228t125 -163.5t179.5 -95t214.5 -32.5z" />
<glyph unicode="&#xdb;" horiz-adv-x="1495" d="M511 1553q39 0 69 38l171 229l170 -229q30 -37 67 -37q25 0 42 16t17 40q0 22 -18 48l-189 264q-40 52 -90 52q-52 0 -90 -52l-189 -264q-18 -24 -18 -49q0 -24 16.5 -40t41.5 -16zM748 -22q91 0 173.5 20t154.5 62t124.5 102.5t83 146t30.5 188.5v837q0 46 -29.5 72 t-70.5 26q-42 0 -72 -26t-30 -72v-832q0 -90 -31 -161t-83 -114t-116 -65t-134 -22t-133.5 22t-115 65t-82.5 114t-31 161v832q0 46 -30 72t-71 26q-42 0 -72 -26t-30 -72v-837q0 -127 46 -228t125 -163.5t179.5 -95t214.5 -32.5z" />
<glyph unicode="&#xdc;" horiz-adv-x="1495" d="M951 1601q49 0 79 30t30 72q0 41 -30 70.5t-79 29.5q-50 0 -80.5 -30t-30.5 -70q0 -42 30.5 -72t80.5 -30zM561 1601q50 0 80 30t30 72q0 40 -30 70t-80 30q-49 0 -79 -30t-30 -70q0 -42 30 -72t79 -30zM748 -22q91 0 173.5 20t154.5 62t124.5 102.5t83 146t30.5 188.5 v837q0 46 -29.5 72t-70.5 26q-42 0 -72 -26t-30 -72v-832q0 -90 -31 -161t-83 -114t-116 -65t-134 -22t-133.5 22t-115 65t-82.5 114t-31 161v832q0 46 -30 72t-71 26q-42 0 -72 -26t-30 -72v-837q0 -127 46 -228t125 -163.5t179.5 -95t214.5 -32.5z" />
<glyph unicode="&#xdd;" horiz-adv-x="1285" d="M647 1600q18 0 43 18l318 248q26 19 26 50q0 35 -30.5 64t-66.5 29q-32 0 -59 -32l-259 -299q-13 -17 -13 -35q0 -19 11.5 -31t29.5 -12zM541 98q0 -46 30 -71.5t72 -25.5q41 0 71 25.5t30 70.5v506l454 700q15 23 15 48q0 32 -25.5 55t-59.5 23q-48 0 -78 -47l-396 -627 l-394 624q-30 48 -82 48q-40 0 -71.5 -27t-31.5 -64q0 -25 14 -46l452 -694v-498z" />
<glyph unicode="&#xde;" horiz-adv-x="1293" d="M393 548v527h283q343 0 343 -262q0 -265 -348 -265h-278zM291 -1q42 0 72 25t30 72v300h258q118 0 216 20.5t182 66.5t131.5 130t47.5 200q0 92 -31.5 164.5t-84 118.5t-126 76t-152.5 42.5t-170 12.5h-271v115q0 45 -30.5 70.5t-72.5 25.5q-41 0 -71 -25.5t-30 -70.5 v-1246q0 -46 30 -71.5t72 -25.5z" />
<glyph unicode="&#xdf;" horiz-adv-x="1298" d="M853 -27q157 0 264.5 91t107.5 246q0 86 -44.5 151t-107.5 103t-126 70t-107.5 71t-44.5 88q0 26 24.5 57t59.5 62.5t70 66t59.5 78.5t24.5 89q0 98 -58 171t-148 108t-196 35q-236 0 -352.5 -124t-116.5 -349v-900q0 -42 26 -64.5t63 -22.5t64.5 23t27.5 64v876 q1 72 14.5 133t43 115.5t83.5 86t128 31.5q60 0 112 -18.5t87 -60.5t35 -101q0 -31 -18 -61.5t-44.5 -54.5t-57.5 -53t-57.5 -56t-44.5 -65t-18 -79q0 -71 45 -126.5t109 -92t128.5 -71t109.5 -82t45 -106.5q0 -96 -53 -145.5t-145 -49.5q-111 0 -176 102q-21 31 -57 31 q-29 0 -52 -21t-23 -51q0 -18 10 -37q41 -78 120 -118t186 -40z" />
<glyph unicode="&#xe0;" horiz-adv-x="1051" d="M530 1146q18 0 29.5 12t11.5 30t-14 35l-258 298q-29 33 -60 33q-36 0 -66.5 -29.5t-30.5 -64.5q0 -28 24 -47l318 -248q24 -19 46 -19zM440 102q-93 0 -147 42.5t-54 133.5q0 50 14.5 82t44.5 54.5t90 34t138 16t202 4.5v-30q0 -147 -86.5 -242t-201.5 -95zM421 -18 q215 0 308 195v-96q0 -39 25.5 -60.5t61.5 -21.5t63.5 22.5t27.5 61.5v583q0 177 -103.5 262t-286.5 85q-214 0 -369 -87q-28 -16 -28 -46q0 -26 19 -47.5t45 -21.5q14 0 24 5q51 23 86 36t96 26t122 13q102 0 159 -51t57 -158v-109q-111 0 -189.5 -3t-152.5 -10.5t-122 -22 t-88 -37t-62 -55t-34 -75.5t-12 -100q0 -138 98 -213t255 -75z" />
<glyph unicode="&#xe1;" horiz-adv-x="1051" d="M494 1154q18 0 43 18l318 248q26 19 26 50q0 35 -30.5 64t-66.5 29q-32 0 -59 -32l-259 -299q-13 -17 -13 -35q0 -19 11.5 -31t29.5 -12zM440 102q-93 0 -147 42.5t-54 133.5q0 50 14.5 82t44.5 54.5t90 34t138 16t202 4.5v-30q0 -147 -86.5 -242t-201.5 -95zM421 -18 q215 0 308 195v-96q0 -39 25.5 -60.5t61.5 -21.5t63.5 22.5t27.5 61.5v583q0 177 -103.5 262t-286.5 85q-214 0 -369 -87q-28 -16 -28 -46q0 -26 19 -47.5t45 -21.5q14 0 24 5q51 23 86 36t96 26t122 13q102 0 159 -51t57 -158v-109q-111 0 -189.5 -3t-152.5 -10.5t-122 -22 t-88 -37t-62 -55t-34 -75.5t-12 -100q0 -138 98 -213t255 -75z" />
<glyph unicode="&#xe2;" horiz-adv-x="1051" d="M268 1107q39 0 69 38l171 229l170 -229q30 -37 67 -37q25 0 42 16t17 40q0 22 -18 48l-189 264q-40 52 -90 52q-52 0 -90 -52l-189 -264q-18 -24 -18 -49q0 -24 16.5 -40t41.5 -16zM440 102q-93 0 -147 42.5t-54 133.5q0 50 14.5 82t44.5 54.5t90 34t138 16t202 4.5v-30 q0 -147 -86.5 -242t-201.5 -95zM421 -18q215 0 308 195v-96q0 -39 25.5 -60.5t61.5 -21.5t63.5 22.5t27.5 61.5v583q0 177 -103.5 262t-286.5 85q-214 0 -369 -87q-28 -16 -28 -46q0 -26 19 -47.5t45 -21.5q14 0 24 5q51 23 86 36t96 26t122 13q102 0 159 -51t57 -158v-109 q-111 0 -189.5 -3t-152.5 -10.5t-122 -22t-88 -37t-62 -55t-34 -75.5t-12 -100q0 -138 98 -213t255 -75z" />
<glyph unicode="&#xe3;" horiz-adv-x="1051" d="M759 1338q-24 0 -61 -38t-62 -38q-29 0 -114.5 36t-137.5 36q-133 0 -177 -141q-4 -8 -4 -17q0 -19 12.5 -29.5t31.5 -10.5q34 0 57 32q34 43 76 43q33 0 116.5 -37t127.5 -37q66 0 120.5 43t54.5 106q0 15 -9 20q-2 32 -31 32zM440 102q-93 0 -147 42.5t-54 133.5 q0 50 14.5 82t44.5 54.5t90 34t138 16t202 4.5v-30q0 -147 -86.5 -242t-201.5 -95zM421 -18q215 0 308 195v-96q0 -39 25.5 -60.5t61.5 -21.5t63.5 22.5t27.5 61.5v583q0 177 -103.5 262t-286.5 85q-214 0 -369 -87q-28 -16 -28 -46q0 -26 19 -47.5t45 -21.5q14 0 24 5 q51 23 86 36t96 26t122 13q102 0 159 -51t57 -158v-109q-111 0 -189.5 -3t-152.5 -10.5t-122 -22t-88 -37t-62 -55t-34 -75.5t-12 -100q0 -138 98 -213t255 -75z" />
<glyph unicode="&#xe4;" horiz-adv-x="1051" d="M708 1155q49 0 79 30t30 72q0 41 -30 70.5t-79 29.5q-50 0 -80.5 -30t-30.5 -70q0 -42 30.5 -72t80.5 -30zM318 1155q50 0 80 30t30 72q0 40 -30 70t-80 30q-49 0 -79 -30t-30 -70q0 -42 30 -72t79 -30zM440 102q-93 0 -147 42.5t-54 133.5q0 50 14.5 82t44.5 54.5t90 34 t138 16t202 4.5v-30q0 -147 -86.5 -242t-201.5 -95zM421 -18q215 0 308 195v-96q0 -39 25.5 -60.5t61.5 -21.5t63.5 22.5t27.5 61.5v583q0 177 -103.5 262t-286.5 85q-214 0 -369 -87q-28 -16 -28 -46q0 -26 19 -47.5t45 -21.5q14 0 24 5q51 23 86 36t96 26t122 13 q102 0 159 -51t57 -158v-109q-111 0 -189.5 -3t-152.5 -10.5t-122 -22t-88 -37t-62 -55t-34 -75.5t-12 -100q0 -138 98 -213t255 -75z" />
<glyph unicode="&#xe5;" horiz-adv-x="1051" d="M515 1136q88 0 141 52t53 137t-53 136t-141 51t-141.5 -51t-53.5 -136q0 -86 53.5 -137.5t141.5 -51.5zM515 1220q-50 0 -79.5 28.5t-29.5 76.5q0 47 30 76t79 29t79 -29t30 -76q0 -48 -29.5 -76.5t-79.5 -28.5zM440 102q-93 0 -147 42.5t-54 133.5q0 50 14.5 82 t44.5 54.5t90 34t138 16t202 4.5v-30q0 -147 -86.5 -242t-201.5 -95zM421 -18q215 0 308 195v-96q0 -39 25.5 -60.5t61.5 -21.5t63.5 22.5t27.5 61.5v583q0 177 -103.5 262t-286.5 85q-214 0 -369 -87q-28 -16 -28 -46q0 -26 19 -47.5t45 -21.5q14 0 24 5q51 23 86 36t96 26 t122 13q102 0 159 -51t57 -158v-109q-111 0 -189.5 -3t-152.5 -10.5t-122 -22t-88 -37t-62 -55t-34 -75.5t-12 -100q0 -138 98 -213t255 -75z" />
<glyph unicode="&#xe6;" horiz-adv-x="1709" d="M921 582q10 134 77.5 222t183.5 88q117 0 180 -83.5t72 -226.5h-513zM454 100q-92 2 -150 48.5t-58 134.5q0 32 9 59t24 47t39 35t47.5 25t57.5 17.5t61 11t65.5 5.5t64.5 2.5t63 1t57 1.5v-90q-5 -143 -82 -219.5t-198 -78.5zM421 -27q124 0 234 55t163 166 q52 -104 139 -162.5t206 -58.5q96 0 190 27.5t152.5 72.5t58.5 91q0 24 -14.5 40t-36.5 16q-18 0 -40 -13q-139 -95 -266 -95q-76 0 -132.5 26.5t-89.5 75t-49.5 110t-17.5 137.5h621q32 0 49 19.5t17 46.5q-3 108 -29.5 196t-77 156t-131.5 105.5t-187 37.5 q-211 0 -334 -176q-75 176 -323 176q-258 0 -375 -131q-18 -20 -18 -41q0 -24 18 -42.5t43 -18.5q19 0 34 10q49 28 82 43t88.5 27.5t120.5 12.5q105 0 162 -45t57 -150v-78q-15 0 -53.5 1t-55.5 2q-558 0 -558 -336q0 -141 98 -222t255 -81z" />
<glyph unicode="&#xe7;" horiz-adv-x="968" d="M555 -392q80 0 139 39.5t59 111.5q0 144 -183 146q-8 0 -32 -2l36 113h-66l-47 -132q-3 -10 -3 -19q0 -31 38 -31q2 0 8 0.5t8 0.5q45 0 76.5 -17.5t31.5 -54.5q0 -41 -21.5 -61.5t-73.5 -20.5q-62 0 -161 35q-8 2 -12 2q-13 0 -21 -10.5t-8 -24.5q0 -32 72 -53.5 t160 -21.5zM557 -19q196 0 304 87q34 28 34 61q0 23 -16 38.5t-39 15.5q-21 0 -40 -13q-92 -64 -229 -64q-78 0 -138 32.5t-96 88t-54 123.5t-18 144q0 182 89 289.5t232 107.5q110 0 201 -59q20 -13 42 -13q24 0 40.5 15t16.5 37q0 31 -34 58q-43 36 -116 60t-159 24 q-147 0 -260 -69t-173 -186t-60 -261q0 -223 128 -369.5t345 -146.5z" />
<glyph unicode="&#xe8;" horiz-adv-x="1135" d="M602 1155q18 0 29.5 12t11.5 30t-14 35l-258 298q-29 33 -60 33q-36 0 -66.5 -29.5t-30.5 -64.5q0 -28 24 -47l318 -248q24 -19 46 -19zM275 572q5 62 26.5 117.5t58 101t93.5 72.5t127 27q135 0 205 -89t79 -229h-589zM583 -18q224 0 382 142q28 25 28 57 q0 25 -16.5 43.5t-40.5 18.5q-20 0 -38 -14q-72 -55 -143 -87t-160 -32q-141 2 -231 90.5t-92 260.5h686q32 0 48 19t16 48q-3 101 -29 185.5t-78 153t-140 107.5t-205 39q-148 0 -259 -72t-166 -187t-55 -254q0 -158 65.5 -276.5t176.5 -179.5t251 -62z" />
<glyph unicode="&#xe9;" horiz-adv-x="1135" d="M275 572q5 62 26.5 117.5t58 101t93.5 72.5t127 27q135 0 205 -89t79 -229h-589zM583 -18q224 0 382 142q28 25 28 57q0 25 -16.5 43.5t-40.5 18.5q-20 0 -38 -14q-72 -55 -143 -87t-160 -32q-141 2 -231 90.5t-92 260.5h686q32 0 48 19t16 48q-3 101 -29 185.5t-78 153 t-140 107.5t-205 39q-148 0 -259 -72t-166 -187t-55 -254q0 -158 65.5 -276.5t176.5 -179.5t251 -62zM566 1163q18 0 43 18l318 248q26 19 26 50q0 35 -30.5 64t-66.5 29q-32 0 -59 -32l-259 -299q-13 -17 -13 -35q0 -19 11.5 -31t29.5 -12z" />
<glyph unicode="&#xea;" horiz-adv-x="1135" d="M275 572q5 62 26.5 117.5t58 101t93.5 72.5t127 27q135 0 205 -89t79 -229h-589zM583 -18q224 0 382 142q28 25 28 57q0 25 -16.5 43.5t-40.5 18.5q-20 0 -38 -14q-72 -55 -143 -87t-160 -32q-141 2 -231 90.5t-92 260.5h686q32 0 48 19t16 48q-3 101 -29 185.5t-78 153 t-140 107.5t-205 39q-148 0 -259 -72t-166 -187t-55 -254q0 -158 65.5 -276.5t176.5 -179.5t251 -62zM340 1116q39 0 69 38l171 229l170 -229q30 -37 67 -37q25 0 42 16t17 40q0 22 -18 48l-189 264q-40 52 -90 52q-52 0 -90 -52l-189 -264q-18 -24 -18 -49q0 -24 16.5 -40 t41.5 -16z" />
<glyph unicode="&#xeb;" horiz-adv-x="1135" d="M275 572q5 62 26.5 117.5t58 101t93.5 72.5t127 27q135 0 205 -89t79 -229h-589zM583 -18q224 0 382 142q28 25 28 57q0 25 -16.5 43.5t-40.5 18.5q-20 0 -38 -14q-72 -55 -143 -87t-160 -32q-141 2 -231 90.5t-92 260.5h686q32 0 48 19t16 48q-3 101 -29 185.5t-78 153 t-140 107.5t-205 39q-148 0 -259 -72t-166 -187t-55 -254q0 -158 65.5 -276.5t176.5 -179.5t251 -62zM780 1164q49 0 79 30t30 72q0 41 -30 70.5t-79 29.5q-50 0 -80.5 -30t-30.5 -70q0 -42 30.5 -72t80.5 -30zM390 1164q50 0 80 30t30 72q0 40 -30 70t-80 30q-49 0 -79 -30 t-30 -70q0 -42 30 -72t79 -30z" />
<glyph unicode="&#xec;" horiz-adv-x="485" d="M259 1145q18 0 29.5 12t11.5 30t-14 35l-258 298q-29 33 -60 33q-36 0 -66.5 -29.5t-30.5 -64.5q0 -28 24 -47l318 -248q24 -19 46 -19zM240 0q37 0 65 24t28 67v813q0 42 -27 66t-63 24q-37 0 -64 -24t-27 -66v-813q0 -44 25.5 -67.5t62.5 -23.5z" />
<glyph unicode="&#xed;" horiz-adv-x="485" d="M240 0q37 0 65 24t28 67v813q0 42 -27 66t-63 24q-37 0 -64 -24t-27 -66v-813q0 -44 25.5 -67.5t62.5 -23.5zM223 1153q18 0 43 18l318 248q26 19 26 50q0 35 -30.5 64t-66.5 29q-32 0 -59 -32l-259 -299q-13 -17 -13 -35q0 -19 11.5 -31t29.5 -12z" />
<glyph unicode="&#xee;" horiz-adv-x="485" d="M240 0q37 0 65 24t28 67v813q0 42 -27 66t-63 24q-37 0 -64 -24t-27 -66v-813q0 -44 25.5 -67.5t62.5 -23.5zM-3 1106q39 0 69 38l171 229l170 -229q30 -37 67 -37q25 0 42 16t17 40q0 22 -18 48l-189 264q-40 52 -90 52q-52 0 -90 -52l-189 -264q-18 -24 -18 -49 q0 -24 16.5 -40t41.5 -16z" />
<glyph unicode="&#xef;" horiz-adv-x="485" d="M240 0q37 0 65 24t28 67v813q0 42 -27 66t-63 24q-37 0 -64 -24t-27 -66v-813q0 -44 25.5 -67.5t62.5 -23.5zM437 1154q49 0 79 30t30 72q0 41 -30 70.5t-79 29.5q-50 0 -80.5 -30t-30.5 -70q0 -42 30.5 -72t80.5 -30zM47 1154q50 0 80 30t30 72q0 40 -30 70t-80 30 q-49 0 -79 -30t-30 -70q0 -42 30 -72t79 -30z" />
<glyph unicode="&#xf0;" horiz-adv-x="1186" d="M580 119q-140 0 -217 85.5t-77 227.5q0 90 27 161.5t90 117.5t155 46q148 0 230.5 -92.5t82.5 -240.5q0 -127 -82.5 -216t-208.5 -89zM566 -33q117 0 209.5 35.5t152.5 95.5t99.5 145t56 178.5t16.5 202.5q0 224 -50 430h133q30 0 47.5 19.5t17.5 45.5t-17 45t-48 19 h-174q-35 89 -75 163t-93 131t-99 57q-37 0 -63 -24.5t-26 -57.5q0 -29 21 -54q85 -105 131 -215h-177q-32 0 -49 -19.5t-17 -45.5t17 -45t49 -19h221q44 -151 44 -336v-31q-48 102 -144 154t-219 52q-205 0 -324 -124t-119 -327q0 -209 129.5 -342t349.5 -133z" />
<glyph unicode="&#xf1;" d="M864 1337q-24 0 -61 -38t-62 -38q-29 0 -114.5 36t-137.5 36q-133 0 -177 -141q-4 -8 -4 -17q0 -19 12.5 -29.5t31.5 -10.5q34 0 57 32q34 43 76 43q33 0 116.5 -37t127.5 -37q66 0 120.5 43t54.5 106q0 15 -9 20q-2 32 -31 32zM241 0q37 0 64.5 23t27.5 63v499 q7 141 86 223t194 82q108 0 167.5 -67t59.5 -195v-542q0 -41 26.5 -63.5t63.5 -22.5t63.5 22.5t26.5 63.5v540q0 195 -98 291t-263 96q-115 0 -201.5 -49t-124.5 -140v87q0 39 -26.5 60.5t-63.5 21.5t-64 -22.5t-27 -62.5v-822q0 -41 26 -63.5t63 -22.5z" />
<glyph unicode="&#xf2;" horiz-adv-x="1161" d="M585 -18q231 0 366 145t135 370q0 227 -135.5 371.5t-365.5 144.5t-365.5 -145t-135.5 -371q0 -225 135.5 -370t365.5 -145zM583 106q-150 0 -234.5 105.5t-84.5 285.5q0 182 85 287.5t236 105.5q150 0 235.5 -106t85.5 -287q0 -182 -84.5 -286.5t-238.5 -104.5z M595 1154q18 0 29.5 12t11.5 30t-14 35l-258 298q-29 33 -60 33q-36 0 -66.5 -29.5t-30.5 -64.5q0 -28 24 -47l318 -248q24 -19 46 -19z" />
<glyph unicode="&#xf3;" horiz-adv-x="1161" d="M585 -18q231 0 366 145t135 370q0 227 -135.5 371.5t-365.5 144.5t-365.5 -145t-135.5 -371q0 -225 135.5 -370t365.5 -145zM583 106q-150 0 -234.5 105.5t-84.5 285.5q0 182 85 287.5t236 105.5q150 0 235.5 -106t85.5 -287q0 -182 -84.5 -286.5t-238.5 -104.5z M559 1162q18 0 43 18l318 248q26 19 26 50q0 35 -30.5 64t-66.5 29q-32 0 -59 -32l-259 -299q-13 -17 -13 -35q0 -19 11.5 -31t29.5 -12z" />
<glyph unicode="&#xf4;" horiz-adv-x="1161" d="M585 -18q231 0 366 145t135 370q0 227 -135.5 371.5t-365.5 144.5t-365.5 -145t-135.5 -371q0 -225 135.5 -370t365.5 -145zM583 106q-150 0 -234.5 105.5t-84.5 285.5q0 182 85 287.5t236 105.5q150 0 235.5 -106t85.5 -287q0 -182 -84.5 -286.5t-238.5 -104.5z M333 1115q39 0 69 38l171 229l170 -229q30 -37 67 -37q25 0 42 16t17 40q0 22 -18 48l-189 264q-40 52 -90 52q-52 0 -90 -52l-189 -264q-18 -24 -18 -49q0 -24 16.5 -40t41.5 -16z" />
<glyph unicode="&#xf5;" horiz-adv-x="1161" d="M824 1346q-24 0 -61 -38t-62 -38q-29 0 -114.5 36t-137.5 36q-133 0 -177 -141q-4 -8 -4 -17q0 -19 12.5 -29.5t31.5 -10.5q34 0 57 32q34 43 76 43q33 0 116.5 -37t127.5 -37q66 0 120.5 43t54.5 106q0 15 -9 20q-2 32 -31 32zM585 -18q231 0 366 145t135 370 q0 227 -135.5 371.5t-365.5 144.5t-365.5 -145t-135.5 -371q0 -225 135.5 -370t365.5 -145zM583 106q-150 0 -234.5 105.5t-84.5 285.5q0 182 85 287.5t236 105.5q150 0 235.5 -106t85.5 -287q0 -182 -84.5 -286.5t-238.5 -104.5z" />
<glyph unicode="&#xf6;" horiz-adv-x="1161" d="M585 -18q231 0 366 145t135 370q0 227 -135.5 371.5t-365.5 144.5t-365.5 -145t-135.5 -371q0 -225 135.5 -370t365.5 -145zM583 106q-150 0 -234.5 105.5t-84.5 285.5q0 182 85 287.5t236 105.5q150 0 235.5 -106t85.5 -287q0 -182 -84.5 -286.5t-238.5 -104.5z M773 1163q49 0 79 30t30 72q0 41 -30 70.5t-79 29.5q-50 0 -80.5 -30t-30.5 -70q0 -42 30.5 -72t80.5 -30zM383 1163q50 0 80 30t30 72q0 40 -30 70t-80 30q-49 0 -79 -30t-30 -70q0 -42 30 -72t79 -30z" />
<glyph unicode="&#xf7;" horiz-adv-x="1333" d="M667 848q50 0 79 29t29 70q0 40 -29.5 69t-78.5 29t-78.5 -29t-29.5 -69q0 -41 29 -70t79 -29zM667 -14q50 0 79 29t29 70q0 39 -29.5 68t-78.5 29t-78.5 -29.5t-29.5 -67.5q0 -41 29 -70t79 -29zM213 442h915q33 0 50.5 21t17.5 51q0 31 -17.5 52.5t-50.5 21.5h-915 q-33 0 -51 -21.5t-18 -52.5q0 -30 18 -51t51 -21z" />
<glyph unicode="&#xf8;" horiz-adv-x="1161" d="M144 -15q0 -21 14.5 -35.5t37.5 -14.5q26 0 42 22l74 95q117 -70 273 -70q231 0 366 145t135 370q0 45 -6 88t-17 82.5t-27.5 75.5t-38.5 68t-49 60l75 96q18 24 18 39q0 21 -17 36t-40 15q-25 0 -42 -21l-76 -98q-120 75 -281 75q-230 0 -365.5 -145t-135.5 -371 q0 -116 37.5 -214t108.5 -167l-72 -94q-14 -18 -14 -37zM585 106q-110 -1 -187 57l451 580q57 -99 57 -246q0 -181 -84 -286t-237 -105zM779 826l-451 -585q-64 101 -64 256q0 182 85 287.5t236 105.5q17 0 33 -1.5t31 -4t29 -6.5t27.5 -9.5t26.5 -12t24.5 -14.5t22.5 -16z " />
<glyph unicode="&#xf9;" d="M502 -18q115 0 202 49t125 140v-89q0 -39 26 -60.5t63 -21.5t64 22.5t27 62.5v823q0 41 -26 63.5t-63 22.5t-64 -23t-27 -63v-497q-7 -142 -87 -223.5t-196 -81.5q-108 0 -166 66.5t-58 194.5v541q0 41 -26.5 63.5t-63.5 22.5t-64 -22.5t-27 -63.5v-539 q0 -194 98.5 -290.5t262.5 -96.5zM589 1154q18 0 29.5 12t11.5 30t-14 35l-258 298q-29 33 -60 33q-36 0 -66.5 -29.5t-30.5 -64.5q0 -28 24 -47l318 -248q24 -19 46 -19z" />
<glyph unicode="&#xfa;" d="M502 -18q115 0 202 49t125 140v-89q0 -39 26 -60.5t63 -21.5t64 22.5t27 62.5v823q0 41 -26 63.5t-63 22.5t-64 -23t-27 -63v-497q-7 -142 -87 -223.5t-196 -81.5q-108 0 -166 66.5t-58 194.5v541q0 41 -26.5 63.5t-63.5 22.5t-64 -22.5t-27 -63.5v-539 q0 -194 98.5 -290.5t262.5 -96.5zM553 1162q18 0 43 18l318 248q26 19 26 50q0 35 -30.5 64t-66.5 29q-32 0 -59 -32l-259 -299q-13 -17 -13 -35q0 -19 11.5 -31t29.5 -12z" />
<glyph unicode="&#xfb;" d="M502 -18q115 0 202 49t125 140v-89q0 -39 26 -60.5t63 -21.5t64 22.5t27 62.5v823q0 41 -26 63.5t-63 22.5t-64 -23t-27 -63v-497q-7 -142 -87 -223.5t-196 -81.5q-108 0 -166 66.5t-58 194.5v541q0 41 -26.5 63.5t-63.5 22.5t-64 -22.5t-27 -63.5v-539 q0 -194 98.5 -290.5t262.5 -96.5zM327 1115q39 0 69 38l171 229l170 -229q30 -37 67 -37q25 0 42 16t17 40q0 22 -18 48l-189 264q-40 52 -90 52q-52 0 -90 -52l-189 -264q-18 -24 -18 -49q0 -24 16.5 -40t41.5 -16z" />
<glyph unicode="&#xfc;" d="M502 -18q115 0 202 49t125 140v-89q0 -39 26 -60.5t63 -21.5t64 22.5t27 62.5v823q0 41 -26 63.5t-63 22.5t-64 -23t-27 -63v-497q-7 -142 -87 -223.5t-196 -81.5q-108 0 -166 66.5t-58 194.5v541q0 41 -26.5 63.5t-63.5 22.5t-64 -22.5t-27 -63.5v-539 q0 -194 98.5 -290.5t262.5 -96.5zM767 1163q49 0 79 30t30 72q0 41 -30 70.5t-79 29.5q-50 0 -80.5 -30t-30.5 -70q0 -42 30.5 -72t80.5 -30zM377 1163q50 0 80 30t30 72q0 40 -30 70t-80 30q-49 0 -79 -30t-30 -70q0 -42 30 -72t79 -30z" />
<glyph unicode="&#xfd;" horiz-adv-x="1040" d="M438 -341l578 1219q7 17 7 34q0 34 -26.5 58.5t-61.5 24.5q-52 0 -79 -55l-306 -648l-304 645q-25 53 -78 53q-35 0 -62.5 -24t-27.5 -60q0 -22 9 -40l372 -767l-179 -379q-9 -20 -9 -38q0 -34 26 -56.5t60 -22.5q54 0 81 56zM545 1167q18 0 43 18l318 248q26 19 26 50 q0 35 -30.5 64t-66.5 29q-32 0 -59 -32l-259 -299q-13 -17 -13 -35q0 -19 11.5 -31t29.5 -12z" />
<glyph unicode="&#xfe;" horiz-adv-x="1172" d="M628 107q-312 0 -312 407q0 77 16.5 142t50.5 117.5t93 82.5t138 30q61 0 110.5 -21.5t81 -57.5t52.5 -85.5t29.5 -102.5t8.5 -111q0 -57 -7 -109.5t-25.5 -107t-47.5 -94.5t-77.5 -65t-110.5 -25zM223 -343q36 0 62 23.5t26 66.5v429q129 -203 361 -203q104 0 185.5 45 t130 121.5t73.5 168.5t25 194q0 106 -25.5 198t-75 165t-131.5 115t-187 42q-106 0 -203 -50.5t-148 -141.5v515q0 40 -26.5 61.5t-63.5 21.5t-64 -22t-27 -61v-1598q0 -43 26 -66.5t62 -23.5z" />
<glyph unicode="&#xff;" horiz-adv-x="1040" d="M438 -341l578 1219q7 17 7 34q0 34 -26.5 58.5t-61.5 24.5q-52 0 -79 -55l-306 -648l-304 645q-25 53 -78 53q-35 0 -62.5 -24t-27.5 -60q0 -22 9 -40l372 -767l-179 -379q-9 -20 -9 -38q0 -34 26 -56.5t60 -22.5q54 0 81 56zM759 1168q49 0 79 30t30 72q0 41 -30 70.5 t-79 29.5q-50 0 -80.5 -30t-30.5 -70q0 -42 30.5 -72t80.5 -30zM369 1168q50 0 80 30t30 72q0 40 -30 70t-80 30q-49 0 -79 -30t-30 -70q0 -42 30 -72t79 -30z" />
<glyph unicode="&#x100;" horiz-adv-x="1424" d="M459 1669h504q33 0 50 18t17 47q0 27 -17 45.5t-50 18.5h-504q-33 0 -51 -18.5t-18 -45.5q0 -29 17.5 -47t51.5 -18zM1176 60q25 -66 92 -66q39 0 70 25t31 63q0 16 -8 37l-475 1179q-34 85 -73.5 112.5t-98.5 27.5t-98.5 -27.5t-73.5 -112.5l-475 -1179q-8 -21 -8 -37 q0 -38 30.5 -63t69.5 -25q68 0 93 66l118 304h688zM1001 509h-574l287 739z" />
<glyph unicode="&#x101;" horiz-adv-x="1051" d="M263 1223h504q33 0 50 18t17 47q0 27 -17 45.5t-50 18.5h-504q-33 0 -51 -18.5t-18 -45.5q0 -29 17.5 -47t51.5 -18zM440 102q-93 0 -147 42.5t-54 133.5q0 50 14.5 82t44.5 54.5t90 34t138 16t202 4.5v-30q0 -147 -86.5 -242t-201.5 -95zM421 -18q215 0 308 195v-96 q0 -39 25.5 -60.5t61.5 -21.5t63.5 22.5t27.5 61.5v583q0 177 -103.5 262t-286.5 85q-214 0 -369 -87q-28 -16 -28 -46q0 -26 19 -47.5t45 -21.5q14 0 24 5q51 23 86 36t96 26t122 13q102 0 159 -51t57 -158v-109q-111 0 -189.5 -3t-152.5 -10.5t-122 -22t-88 -37t-62 -55 t-34 -75.5t-12 -100q0 -138 98 -213t255 -75z" />
<glyph unicode="&#x102;" horiz-adv-x="1424" d="M711 1638q97 0 168 41t105 116q6 15 6 29q0 23 -16 36.5t-39 13.5q-33 0 -54 -30q-33 -46 -69 -64t-101 -18t-101.5 18t-68.5 64q-21 30 -54 30q-23 0 -39 -13.5t-16 -36.5q0 -14 6 -29q34 -75 105 -116t168 -41zM1176 60q25 -66 92 -66q39 0 70 25t31 63q0 16 -8 37 l-475 1179q-34 85 -73.5 112.5t-98.5 27.5t-98.5 -27.5t-73.5 -112.5l-475 -1179q-8 -21 -8 -37q0 -38 30.5 -63t69.5 -25q68 0 93 66l118 304h688zM1001 509h-574l287 739z" />
<glyph unicode="&#x103;" horiz-adv-x="1051" d="M514 1192q97 0 168 41t105 116q6 15 6 29q0 23 -16 36.5t-39 13.5q-33 0 -54 -30q-33 -46 -69 -64t-101 -18t-101.5 18t-68.5 64q-21 30 -54 30q-23 0 -39 -13.5t-16 -36.5q0 -14 6 -29q34 -75 105 -116t168 -41zM440 102q-93 0 -147 42.5t-54 133.5q0 50 14.5 82 t44.5 54.5t90 34t138 16t202 4.5v-30q0 -147 -86.5 -242t-201.5 -95zM421 -18q215 0 308 195v-96q0 -39 25.5 -60.5t61.5 -21.5t63.5 22.5t27.5 61.5v583q0 177 -103.5 262t-286.5 85q-214 0 -369 -87q-28 -16 -28 -46q0 -26 19 -47.5t45 -21.5q14 0 24 5q51 23 86 36t96 26 t122 13q102 0 159 -51t57 -158v-109q-111 0 -189.5 -3t-152.5 -10.5t-122 -22t-88 -37t-62 -55t-34 -75.5t-12 -100q0 -138 98 -213t255 -75z" />
<glyph unicode="&#x104;" horiz-adv-x="1424" d="M1460 -400v85q-206 0 -206 143q0 77 62 191h-83q-134 -157 -134 -280q0 -78 54.5 -123t147.5 -45q75 0 159 29zM1176 60q25 -66 92 -66q39 0 70 25t31 63q0 16 -8 37l-475 1179q-34 85 -73.5 112.5t-98.5 27.5t-98.5 -27.5t-73.5 -112.5l-475 -1179q-8 -21 -8 -37 q0 -38 30.5 -63t69.5 -25q68 0 93 66l118 304h688zM1001 509h-574l287 739z" />
<glyph unicode="&#x105;" horiz-adv-x="1051" d="M1015 -407v85q-206 0 -206 143q0 77 62 191h-83q-134 -157 -134 -280q0 -78 54.5 -123t147.5 -45q75 0 159 29zM440 102q-93 0 -147 42.5t-54 133.5q0 50 14.5 82t44.5 54.5t90 34t138 16t202 4.5v-30q0 -147 -86.5 -242t-201.5 -95zM421 -18q215 0 308 195v-96 q0 -39 25.5 -60.5t61.5 -21.5t63.5 22.5t27.5 61.5v583q0 177 -103.5 262t-286.5 85q-214 0 -369 -87q-28 -16 -28 -46q0 -26 19 -47.5t45 -21.5q14 0 24 5q51 23 86 36t96 26t122 13q102 0 159 -51t57 -158v-109q-111 0 -189.5 -3t-152.5 -10.5t-122 -22t-88 -37t-62 -55 t-34 -75.5t-12 -100q0 -138 98 -213t255 -75z" />
<glyph unicode="&#x106;" horiz-adv-x="1361" d="M771 1600q18 0 43 18l318 248q26 19 26 50q0 35 -30.5 64t-66.5 29q-32 0 -59 -32l-259 -299q-13 -17 -13 -35q0 -19 11.5 -31t29.5 -12zM784 -22q227 0 394 109q50 32 50 78q0 31 -22 54t-53 23q-18 0 -38 -11q-78 -44 -145 -67.5t-156 -23.5q-99 0 -179.5 30t-135 82 t-91.5 124.5t-54 156.5t-17 179t17 179.5t54 157.5t91 126t133 83t176 30q40 0 77.5 -4t62.5 -9.5t52 -15t40 -15t33.5 -16t24.5 -12.5q18 -8 33 -8q31 0 53 24t22 56q0 45 -44 69q-167 93 -361 93q-157 0 -286 -58t-214 -158.5t-131.5 -235.5t-46.5 -289q0 -207 76 -371 t228 -262t357 -98z" />
<glyph unicode="&#x107;" horiz-adv-x="968" d="M557 -19q196 0 304 87q34 28 34 61q0 23 -16 38.5t-39 15.5q-21 0 -40 -13q-92 -64 -229 -64q-78 0 -138 32.5t-96 88t-54 123.5t-18 144q0 182 89 289.5t232 107.5q110 0 201 -59q20 -13 42 -13q24 0 40.5 15t16.5 37q0 31 -34 58q-43 36 -116 60t-159 24 q-147 0 -260 -69t-173 -186t-60 -261q0 -223 128 -369.5t345 -146.5zM543 1167q18 0 43 18l318 248q26 19 26 50q0 35 -30.5 64t-66.5 29q-32 0 -59 -32l-259 -299q-13 -17 -13 -35q0 -19 11.5 -31t29.5 -12z" />
<glyph unicode="&#x108;" horiz-adv-x="1361" d="M545 1553q39 0 69 38l171 229l170 -229q30 -37 67 -37q25 0 42 16t17 40q0 22 -18 48l-189 264q-40 52 -90 52q-52 0 -90 -52l-189 -264q-18 -24 -18 -49q0 -24 16.5 -40t41.5 -16zM784 -22q227 0 394 109q50 32 50 78q0 31 -22 54t-53 23q-18 0 -38 -11 q-78 -44 -145 -67.5t-156 -23.5q-99 0 -179.5 30t-135 82t-91.5 124.5t-54 156.5t-17 179t17 179.5t54 157.5t91 126t133 83t176 30q40 0 77.5 -4t62.5 -9.5t52 -15t40 -15t33.5 -16t24.5 -12.5q18 -8 33 -8q31 0 53 24t22 56q0 45 -44 69q-167 93 -361 93q-157 0 -286 -58 t-214 -158.5t-131.5 -235.5t-46.5 -289q0 -207 76 -371t228 -262t357 -98z" />
<glyph unicode="&#x109;" horiz-adv-x="968" d="M317 1120q39 0 69 38l171 229l170 -229q30 -37 67 -37q25 0 42 16t17 40q0 22 -18 48l-189 264q-40 52 -90 52q-52 0 -90 -52l-189 -264q-18 -24 -18 -49q0 -24 16.5 -40t41.5 -16zM557 -19q196 0 304 87q34 28 34 61q0 23 -16 38.5t-39 15.5q-21 0 -40 -13 q-92 -64 -229 -64q-78 0 -138 32.5t-96 88t-54 123.5t-18 144q0 182 89 289.5t232 107.5q110 0 201 -59q20 -13 42 -13q24 0 40.5 15t16.5 37q0 31 -34 58q-43 36 -116 60t-159 24q-147 0 -260 -69t-173 -186t-60 -261q0 -223 128 -369.5t345 -146.5z" />
<glyph unicode="&#x10a;" horiz-adv-x="1361" d="M786 1615q53 0 84.5 31t31.5 76q0 42 -32 74t-84 32t-83.5 -32t-31.5 -74q0 -45 31 -76t84 -31zM784 -22q227 0 394 109q50 32 50 78q0 31 -22 54t-53 23q-18 0 -38 -11q-78 -44 -145 -67.5t-156 -23.5q-99 0 -179.5 30t-135 82t-91.5 124.5t-54 156.5t-17 179t17 179.5 t54 157.5t91 126t133 83t176 30q40 0 77.5 -4t62.5 -9.5t52 -15t40 -15t33.5 -16t24.5 -12.5q18 -8 33 -8q31 0 53 24t22 56q0 45 -44 69q-167 93 -361 93q-157 0 -286 -58t-214 -158.5t-131.5 -235.5t-46.5 -289q0 -207 76 -371t228 -262t357 -98z" />
<glyph unicode="&#x10b;" horiz-adv-x="968" d="M559 1182q53 0 84.5 31t31.5 76q0 42 -32 74t-84 32t-83.5 -32t-31.5 -74q0 -45 31 -76t84 -31zM557 -19q196 0 304 87q34 28 34 61q0 23 -16 38.5t-39 15.5q-21 0 -40 -13q-92 -64 -229 -64q-78 0 -138 32.5t-96 88t-54 123.5t-18 144q0 182 89 289.5t232 107.5 q110 0 201 -59q20 -13 42 -13q24 0 40.5 15t16.5 37q0 31 -34 58q-43 36 -116 60t-159 24q-147 0 -260 -69t-173 -186t-60 -261q0 -223 128 -369.5t345 -146.5z" />
<glyph unicode="&#x10c;" horiz-adv-x="1361" d="M784 1514q51 0 89 52l189 264q17 25 17 47q0 25 -17.5 42t-42.5 17q-35 0 -66 -38l-169 -229l-171 229q-30 38 -67 38q-25 0 -42.5 -16.5t-17.5 -41.5q0 -22 17 -48l190 -264q38 -52 91 -52zM784 -22q227 0 394 109q50 32 50 78q0 31 -22 54t-53 23q-18 0 -38 -11 q-78 -44 -145 -67.5t-156 -23.5q-99 0 -179.5 30t-135 82t-91.5 124.5t-54 156.5t-17 179t17 179.5t54 157.5t91 126t133 83t176 30q40 0 77.5 -4t62.5 -9.5t52 -15t40 -15t33.5 -16t24.5 -12.5q18 -8 33 -8q31 0 53 24t22 56q0 45 -44 69q-167 93 -361 93q-157 0 -286 -58 t-214 -158.5t-131.5 -235.5t-46.5 -289q0 -207 76 -371t228 -262t357 -98z" />
<glyph unicode="&#x10d;" horiz-adv-x="968" d="M557 1081q51 0 89 52l189 264q17 25 17 47q0 25 -17.5 42t-42.5 17q-35 0 -66 -38l-169 -229l-171 229q-30 38 -67 38q-25 0 -42.5 -16.5t-17.5 -41.5q0 -22 17 -48l190 -264q38 -52 91 -52zM557 -19q196 0 304 87q34 28 34 61q0 23 -16 38.5t-39 15.5q-21 0 -40 -13 q-92 -64 -229 -64q-78 0 -138 32.5t-96 88t-54 123.5t-18 144q0 182 89 289.5t232 107.5q110 0 201 -59q20 -13 42 -13q24 0 40.5 15t16.5 37q0 31 -34 58q-43 36 -116 60t-159 24q-147 0 -260 -69t-173 -186t-60 -261q0 -223 128 -369.5t345 -146.5z" />
<glyph unicode="&#x10e;" horiz-adv-x="1505" d="M764 1514q51 0 89 52l189 264q17 25 17 47q0 25 -17.5 42t-42.5 17q-35 0 -66 -38l-169 -229l-171 229q-30 38 -67 38q-25 0 -42.5 -16.5t-17.5 -41.5q0 -22 17 -48l190 -264q38 -52 91 -52zM379 163v1108h225q297 0 435 -128t138 -426q0 -141 -28 -241.5t-90.5 -172 t-166.5 -106t-254 -34.5h-259zM278 3h350q363 0 561 182.5t198 528.5q0 351 -196 534.5t-572 183.5h-341q-42 0 -71.5 -28.5t-29.5 -69.5v-1233q0 -41 29.5 -69.5t71.5 -28.5z" />
<glyph unicode="&#x10f;" horiz-adv-x="1195" d="M546 106q-78 1 -135.5 37.5t-87.5 96.5t-44 124.5t-14 134.5q0 72 15.5 138t47.5 124.5t90.5 93.5t136.5 35q79 0 138.5 -33t94 -89t51.5 -123t17 -143q0 -396 -310 -396zM514 -18q116 0 205.5 48.5t137.5 144.5v-89q0 -39 23 -61.5t68 -22.5q36 0 63 22.5t27 62.5v1258 q0 39 -27 61.5t-63 22.5q-37 0 -64 -22.5t-27 -61.5v-519q-45 91 -130.5 139t-196.5 48q-104 0 -189.5 -39.5t-141 -109t-85.5 -162t-30 -199.5q0 -105 27.5 -198t79.5 -165.5t135.5 -115t187.5 -42.5zM1207 985h43q38 0 53 43l138 403q3 12 3 18q0 35 -37 38h-85 q-64 -2 -73 -56l-66 -403q-1 -3 -1 -12q0 -30 25 -31z" />
<glyph unicode="&#x110;" horiz-adv-x="1505" d="M74 658h469q38 0 60 18t22 48q0 32 -22 50.5t-60 18.5h-466q-38 0 -60.5 -19t-22.5 -50q0 -30 21.5 -48t58.5 -18zM379 163v1108h225q297 0 435 -128t138 -426q0 -141 -28 -241.5t-90.5 -172t-166.5 -106t-254 -34.5h-259zM278 3h350q363 0 561 182.5t198 528.5 q0 351 -196 534.5t-572 183.5h-341q-42 0 -71.5 -28.5t-29.5 -69.5v-1233q0 -41 29.5 -69.5t71.5 -28.5z" />
<glyph unicode="&#x111;" horiz-adv-x="1195" d="M646 1149h504q33 0 50 18t17 47q0 27 -17 45.5t-50 18.5h-504q-33 0 -51 -18.5t-18 -45.5q0 -29 17.5 -47t51.5 -18zM546 106q-78 1 -135.5 37.5t-87.5 96.5t-44 124.5t-14 134.5q0 72 15.5 138t47.5 124.5t90.5 93.5t136.5 35q79 0 138.5 -33t94 -89t51.5 -123t17 -143 q0 -396 -310 -396zM514 -18q116 0 205.5 48.5t137.5 144.5v-89q0 -39 23 -61.5t68 -22.5q36 0 63 22.5t27 62.5v1258q0 39 -27 61.5t-63 22.5q-37 0 -64 -22.5t-27 -61.5v-519q-45 91 -130.5 139t-196.5 48q-104 0 -189.5 -39.5t-141 -109t-85.5 -162t-30 -199.5 q0 -105 27.5 -198t79.5 -165.5t135.5 -115t187.5 -42.5z" />
<glyph unicode="&#x112;" horiz-adv-x="1236" d="M396 1669h504q33 0 50 18t17 47q0 27 -17 45.5t-50 18.5h-504q-33 0 -51 -18.5t-18 -45.5q0 -29 17.5 -47t51.5 -18zM277 0h762q38 0 59 23.5t21 56.5t-21 57t-59 24h-660v495h600q38 0 59.5 23.5t21.5 55.5t-21 55t-60 23h-600v455h634q38 0 59 24t21 57t-21 56.5 t-59 23.5h-741q-40 0 -67.5 -29.5t-27.5 -68.5v-1233q0 -39 30.5 -68.5t69.5 -29.5z" />
<glyph unicode="&#x113;" horiz-adv-x="1135" d="M335 1232h504q33 0 50 18t17 47q0 27 -17 45.5t-50 18.5h-504q-33 0 -51 -18.5t-18 -45.5q0 -29 17.5 -47t51.5 -18zM275 572q5 62 26.5 117.5t58 101t93.5 72.5t127 27q135 0 205 -89t79 -229h-589zM583 -18q224 0 382 142q28 25 28 57q0 25 -16.5 43.5t-40.5 18.5 q-20 0 -38 -14q-72 -55 -143 -87t-160 -32q-141 2 -231 90.5t-92 260.5h686q32 0 48 19t16 48q-3 101 -29 185.5t-78 153t-140 107.5t-205 39q-148 0 -259 -72t-166 -187t-55 -254q0 -158 65.5 -276.5t176.5 -179.5t251 -62z" />
<glyph unicode="&#x114;" horiz-adv-x="1236" d="M648 1638q97 0 168 41t105 116q6 15 6 29q0 23 -16 36.5t-39 13.5q-33 0 -54 -30q-33 -46 -69 -64t-101 -18t-101.5 18t-68.5 64q-21 30 -54 30q-23 0 -39 -13.5t-16 -36.5q0 -14 6 -29q34 -75 105 -116t168 -41zM277 0h762q38 0 59 23.5t21 56.5t-21 57t-59 24h-660v495 h600q38 0 59.5 23.5t21.5 55.5t-21 55t-60 23h-600v455h634q38 0 59 24t21 57t-21 56.5t-59 23.5h-741q-40 0 -67.5 -29.5t-27.5 -68.5v-1233q0 -39 30.5 -68.5t69.5 -29.5z" />
<glyph unicode="&#x115;" horiz-adv-x="1135" d="M275 572q5 62 26.5 117.5t58 101t93.5 72.5t127 27q135 0 205 -89t79 -229h-589zM583 -18q224 0 382 142q28 25 28 57q0 25 -16.5 43.5t-40.5 18.5q-20 0 -38 -14q-72 -55 -143 -87t-160 -32q-141 2 -231 90.5t-92 260.5h686q32 0 48 19t16 48q-3 101 -29 185.5t-78 153 t-140 107.5t-205 39q-148 0 -259 -72t-166 -187t-55 -254q0 -158 65.5 -276.5t176.5 -179.5t251 -62zM587 1201q97 0 168 41t105 116q6 15 6 29q0 23 -16 36.5t-39 13.5q-33 0 -54 -30q-33 -46 -69 -64t-101 -18t-101.5 18t-68.5 64q-21 30 -54 30q-23 0 -39 -13.5 t-16 -36.5q0 -14 6 -29q34 -75 105 -116t168 -41z" />
<glyph unicode="&#x116;" horiz-adv-x="1236" d="M643 1615q53 0 84.5 31t31.5 76q0 42 -32 74t-84 32t-83.5 -32t-31.5 -74q0 -45 31 -76t84 -31zM277 0h762q38 0 59 23.5t21 56.5t-21 57t-59 24h-660v495h600q38 0 59.5 23.5t21.5 55.5t-21 55t-60 23h-600v455h634q38 0 59 24t21 57t-21 56.5t-59 23.5h-741 q-40 0 -67.5 -29.5t-27.5 -68.5v-1233q0 -39 30.5 -68.5t69.5 -29.5z" />
<glyph unicode="&#x117;" horiz-adv-x="1135" d="M275 572q5 62 26.5 117.5t58 101t93.5 72.5t127 27q135 0 205 -89t79 -229h-589zM583 -18q224 0 382 142q28 25 28 57q0 25 -16.5 43.5t-40.5 18.5q-20 0 -38 -14q-72 -55 -143 -87t-160 -32q-141 2 -231 90.5t-92 260.5h686q32 0 48 19t16 48q-3 101 -29 185.5t-78 153 t-140 107.5t-205 39q-148 0 -259 -72t-166 -187t-55 -254q0 -158 65.5 -276.5t176.5 -179.5t251 -62zM582 1178q53 0 84.5 31t31.5 76q0 42 -32 74t-84 32t-83.5 -32t-31.5 -74q0 -45 31 -76t84 -31z" />
<glyph unicode="&#x118;" horiz-adv-x="1236" d="M1011 -410v85q-206 0 -206 143q0 77 62 191h-83q-134 -157 -134 -280q0 -78 54.5 -123t147.5 -45q75 0 159 29zM277 0h762q38 0 59 23.5t21 56.5t-21 57t-59 24h-660v495h600q38 0 59.5 23.5t21.5 55.5t-21 55t-60 23h-600v455h634q38 0 59 24t21 57t-21 56.5t-59 23.5 h-741q-40 0 -67.5 -29.5t-27.5 -68.5v-1233q0 -39 30.5 -68.5t69.5 -29.5z" />
<glyph unicode="&#x119;" horiz-adv-x="1135" d="M944 -392v85q-206 0 -206 143q0 77 62 191h-83q-134 -157 -134 -280q0 -78 54.5 -123t147.5 -45q75 0 159 29zM275 572q5 62 26.5 117.5t58 101t93.5 72.5t127 27q135 0 205 -89t79 -229h-589zM583 -18q224 0 382 142q28 25 28 57q0 25 -16.5 43.5t-40.5 18.5 q-20 0 -38 -14q-72 -55 -143 -87t-160 -32q-141 2 -231 90.5t-92 260.5h686q32 0 48 19t16 48q-3 101 -29 185.5t-78 153t-140 107.5t-205 39q-148 0 -259 -72t-166 -187t-55 -254q0 -158 65.5 -276.5t176.5 -179.5t251 -62z" />
<glyph unicode="&#x11a;" horiz-adv-x="1236" d="M641 1514q51 0 89 52l189 264q17 25 17 47q0 25 -17.5 42t-42.5 17q-35 0 -66 -38l-169 -229l-171 229q-30 38 -67 38q-25 0 -42.5 -16.5t-17.5 -41.5q0 -22 17 -48l190 -264q38 -52 91 -52zM277 0h762q38 0 59 23.5t21 56.5t-21 57t-59 24h-660v495h600q38 0 59.5 23.5 t21.5 55.5t-21 55t-60 23h-600v455h634q38 0 59 24t21 57t-21 56.5t-59 23.5h-741q-40 0 -67.5 -29.5t-27.5 -68.5v-1233q0 -39 30.5 -68.5t69.5 -29.5z" />
<glyph unicode="&#x11b;" horiz-adv-x="1135" d="M275 572q5 62 26.5 117.5t58 101t93.5 72.5t127 27q135 0 205 -89t79 -229h-589zM583 -18q224 0 382 142q28 25 28 57q0 25 -16.5 43.5t-40.5 18.5q-20 0 -38 -14q-72 -55 -143 -87t-160 -32q-141 2 -231 90.5t-92 260.5h686q32 0 48 19t16 48q-3 101 -29 185.5t-78 153 t-140 107.5t-205 39q-148 0 -259 -72t-166 -187t-55 -254q0 -158 65.5 -276.5t176.5 -179.5t251 -62zM580 1077q51 0 89 52l189 264q17 25 17 47q0 25 -17.5 42t-42.5 17q-35 0 -66 -38l-169 -229l-171 229q-30 38 -67 38q-25 0 -42.5 -16.5t-17.5 -41.5q0 -22 17 -48 l190 -264q38 -52 91 -52z" />
<glyph unicode="&#x11c;" horiz-adv-x="1459" d="M610 1543q39 0 69 38l171 229l170 -229q30 -37 67 -37q25 0 42 16t17 40q0 22 -18 48l-189 264q-40 52 -90 52q-52 0 -90 -52l-189 -264q-18 -24 -18 -49q0 -24 16.5 -40t41.5 -16zM807 -22q234 0 457 75q78 25 78 110v500q0 41 -21.5 65.5t-61.5 24.5h-386 q-33 0 -52.5 -24.5t-19.5 -54.5q0 -28 19.5 -52t52.5 -24h267v-415q-155 -43 -315 -43q-125 0 -219.5 42t-152.5 119.5t-87 181.5t-29 234q0 128 30.5 231t91.5 179.5t159 118.5t227 42q135 0 352 -62q10 -2 20 -2q31 0 51.5 26t20.5 58q0 49 -46 69q-176 73 -405 73 q-141 0 -259 -39t-201.5 -107t-141.5 -160.5t-85.5 -200.5t-27.5 -226q0 -180 51 -321.5t142.5 -232t216 -138t274.5 -47.5z" />
<glyph unicode="&#x11d;" horiz-adv-x="1181" d="M569 120q-132 0 -218 96t-86 282q0 111 31 197t101 140.5t172 54.5q64 0 115 -21.5t83.5 -58t54 -87t30.5 -105t9 -116.5q0 -181 -82 -281.5t-210 -100.5zM561 -423q221 0 348.5 108t127.5 321v903q0 40 -25 62.5t-60 22.5q-32 0 -56.5 -19.5t-27.5 -53.5v-101 q-99 193 -332 193q-141 0 -245 -71t-155.5 -187.5t-51.5 -262.5q0 -103 30.5 -192t87 -156t144 -105.5t195.5 -38.5q115 0 197.5 53.5t123.5 144.5v-198q0 -144 -79 -220.5t-234 -76.5q-24 0 -47.5 2t-42 4.5t-41 7.5l-36 8t-35 10t-29.5 10t-28.5 11t-24.5 9q-11 4 -23 4 q-25 0 -42.5 -18.5t-17.5 -43.5q0 -37 38 -58q135 -72 341 -72zM301 1106q39 0 69 38l171 229l170 -229q30 -37 67 -37q25 0 42 16t17 40q0 22 -18 48l-189 264q-40 52 -90 52q-52 0 -90 -52l-189 -264q-18 -24 -18 -49q0 -24 16.5 -40t41.5 -16z" />
<glyph unicode="&#x11e;" horiz-adv-x="1459" d="M857 1628q97 0 168 41t105 116q6 15 6 29q0 23 -16 36.5t-39 13.5q-33 0 -54 -30q-33 -46 -69 -64t-101 -18t-101.5 18t-68.5 64q-21 30 -54 30q-23 0 -39 -13.5t-16 -36.5q0 -14 6 -29q34 -75 105 -116t168 -41zM807 -22q234 0 457 75q78 25 78 110v500q0 41 -21.5 65.5 t-61.5 24.5h-386q-33 0 -52.5 -24.5t-19.5 -54.5q0 -28 19.5 -52t52.5 -24h267v-415q-155 -43 -315 -43q-125 0 -219.5 42t-152.5 119.5t-87 181.5t-29 234q0 128 30.5 231t91.5 179.5t159 118.5t227 42q135 0 352 -62q10 -2 20 -2q31 0 51.5 26t20.5 58q0 49 -46 69 q-176 73 -405 73q-141 0 -259 -39t-201.5 -107t-141.5 -160.5t-85.5 -200.5t-27.5 -226q0 -180 51 -321.5t142.5 -232t216 -138t274.5 -47.5z" />
<glyph unicode="&#x11f;" horiz-adv-x="1181" d="M569 120q-132 0 -218 96t-86 282q0 111 31 197t101 140.5t172 54.5q64 0 115 -21.5t83.5 -58t54 -87t30.5 -105t9 -116.5q0 -181 -82 -281.5t-210 -100.5zM561 -423q221 0 348.5 108t127.5 321v903q0 40 -25 62.5t-60 22.5q-32 0 -56.5 -19.5t-27.5 -53.5v-101 q-99 193 -332 193q-141 0 -245 -71t-155.5 -187.5t-51.5 -262.5q0 -103 30.5 -192t87 -156t144 -105.5t195.5 -38.5q115 0 197.5 53.5t123.5 144.5v-198q0 -144 -79 -220.5t-234 -76.5q-24 0 -47.5 2t-42 4.5t-41 7.5l-36 8t-35 10t-29.5 10t-28.5 11t-24.5 9q-11 4 -23 4 q-25 0 -42.5 -18.5t-17.5 -43.5q0 -37 38 -58q135 -72 341 -72zM548 1191q97 0 168 41t105 116q6 15 6 29q0 23 -16 36.5t-39 13.5q-33 0 -54 -30q-33 -46 -69 -64t-101 -18t-101.5 18t-68.5 64q-21 30 -54 30q-23 0 -39 -13.5t-16 -36.5q0 -14 6 -29q34 -75 105 -116 t168 -41z" />
<glyph unicode="&#x120;" horiz-adv-x="1459" d="M852 1605q53 0 84.5 31t31.5 76q0 42 -32 74t-84 32t-83.5 -32t-31.5 -74q0 -45 31 -76t84 -31zM807 -22q234 0 457 75q78 25 78 110v500q0 41 -21.5 65.5t-61.5 24.5h-386q-33 0 -52.5 -24.5t-19.5 -54.5q0 -28 19.5 -52t52.5 -24h267v-415q-155 -43 -315 -43 q-125 0 -219.5 42t-152.5 119.5t-87 181.5t-29 234q0 128 30.5 231t91.5 179.5t159 118.5t227 42q135 0 352 -62q10 -2 20 -2q31 0 51.5 26t20.5 58q0 49 -46 69q-176 73 -405 73q-141 0 -259 -39t-201.5 -107t-141.5 -160.5t-85.5 -200.5t-27.5 -226q0 -180 51 -321.5 t142.5 -232t216 -138t274.5 -47.5z" />
<glyph unicode="&#x121;" horiz-adv-x="1181" d="M569 120q-132 0 -218 96t-86 282q0 111 31 197t101 140.5t172 54.5q64 0 115 -21.5t83.5 -58t54 -87t30.5 -105t9 -116.5q0 -181 -82 -281.5t-210 -100.5zM561 -423q221 0 348.5 108t127.5 321v903q0 40 -25 62.5t-60 22.5q-32 0 -56.5 -19.5t-27.5 -53.5v-101 q-99 193 -332 193q-141 0 -245 -71t-155.5 -187.5t-51.5 -262.5q0 -103 30.5 -192t87 -156t144 -105.5t195.5 -38.5q115 0 197.5 53.5t123.5 144.5v-198q0 -144 -79 -220.5t-234 -76.5q-24 0 -47.5 2t-42 4.5t-41 7.5l-36 8t-35 10t-29.5 10t-28.5 11t-24.5 9q-11 4 -23 4 q-25 0 -42.5 -18.5t-17.5 -43.5q0 -37 38 -58q135 -72 341 -72zM543 1168q53 0 84.5 31t31.5 76q0 42 -32 74t-84 32t-83.5 -32t-31.5 -74q0 -45 31 -76t84 -31z" />
<glyph unicode="&#x122;" horiz-adv-x="1459" d="M678 -606h43q38 0 53 43l138 403q3 12 3 18q0 35 -37 38h-84q-64 -2 -73 -56l-67 -403q-1 -3 -1 -12q0 -30 25 -31zM807 -22q234 0 457 75q78 25 78 110v500q0 41 -21.5 65.5t-61.5 24.5h-386q-33 0 -52.5 -24.5t-19.5 -54.5q0 -28 19.5 -52t52.5 -24h267v-415 q-155 -43 -315 -43q-125 0 -219.5 42t-152.5 119.5t-87 181.5t-29 234q0 128 30.5 231t91.5 179.5t159 118.5t227 42q135 0 352 -62q10 -2 20 -2q31 0 51.5 26t20.5 58q0 49 -46 69q-176 73 -405 73q-141 0 -259 -39t-201.5 -107t-141.5 -160.5t-85.5 -200.5t-27.5 -226 q0 -180 51 -321.5t142.5 -232t216 -138t274.5 -47.5z" />
<glyph unicode="&#x123;" horiz-adv-x="1181" d="M493 1208h106q64 2 73 56l84 475q1 3 1 12q0 30 -25 31h-56q-38 0 -53 -43l-164 -475q-3 -12 -3 -18q0 -35 37 -38zM569 120q-132 0 -218 96t-86 282q0 111 31 197t101 140.5t172 54.5q64 0 115 -21.5t83.5 -58t54 -87t30.5 -105t9 -116.5q0 -181 -82 -281.5t-210 -100.5 zM561 -423q221 0 348.5 108t127.5 321v903q0 40 -25 62.5t-60 22.5q-32 0 -56.5 -19.5t-27.5 -53.5v-101q-99 193 -332 193q-141 0 -245 -71t-155.5 -187.5t-51.5 -262.5q0 -103 30.5 -192t87 -156t144 -105.5t195.5 -38.5q115 0 197.5 53.5t123.5 144.5v-198 q0 -144 -79 -220.5t-234 -76.5q-24 0 -47.5 2t-42 4.5t-41 7.5l-36 8t-35 10t-29.5 10t-28.5 11t-24.5 9q-11 4 -23 4q-25 0 -42.5 -18.5t-17.5 -43.5q0 -37 38 -58q135 -72 341 -72z" />
<glyph unicode="&#x124;" horiz-adv-x="1477" d="M518 1553q39 0 69 38l171 229l170 -229q30 -37 67 -37q25 0 42 16t17 40q0 22 -18 48l-189 264q-40 52 -90 52q-52 0 -90 -52l-189 -264q-18 -24 -18 -49q0 -24 16.5 -40t41.5 -16zM277 1q42 0 72 25t30 71v564h723v-564q0 -45 29.5 -70.5t70.5 -25.5q42 0 72 25t30 71 v1235q0 46 -30 71.5t-71 25.5t-71 -26t-30 -71v-510h-723v510q0 46 -29.5 71.5t-70.5 25.5q-42 0 -72 -25.5t-30 -71.5v-1235q0 -45 29.5 -70.5t70.5 -25.5z" />
<glyph unicode="&#x125;" horiz-adv-x="1161" d="M241 0q37 0 64.5 23t27.5 63v485q0 147 84 227.5t207 80.5q101 0 158.5 -59t57.5 -178v-556q0 -40 26.5 -63t62.5 -23q37 0 64 23t27 63v546q0 99 -28.5 174t-79 119.5t-113 66t-136.5 21.5q-110 0 -200 -46.5t-130 -128.5v507q0 40 -26.5 61.5t-63.5 21.5t-64 -22 t-27 -61v-1259q0 -40 26.5 -63t62.5 -23zM472 1304q39 0 69 38l171 229l170 -229q30 -37 67 -37q25 0 42 16t17 40q0 22 -18 48l-189 264q-40 52 -90 52q-52 0 -90 -52l-189 -264q-18 -24 -18 -49q0 -24 16.5 -40t41.5 -16z" />
<glyph unicode="&#x126;" horiz-adv-x="1477" d="M118 1023h1243q31 0 49 14.5t18 38.5t-18 39t-49 15h-1243q-30 0 -47.5 -15t-17.5 -39t17.5 -38.5t47.5 -14.5zM277 1q42 0 72 25t30 71v564h723v-564q0 -45 29.5 -70.5t70.5 -25.5q42 0 72 25t30 71v1235q0 46 -30 71.5t-71 25.5t-71 -26t-30 -71v-510h-723v510 q0 46 -29.5 71.5t-70.5 25.5q-42 0 -72 -25.5t-30 -71.5v-1235q0 -45 29.5 -70.5t70.5 -25.5z" />
<glyph unicode="&#x127;" horiz-adv-x="1161" d="M241 0q37 0 64.5 23t27.5 63v485q0 147 84 227.5t207 80.5q101 0 158.5 -59t57.5 -178v-556q0 -40 26.5 -63t62.5 -23q37 0 64 23t27 63v546q0 99 -28.5 174t-79 119.5t-113 66t-136.5 21.5q-110 0 -200 -46.5t-130 -128.5v507q0 40 -26.5 61.5t-63.5 21.5t-64 -22 t-27 -61v-1259q0 -40 26.5 -63t62.5 -23z" />
<glyph unicode="&#x128;" horiz-adv-x="606" d="M554 1784q-24 0 -61 -38t-62 -38q-29 0 -114.5 36t-137.5 36q-133 0 -177 -141q-4 -8 -4 -17q0 -19 12.5 -29.5t31.5 -10.5q34 0 57 32q34 43 76 43q33 0 116.5 -37t127.5 -37q66 0 120.5 43t54.5 106q0 15 -9 20q-2 32 -31 32zM302 1q42 0 72 25t30 71v1236 q0 46 -29.5 71.5t-70.5 25.5t-71.5 -26t-30.5 -71v-1236q0 -45 29.5 -70.5t70.5 -25.5z" />
<glyph unicode="&#x129;" horiz-adv-x="485" d="M488 1337q-24 0 -61 -38t-62 -38q-29 0 -114.5 36t-137.5 36q-133 0 -177 -141q-4 -8 -4 -17q0 -19 12.5 -29.5t31.5 -10.5q34 0 57 32q34 43 76 43q33 0 116.5 -37t127.5 -37q66 0 120.5 43t54.5 106q0 15 -9 20q-2 32 -31 32zM240 0q37 0 65 24t28 67v813q0 42 -27 66 t-63 24q-37 0 -64 -24t-27 -66v-813q0 -44 25.5 -67.5t62.5 -23.5z" />
<glyph unicode="&#x12a;" horiz-adv-x="606" d="M58 1669h504q33 0 50 18t17 47q0 27 -17 45.5t-50 18.5h-504q-33 0 -51 -18.5t-18 -45.5q0 -29 17.5 -47t51.5 -18zM302 1q42 0 72 25t30 71v1236q0 46 -29.5 71.5t-70.5 25.5t-71.5 -26t-30.5 -71v-1236q0 -45 29.5 -70.5t70.5 -25.5z" />
<glyph unicode="&#x12b;" horiz-adv-x="485" d="M-8 1222h504q33 0 50 18t17 47q0 27 -17 45.5t-50 18.5h-504q-33 0 -51 -18.5t-18 -45.5q0 -29 17.5 -47t51.5 -18zM240 0q37 0 65 24t28 67v813q0 42 -27 66t-63 24q-37 0 -64 -24t-27 -66v-813q0 -44 25.5 -67.5t62.5 -23.5z" />
<glyph unicode="&#x12c;" horiz-adv-x="606" d="M310 1638q97 0 168 41t105 116q6 15 6 29q0 23 -16 36.5t-39 13.5q-33 0 -54 -30q-33 -46 -69 -64t-101 -18t-101.5 18t-68.5 64q-21 30 -54 30q-23 0 -39 -13.5t-16 -36.5q0 -14 6 -29q34 -75 105 -116t168 -41zM302 1q42 0 72 25t30 71v1236q0 46 -29.5 71.5 t-70.5 25.5t-71.5 -26t-30.5 -71v-1236q0 -45 29.5 -70.5t70.5 -25.5z" />
<glyph unicode="&#x12d;" horiz-adv-x="485" d="M240 0q37 0 65 24t28 67v813q0 42 -27 66t-63 24q-37 0 -64 -24t-27 -66v-813q0 -44 25.5 -67.5t62.5 -23.5zM243 1191q97 0 168 41t105 116q6 15 6 29q0 23 -16 36.5t-39 13.5q-33 0 -54 -30q-33 -46 -69 -64t-101 -18t-101.5 18t-68.5 64q-21 30 -54 30 q-23 0 -39 -13.5t-16 -36.5q0 -14 6 -29q34 -75 105 -116t168 -41z" />
<glyph unicode="&#x12e;" horiz-adv-x="606" d="M495 -396v85q-206 0 -206 143q0 77 62 191h-83q-134 -157 -134 -280q0 -78 54.5 -123t147.5 -45q75 0 159 29zM302 1q42 0 72 25t30 71v1236q0 46 -29.5 71.5t-70.5 25.5t-71.5 -26t-30.5 -71v-1236q0 -45 29.5 -70.5t70.5 -25.5z" />
<glyph unicode="&#x12f;" horiz-adv-x="485" d="M437 -419v85q-206 0 -206 143q0 77 62 191h-83q-134 -157 -134 -280q0 -78 54.5 -123t147.5 -45q75 0 159 29zM240 0q37 0 65 24t28 67v813q0 42 -27 66t-63 24q-37 0 -64 -24t-27 -66v-813q0 -44 25.5 -67.5t62.5 -23.5zM239 1168q53 0 84.5 31t31.5 76q0 42 -32 74 t-84 32t-83.5 -32t-31.5 -74q0 -45 31 -76t84 -31z" />
<glyph unicode="&#x130;" horiz-adv-x="606" d="M305 1615q53 0 84.5 31t31.5 76q0 42 -32 74t-84 32t-83.5 -32t-31.5 -74q0 -45 31 -76t84 -31zM302 1q42 0 72 25t30 71v1236q0 46 -29.5 71.5t-70.5 25.5t-71.5 -26t-30.5 -71v-1236q0 -45 29.5 -70.5t70.5 -25.5z" />
<glyph unicode="&#x131;" horiz-adv-x="484" d="M240 0q37 0 65 24t28 67v813q0 42 -27 66t-63 24q-37 0 -64 -24t-27 -66v-813q0 -44 25.5 -67.5t62.5 -23.5z" />
<glyph unicode="&#x132;" horiz-adv-x="1632" d="M1033 -25q91 0 169 26t141.5 79.5t100 146t36.5 215.5v892q0 45 -29.5 70t-71.5 25t-72 -25t-30 -70v-877q0 -165 -61.5 -239t-185.5 -74q-106 0 -213 68q-31 23 -60 23q-33 0 -54 -27t-21 -63q0 -45 33 -68q136 -102 318 -102zM302 1q42 0 72 25t30 71v1236 q0 46 -29.5 71.5t-70.5 25.5t-71.5 -26t-30.5 -71v-1236q0 -45 29.5 -70.5t70.5 -25.5z" />
<glyph unicode="&#x133;" horiz-adv-x="1013" d="M758 1225q53 0 85 30.5t32 79.5q0 50 -32 80.5t-84 30.5q-53 0 -85.5 -30.5t-32.5 -80.5q0 -49 32 -79.5t85 -30.5zM522 -378q77 0 131.5 7.5t91.5 28t58 44.5t32.5 68.5t14.5 88t3 114.5v931q0 42 -26.5 66t-62.5 24q-37 0 -64.5 -24t-27.5 -66v-967q0 -43 -1.5 -69.5 t-8.5 -48t-15.5 -32t-28 -17.5t-41 -8.5t-58.5 -1.5q-29 0 -45.5 -20.5t-16.5 -48.5t17 -48.5t48 -20.5zM253 1225q53 0 85 30.5t32 79.5q0 50 -32 80.5t-84 30.5q-53 0 -85.5 -31t-32.5 -80t32 -79.5t85 -30.5zM252 0q37 0 64.5 24.5t27.5 66.5v813q0 42 -26.5 66t-62.5 24 q-37 0 -64.5 -24t-27.5 -66v-813q0 -44 26 -67.5t63 -23.5z" />
<glyph unicode="&#x134;" horiz-adv-x="1027" d="M536 1553q39 0 69 38l171 229l170 -229q30 -37 67 -37q25 0 42 16t17 40q0 22 -18 48l-189 264q-40 52 -90 52q-52 0 -90 -52l-189 -264q-18 -24 -18 -49q0 -24 16.5 -40t41.5 -16zM427 -25q91 0 169 26t141.5 79.5t100 146t36.5 215.5v892q0 45 -29.5 70t-71.5 25 t-72 -25t-30 -70v-877q0 -165 -61.5 -239t-185.5 -74q-106 0 -213 68q-31 23 -60 23q-33 0 -54 -27t-21 -63q0 -45 33 -68q136 -102 318 -102z" />
<glyph unicode="&#x135;" horiz-adv-x="489" d="M-1 -379q60 0 106 4.5t81 15.5t60 24.5t42 37.5t26.5 47.5t15 61.5t7 72.5t1.5 87.5v926q0 46 -25 70.5t-65 24.5t-66.5 -25t-26.5 -71v-955q0 -65 -4.5 -98.5t-23.5 -53.5t-46 -25t-83 -5q-30 0 -47 -20.5t-17 -48.5q0 -29 17 -49.5t48 -20.5zM1 1106q39 0 69 38 l171 229l170 -229q30 -37 67 -37q25 0 42 16t17 40q0 22 -18 48l-189 264q-40 52 -90 52q-52 0 -90 -52l-189 -264q-18 -24 -18 -49q0 -24 16.5 -40t41.5 -16z" />
<glyph unicode="&#x136;" horiz-adv-x="1269" d="M494 -606h43q38 0 53 43l138 403q3 12 3 18q0 35 -37 38h-84q-64 -2 -73 -56l-67 -403q-1 -3 -1 -12q0 -30 25 -31zM276 0q41 0 71.5 25t30.5 70v614l635 -667q39 -42 79 -42t69.5 26.5t29.5 65.5q0 36 -23 60l-583 596l530 542q22 22 22 56q0 35 -27 59t-64 24 q-39 0 -75 -38l-593 -626v568q0 45 -30 70.5t-70 25.5q-41 0 -71 -25.5t-30 -70.5v-1238q0 -45 29 -70t70 -25z" />
<glyph unicode="&#x137;" horiz-adv-x="1004" d="M366 -606h43q38 0 53 43l138 403q3 12 3 18q0 35 -37 38h-84q-64 -2 -73 -56l-67 -403q-1 -3 -1 -12q0 -30 25 -31zM241 0q37 0 64.5 24t27.5 67v436l470 -500q25 -28 60 -28q33 0 58.5 25t25.5 57q0 29 -22 52l-397 418l363 325q24 23 24 51q0 31 -24.5 56t-56.5 25 q-25 0 -47 -19l-454 -416v765q0 42 -26.5 66t-62.5 24q-37 0 -64.5 -24t-27.5 -66v-1247q0 -44 26 -67.5t63 -23.5z" />
<glyph unicode="&#x138;" horiz-adv-x="1002" d="M243 0q37 0 64.5 24t27.5 67v410l471 -474q26 -27 60 -27t59.5 24.5t25.5 56.5q0 29 -24 52l-396 391l362 352q23 23 23 52q0 32 -24 57t-55 25q-27 0 -48 -21l-454 -443v370q0 42 -26.5 66t-62.5 24q-37 0 -64 -23.5t-27 -66.5v-825q0 -44 26 -67.5t62 -23.5z" />
<glyph unicode="&#x139;" horiz-adv-x="1108" d="M356 1615q18 0 43 18l318 248q26 19 26 50q0 35 -30.5 64t-66.5 29q-32 0 -59 -32l-259 -299q-13 -17 -13 -35q0 -19 11.5 -31t29.5 -12zM279 0h729q38 0 59.5 24t21.5 56q0 33 -21 57t-60 24h-629v1171q0 46 -29.5 71.5t-70.5 25.5q-42 0 -72 -25.5t-30 -71.5v-1232 q0 -42 30 -71t72 -29z" />
<glyph unicode="&#x13a;" horiz-adv-x="504" d="M254 0q37 0 64.5 24.5t27.5 66.5v1247q0 42 -26.5 66t-62.5 24q-37 0 -64.5 -24t-27.5 -66v-1247q0 -44 26 -67.5t63 -23.5zM283 1592q18 0 43 18l318 248q26 19 26 50q0 35 -30.5 64t-66.5 29q-32 0 -59 -32l-259 -299q-13 -17 -13 -35q0 -19 11.5 -31t29.5 -12z" />
<glyph unicode="&#x13b;" horiz-adv-x="1108" d="M498 -606h43q38 0 53 43l138 403q3 12 3 18q0 35 -37 38h-84q-64 -2 -73 -56l-67 -403q-1 -3 -1 -12q0 -30 25 -31zM279 0h729q38 0 59.5 24t21.5 56q0 33 -21 57t-60 24h-629v1171q0 46 -29.5 71.5t-70.5 25.5q-42 0 -72 -25.5t-30 -71.5v-1232q0 -42 30 -71t72 -29z " />
<glyph unicode="&#x13c;" horiz-adv-x="504" d="M98 -606h43q38 0 53 43l138 403q3 12 3 18q0 35 -37 38h-84q-64 -2 -73 -56l-67 -403q-1 -3 -1 -12q0 -30 25 -31zM254 0q37 0 64.5 24.5t27.5 66.5v1247q0 42 -26.5 66t-62.5 24q-37 0 -64.5 -24t-27.5 -66v-1247q0 -44 26 -67.5t63 -23.5z" />
<glyph unicode="&#x13d;" horiz-adv-x="1108" d="M749 985h43q38 0 53 43l138 403q3 12 3 18q0 35 -37 38h-85q-64 -2 -73 -56l-66 -403q-1 -3 -1 -12q0 -30 25 -31zM279 0h729q38 0 59.5 24t21.5 56q0 33 -21 57t-60 24h-629v1171q0 46 -29.5 71.5t-70.5 25.5q-42 0 -72 -25.5t-30 -71.5v-1232q0 -42 30 -71t72 -29z" />
<glyph unicode="&#x13e;" horiz-adv-x="504" d="M254 0q37 0 64.5 24.5t27.5 66.5v1247q0 42 -26.5 66t-62.5 24q-37 0 -64.5 -24t-27.5 -66v-1247q0 -44 26 -67.5t63 -23.5zM573 985h43q38 0 53 43l138 403q3 12 3 18q0 35 -37 38h-85q-64 -2 -73 -56l-66 -403q-1 -3 -1 -12q0 -30 25 -31z" />
<glyph unicode="&#x13f;" horiz-adv-x="1108" d="M682 602q53 0 84.5 32t31.5 77q0 44 -32 75.5t-84 31.5q-53 0 -85.5 -32t-32.5 -75q0 -45 32.5 -77t85.5 -32zM279 0h729q38 0 59.5 24t21.5 56q0 33 -21 57t-60 24h-629v1171q0 46 -29.5 71.5t-70.5 25.5q-42 0 -72 -25.5t-30 -71.5v-1232q0 -42 30 -71t72 -29z" />
<glyph unicode="&#x140;" horiz-adv-x="504" d="M598 552q53 0 84.5 32t31.5 77q0 44 -32 75.5t-84 31.5q-53 0 -85.5 -32t-32.5 -75q0 -45 32.5 -77t85.5 -32zM254 0q37 0 64.5 24.5t27.5 66.5v1247q0 42 -26.5 66t-62.5 24q-37 0 -64.5 -24t-27.5 -66v-1247q0 -44 26 -67.5t63 -23.5z" />
<glyph unicode="&#x141;" horiz-adv-x="1157" d="M534 850q29 19 29 53q0 9 -2.5 17.5t-6.5 16.5t-10 15t-12.5 12t-15 7.5t-17.5 2.5q-8 0 -16.5 -2.5t-17.5 -8.5l-86 -55v424q0 46 -29.5 71.5t-70.5 25.5q-42 0 -72 -25.5t-30 -71.5v-552l-101 -64q-32 -21 -32 -58q0 -27 17.5 -47.5t42.5 -20.5q6 0 12 1t12.5 4t12.5 7 l36 23v-525q0 -42 30 -71t72 -29h729q38 0 59.5 24t21.5 56q0 33 -21 57t-60 24h-629v591z" />
<glyph unicode="&#x142;" horiz-adv-x="575" d="M511 839q29 19 29 53q0 10 -3 20.5t-9 19.5t-14 16t-17.5 11t-20.5 4q-8 0 -16.5 -2.5t-17.5 -8.5l-52 -33v419q0 42 -26.5 66t-62.5 24q-37 0 -64.5 -24t-27.5 -66v-536l-103 -66q-32 -21 -32 -58q0 -27 17.5 -47.5t42.5 -20.5q9 0 18.5 3t18.5 9l38 24v-555 q0 -44 26 -67.5t63 -23.5t64.5 24.5t27.5 66.5v671z" />
<glyph unicode="&#x143;" horiz-adv-x="1515" d="M784 1602q18 0 43 18l318 248q26 19 26 50q0 35 -30.5 64t-66.5 29q-32 0 -59 -32l-259 -299q-13 -17 -13 -35q0 -19 11.5 -31t29.5 -12zM268 0q38 0 66 23.5t28 65.5v1037l731 -1060q22 -32 56 -49t68 -17q52 0 87.5 35t35.5 94v1211q0 42 -28 65.5t-65 23.5 q-39 0 -66 -23.5t-27 -65.5v-1050l-728 1060q-27 39 -64.5 59t-72.5 20q-49 0 -81.5 -34.5t-32.5 -94.5v-1211q0 -42 27.5 -65.5t65.5 -23.5z" />
<glyph unicode="&#x144;" d="M241 0q37 0 64.5 23t27.5 63v499q7 141 86 223t194 82q108 0 167.5 -67t59.5 -195v-542q0 -41 26.5 -63.5t63.5 -22.5t63.5 22.5t26.5 63.5v540q0 195 -98 291t-263 96q-115 0 -201.5 -49t-124.5 -140v87q0 39 -26.5 60.5t-63.5 21.5t-64 -22.5t-27 -62.5v-822 q0 -41 26 -63.5t63 -22.5zM599 1153q18 0 43 18l318 248q26 19 26 50q0 35 -30.5 64t-66.5 29q-32 0 -59 -32l-259 -299q-13 -17 -13 -35q0 -19 11.5 -31t29.5 -12z" />
<glyph unicode="&#x145;" horiz-adv-x="1515" d="M619 -606h43q38 0 53 43l138 403q3 12 3 18q0 35 -37 38h-84q-64 -2 -73 -56l-67 -403q-1 -3 -1 -12q0 -30 25 -31zM268 0q38 0 66 23.5t28 65.5v1037l731 -1060q22 -32 56 -49t68 -17q52 0 87.5 35t35.5 94v1211q0 42 -28 65.5t-65 23.5q-39 0 -66 -23.5t-27 -65.5 v-1050l-728 1060q-27 39 -64.5 59t-72.5 20q-49 0 -81.5 -34.5t-32.5 -94.5v-1211q0 -42 27.5 -65.5t65.5 -23.5z" />
<glyph unicode="&#x146;" d="M426 -606h43q38 0 53 43l138 403q3 12 3 18q0 35 -37 38h-84q-64 -2 -73 -56l-67 -403q-1 -3 -1 -12q0 -30 25 -31zM241 0q37 0 64.5 23t27.5 63v499q7 141 86 223t194 82q108 0 167.5 -67t59.5 -195v-542q0 -41 26.5 -63.5t63.5 -22.5t63.5 22.5t26.5 63.5v540 q0 195 -98 291t-263 96q-115 0 -201.5 -49t-124.5 -140v87q0 39 -26.5 60.5t-63.5 21.5t-64 -22.5t-27 -62.5v-822q0 -41 26 -63.5t63 -22.5z" />
<glyph unicode="&#x147;" horiz-adv-x="1515" d="M798 1516q51 0 89 52l189 264q17 25 17 47q0 25 -17.5 42t-42.5 17q-35 0 -66 -38l-169 -229l-171 229q-30 38 -67 38q-25 0 -42.5 -16.5t-17.5 -41.5q0 -22 17 -48l190 -264q38 -52 91 -52zM268 0q38 0 66 23.5t28 65.5v1037l731 -1060q22 -32 56 -49t68 -17 q52 0 87.5 35t35.5 94v1211q0 42 -28 65.5t-65 23.5q-39 0 -66 -23.5t-27 -65.5v-1050l-728 1060q-27 39 -64.5 59t-72.5 20q-49 0 -81.5 -34.5t-32.5 -94.5v-1211q0 -42 27.5 -65.5t65.5 -23.5z" />
<glyph unicode="&#x148;" d="M241 0q37 0 64.5 23t27.5 63v499q7 141 86 223t194 82q108 0 167.5 -67t59.5 -195v-542q0 -41 26.5 -63.5t63.5 -22.5t63.5 22.5t26.5 63.5v540q0 195 -98 291t-263 96q-115 0 -201.5 -49t-124.5 -140v87q0 39 -26.5 60.5t-63.5 21.5t-64 -22.5t-27 -62.5v-822 q0 -41 26 -63.5t63 -22.5zM612 1067q51 0 89 52l189 264q17 25 17 47q0 25 -17.5 42t-42.5 17q-35 0 -66 -38l-169 -229l-171 229q-30 38 -67 38q-25 0 -42.5 -16.5t-17.5 -41.5q0 -22 17 -48l190 -264q38 -52 91 -52z" />
<glyph unicode="&#x149;" d="M165 1163h56q38 0 53 43l164 475q3 12 3 18q0 35 -37 38h-106q-64 -2 -73 -56l-84 -475q-1 -3 -1 -12q0 -30 25 -31zM241 0q37 0 64.5 23t27.5 63v499q7 141 86 223t194 82q108 0 167.5 -67t59.5 -195v-542q0 -41 26.5 -63.5t63.5 -22.5t63.5 22.5t26.5 63.5v540 q0 195 -98 291t-263 96q-115 0 -201.5 -49t-124.5 -140v87q0 39 -26.5 60.5t-63.5 21.5t-64 -22.5t-27 -62.5v-822q0 -41 26 -63.5t63 -22.5z" />
<glyph unicode="&#x14a;" horiz-adv-x="1512" d="M636 -411q187 -42 308 -42q200 0 298.5 115t98.5 387v1291q0 42 -28 65.5t-65 23.5q-39 0 -66 -23.5t-27 -65.5v-1050l-728 1060q-27 39 -64.5 59t-72.5 20q-49 0 -81.5 -34.5t-32.5 -94.5v-1211q0 -42 27.5 -65.5t65.5 -23.5t66 23.5t28 65.5v1037l792 -1133 q0 -161 -49.5 -231t-173.5 -70q-100 0 -268 44q-18 4 -27 4q-35 0 -57 -22.5t-22 -51.5q0 -26 19.5 -47t58.5 -30z" />
<glyph unicode="&#x14b;" horiz-adv-x="1168" d="M399 -290q153 -48 268 -48q169 0 261 102.5t92 315.5v546q0 195 -98 291t-263 96q-115 0 -201.5 -49t-124.5 -140v87q0 39 -26.5 60.5t-63.5 21.5t-64 -22.5t-27 -62.5v-822q0 -41 26 -63.5t63 -22.5t64.5 23t27.5 63v499q7 141 86 223t194 82q108 0 167.5 -67t59.5 -195 v-548q0 -147 -45 -213t-146 -66q-82 0 -219 43q-16 4 -23 4q-28 0 -45.5 -20t-17.5 -48q0 -53 55 -70z" />
<glyph unicode="&#x14c;" horiz-adv-x="1602" d="M549 1671h504q33 0 50 18t17 47q0 27 -17 45.5t-50 18.5h-504q-33 0 -51 -18.5t-18 -45.5q0 -29 17.5 -47t51.5 -18zM800 -22q315 0 495.5 199t180.5 537t-180.5 537t-495.5 199t-496 -199t-181 -537t181 -537t496 -199zM800 140q-219 0 -341 153.5t-122 420.5 t121.5 420.5t341.5 153.5q219 0 340.5 -153.5t121.5 -420.5t-121.5 -420.5t-340.5 -153.5z" />
<glyph unicode="&#x14d;" horiz-adv-x="1161" d="M585 -18q231 0 366 145t135 370q0 227 -135.5 371.5t-365.5 144.5t-365.5 -145t-135.5 -371q0 -225 135.5 -370t365.5 -145zM583 106q-150 0 -234.5 105.5t-84.5 285.5q0 182 85 287.5t236 105.5q150 0 235.5 -106t85.5 -287q0 -182 -84.5 -286.5t-238.5 -104.5z M328 1230h504q33 0 50 18t17 47q0 27 -17 45.5t-50 18.5h-504q-33 0 -51 -18.5t-18 -45.5q0 -29 17.5 -47t51.5 -18z" />
<glyph unicode="&#x14e;" horiz-adv-x="1602" d="M801 1640q97 0 168 41t105 116q6 15 6 29q0 23 -16 36.5t-39 13.5q-33 0 -54 -30q-33 -46 -69 -64t-101 -18t-101.5 18t-68.5 64q-21 30 -54 30q-23 0 -39 -13.5t-16 -36.5q0 -14 6 -29q34 -75 105 -116t168 -41zM800 -22q315 0 495.5 199t180.5 537t-180.5 537 t-495.5 199t-496 -199t-181 -537t181 -537t496 -199zM800 140q-219 0 -341 153.5t-122 420.5t121.5 420.5t341.5 153.5q219 0 340.5 -153.5t121.5 -420.5t-121.5 -420.5t-340.5 -153.5z" />
<glyph unicode="&#x14f;" horiz-adv-x="1161" d="M585 -18q231 0 366 145t135 370q0 227 -135.5 371.5t-365.5 144.5t-365.5 -145t-135.5 -371q0 -225 135.5 -370t365.5 -145zM583 106q-150 0 -234.5 105.5t-84.5 285.5q0 182 85 287.5t236 105.5q150 0 235.5 -106t85.5 -287q0 -182 -84.5 -286.5t-238.5 -104.5z M580 1200q97 0 168 41t105 116q6 15 6 29q0 23 -16 36.5t-39 13.5q-33 0 -54 -30q-33 -46 -69 -64t-101 -18t-101.5 18t-68.5 64q-21 30 -54 30q-23 0 -39 -13.5t-16 -36.5q0 -14 6 -29q34 -75 105 -116t168 -41z" />
<glyph unicode="&#x150;" horiz-adv-x="1602" d="M966 1506q21 0 41 17l321 249q24 18 24 48q0 35 -30.5 64t-66.5 29q-33 0 -56 -29l-264 -304q-12 -13 -12 -33q0 -17 12 -29t31 -12zM635 1506q23 0 43 17l320 249q24 18 24 47q0 35 -30.5 64.5t-66.5 29.5q-32 0 -55 -29l-265 -304q-12 -15 -12 -33q0 -17 12 -29t30 -12 zM800 -22q315 0 495.5 199t180.5 537t-180.5 537t-495.5 199t-496 -199t-181 -537t181 -537t496 -199zM800 140q-219 0 -341 153.5t-122 420.5t121.5 420.5t341.5 153.5q219 0 340.5 -153.5t121.5 -420.5t-121.5 -420.5t-340.5 -153.5z" />
<glyph unicode="&#x151;" horiz-adv-x="1161" d="M585 -18q231 0 366 145t135 370q0 227 -135.5 371.5t-365.5 144.5t-365.5 -145t-135.5 -371q0 -225 135.5 -370t365.5 -145zM583 106q-150 0 -234.5 105.5t-84.5 285.5q0 182 85 287.5t236 105.5q150 0 235.5 -106t85.5 -287q0 -182 -84.5 -286.5t-238.5 -104.5z M745 1066q21 0 41 17l321 249q24 18 24 48q0 35 -30.5 64t-66.5 29q-33 0 -56 -29l-264 -304q-12 -13 -12 -33q0 -17 12 -29t31 -12zM414 1066q23 0 43 17l320 249q24 18 24 47q0 35 -30.5 64.5t-66.5 29.5q-32 0 -55 -29l-265 -304q-12 -15 -12 -33q0 -17 12 -29t30 -12z " />
<glyph unicode="&#x152;" horiz-adv-x="1998" d="M731 126q-104 0 -185 48t-130 131t-74 187t-25 223t25.5 223t74.5 186t130 129.5t184 47.5q202 0 334 -22v-1125q-3 -2 -41 -8t-120 -12.5t-173 -7.5zM722 -28q56 0 143.5 7t153 13.5t67.5 6.5h710q38 0 59 23.5t21 55.5t-21 56t-59 24h-534v497h475q39 0 61 23.5 t22 55.5t-22 56t-61 24h-475v456h509q38 0 60 24t22 56t-22 55.5t-60 23.5h-671q-3 0 -68 6.5t-153 13t-146 6.5q-288 0 -453.5 -200.5t-165.5 -540.5q0 -224 73.5 -391.5t211.5 -259t323 -91.5z" />
<glyph unicode="&#x153;" horiz-adv-x="1840" d="M1031 582q9 133 77 221.5t184 88.5q124 0 192 -84t77 -226h-530zM565 106q-61 0 -110.5 23t-83 61t-56.5 89t-33 105.5t-10 111.5q0 74 17 141.5t50.5 124.5t92 91.5t133.5 34.5t132 -35t89.5 -93t48.5 -126t16 -142q-1 -72 -18 -138.5t-50 -123t-89.5 -90.5t-128.5 -34z M1287 -30q150 0 271 60t121 134q0 24 -14.5 40t-37.5 16q-19 0 -39 -13q-132 -95 -258 -95q-79 0 -137.5 26.5t-93 75t-51.5 110t-18 137.5h641q32 0 48.5 19.5t16.5 46.5q-3 108 -30 196.5t-79.5 157t-137 106t-194.5 37.5q-120 0 -211 -59t-146 -160q-58 101 -152 159 t-221 58q-95 0 -175.5 -28.5t-136.5 -78.5t-95 -117t-57.5 -143.5t-18.5 -158.5q0 -102 30 -194.5t88 -166.5t152.5 -118t212.5 -44q126 0 219 59.5t151 162.5q52 -105 141.5 -165t210.5 -60z" />
<glyph unicode="&#x154;" horiz-adv-x="1362" d="M670 1600q18 0 43 18l318 248q26 19 26 50q0 35 -30.5 64t-66.5 29q-32 0 -59 -32l-259 -299q-13 -17 -13 -35q0 -19 11.5 -31t29.5 -12zM379 809v460h318q43 0 74 -2t72 -8.5t69.5 -21t54.5 -37.5t39.5 -61t13.5 -88q0 -61 -20 -105.5t-51.5 -70.5t-79.5 -41t-94 -20 t-105 -5h-291zM277 1q41 0 71.5 25t30.5 71v557h334q80 0 127 -11.5t78.5 -45.5t45.5 -85t24 -142l31 -279q4 -43 36.5 -66.5t72.5 -23.5q39 0 67 25t28 65q0 9 -1 14l-36 314q-31 270 -266 321v4q150 28 226 115t76 211q0 86 -29.5 151.5t-76.5 104t-116 62.5t-137.5 32.5 t-150.5 8.5h-434q-42 0 -71.5 -28.5t-29.5 -69.5v-1234q0 -46 29.5 -71t70.5 -25z" />
<glyph unicode="&#x155;" horiz-adv-x="730" d="M243 0q37 0 64.5 22t27.5 62v515q0 117 74.5 187t209.5 70q32 0 49 21.5t17 51.5q0 32 -18.5 56t-50.5 24q-106 0 -181.5 -62.5t-100.5 -155.5l1 120q0 38 -26.5 59.5t-63.5 21.5t-64 -21.5t-27 -61.5v-825q0 -40 26 -62t63 -22zM357 1163q18 0 43 18l318 248 q26 19 26 50q0 35 -30.5 64t-66.5 29q-32 0 -59 -32l-259 -299q-13 -17 -13 -35q0 -19 11.5 -31t29.5 -12z" />
<glyph unicode="&#x156;" horiz-adv-x="1362" d="M549 -606h43q38 0 53 43l138 403q3 12 3 18q0 35 -37 38h-84q-64 -2 -73 -56l-67 -403q-1 -3 -1 -12q0 -30 25 -31zM379 809v460h318q43 0 74 -2t72 -8.5t69.5 -21t54.5 -37.5t39.5 -61t13.5 -88q0 -61 -20 -105.5t-51.5 -70.5t-79.5 -41t-94 -20t-105 -5h-291zM277 1 q41 0 71.5 25t30.5 71v557h334q80 0 127 -11.5t78.5 -45.5t45.5 -85t24 -142l31 -279q4 -43 36.5 -66.5t72.5 -23.5q39 0 67 25t28 65q0 9 -1 14l-36 314q-31 270 -266 321v4q150 28 226 115t76 211q0 86 -29.5 151.5t-76.5 104t-116 62.5t-137.5 32.5t-150.5 8.5h-434 q-42 0 -71.5 -28.5t-29.5 -69.5v-1234q0 -46 29.5 -71t70.5 -25z" />
<glyph unicode="&#x157;" horiz-adv-x="730" d="M83 -606h43q38 0 53 43l138 403q3 12 3 18q0 35 -37 38h-84q-64 -2 -73 -56l-67 -403q-1 -3 -1 -12q0 -30 25 -31zM243 0q37 0 64.5 22t27.5 62v515q0 117 74.5 187t209.5 70q32 0 49 21.5t17 51.5q0 32 -18.5 56t-50.5 24q-106 0 -181.5 -62.5t-100.5 -155.5l1 120 q0 38 -26.5 59.5t-63.5 21.5t-64 -21.5t-27 -61.5v-825q0 -40 26 -62t63 -22z" />
<glyph unicode="&#x158;" horiz-adv-x="1362" d="M684 1514q51 0 89 52l189 264q17 25 17 47q0 25 -17.5 42t-42.5 17q-35 0 -66 -38l-169 -229l-171 229q-30 38 -67 38q-25 0 -42.5 -16.5t-17.5 -41.5q0 -22 17 -48l190 -264q38 -52 91 -52zM379 809v460h318q43 0 74 -2t72 -8.5t69.5 -21t54.5 -37.5t39.5 -61t13.5 -88 q0 -61 -20 -105.5t-51.5 -70.5t-79.5 -41t-94 -20t-105 -5h-291zM277 1q41 0 71.5 25t30.5 71v557h334q80 0 127 -11.5t78.5 -45.5t45.5 -85t24 -142l31 -279q4 -43 36.5 -66.5t72.5 -23.5q39 0 67 25t28 65q0 9 -1 14l-36 314q-31 270 -266 321v4q150 28 226 115t76 211 q0 86 -29.5 151.5t-76.5 104t-116 62.5t-137.5 32.5t-150.5 8.5h-434q-42 0 -71.5 -28.5t-29.5 -69.5v-1234q0 -46 29.5 -71t70.5 -25z" />
<glyph unicode="&#x159;" horiz-adv-x="730" d="M243 0q37 0 64.5 22t27.5 62v515q0 117 74.5 187t209.5 70q32 0 49 21.5t17 51.5q0 32 -18.5 56t-50.5 24q-106 0 -181.5 -62.5t-100.5 -155.5l1 120q0 38 -26.5 59.5t-63.5 21.5t-64 -21.5t-27 -61.5v-825q0 -40 26 -62t63 -22zM371 1077q51 0 89 52l189 264 q17 25 17 47q0 25 -17.5 42t-42.5 17q-35 0 -66 -38l-169 -229l-171 229q-30 38 -67 38q-25 0 -42.5 -16.5t-17.5 -41.5q0 -22 17 -48l190 -264q38 -52 91 -52z" />
<glyph unicode="&#x15a;" horiz-adv-x="1282" d="M629 1600q18 0 43 18l318 248q26 19 26 50q0 35 -30.5 64t-66.5 29q-32 0 -59 -32l-259 -299q-13 -17 -13 -35q0 -19 11.5 -31t29.5 -12zM636 -22q248 0 392.5 109t144.5 305q0 81 -24.5 143t-74 106.5t-110 75.5t-147.5 59l-288 93q-102 34 -148.5 80.5t-46.5 124.5 q0 104 90 159t240 55q105 0 197.5 -33.5t153.5 -73.5q21 -14 44 -14q32 0 55 25t23 56q0 30 -23 50q-68 61 -196.5 106.5t-269.5 45.5q-144 0 -258.5 -45t-182 -133t-67.5 -204q0 -144 78 -226t237 -136l287 -96q64 -22 104 -41t71.5 -47t45 -65.5t13.5 -90.5 q0 -110 -92.5 -168t-238.5 -58q-224 0 -394 132q-11 8 -25 8q-31 0 -61.5 -34t-30.5 -66q0 -19 12 -30q185 -172 490 -172z" />
<glyph unicode="&#x15b;" horiz-adv-x="1006" d="M145 90q60 -44 160.5 -76.5t207.5 -32.5q115 0 202 31.5t140.5 101.5t53.5 172q0 108 -64.5 177.5t-215.5 106.5l-173 43q-109 27 -142 51.5t-33 84.5q0 74 64 108.5t172 34.5q34 0 67 -4.5t65 -13t50.5 -14.5t48 -17.5t32.5 -12.5q16 -6 31 -6q26 0 41.5 16.5t15.5 39.5 q0 39 -39 59q-54 29 -139.5 52.5t-182.5 23.5q-81 0 -150 -15.5t-124.5 -47t-87.5 -85.5t-32 -125q0 -45 9 -80t29 -61t43 -44.5t61.5 -34.5t72 -26t87.5 -24l177 -44q88 -22 126 -58t38 -96q0 -84 -67.5 -127.5t-177.5 -43.5q-153 1 -290 86q-22 14 -46 14q-26 0 -43 -17.5 t-17 -41.5q0 -33 30 -54zM469 1164q18 0 43 18l318 248q26 19 26 50q0 35 -30.5 64t-66.5 29q-32 0 -59 -32l-259 -299q-13 -17 -13 -35q0 -19 11.5 -31t29.5 -12z" />
<glyph unicode="&#x15c;" horiz-adv-x="1282" d="M403 1553q39 0 69 38l171 229l170 -229q30 -37 67 -37q25 0 42 16t17 40q0 22 -18 48l-189 264q-40 52 -90 52q-52 0 -90 -52l-189 -264q-18 -24 -18 -49q0 -24 16.5 -40t41.5 -16zM636 -22q248 0 392.5 109t144.5 305q0 81 -24.5 143t-74 106.5t-110 75.5t-147.5 59 l-288 93q-102 34 -148.5 80.5t-46.5 124.5q0 104 90 159t240 55q105 0 197.5 -33.5t153.5 -73.5q21 -14 44 -14q32 0 55 25t23 56q0 30 -23 50q-68 61 -196.5 106.5t-269.5 45.5q-144 0 -258.5 -45t-182 -133t-67.5 -204q0 -144 78 -226t237 -136l287 -96q64 -22 104 -41 t71.5 -47t45 -65.5t13.5 -90.5q0 -110 -92.5 -168t-238.5 -58q-224 0 -394 132q-11 8 -25 8q-31 0 -61.5 -34t-30.5 -66q0 -19 12 -30q185 -172 490 -172z" />
<glyph unicode="&#x15d;" horiz-adv-x="1006" d="M145 90q60 -44 160.5 -76.5t207.5 -32.5q115 0 202 31.5t140.5 101.5t53.5 172q0 108 -64.5 177.5t-215.5 106.5l-173 43q-109 27 -142 51.5t-33 84.5q0 74 64 108.5t172 34.5q34 0 67 -4.5t65 -13t50.5 -14.5t48 -17.5t32.5 -12.5q16 -6 31 -6q26 0 41.5 16.5t15.5 39.5 q0 39 -39 59q-54 29 -139.5 52.5t-182.5 23.5q-81 0 -150 -15.5t-124.5 -47t-87.5 -85.5t-32 -125q0 -45 9 -80t29 -61t43 -44.5t61.5 -34.5t72 -26t87.5 -24l177 -44q88 -22 126 -58t38 -96q0 -84 -67.5 -127.5t-177.5 -43.5q-153 1 -290 86q-22 14 -46 14q-26 0 -43 -17.5 t-17 -41.5q0 -33 30 -54zM243 1117q39 0 69 38l171 229l170 -229q30 -37 67 -37q25 0 42 16t17 40q0 22 -18 48l-189 264q-40 52 -90 52q-52 0 -90 -52l-189 -264q-18 -24 -18 -49q0 -24 16.5 -40t41.5 -16z" />
<glyph unicode="&#x15e;" horiz-adv-x="1282" d="M656 -392q80 0 139 39.5t59 111.5q0 144 -183 146q-8 0 -32 -2l36 113h-66l-47 -132q-3 -10 -3 -19q0 -31 38 -31q2 0 8 0.5t8 0.5q45 0 76.5 -17.5t31.5 -54.5q0 -41 -21.5 -61.5t-73.5 -20.5q-62 0 -161 35q-8 2 -12 2q-13 0 -21 -10.5t-8 -24.5q0 -32 72 -53.5 t160 -21.5zM636 -22q248 0 392.5 109t144.5 305q0 81 -24.5 143t-74 106.5t-110 75.5t-147.5 59l-288 93q-102 34 -148.5 80.5t-46.5 124.5q0 104 90 159t240 55q105 0 197.5 -33.5t153.5 -73.5q21 -14 44 -14q32 0 55 25t23 56q0 30 -23 50q-68 61 -196.5 106.5 t-269.5 45.5q-144 0 -258.5 -45t-182 -133t-67.5 -204q0 -144 78 -226t237 -136l287 -96q64 -22 104 -41t71.5 -47t45 -65.5t13.5 -90.5q0 -110 -92.5 -168t-238.5 -58q-224 0 -394 132q-11 8 -25 8q-31 0 -61.5 -34t-30.5 -66q0 -19 12 -30q185 -172 490 -172z" />
<glyph unicode="&#x15f;" horiz-adv-x="1006" d="M145 90q60 -44 160.5 -76.5t207.5 -32.5q115 0 202 31.5t140.5 101.5t53.5 172q0 108 -64.5 177.5t-215.5 106.5l-173 43q-109 27 -142 51.5t-33 84.5q0 74 64 108.5t172 34.5q34 0 67 -4.5t65 -13t50.5 -14.5t48 -17.5t32.5 -12.5q16 -6 31 -6q26 0 41.5 16.5t15.5 39.5 q0 39 -39 59q-54 29 -139.5 52.5t-182.5 23.5q-81 0 -150 -15.5t-124.5 -47t-87.5 -85.5t-32 -125q0 -45 9 -80t29 -61t43 -44.5t61.5 -34.5t72 -26t87.5 -24l177 -44q88 -22 126 -58t38 -96q0 -84 -67.5 -127.5t-177.5 -43.5q-153 1 -290 86q-22 14 -46 14q-26 0 -43 -17.5 t-17 -41.5q0 -33 30 -54zM524 -400q80 0 139 39.5t59 111.5q0 144 -183 146q-8 0 -32 -2l36 113h-66l-47 -132q-3 -10 -3 -19q0 -31 38 -31q2 0 8 0.5t8 0.5q45 0 76.5 -17.5t31.5 -54.5q0 -41 -21.5 -61.5t-73.5 -20.5q-62 0 -161 35q-8 2 -12 2q-13 0 -21 -10.5t-8 -24.5 q0 -32 72 -53.5t160 -21.5z" />
<glyph unicode="&#x160;" horiz-adv-x="1282" d="M642 1514q51 0 89 52l189 264q17 25 17 47q0 25 -17.5 42t-42.5 17q-35 0 -66 -38l-169 -229l-171 229q-30 38 -67 38q-25 0 -42.5 -16.5t-17.5 -41.5q0 -22 17 -48l190 -264q38 -52 91 -52zM636 -22q248 0 392.5 109t144.5 305q0 81 -24.5 143t-74 106.5t-110 75.5 t-147.5 59l-288 93q-102 34 -148.5 80.5t-46.5 124.5q0 104 90 159t240 55q105 0 197.5 -33.5t153.5 -73.5q21 -14 44 -14q32 0 55 25t23 56q0 30 -23 50q-68 61 -196.5 106.5t-269.5 45.5q-144 0 -258.5 -45t-182 -133t-67.5 -204q0 -144 78 -226t237 -136l287 -96 q64 -22 104 -41t71.5 -47t45 -65.5t13.5 -90.5q0 -110 -92.5 -168t-238.5 -58q-224 0 -394 132q-11 8 -25 8q-31 0 -61.5 -34t-30.5 -66q0 -19 12 -30q185 -172 490 -172z" />
<glyph unicode="&#x161;" horiz-adv-x="893" d="M145 90q60 -44 160.5 -76.5t207.5 -32.5q115 0 202 31.5t140.5 101.5t53.5 172q0 108 -64.5 177.5t-215.5 106.5l-173 43q-109 27 -142 51.5t-33 84.5q0 74 64 108.5t172 34.5q34 0 67 -4.5t65 -13t50.5 -14.5t48 -17.5t32.5 -12.5q16 -6 31 -6q26 0 41.5 16.5t15.5 39.5 q0 39 -39 59q-54 29 -139.5 52.5t-182.5 23.5q-81 0 -150 -15.5t-124.5 -47t-87.5 -85.5t-32 -125q0 -45 9 -80t29 -61t43 -44.5t61.5 -34.5t72 -26t87.5 -24l177 -44q88 -22 126 -58t38 -96q0 -84 -67.5 -127.5t-177.5 -43.5q-153 1 -290 86q-22 14 -46 14q-26 0 -43 -17.5 t-17 -41.5q0 -33 30 -54zM490 1077q51 0 89 52l189 264q17 25 17 47q0 25 -17.5 42t-42.5 17q-35 0 -66 -38l-169 -229l-171 229q-30 38 -67 38q-25 0 -42.5 -16.5t-17.5 -41.5q0 -22 17 -48l190 -264q38 -52 91 -52z" />
<glyph unicode="&#x162;" horiz-adv-x="1167" d="M600 -392q80 0 139 39.5t59 111.5q0 144 -183 146q-8 0 -32 -2l36 113h-66l-47 -132q-3 -10 -3 -19q0 -31 38 -31q2 0 8 0.5t8 0.5q45 0 76.5 -17.5t31.5 -54.5q0 -41 -21.5 -61.5t-73.5 -20.5q-62 0 -161 35q-8 2 -12 2q-13 0 -21 -10.5t-8 -24.5q0 -32 72 -53.5 t160 -21.5zM587 0q41 0 71 26t30 71v1171h372q39 0 61 24t22 57t-21.5 56.5t-61.5 23.5h-951q-39 0 -61 -24t-22 -56q0 -33 22 -57t61 -24h377v-1171q0 -45 30 -71t71 -26z" />
<glyph unicode="&#x163;" horiz-adv-x="742" d="M475 -14h59q36 0 58.5 2t45 9t33.5 22.5t11 40.5q0 28 -19 49t-52 21h-6l-68 -3h-11q-63 0 -92 45.5t-29 148.5v545h184q66 0 66 57q0 27 -16.5 44t-49.5 17h-184v290q0 35 -20 53.5t-50 18.5q-32 0 -58.5 -23t-28.5 -55l-24 -284h-123q-33 0 -50 -16.5t-17 -42.5 q0 -27 17.5 -43t50.5 -16h122v-576q0 -155 68 -229.5t183 -74.5zM460 -392q80 0 139 39.5t59 111.5q0 144 -183 146q-8 0 -32 -2l36 113h-66l-47 -132q-3 -10 -3 -19q0 -31 38 -31q2 0 8 0.5t8 0.5q45 0 76.5 -17.5t31.5 -54.5q0 -41 -21.5 -61.5t-73.5 -20.5q-62 0 -161 35 q-8 2 -12 2q-13 0 -21 -10.5t-8 -24.5q0 -32 72 -53.5t160 -21.5z" />
<glyph unicode="&#x164;" horiz-adv-x="1167" d="M593 1516q51 0 89 52l189 264q17 25 17 47q0 25 -17.5 42t-42.5 17q-35 0 -66 -38l-169 -229l-171 229q-30 38 -67 38q-25 0 -42.5 -16.5t-17.5 -41.5q0 -22 17 -48l190 -264q38 -52 91 -52zM587 0q41 0 71 26t30 71v1171h372q39 0 61 24t22 57t-21.5 56.5t-61.5 23.5 h-951q-39 0 -61 -24t-22 -56q0 -33 22 -57t61 -24h377v-1171q0 -45 30 -71t71 -26z" />
<glyph unicode="&#x165;" horiz-adv-x="742" d="M475 -14h59q36 0 58.5 2t45 9t33.5 22.5t11 40.5q0 28 -19 49t-52 21h-6l-68 -3h-11q-63 0 -92 45.5t-29 148.5v545h184q66 0 66 57q0 27 -16.5 44t-49.5 17h-184v290q0 35 -20 53.5t-50 18.5q-32 0 -58.5 -23t-28.5 -55l-24 -284h-123q-33 0 -50 -16.5t-17 -42.5 q0 -27 17.5 -43t50.5 -16h122v-576q0 -155 68 -229.5t183 -74.5zM628 1027h43q38 0 53 43l138 403q3 12 3 18q0 35 -37 38h-85q-64 -2 -73 -56l-66 -403q-1 -3 -1 -12q0 -30 25 -31z" />
<glyph unicode="&#x166;" horiz-adv-x="1167" d="M337 695h504q33 0 50 18t17 47q0 27 -17 45.5t-50 18.5h-504q-33 0 -51 -18.5t-18 -45.5q0 -29 17.5 -47t51.5 -18zM587 0q41 0 71 26t30 71v1171h372q39 0 61 24t22 57t-21.5 56.5t-61.5 23.5h-951q-39 0 -61 -24t-22 -56q0 -33 22 -57t61 -24h377v-1171q0 -45 30 -71 t71 -26z" />
<glyph unicode="&#x167;" horiz-adv-x="742" d="M475 -14h59q36 0 58.5 2t45 9t33.5 22.5t11 40.5q0 28 -19 49t-52 21h-6l-68 -3h-11q-63 0 -92 45.5t-29 148.5v545h184q66 0 66 57q0 27 -16.5 44t-49.5 17h-184v290q0 35 -20 53.5t-50 18.5q-32 0 -58.5 -23t-28.5 -55l-24 -284h-123q-33 0 -50 -16.5t-17 -42.5 q0 -27 17.5 -43t50.5 -16h122v-576q0 -155 68 -229.5t183 -74.5zM99 519h504q33 0 50 18t17 47q0 27 -17 45.5t-50 18.5h-504q-33 0 -51 -18.5t-18 -45.5q0 -29 17.5 -47t51.5 -18z" />
<glyph unicode="&#x168;" horiz-adv-x="1495" d="M1002 1784q-24 0 -61 -38t-62 -38q-29 0 -114.5 36t-137.5 36q-133 0 -177 -141q-4 -8 -4 -17q0 -19 12.5 -29.5t31.5 -10.5q34 0 57 32q34 43 76 43q33 0 116.5 -37t127.5 -37q66 0 120.5 43t54.5 106q0 15 -9 20q-2 32 -31 32zM748 -22q91 0 173.5 20t154.5 62 t124.5 102.5t83 146t30.5 188.5v837q0 46 -29.5 72t-70.5 26q-42 0 -72 -26t-30 -72v-832q0 -90 -31 -161t-83 -114t-116 -65t-134 -22t-133.5 22t-115 65t-82.5 114t-31 161v832q0 46 -30 72t-71 26q-42 0 -72 -26t-30 -72v-837q0 -127 46 -228t125 -163.5t179.5 -95 t214.5 -32.5z" />
<glyph unicode="&#x169;" d="M502 -18q115 0 202 49t125 140v-89q0 -39 26 -60.5t63 -21.5t64 22.5t27 62.5v823q0 41 -26 63.5t-63 22.5t-64 -23t-27 -63v-497q-7 -142 -87 -223.5t-196 -81.5q-108 0 -166 66.5t-58 194.5v541q0 41 -26.5 63.5t-63.5 22.5t-64 -22.5t-27 -63.5v-539 q0 -194 98.5 -290.5t262.5 -96.5zM818 1346q-24 0 -61 -38t-62 -38q-29 0 -114.5 36t-137.5 36q-133 0 -177 -141q-4 -8 -4 -17q0 -19 12.5 -29.5t31.5 -10.5q34 0 57 32q34 43 76 43q33 0 116.5 -37t127.5 -37q66 0 120.5 43t54.5 106q0 15 -9 20q-2 32 -31 32z" />
<glyph unicode="&#x16a;" horiz-adv-x="1495" d="M506 1669h504q33 0 50 18t17 47q0 27 -17 45.5t-50 18.5h-504q-33 0 -51 -18.5t-18 -45.5q0 -29 17.5 -47t51.5 -18zM748 -22q91 0 173.5 20t154.5 62t124.5 102.5t83 146t30.5 188.5v837q0 46 -29.5 72t-70.5 26q-42 0 -72 -26t-30 -72v-832q0 -90 -31 -161t-83 -114 t-116 -65t-134 -22t-133.5 22t-115 65t-82.5 114t-31 161v832q0 46 -30 72t-71 26q-42 0 -72 -26t-30 -72v-837q0 -127 46 -228t125 -163.5t179.5 -95t214.5 -32.5z" />
<glyph unicode="&#x16b;" d="M502 -18q115 0 202 49t125 140v-89q0 -39 26 -60.5t63 -21.5t64 22.5t27 62.5v823q0 41 -26 63.5t-63 22.5t-64 -23t-27 -63v-497q-7 -142 -87 -223.5t-196 -81.5q-108 0 -166 66.5t-58 194.5v541q0 41 -26.5 63.5t-63.5 22.5t-64 -22.5t-27 -63.5v-539 q0 -194 98.5 -290.5t262.5 -96.5zM322 1230h504q33 0 50 18t17 47q0 27 -17 45.5t-50 18.5h-504q-33 0 -51 -18.5t-18 -45.5q0 -29 17.5 -47t51.5 -18z" />
<glyph unicode="&#x16c;" horiz-adv-x="1495" d="M758 1638q97 0 168 41t105 116q6 15 6 29q0 23 -16 36.5t-39 13.5q-33 0 -54 -30q-33 -46 -69 -64t-101 -18t-101.5 18t-68.5 64q-21 30 -54 30q-23 0 -39 -13.5t-16 -36.5q0 -14 6 -29q34 -75 105 -116t168 -41zM748 -22q91 0 173.5 20t154.5 62t124.5 102.5t83 146 t30.5 188.5v837q0 46 -29.5 72t-70.5 26q-42 0 -72 -26t-30 -72v-832q0 -90 -31 -161t-83 -114t-116 -65t-134 -22t-133.5 22t-115 65t-82.5 114t-31 161v832q0 46 -30 72t-71 26q-42 0 -72 -26t-30 -72v-837q0 -127 46 -228t125 -163.5t179.5 -95t214.5 -32.5z" />
<glyph unicode="&#x16d;" d="M502 -18q115 0 202 49t125 140v-89q0 -39 26 -60.5t63 -21.5t64 22.5t27 62.5v823q0 41 -26 63.5t-63 22.5t-64 -23t-27 -63v-497q-7 -142 -87 -223.5t-196 -81.5q-108 0 -166 66.5t-58 194.5v541q0 41 -26.5 63.5t-63.5 22.5t-64 -22.5t-27 -63.5v-539 q0 -194 98.5 -290.5t262.5 -96.5zM573 1200q97 0 168 41t105 116q6 15 6 29q0 23 -16 36.5t-39 13.5q-33 0 -54 -30q-33 -46 -69 -64t-101 -18t-101.5 18t-68.5 64q-21 30 -54 30q-23 0 -39 -13.5t-16 -36.5q0 -14 6 -29q34 -75 105 -116t168 -41z" />
<glyph unicode="&#x16e;" horiz-adv-x="1495" d="M758 1582q88 0 141 52t53 137t-53 136t-141 51t-141.5 -51t-53.5 -136q0 -86 53.5 -137.5t141.5 -51.5zM758 1666q-50 0 -79.5 28.5t-29.5 76.5q0 47 30 76t79 29t79 -29t30 -76q0 -48 -29.5 -76.5t-79.5 -28.5zM748 -22q91 0 173.5 20t154.5 62t124.5 102.5t83 146 t30.5 188.5v837q0 46 -29.5 72t-70.5 26q-42 0 -72 -26t-30 -72v-832q0 -90 -31 -161t-83 -114t-116 -65t-134 -22t-133.5 22t-115 65t-82.5 114t-31 161v832q0 46 -30 72t-71 26q-42 0 -72 -26t-30 -72v-837q0 -127 46 -228t125 -163.5t179.5 -95t214.5 -32.5z" />
<glyph unicode="&#x16f;" d="M502 -18q115 0 202 49t125 140v-89q0 -39 26 -60.5t63 -21.5t64 22.5t27 62.5v823q0 41 -26 63.5t-63 22.5t-64 -23t-27 -63v-497q-7 -142 -87 -223.5t-196 -81.5q-108 0 -166 66.5t-58 194.5v541q0 41 -26.5 63.5t-63.5 22.5t-64 -22.5t-27 -63.5v-539 q0 -194 98.5 -290.5t262.5 -96.5zM574 1144q88 0 141 52t53 137t-53 136t-141 51t-141.5 -51t-53.5 -136q0 -86 53.5 -137.5t141.5 -51.5zM574 1228q-50 0 -79.5 28.5t-29.5 76.5q0 47 30 76t79 29t79 -29t30 -76q0 -48 -29.5 -76.5t-79.5 -28.5z" />
<glyph unicode="&#x170;" horiz-adv-x="1495" d="M923 1504q21 0 41 17l321 249q24 18 24 48q0 35 -30.5 64t-66.5 29q-33 0 -56 -29l-264 -304q-12 -13 -12 -33q0 -17 12 -29t31 -12zM592 1504q23 0 43 17l320 249q24 18 24 47q0 35 -30.5 64.5t-66.5 29.5q-32 0 -55 -29l-265 -304q-12 -15 -12 -33q0 -17 12 -29t30 -12 zM748 -22q91 0 173.5 20t154.5 62t124.5 102.5t83 146t30.5 188.5v837q0 46 -29.5 72t-70.5 26q-42 0 -72 -26t-30 -72v-832q0 -90 -31 -161t-83 -114t-116 -65t-134 -22t-133.5 22t-115 65t-82.5 114t-31 161v832q0 46 -30 72t-71 26q-42 0 -72 -26t-30 -72v-837 q0 -127 46 -228t125 -163.5t179.5 -95t214.5 -32.5z" />
<glyph unicode="&#x171;" d="M502 -18q115 0 202 49t125 140v-89q0 -39 26 -60.5t63 -21.5t64 22.5t27 62.5v823q0 41 -26 63.5t-63 22.5t-64 -23t-27 -63v-497q-7 -142 -87 -223.5t-196 -81.5q-108 0 -166 66.5t-58 194.5v541q0 41 -26.5 63.5t-63.5 22.5t-64 -22.5t-27 -63.5v-539 q0 -194 98.5 -290.5t262.5 -96.5zM739 1066q21 0 41 17l321 249q24 18 24 48q0 35 -30.5 64t-66.5 29q-33 0 -56 -29l-264 -304q-12 -13 -12 -33q0 -17 12 -29t31 -12zM408 1066q23 0 43 17l320 249q24 18 24 47q0 35 -30.5 64.5t-66.5 29.5q-32 0 -55 -29l-265 -304 q-12 -15 -12 -33q0 -17 12 -29t30 -12z" />
<glyph unicode="&#x172;" horiz-adv-x="1495" d="M1064 -410v85q-206 0 -206 143q0 77 62 191h-83q-134 -157 -134 -280q0 -78 54.5 -123t147.5 -45q75 0 159 29zM748 -22q91 0 173.5 20t154.5 62t124.5 102.5t83 146t30.5 188.5v837q0 46 -29.5 72t-70.5 26q-42 0 -72 -26t-30 -72v-832q0 -90 -31 -161t-83 -114 t-116 -65t-134 -22t-133.5 22t-115 65t-82.5 114t-31 161v832q0 46 -30 72t-71 26q-42 0 -72 -26t-30 -72v-837q0 -127 46 -228t125 -163.5t179.5 -95t214.5 -32.5z" />
<glyph unicode="&#x173;" d="M502 -18q115 0 202 49t125 140v-89q0 -39 26 -60.5t63 -21.5t64 22.5t27 62.5v823q0 41 -26 63.5t-63 22.5t-64 -23t-27 -63v-497q-7 -142 -87 -223.5t-196 -81.5q-108 0 -166 66.5t-58 194.5v541q0 41 -26.5 63.5t-63.5 22.5t-64 -22.5t-27 -63.5v-539 q0 -194 98.5 -290.5t262.5 -96.5zM1111 -400v85q-206 0 -206 143q0 77 62 191h-83q-134 -157 -134 -280q0 -78 54.5 -123t147.5 -45q75 0 159 29z" />
<glyph unicode="&#x174;" horiz-adv-x="2135" d="M815 1553q39 0 69 38l171 229l170 -229q30 -37 67 -37q25 0 42 16t17 40q0 22 -18 48l-189 264q-40 52 -90 52q-52 0 -90 -52l-189 -264q-18 -24 -18 -49q0 -24 16.5 -40t41.5 -16zM1711 110l327 1201q4 15 4 30q0 41 -30 66t-69 25q-32 0 -58 -18t-35 -51l-299 -1167 l-359 1110q-25 75 -57 99.5t-84 24.5q-50 0 -83.5 -26.5t-56.5 -97.5l-359 -1110l-299 1167q-9 33 -35 51t-58 18q-39 0 -69 -25t-30 -66q0 -15 4 -30l327 -1201q15 -55 56 -84.5t91 -29.5t93 29.5t61 82.5l358 1092l359 -1092q18 -54 60 -83t92 -29q51 0 93 30t56 84z" />
<glyph unicode="&#x175;" horiz-adv-x="1706" d="M1241 0q84 0 118 100l273 782q6 16 6 32q0 35 -25.5 56.5t-58.5 21.5q-60 0 -79 -59l-248 -741l-248 702q-35 100 -121 100q-85 0 -120 -100l-248 -702l-248 741q-19 59 -79 59q-33 0 -58.5 -21.5t-25.5 -56.5q0 -16 6 -32l273 -782q34 -100 118 -100q88 0 128 110 l254 712l255 -712q39 -110 128 -110zM615 1118q39 0 69 38l171 229l170 -229q30 -37 67 -37q25 0 42 16t17 40q0 22 -18 48l-189 264q-40 52 -90 52q-52 0 -90 -52l-189 -264q-18 -24 -18 -49q0 -24 16.5 -40t41.5 -16z" />
<glyph unicode="&#x176;" horiz-adv-x="1285" d="M421 1553q39 0 69 38l171 229l170 -229q30 -37 67 -37q25 0 42 16t17 40q0 22 -18 48l-189 264q-40 52 -90 52q-52 0 -90 -52l-189 -264q-18 -24 -18 -49q0 -24 16.5 -40t41.5 -16zM541 98q0 -46 30 -71.5t72 -25.5q41 0 71 25.5t30 70.5v506l454 700q15 23 15 48 q0 32 -25.5 55t-59.5 23q-48 0 -78 -47l-396 -627l-394 624q-30 48 -82 48q-40 0 -71.5 -27t-31.5 -64q0 -25 14 -46l452 -694v-498z" />
<glyph unicode="&#x177;" horiz-adv-x="1040" d="M438 -341l578 1219q7 17 7 34q0 34 -26.5 58.5t-61.5 24.5q-52 0 -79 -55l-306 -648l-304 645q-25 53 -78 53q-35 0 -62.5 -24t-27.5 -60q0 -22 9 -40l372 -767l-179 -379q-9 -20 -9 -38q0 -34 26 -56.5t60 -22.5q54 0 81 56zM319 1120q39 0 69 38l171 229l170 -229 q30 -37 67 -37q25 0 42 16t17 40q0 22 -18 48l-189 264q-40 52 -90 52q-52 0 -90 -52l-189 -264q-18 -24 -18 -49q0 -24 16.5 -40t41.5 -16z" />
<glyph unicode="&#x178;" horiz-adv-x="1285" d="M861 1601q49 0 79 30t30 72q0 41 -30 70.5t-79 29.5q-50 0 -80.5 -30t-30.5 -70q0 -42 30.5 -72t80.5 -30zM471 1601q50 0 80 30t30 72q0 40 -30 70t-80 30q-49 0 -79 -30t-30 -70q0 -42 30 -72t79 -30zM541 98q0 -46 30 -71.5t72 -25.5q41 0 71 25.5t30 70.5v506 l454 700q15 23 15 48q0 32 -25.5 55t-59.5 23q-48 0 -78 -47l-396 -627l-394 624q-30 48 -82 48q-40 0 -71.5 -27t-31.5 -64q0 -25 14 -46l452 -694v-498z" />
<glyph unicode="&#x179;" horiz-adv-x="1175" d="M616 1600q18 0 43 18l318 248q26 19 26 50q0 35 -30.5 64t-66.5 29q-32 0 -59 -32l-259 -299q-13 -17 -13 -35q0 -19 11.5 -31t29.5 -12zM208 0h825q39 0 60 24t21 57t-21 56.5t-60 23.5h-705l770 1106q25 37 25 73q0 39 -27 64t-71 25h-841q-38 0 -59 -23.5t-21 -55.5 q0 -33 21 -57.5t59 -24.5h702l-770 -1105q-22 -33 -22 -68q0 -40 29 -67.5t85 -27.5z" />
<glyph unicode="&#x17a;" horiz-adv-x="942" d="M173 0h604q35 0 54 21t19 50q0 28 -19 49t-54 21h-482l535 705q26 35 26 69q0 35 -25.5 57t-72.5 22h-591q-34 0 -53 -21t-19 -50q0 -28 19 -48.5t53 -20.5h472l-534 -706q-24 -31 -24 -66t25 -58.5t67 -23.5zM454 1163q18 0 43 18l318 248q26 19 26 50q0 35 -30.5 64 t-66.5 29q-32 0 -59 -32l-259 -299q-13 -17 -13 -35q0 -19 11.5 -31t29.5 -12z" />
<glyph unicode="&#x17b;" horiz-adv-x="1175" d="M632 1615q53 0 84.5 31t31.5 76q0 42 -32 74t-84 32t-83.5 -32t-31.5 -74q0 -45 31 -76t84 -31zM208 0h825q39 0 60 24t21 57t-21 56.5t-60 23.5h-705l770 1106q25 37 25 73q0 39 -27 64t-71 25h-841q-38 0 -59 -23.5t-21 -55.5q0 -33 21 -57.5t59 -24.5h702l-770 -1105 q-22 -33 -22 -68q0 -40 29 -67.5t85 -27.5z" />
<glyph unicode="&#x17c;" horiz-adv-x="942" d="M173 0h604q35 0 54 21t19 50q0 28 -19 49t-54 21h-482l535 705q26 35 26 69q0 35 -25.5 57t-72.5 22h-591q-34 0 -53 -21t-19 -50q0 -28 19 -48.5t53 -20.5h472l-534 -706q-24 -31 -24 -66t25 -58.5t67 -23.5zM470 1178q53 0 84.5 31t31.5 76q0 42 -32 74t-84 32 t-83.5 -32t-31.5 -74q0 -45 31 -76t84 -31z" />
<glyph unicode="&#x17d;" horiz-adv-x="1175" d="M630 1514q51 0 89 52l189 264q17 25 17 47q0 25 -17.5 42t-42.5 17q-35 0 -66 -38l-169 -229l-171 229q-30 38 -67 38q-25 0 -42.5 -16.5t-17.5 -41.5q0 -22 17 -48l190 -264q38 -52 91 -52zM208 0h825q39 0 60 24t21 57t-21 56.5t-60 23.5h-705l770 1106q25 37 25 73 q0 39 -27 64t-71 25h-841q-38 0 -59 -23.5t-21 -55.5q0 -33 21 -57.5t59 -24.5h702l-770 -1105q-22 -33 -22 -68q0 -40 29 -67.5t85 -27.5z" />
<glyph unicode="&#x17e;" horiz-adv-x="942" d="M173 0h604q35 0 54 21t19 50q0 28 -19 49t-54 21h-482l535 705q26 35 26 69q0 35 -25.5 57t-72.5 22h-591q-34 0 -53 -21t-19 -50q0 -28 19 -48.5t53 -20.5h472l-534 -706q-24 -31 -24 -66t25 -58.5t67 -23.5zM468 1077q51 0 89 52l189 264q17 25 17 47q0 25 -17.5 42 t-42.5 17q-35 0 -66 -38l-169 -229l-171 229q-30 38 -67 38q-25 0 -42.5 -16.5t-17.5 -41.5q0 -22 17 -48l190 -264q38 -52 91 -52z" />
<glyph unicode="&#x192;" horiz-adv-x="1186" d="M58 -537q51 0 95.5 13t94 48.5t91 93t81.5 152.5t70 220q35 145 94.5 428.5t78.5 370.5h200q36 0 56 23t20 54t-20 54t-56 23h-169q55 261 123 373t169 112q49 0 75.5 20t26.5 47q0 25 -22 42.5t-63 17.5q-166 0 -287 -147.5t-179 -464.5h-180q-36 0 -56.5 -22.5 t-20.5 -53.5q0 -32 20.5 -55t56.5 -23h149q-7 -30 -70.5 -338t-99.5 -459q-94 -389 -266 -394q-46 -1 -73 -24t-27 -51q0 -26 22 -43t66 -17z" />
<glyph unicode="&#x1c4;" horiz-adv-x="2680" d="M2135 1514q51 0 89 52l189 264q17 25 17 47q0 25 -17.5 42t-42.5 17q-35 0 -66 -38l-169 -229l-171 229q-30 38 -67 38q-25 0 -42.5 -16.5t-17.5 -41.5q0 -22 17 -48l190 -264q38 -52 91 -52zM1713 0h825q39 0 60 24t21 57t-21 56.5t-60 23.5h-705l770 1106q25 37 25 73 q0 39 -27 64t-71 25h-841q-38 0 -59 -23.5t-21 -55.5q0 -33 21 -57.5t59 -24.5h702l-770 -1105q-22 -33 -22 -68q0 -40 29 -67.5t85 -27.5zM379 163v1108h225q297 0 435 -128t138 -426q0 -141 -28 -241.5t-90.5 -172t-166.5 -106t-254 -34.5h-259zM278 3h350 q363 0 561 182.5t198 528.5q0 351 -196 534.5t-572 183.5h-341q-42 0 -71.5 -28.5t-29.5 -69.5v-1233q0 -41 29.5 -69.5t71.5 -28.5z" />
<glyph unicode="&#x1c5;" horiz-adv-x="2447" d="M1678 0h604q35 0 54 21t19 50q0 28 -19 49t-54 21h-482l535 705q26 35 26 69q0 35 -25.5 57t-72.5 22h-591q-34 0 -53 -21t-19 -50q0 -28 19 -48.5t53 -20.5h472l-534 -706q-24 -31 -24 -66t25 -58.5t67 -23.5zM1973 1077q51 0 89 52l189 264q17 25 17 47q0 25 -17.5 42 t-42.5 17q-35 0 -66 -38l-169 -229l-171 229q-30 38 -67 38q-25 0 -42.5 -16.5t-17.5 -41.5q0 -22 17 -48l190 -264q38 -52 91 -52zM379 163v1108h225q297 0 435 -128t138 -426q0 -141 -28 -241.5t-90.5 -172t-166.5 -106t-254 -34.5h-259zM278 3h350q363 0 561 182.5 t198 528.5q0 351 -196 534.5t-572 183.5h-341q-42 0 -71.5 -28.5t-29.5 -69.5v-1233q0 -41 29.5 -69.5t71.5 -28.5z" />
<glyph unicode="&#x1c6;" horiz-adv-x="2137" d="M1368 0h604q35 0 54 21t19 50q0 28 -19 49t-54 21h-482l535 705q26 35 26 69q0 35 -25.5 57t-72.5 22h-591q-34 0 -53 -21t-19 -50q0 -28 19 -48.5t53 -20.5h472l-534 -706q-24 -31 -24 -66t25 -58.5t67 -23.5zM546 106q-78 1 -135.5 37.5t-87.5 96.5t-44 124.5 t-14 134.5q0 72 15.5 138t47.5 124.5t90.5 93.5t136.5 35q79 0 138.5 -33t94 -89t51.5 -123t17 -143q0 -396 -310 -396zM514 -18q116 0 205.5 48.5t137.5 144.5v-89q0 -39 23 -61.5t68 -22.5q36 0 63 22.5t27 62.5v1258q0 39 -27 61.5t-63 22.5q-37 0 -64 -22.5t-27 -61.5 v-519q-45 91 -130.5 139t-196.5 48q-104 0 -189.5 -39.5t-141 -109t-85.5 -162t-30 -199.5q0 -105 27.5 -198t79.5 -165.5t135.5 -115t187.5 -42.5zM1663 1077q51 0 89 52l189 264q17 25 17 47q0 25 -17.5 42t-42.5 17q-35 0 -66 -38l-169 -229l-171 229q-30 38 -67 38 q-25 0 -42.5 -16.5t-17.5 -41.5q0 -22 17 -48l190 -264q38 -52 91 -52z" />
<glyph unicode="&#x1c7;" horiz-adv-x="2135" d="M279 0h729q38 0 59.5 24t21.5 56q0 33 -21 57t-60 24h-629v1171q0 46 -29.5 71.5t-70.5 25.5q-42 0 -72 -25.5t-30 -71.5v-1232q0 -42 30 -71t72 -29zM1535 -25q91 0 169 26t141.5 79.5t100 146t36.5 215.5v892q0 45 -29.5 70t-71.5 25t-72 -25t-30 -70v-877 q0 -165 -61.5 -239t-185.5 -74q-106 0 -213 68q-31 23 -60 23q-33 0 -54 -27t-21 -63q0 -45 33 -68q136 -102 318 -102z" />
<glyph unicode="&#x1c8;" horiz-adv-x="1619" d="M1364 1225q53 0 85 30.5t32 79.5q0 50 -32 80.5t-84 30.5q-53 0 -85.5 -30.5t-32.5 -80.5q0 -49 32 -79.5t85 -30.5zM1128 -378q77 0 131.5 7.5t91.5 28t58 44.5t32.5 68.5t14.5 88t3 114.5v931q0 42 -26.5 66t-62.5 24q-37 0 -64.5 -24t-27.5 -66v-967q0 -43 -1.5 -69.5 t-8.5 -48t-15.5 -32t-28 -17.5t-41 -8.5t-58.5 -1.5q-29 0 -45.5 -20.5t-16.5 -48.5t17 -48.5t48 -20.5zM279 0h729q38 0 59.5 24t21.5 56q0 33 -21 57t-60 24h-629v1171q0 46 -29.5 71.5t-70.5 25.5q-42 0 -72 -25.5t-30 -71.5v-1232q0 -42 30 -71t72 -29z" />
<glyph unicode="&#x1c9;" horiz-adv-x="1015" d="M254 0q37 0 64.5 24.5t27.5 66.5v1247q0 42 -26.5 66t-62.5 24q-37 0 -64.5 -24t-27.5 -66v-1247q0 -44 26 -67.5t63 -23.5zM760 1225q53 0 85 30.5t32 79.5q0 50 -32 80.5t-84 30.5q-53 0 -85.5 -30.5t-32.5 -80.5q0 -49 32 -79.5t85 -30.5zM524 -378q77 0 131.5 7.5 t91.5 28t58 44.5t32.5 68.5t14.5 88t3 114.5v931q0 42 -26.5 66t-62.5 24q-37 0 -64.5 -24t-27.5 -66v-967q0 -43 -1.5 -69.5t-8.5 -48t-15.5 -32t-28 -17.5t-41 -8.5t-58.5 -1.5q-29 0 -45.5 -20.5t-16.5 -48.5t17 -48.5t48 -20.5z" />
<glyph unicode="&#x1ca;" horiz-adv-x="2541" d="M268 0q38 0 66 23.5t28 65.5v1037l731 -1060q22 -32 56 -49t68 -17q52 0 87.5 35t35.5 94v1211q0 42 -28 65.5t-65 23.5q-39 0 -66 -23.5t-27 -65.5v-1050l-728 1060q-27 39 -64.5 59t-72.5 20q-49 0 -81.5 -34.5t-32.5 -94.5v-1211q0 -42 27.5 -65.5t65.5 -23.5z M1942 -25q91 0 169 26t141.5 79.5t100 146t36.5 215.5v892q0 45 -29.5 70t-71.5 25t-72 -25t-30 -70v-877q0 -165 -61.5 -239t-185.5 -74q-106 0 -213 68q-31 23 -60 23q-33 0 -54 -27t-21 -63q0 -45 33 -68q136 -102 318 -102z" />
<glyph unicode="&#x1cb;" horiz-adv-x="2025" d="M1771 1225q53 0 85 30.5t32 79.5q0 50 -32 80.5t-84 30.5q-53 0 -85.5 -30.5t-32.5 -80.5q0 -49 32 -79.5t85 -30.5zM1535 -378q77 0 131.5 7.5t91.5 28t58 44.5t32.5 68.5t14.5 88t3 114.5v931q0 42 -26.5 66t-62.5 24q-37 0 -64.5 -24t-27.5 -66v-967q0 -43 -1.5 -69.5 t-8.5 -48t-15.5 -32t-28 -17.5t-41 -8.5t-58.5 -1.5q-29 0 -45.5 -20.5t-16.5 -48.5t17 -48.5t48 -20.5zM268 0q38 0 66 23.5t28 65.5v1037l731 -1060q22 -32 56 -49t68 -17q52 0 87.5 35t35.5 94v1211q0 42 -28 65.5t-65 23.5q-39 0 -66 -23.5t-27 -65.5v-1050l-728 1060 q-27 39 -64.5 59t-72.5 20q-49 0 -81.5 -34.5t-32.5 -94.5v-1211q0 -42 27.5 -65.5t65.5 -23.5z" />
<glyph unicode="&#x1cc;" horiz-adv-x="1674" d="M241 0q37 0 64.5 23t27.5 63v499q7 141 86 223t194 82q108 0 167.5 -67t59.5 -195v-542q0 -41 26.5 -63.5t63.5 -22.5t63.5 22.5t26.5 63.5v540q0 195 -98 291t-263 96q-115 0 -201.5 -49t-124.5 -140v87q0 39 -26.5 60.5t-63.5 21.5t-64 -22.5t-27 -62.5v-822 q0 -41 26 -63.5t63 -22.5zM1419 1225q53 0 85 30.5t32 79.5q0 50 -32 80.5t-84 30.5q-53 0 -85.5 -30.5t-32.5 -80.5q0 -49 32 -79.5t85 -30.5zM1183 -378q77 0 131.5 7.5t91.5 28t58 44.5t32.5 68.5t14.5 88t3 114.5v931q0 42 -26.5 66t-62.5 24q-37 0 -64.5 -24t-27.5 -66 v-967q0 -43 -1.5 -69.5t-8.5 -48t-15.5 -32t-28 -17.5t-41 -8.5t-58.5 -1.5q-29 0 -45.5 -20.5t-16.5 -48.5t17 -48.5t48 -20.5z" />
<glyph unicode="&#x1cd;" horiz-adv-x="1424" d="M704 1514q51 0 89 52l189 264q17 25 17 47q0 25 -17.5 42t-42.5 17q-35 0 -66 -38l-169 -229l-171 229q-30 38 -67 38q-25 0 -42.5 -16.5t-17.5 -41.5q0 -22 17 -48l190 -264q38 -52 91 -52zM1176 60q25 -66 92 -66q39 0 70 25t31 63q0 16 -8 37l-475 1179 q-34 85 -73.5 112.5t-98.5 27.5t-98.5 -27.5t-73.5 -112.5l-475 -1179q-8 -21 -8 -37q0 -38 30.5 -63t69.5 -25q68 0 93 66l118 304h688zM1001 509h-574l287 739z" />
<glyph unicode="&#x1ce;" horiz-adv-x="1051" d="M507 1068q51 0 89 52l189 264q17 25 17 47q0 25 -17.5 42t-42.5 17q-35 0 -66 -38l-169 -229l-171 229q-30 38 -67 38q-25 0 -42.5 -16.5t-17.5 -41.5q0 -22 17 -48l190 -264q38 -52 91 -52zM440 102q-93 0 -147 42.5t-54 133.5q0 50 14.5 82t44.5 54.5t90 34t138 16 t202 4.5v-30q0 -147 -86.5 -242t-201.5 -95zM421 -18q215 0 308 195v-96q0 -39 25.5 -60.5t61.5 -21.5t63.5 22.5t27.5 61.5v583q0 177 -103.5 262t-286.5 85q-214 0 -369 -87q-28 -16 -28 -46q0 -26 19 -47.5t45 -21.5q14 0 24 5q51 23 86 36t96 26t122 13q102 0 159 -51 t57 -158v-109q-111 0 -189.5 -3t-152.5 -10.5t-122 -22t-88 -37t-62 -55t-34 -75.5t-12 -100q0 -138 98 -213t255 -75z" />
<glyph unicode="&#x1cf;" horiz-adv-x="606" d="M303 1514q51 0 89 52l189 264q17 25 17 47q0 25 -17.5 42t-42.5 17q-35 0 -66 -38l-169 -229l-171 229q-30 38 -67 38q-25 0 -42.5 -16.5t-17.5 -41.5q0 -22 17 -48l190 -264q38 -52 91 -52zM302 1q42 0 72 25t30 71v1236q0 46 -29.5 71.5t-70.5 25.5t-71.5 -26 t-30.5 -71v-1236q0 -45 29.5 -70.5t70.5 -25.5z" />
<glyph unicode="&#x1d0;" horiz-adv-x="485" d="M240 0q37 0 65 24t28 67v813q0 42 -27 66t-63 24q-37 0 -64 -24t-27 -66v-813q0 -44 25.5 -67.5t62.5 -23.5zM236 1067q51 0 89 52l189 264q17 25 17 47q0 25 -17.5 42t-42.5 17q-35 0 -66 -38l-169 -229l-171 229q-30 38 -67 38q-25 0 -42.5 -16.5t-17.5 -41.5 q0 -22 17 -48l190 -264q38 -52 91 -52z" />
<glyph unicode="&#x1d1;" horiz-adv-x="1602" d="M794 1516q51 0 89 52l189 264q17 25 17 47q0 25 -17.5 42t-42.5 17q-35 0 -66 -38l-169 -229l-171 229q-30 38 -67 38q-25 0 -42.5 -16.5t-17.5 -41.5q0 -22 17 -48l190 -264q38 -52 91 -52zM800 -22q315 0 495.5 199t180.5 537t-180.5 537t-495.5 199t-496 -199 t-181 -537t181 -537t496 -199zM800 140q-219 0 -341 153.5t-122 420.5t121.5 420.5t341.5 153.5q219 0 340.5 -153.5t121.5 -420.5t-121.5 -420.5t-340.5 -153.5z" />
<glyph unicode="&#x1d2;" horiz-adv-x="1161" d="M585 -18q231 0 366 145t135 370q0 227 -135.5 371.5t-365.5 144.5t-365.5 -145t-135.5 -371q0 -225 135.5 -370t365.5 -145zM583 106q-150 0 -234.5 105.5t-84.5 285.5q0 182 85 287.5t236 105.5q150 0 235.5 -106t85.5 -287q0 -182 -84.5 -286.5t-238.5 -104.5z M573 1076q51 0 89 52l189 264q17 25 17 47q0 25 -17.5 42t-42.5 17q-35 0 -66 -38l-169 -229l-171 229q-30 38 -67 38q-25 0 -42.5 -16.5t-17.5 -41.5q0 -22 17 -48l190 -264q38 -52 91 -52z" />
<glyph unicode="&#x1d3;" horiz-adv-x="1495" d="M751 1514q51 0 89 52l189 264q17 25 17 47q0 25 -17.5 42t-42.5 17q-35 0 -66 -38l-169 -229l-171 229q-30 38 -67 38q-25 0 -42.5 -16.5t-17.5 -41.5q0 -22 17 -48l190 -264q38 -52 91 -52zM748 -22q91 0 173.5 20t154.5 62t124.5 102.5t83 146t30.5 188.5v837 q0 46 -29.5 72t-70.5 26q-42 0 -72 -26t-30 -72v-832q0 -90 -31 -161t-83 -114t-116 -65t-134 -22t-133.5 22t-115 65t-82.5 114t-31 161v832q0 46 -30 72t-71 26q-42 0 -72 -26t-30 -72v-837q0 -127 46 -228t125 -163.5t179.5 -95t214.5 -32.5z" />
<glyph unicode="&#x1d4;" d="M502 -18q115 0 202 49t125 140v-89q0 -39 26 -60.5t63 -21.5t64 22.5t27 62.5v823q0 41 -26 63.5t-63 22.5t-64 -23t-27 -63v-497q-7 -142 -87 -223.5t-196 -81.5q-108 0 -166 66.5t-58 194.5v541q0 41 -26.5 63.5t-63.5 22.5t-64 -22.5t-27 -63.5v-539 q0 -194 98.5 -290.5t262.5 -96.5zM566 1076q51 0 89 52l189 264q17 25 17 47q0 25 -17.5 42t-42.5 17q-35 0 -66 -38l-169 -229l-171 229q-30 38 -67 38q-25 0 -42.5 -16.5t-17.5 -41.5q0 -22 17 -48l190 -264q38 -52 91 -52z" />
<glyph unicode="&#x1e2;" horiz-adv-x="1967" d="M1035 1684h504q33 0 50 18t17 47q0 27 -17 45.5t-50 18.5h-504q-33 0 -51 -18.5t-18 -45.5q0 -29 17.5 -47t51.5 -18zM509 512l454 776h3l118 -776h-575zM1255 0h595q36 1 54.5 21.5t18.5 49.5q0 34 -24.5 61.5t-64.5 27.5h-498l-81 495h545q35 0 54 20.5t19 50.5 q0 35 -24 61.5t-65 26.5h-552l-72 456h673q35 0 53.5 20.5t18.5 49.5q0 35 -24.5 62t-64.5 27h-821q-64 0 -112 -32.5t-102 -131.5l-713 -1143q-15 -30 -15 -47q0 -34 24 -55t60 -21q65 0 97 63l194 305h674l52 -305q9 -62 101 -62z" />
<glyph unicode="&#x1e3;" horiz-adv-x="1710" d="M609 1222h504q33 0 50 18t17 47q0 27 -17 45.5t-50 18.5h-504q-33 0 -51 -18.5t-18 -45.5q0 -29 17.5 -47t51.5 -18zM921 582q10 134 77.5 222t183.5 88q117 0 180 -83.5t72 -226.5h-513zM454 100q-92 2 -150 48.5t-58 134.5q0 32 9 59t24 47t39 35t47.5 25t57.5 17.5 t61 11t65.5 5.5t64.5 2.5t63 1t57 1.5v-90q-5 -143 -82 -219.5t-198 -78.5zM421 -27q124 0 234 55t163 166q52 -104 139 -162.5t206 -58.5q96 0 190 27.5t152.5 72.5t58.5 91q0 24 -14.5 40t-36.5 16q-18 0 -40 -13q-139 -95 -266 -95q-76 0 -132.5 26.5t-89.5 75t-49.5 110 t-17.5 137.5h621q32 0 49 19.5t17 46.5q-3 108 -29.5 196t-77 156t-131.5 105.5t-187 37.5q-211 0 -334 -176q-75 176 -323 176q-258 0 -375 -131q-18 -20 -18 -41q0 -24 18 -42.5t43 -18.5q19 0 34 10q49 28 82 43t88.5 27.5t120.5 12.5q105 0 162 -45t57 -150v-78 q-15 0 -53.5 1t-55.5 2q-558 0 -558 -336q0 -141 98 -222t255 -81z" />
<glyph unicode="&#x1e6;" horiz-adv-x="1459" d="M850 1504q51 0 89 52l189 264q17 25 17 47q0 25 -17.5 42t-42.5 17q-35 0 -66 -38l-169 -229l-171 229q-30 38 -67 38q-25 0 -42.5 -16.5t-17.5 -41.5q0 -22 17 -48l190 -264q38 -52 91 -52zM807 -22q234 0 457 75q78 25 78 110v500q0 41 -21.5 65.5t-61.5 24.5h-386 q-33 0 -52.5 -24.5t-19.5 -54.5q0 -28 19.5 -52t52.5 -24h267v-415q-155 -43 -315 -43q-125 0 -219.5 42t-152.5 119.5t-87 181.5t-29 234q0 128 30.5 231t91.5 179.5t159 118.5t227 42q135 0 352 -62q10 -2 20 -2q31 0 51.5 26t20.5 58q0 49 -46 69q-176 73 -405 73 q-141 0 -259 -39t-201.5 -107t-141.5 -160.5t-85.5 -200.5t-27.5 -226q0 -180 51 -321.5t142.5 -232t216 -138t274.5 -47.5z" />
<glyph unicode="&#x1e7;" horiz-adv-x="1181" d="M569 120q-132 0 -218 96t-86 282q0 111 31 197t101 140.5t172 54.5q64 0 115 -21.5t83.5 -58t54 -87t30.5 -105t9 -116.5q0 -181 -82 -281.5t-210 -100.5zM561 -423q221 0 348.5 108t127.5 321v903q0 40 -25 62.5t-60 22.5q-32 0 -56.5 -19.5t-27.5 -53.5v-101 q-99 193 -332 193q-141 0 -245 -71t-155.5 -187.5t-51.5 -262.5q0 -103 30.5 -192t87 -156t144 -105.5t195.5 -38.5q115 0 197.5 53.5t123.5 144.5v-198q0 -144 -79 -220.5t-234 -76.5q-24 0 -47.5 2t-42 4.5t-41 7.5l-36 8t-35 10t-29.5 10t-28.5 11t-24.5 9q-11 4 -23 4 q-25 0 -42.5 -18.5t-17.5 -43.5q0 -37 38 -58q135 -72 341 -72zM541 1067q51 0 89 52l189 264q17 25 17 47q0 25 -17.5 42t-42.5 17q-35 0 -66 -38l-169 -229l-171 229q-30 38 -67 38q-25 0 -42.5 -16.5t-17.5 -41.5q0 -22 17 -48l190 -264q38 -52 91 -52z" />
<glyph unicode="&#x1e8;" horiz-adv-x="1269" d="M640 1514q51 0 89 52l189 264q17 25 17 47q0 25 -17.5 42t-42.5 17q-35 0 -66 -38l-169 -229l-171 229q-30 38 -67 38q-25 0 -42.5 -16.5t-17.5 -41.5q0 -22 17 -48l190 -264q38 -52 91 -52zM276 0q41 0 71.5 25t30.5 70v614l635 -667q39 -42 79 -42t69.5 26.5t29.5 65.5 q0 36 -23 60l-583 596l530 542q22 22 22 56q0 35 -27 59t-64 24q-39 0 -75 -38l-593 -626v568q0 45 -30 70.5t-70 25.5q-41 0 -71 -25.5t-30 -70.5v-1238q0 -45 29 -70t70 -25z" />
<glyph unicode="&#x1e9;" horiz-adv-x="1004" d="M241 0q37 0 64.5 24t27.5 67v436l470 -500q25 -28 60 -28q33 0 58.5 25t25.5 57q0 29 -22 52l-397 418l363 325q24 23 24 51q0 31 -24.5 56t-56.5 25q-25 0 -47 -19l-454 -416v765q0 42 -26.5 66t-62.5 24q-37 0 -64.5 -24t-27.5 -66v-1247q0 -44 26 -67.5t63 -23.5z M653 1274q51 0 89 52l189 264q17 25 17 47q0 25 -17.5 42t-42.5 17q-35 0 -66 -38l-169 -229l-171 229q-30 38 -67 38q-25 0 -42.5 -16.5t-17.5 -41.5q0 -22 17 -48l190 -264q38 -52 91 -52z" />
<glyph unicode="&#x1ea;" horiz-adv-x="1602" d="M1015 -408v85q-206 0 -206 143q0 77 62 191h-83q-134 -157 -134 -280q0 -78 54.5 -123t147.5 -45q75 0 159 29zM800 -22q315 0 495.5 199t180.5 537t-180.5 537t-495.5 199t-496 -199t-181 -537t181 -537t496 -199zM800 140q-219 0 -341 153.5t-122 420.5t121.5 420.5 t341.5 153.5q219 0 340.5 -153.5t121.5 -420.5t-121.5 -420.5t-340.5 -153.5z" />
<glyph unicode="&#x1eb;" horiz-adv-x="1161" d="M825 -419v85q-206 0 -206 143q0 77 62 191h-83q-134 -157 -134 -280q0 -78 54.5 -123t147.5 -45q75 0 159 29zM585 -18q231 0 366 145t135 370q0 227 -135.5 371.5t-365.5 144.5t-365.5 -145t-135.5 -371q0 -225 135.5 -370t365.5 -145zM583 106q-150 0 -234.5 105.5 t-84.5 285.5q0 182 85 287.5t236 105.5q150 0 235.5 -106t85.5 -287q0 -182 -84.5 -286.5t-238.5 -104.5z" />
<glyph unicode="&#x1f0;" horiz-adv-x="489" d="M-1 -379q60 0 106 4.5t81 15.5t60 24.5t42 37.5t26.5 47.5t15 61.5t7 72.5t1.5 87.5v926q0 46 -25 70.5t-65 24.5t-66.5 -25t-26.5 -71v-955q0 -65 -4.5 -98.5t-23.5 -53.5t-46 -25t-83 -5q-30 0 -47 -20.5t-17 -48.5q0 -29 17 -49.5t48 -20.5zM241 1067q51 0 89 52 l189 264q17 25 17 47q0 25 -17.5 42t-42.5 17q-35 0 -66 -38l-169 -229l-171 229q-30 38 -67 38q-25 0 -42.5 -16.5t-17.5 -41.5q0 -22 17 -48l190 -264q38 -52 91 -52z" />
<glyph unicode="&#x1f1;" horiz-adv-x="2680" d="M1713 0h825q39 0 60 24t21 57t-21 56.5t-60 23.5h-705l770 1106q25 37 25 73q0 39 -27 64t-71 25h-841q-38 0 -59 -23.5t-21 -55.5q0 -33 21 -57.5t59 -24.5h702l-770 -1105q-22 -33 -22 -68q0 -40 29 -67.5t85 -27.5zM379 163v1108h225q297 0 435 -128t138 -426 q0 -141 -28 -241.5t-90.5 -172t-166.5 -106t-254 -34.5h-259zM278 3h350q363 0 561 182.5t198 528.5q0 351 -196 534.5t-572 183.5h-341q-42 0 -71.5 -28.5t-29.5 -69.5v-1233q0 -41 29.5 -69.5t71.5 -28.5z" />
<glyph unicode="&#x1f2;" horiz-adv-x="2447" d="M1678 0h604q35 0 54 21t19 50q0 28 -19 49t-54 21h-482l535 705q26 35 26 69q0 35 -25.5 57t-72.5 22h-591q-34 0 -53 -21t-19 -50q0 -28 19 -48.5t53 -20.5h472l-534 -706q-24 -31 -24 -66t25 -58.5t67 -23.5zM379 163v1108h225q297 0 435 -128t138 -426 q0 -141 -28 -241.5t-90.5 -172t-166.5 -106t-254 -34.5h-259zM278 3h350q363 0 561 182.5t198 528.5q0 351 -196 534.5t-572 183.5h-341q-42 0 -71.5 -28.5t-29.5 -69.5v-1233q0 -41 29.5 -69.5t71.5 -28.5z" />
<glyph unicode="&#x1f3;" horiz-adv-x="2137" d="M1368 0h604q35 0 54 21t19 50q0 28 -19 49t-54 21h-482l535 705q26 35 26 69q0 35 -25.5 57t-72.5 22h-591q-34 0 -53 -21t-19 -50q0 -28 19 -48.5t53 -20.5h472l-534 -706q-24 -31 -24 -66t25 -58.5t67 -23.5zM546 106q-78 1 -135.5 37.5t-87.5 96.5t-44 124.5 t-14 134.5q0 72 15.5 138t47.5 124.5t90.5 93.5t136.5 35q79 0 138.5 -33t94 -89t51.5 -123t17 -143q0 -396 -310 -396zM514 -18q116 0 205.5 48.5t137.5 144.5v-89q0 -39 23 -61.5t68 -22.5q36 0 63 22.5t27 62.5v1258q0 39 -27 61.5t-63 22.5q-37 0 -64 -22.5t-27 -61.5 v-519q-45 91 -130.5 139t-196.5 48q-104 0 -189.5 -39.5t-141 -109t-85.5 -162t-30 -199.5q0 -105 27.5 -198t79.5 -165.5t135.5 -115t187.5 -42.5z" />
<glyph unicode="&#x1f4;" horiz-adv-x="1459" d="M836 1590q18 0 43 18l318 248q26 19 26 50q0 35 -30.5 64t-66.5 29q-32 0 -59 -32l-259 -299q-13 -17 -13 -35q0 -19 11.5 -31t29.5 -12zM807 -22q234 0 457 75q78 25 78 110v500q0 41 -21.5 65.5t-61.5 24.5h-386q-33 0 -52.5 -24.5t-19.5 -54.5q0 -28 19.5 -52 t52.5 -24h267v-415q-155 -43 -315 -43q-125 0 -219.5 42t-152.5 119.5t-87 181.5t-29 234q0 128 30.5 231t91.5 179.5t159 118.5t227 42q135 0 352 -62q10 -2 20 -2q31 0 51.5 26t20.5 58q0 49 -46 69q-176 73 -405 73q-141 0 -259 -39t-201.5 -107t-141.5 -160.5 t-85.5 -200.5t-27.5 -226q0 -180 51 -321.5t142.5 -232t216 -138t274.5 -47.5z" />
<glyph unicode="&#x1f5;" horiz-adv-x="1181" d="M569 120q-132 0 -218 96t-86 282q0 111 31 197t101 140.5t172 54.5q64 0 115 -21.5t83.5 -58t54 -87t30.5 -105t9 -116.5q0 -181 -82 -281.5t-210 -100.5zM561 -423q221 0 348.5 108t127.5 321v903q0 40 -25 62.5t-60 22.5q-32 0 -56.5 -19.5t-27.5 -53.5v-101 q-99 193 -332 193q-141 0 -245 -71t-155.5 -187.5t-51.5 -262.5q0 -103 30.5 -192t87 -156t144 -105.5t195.5 -38.5q115 0 197.5 53.5t123.5 144.5v-198q0 -144 -79 -220.5t-234 -76.5q-24 0 -47.5 2t-42 4.5t-41 7.5l-36 8t-35 10t-29.5 10t-28.5 11t-24.5 9q-11 4 -23 4 q-25 0 -42.5 -18.5t-17.5 -43.5q0 -37 38 -58q135 -72 341 -72zM527 1153q18 0 43 18l318 248q26 19 26 50q0 35 -30.5 64t-66.5 29q-32 0 -59 -32l-259 -299q-13 -17 -13 -35q0 -19 11.5 -31t29.5 -12z" />
<glyph unicode="&#x1f8;" horiz-adv-x="1515" d="M820 1594q18 0 29.5 12t11.5 30t-14 35l-258 298q-29 33 -60 33q-36 0 -66.5 -29.5t-30.5 -64.5q0 -28 24 -47l318 -248q24 -19 46 -19zM268 0q38 0 66 23.5t28 65.5v1037l731 -1060q22 -32 56 -49t68 -17q52 0 87.5 35t35.5 94v1211q0 42 -28 65.5t-65 23.5 q-39 0 -66 -23.5t-27 -65.5v-1050l-728 1060q-27 39 -64.5 59t-72.5 20q-49 0 -81.5 -34.5t-32.5 -94.5v-1211q0 -42 27.5 -65.5t65.5 -23.5z" />
<glyph unicode="&#x1f9;" d="M241 0q37 0 64.5 23t27.5 63v499q7 141 86 223t194 82q108 0 167.5 -67t59.5 -195v-542q0 -41 26.5 -63.5t63.5 -22.5t63.5 22.5t26.5 63.5v540q0 195 -98 291t-263 96q-115 0 -201.5 -49t-124.5 -140v87q0 39 -26.5 60.5t-63.5 21.5t-64 -22.5t-27 -62.5v-822 q0 -41 26 -63.5t63 -22.5zM635 1145q18 0 29.5 12t11.5 30t-14 35l-258 298q-29 33 -60 33q-36 0 -66.5 -29.5t-30.5 -64.5q0 -28 24 -47l318 -248q24 -19 46 -19z" />
<glyph unicode="&#x1fa;" horiz-adv-x="1424" d="M689 2080q18 0 43 18l318 248q26 19 26 50q0 35 -30.5 64t-66.5 29q-32 0 -59 -32l-259 -299q-13 -17 -13 -35q0 -19 11.5 -31t29.5 -12zM711 1582q88 0 141 52t53 137t-53 136t-141 51t-141.5 -51t-53.5 -136q0 -86 53.5 -137.5t141.5 -51.5zM711 1666q-50 0 -79.5 28.5 t-29.5 76.5q0 47 30 76t79 29t79 -29t30 -76q0 -48 -29.5 -76.5t-79.5 -28.5zM1176 60q25 -66 92 -66q39 0 70 25t31 63q0 16 -8 37l-475 1179q-34 85 -73.5 112.5t-98.5 27.5t-98.5 -27.5t-73.5 -112.5l-475 -1179q-8 -21 -8 -37q0 -38 30.5 -63t69.5 -25q68 0 93 66 l118 304h688zM1001 509h-574l287 739z" />
<glyph unicode="&#x1fb;" horiz-adv-x="1051" d="M515 1136q88 0 141 52t53 137t-53 136t-141 51t-141.5 -51t-53.5 -136q0 -86 53.5 -137.5t141.5 -51.5zM515 1220q-50 0 -79.5 28.5t-29.5 76.5q0 47 30 76t79 29t79 -29t30 -76q0 -48 -29.5 -76.5t-79.5 -28.5zM440 102q-93 0 -147 42.5t-54 133.5q0 50 14.5 82 t44.5 54.5t90 34t138 16t202 4.5v-30q0 -147 -86.5 -242t-201.5 -95zM421 -18q215 0 308 195v-96q0 -39 25.5 -60.5t61.5 -21.5t63.5 22.5t27.5 61.5v583q0 177 -103.5 262t-286.5 85q-214 0 -369 -87q-28 -16 -28 -46q0 -26 19 -47.5t45 -21.5q14 0 24 5q51 23 86 36t96 26 t122 13q102 0 159 -51t57 -158v-109q-111 0 -189.5 -3t-152.5 -10.5t-122 -22t-88 -37t-62 -55t-34 -75.5t-12 -100q0 -138 98 -213t255 -75zM493 1634q18 0 43 18l318 248q26 19 26 50q0 35 -30.5 64t-66.5 29q-32 0 -59 -32l-259 -299q-13 -17 -13 -35q0 -19 11.5 -31 t29.5 -12z" />
<glyph unicode="&#x1fc;" horiz-adv-x="1967" d="M1266 1615q18 0 43 18l318 248q26 19 26 50q0 35 -30.5 64t-66.5 29q-32 0 -59 -32l-259 -299q-13 -17 -13 -35q0 -19 11.5 -31t29.5 -12zM509 512l454 776h3l118 -776h-575zM1255 0h595q36 1 54.5 21.5t18.5 49.5q0 34 -24.5 61.5t-64.5 27.5h-498l-81 495h545 q35 0 54 20.5t19 50.5q0 35 -24 61.5t-65 26.5h-552l-72 456h673q35 0 53.5 20.5t18.5 49.5q0 35 -24.5 62t-64.5 27h-821q-64 0 -112 -32.5t-102 -131.5l-713 -1143q-15 -30 -15 -47q0 -34 24 -55t60 -21q65 0 97 63l194 305h674l52 -305q9 -62 101 -62z" />
<glyph unicode="&#x1fd;" horiz-adv-x="1710" d="M921 582q10 134 77.5 222t183.5 88q117 0 180 -83.5t72 -226.5h-513zM454 100q-92 2 -150 48.5t-58 134.5q0 32 9 59t24 47t39 35t47.5 25t57.5 17.5t61 11t65.5 5.5t64.5 2.5t63 1t57 1.5v-90q-5 -143 -82 -219.5t-198 -78.5zM421 -27q124 0 234 55t163 166 q52 -104 139 -162.5t206 -58.5q96 0 190 27.5t152.5 72.5t58.5 91q0 24 -14.5 40t-36.5 16q-18 0 -40 -13q-139 -95 -266 -95q-76 0 -132.5 26.5t-89.5 75t-49.5 110t-17.5 137.5h621q32 0 49 19.5t17 46.5q-3 108 -29.5 196t-77 156t-131.5 105.5t-187 37.5 q-211 0 -334 -176q-75 176 -323 176q-258 0 -375 -131q-18 -20 -18 -41q0 -24 18 -42.5t43 -18.5q19 0 34 10q49 28 82 43t88.5 27.5t120.5 12.5q105 0 162 -45t57 -150v-78q-15 0 -53.5 1t-55.5 2q-558 0 -558 -336q0 -141 98 -222t255 -81zM840 1153q18 0 43 18l318 248 q26 19 26 50q0 35 -30.5 64t-66.5 29q-32 0 -59 -32l-259 -299q-13 -17 -13 -35q0 -19 11.5 -31t29.5 -12z" />
<glyph unicode="&#x1fe;" horiz-adv-x="1599" d="M780 1602q18 0 43 18l318 248q26 19 26 50q0 35 -30.5 64t-66.5 29q-32 0 -59 -32l-259 -299q-13 -17 -13 -35q0 -19 11.5 -31t29.5 -12zM281 -135q33 0 64 41l106 155q150 -83 349 -83q315 0 495.5 199t180.5 537q0 176 -51 317.5t-148 238.5l115 169q21 31 21 60 q0 26 -18 43t-43 17q-40 0 -63 -36l-116 -171q-157 98 -373 98q-315 0 -496 -199t-181 -537q0 -187 58 -335t167 -245l-113 -166q-15 -22 -15 -44q0 -25 18 -42t43 -17zM1163 1104q49 -74 74 -172.5t25 -217.5q0 -267 -121.5 -420.5t-340.5 -153.5q-144 0 -248 69z M1072 1202l-615 -906q-120 152 -120 418q0 267 121.5 420.5t341.5 153.5q161 0 272 -86z" />
<glyph unicode="&#x1ff;" horiz-adv-x="1161" d="M144 -15q0 -21 14.5 -35.5t37.5 -14.5q26 0 42 22l74 95q117 -70 273 -70q231 0 366 145t135 370q0 45 -6 88t-17 82.5t-27.5 75.5t-38.5 68t-49 60l75 96q18 24 18 39q0 21 -17 36t-40 15q-25 0 -42 -21l-76 -98q-120 75 -281 75q-230 0 -365.5 -145t-135.5 -371 q0 -116 37.5 -214t108.5 -167l-72 -94q-14 -18 -14 -37zM585 106q-110 -1 -187 57l451 580q57 -99 57 -246q0 -181 -84 -286t-237 -105zM779 826l-451 -585q-64 101 -64 256q0 182 85 287.5t236 105.5q17 0 33 -1.5t31 -4t29 -6.5t27.5 -9.5t26.5 -12t24.5 -14.5t22.5 -16z M549 1153q18 0 43 18l318 248q26 19 26 50q0 35 -30.5 64t-66.5 29q-32 0 -59 -32l-259 -299q-13 -17 -13 -35q0 -19 11.5 -31t29.5 -12z" />
<glyph unicode="&#x200;" horiz-adv-x="1424" d="M850 1546q18 0 29.5 11.5t12.5 28.5q-2 20 -15 36l-258 299q-29 32 -60 32q-36 0 -66.5 -29t-30.5 -63q0 -31 24 -49l316 -246q24 -20 48 -20zM518 1546q18 0 30 12t12 29q-2 20 -14 35l-260 299q-28 32 -59 32q-36 0 -66.5 -28.5t-30.5 -64.5q0 -30 24 -48l318 -248 q22 -18 46 -18zM1176 60q25 -66 92 -66q39 0 70 25t31 63q0 16 -8 37l-475 1179q-34 85 -73.5 112.5t-98.5 27.5t-98.5 -27.5t-73.5 -112.5l-475 -1179q-8 -21 -8 -37q0 -38 30.5 -63t69.5 -25q68 0 93 66l118 304h688zM1001 509h-574l287 739z" />
<glyph unicode="&#x201;" horiz-adv-x="1051" d="M654 1100q18 0 29.5 11.5t12.5 28.5q-2 20 -15 36l-258 299q-29 32 -60 32q-36 0 -66.5 -29t-30.5 -63q0 -31 24 -49l316 -246q24 -20 48 -20zM322 1100q18 0 30 12t12 29q-2 20 -14 35l-260 299q-28 32 -59 32q-36 0 -66.5 -28.5t-30.5 -64.5q0 -30 24 -48l318 -248 q22 -18 46 -18zM440 102q-93 0 -147 42.5t-54 133.5q0 50 14.5 82t44.5 54.5t90 34t138 16t202 4.5v-30q0 -147 -86.5 -242t-201.5 -95zM421 -18q215 0 308 195v-96q0 -39 25.5 -60.5t61.5 -21.5t63.5 22.5t27.5 61.5v583q0 177 -103.5 262t-286.5 85q-214 0 -369 -87 q-28 -16 -28 -46q0 -26 19 -47.5t45 -21.5q14 0 24 5q51 23 86 36t96 26t122 13q102 0 159 -51t57 -158v-109q-111 0 -189.5 -3t-152.5 -10.5t-122 -22t-88 -37t-62 -55t-34 -75.5t-12 -100q0 -138 98 -213t255 -75z" />
<glyph unicode="&#x202;" horiz-adv-x="1424" d="M481 1661q29 0 50 28q33 48 72.5 67t106.5 19t105.5 -19t73.5 -67q21 -28 50 -28q22 0 37 13t15 33q0 13 -6 26q-34 76 -105.5 117.5t-169.5 41.5t-169.5 -41.5t-105.5 -117.5q-6 -13 -6 -26q0 -20 15 -33t37 -13zM1176 60q25 -66 92 -66q39 0 70 25t31 63q0 16 -8 37 l-475 1179q-34 85 -73.5 112.5t-98.5 27.5t-98.5 -27.5t-73.5 -112.5l-475 -1179q-8 -21 -8 -37q0 -38 30.5 -63t69.5 -25q68 0 93 66l118 304h688zM1001 509h-574l287 739z" />
<glyph unicode="&#x203;" horiz-adv-x="1051" d="M285 1215q29 0 50 28q33 48 72.5 67t106.5 19t105.5 -19t73.5 -67q21 -28 50 -28q22 0 37 13t15 33q0 13 -6 26q-34 76 -105.5 117.5t-169.5 41.5t-169.5 -41.5t-105.5 -117.5q-6 -13 -6 -26q0 -20 15 -33t37 -13zM440 102q-93 0 -147 42.5t-54 133.5q0 50 14.5 82 t44.5 54.5t90 34t138 16t202 4.5v-30q0 -147 -86.5 -242t-201.5 -95zM421 -18q215 0 308 195v-96q0 -39 25.5 -60.5t61.5 -21.5t63.5 22.5t27.5 61.5v583q0 177 -103.5 262t-286.5 85q-214 0 -369 -87q-28 -16 -28 -46q0 -26 19 -47.5t45 -21.5q14 0 24 5q51 23 86 36t96 26 t122 13q102 0 159 -51t57 -158v-109q-111 0 -189.5 -3t-152.5 -10.5t-122 -22t-88 -37t-62 -55t-34 -75.5t-12 -100q0 -138 98 -213t255 -75z" />
<glyph unicode="&#x204;" horiz-adv-x="1236" d="M787 1546q18 0 29.5 11.5t12.5 28.5q-2 20 -15 36l-258 299q-29 32 -60 32q-36 0 -66.5 -29t-30.5 -63q0 -31 24 -49l316 -246q24 -20 48 -20zM455 1546q18 0 30 12t12 29q-2 20 -14 35l-260 299q-28 32 -59 32q-36 0 -66.5 -28.5t-30.5 -64.5q0 -30 24 -48l318 -248 q22 -18 46 -18zM277 0h762q38 0 59 23.5t21 56.5t-21 57t-59 24h-660v495h600q38 0 59.5 23.5t21.5 55.5t-21 55t-60 23h-600v455h634q38 0 59 24t21 57t-21 56.5t-59 23.5h-741q-40 0 -67.5 -29.5t-27.5 -68.5v-1233q0 -39 30.5 -68.5t69.5 -29.5z" />
<glyph unicode="&#x205;" horiz-adv-x="1135" d="M718 1155q18 0 29.5 11.5t12.5 28.5q-2 20 -15 36l-258 299q-29 32 -60 32q-36 0 -66.5 -29t-30.5 -63q0 -31 24 -49l316 -246q24 -20 48 -20zM386 1155q18 0 30 12t12 29q-2 20 -14 35l-260 299q-28 32 -59 32q-36 0 -66.5 -28.5t-30.5 -64.5q0 -30 24 -48l318 -248 q22 -18 46 -18zM275 572q5 62 26.5 117.5t58 101t93.5 72.5t127 27q135 0 205 -89t79 -229h-589zM583 -18q224 0 382 142q28 25 28 57q0 25 -16.5 43.5t-40.5 18.5q-20 0 -38 -14q-72 -55 -143 -87t-160 -32q-141 2 -231 90.5t-92 260.5h686q32 0 48 19t16 48 q-3 101 -29 185.5t-78 153t-140 107.5t-205 39q-148 0 -259 -72t-166 -187t-55 -254q0 -158 65.5 -276.5t176.5 -179.5t251 -62z" />
<glyph unicode="&#x206;" horiz-adv-x="1236" d="M418 1661q29 0 50 28q33 48 72.5 67t106.5 19t105.5 -19t73.5 -67q21 -28 50 -28q22 0 37 13t15 33q0 13 -6 26q-34 76 -105.5 117.5t-169.5 41.5t-169.5 -41.5t-105.5 -117.5q-6 -13 -6 -26q0 -20 15 -33t37 -13zM277 0h762q38 0 59 23.5t21 56.5t-21 57t-59 24h-660 v495h600q38 0 59.5 23.5t21.5 55.5t-21 55t-60 23h-600v455h634q38 0 59 24t21 57t-21 56.5t-59 23.5h-741q-40 0 -67.5 -29.5t-27.5 -68.5v-1233q0 -39 30.5 -68.5t69.5 -29.5z" />
<glyph unicode="&#x207;" horiz-adv-x="1135" d="M352 1146q29 0 50 28q33 48 72.5 67t106.5 19t105.5 -19t73.5 -67q21 -28 50 -28q22 0 37 13t15 33q0 13 -6 26q-34 76 -105.5 117.5t-169.5 41.5t-169.5 -41.5t-105.5 -117.5q-6 -13 -6 -26q0 -20 15 -33t37 -13zM275 572q5 62 26.5 117.5t58 101t93.5 72.5t127 27 q135 0 205 -89t79 -229h-589zM583 -18q224 0 382 142q28 25 28 57q0 25 -16.5 43.5t-40.5 18.5q-20 0 -38 -14q-72 -55 -143 -87t-160 -32q-141 2 -231 90.5t-92 260.5h686q32 0 48 19t16 48q-3 101 -29 185.5t-78 153t-140 107.5t-205 39q-148 0 -259 -72t-166 -187 t-55 -254q0 -158 65.5 -276.5t176.5 -179.5t251 -62z" />
<glyph unicode="&#x208;" horiz-adv-x="606" d="M449 1546q18 0 29.5 11.5t12.5 28.5q-2 20 -15 36l-258 299q-29 32 -60 32q-36 0 -66.5 -29t-30.5 -63q0 -31 24 -49l316 -246q24 -20 48 -20zM117 1546q18 0 30 12t12 29q-2 20 -14 35l-260 299q-28 32 -59 32q-36 0 -66.5 -28.5t-30.5 -64.5q0 -30 24 -48l318 -248 q22 -18 46 -18zM302 1q42 0 72 25t30 71v1236q0 46 -29.5 71.5t-70.5 25.5t-71.5 -26t-30.5 -71v-1236q0 -45 29.5 -70.5t70.5 -25.5z" />
<glyph unicode="&#x209;" horiz-adv-x="485" d="M451 1156q18 0 29.5 11.5t12.5 28.5q-2 20 -15 36l-258 299q-29 32 -60 32q-36 0 -66.5 -29t-30.5 -63q0 -31 24 -49l316 -246q24 -20 48 -20zM119 1156q18 0 30 12t12 29q-2 20 -14 35l-260 299q-28 32 -59 32q-36 0 -66.5 -28.5t-30.5 -64.5q0 -30 24 -48l318 -248 q22 -18 46 -18zM240 0q37 0 65 24t28 67v813q0 42 -27 66t-63 24q-37 0 -64 -24t-27 -66v-813q0 -44 25.5 -67.5t62.5 -23.5z" />
<glyph unicode="&#x20a;" horiz-adv-x="606" d="M80 1661q29 0 50 28q33 48 72.5 67t106.5 19t105.5 -19t73.5 -67q21 -28 50 -28q22 0 37 13t15 33q0 13 -6 26q-34 76 -105.5 117.5t-169.5 41.5t-169.5 -41.5t-105.5 -117.5q-6 -13 -6 -26q0 -20 15 -33t37 -13zM302 1q42 0 72 25t30 71v1236q0 46 -29.5 71.5 t-70.5 25.5t-71.5 -26t-30.5 -71v-1236q0 -45 29.5 -70.5t70.5 -25.5z" />
<glyph unicode="&#x20b;" horiz-adv-x="485" d="M10 1134q29 0 50 28q33 48 72.5 67t106.5 19t105.5 -19t73.5 -67q21 -28 50 -28q22 0 37 13t15 33q0 13 -6 26q-34 76 -105.5 117.5t-169.5 41.5t-169.5 -41.5t-105.5 -117.5q-6 -13 -6 -26q0 -20 15 -33t37 -13zM240 0q37 0 65 24t28 67v813q0 42 -27 66t-63 24 q-37 0 -64 -24t-27 -66v-813q0 -44 25.5 -67.5t62.5 -23.5z" />
<glyph unicode="&#x20c;" horiz-adv-x="1602" d="M941 1548q18 0 29.5 11.5t12.5 28.5q-2 20 -15 36l-258 299q-29 32 -60 32q-36 0 -66.5 -29t-30.5 -63q0 -31 24 -49l316 -246q24 -20 48 -20zM609 1548q18 0 30 12t12 29q-2 20 -14 35l-260 299q-28 32 -59 32q-36 0 -66.5 -28.5t-30.5 -64.5q0 -30 24 -48l318 -248 q22 -18 46 -18zM800 -22q315 0 495.5 199t180.5 537t-180.5 537t-495.5 199t-496 -199t-181 -537t181 -537t496 -199zM800 140q-219 0 -341 153.5t-122 420.5t121.5 420.5t341.5 153.5q219 0 340.5 -153.5t121.5 -420.5t-121.5 -420.5t-340.5 -153.5z" />
<glyph unicode="&#x20d;" horiz-adv-x="1161" d="M720 1107q18 0 29.5 11.5t12.5 28.5q-2 20 -15 36l-258 299q-29 32 -60 32q-36 0 -66.5 -29t-30.5 -63q0 -31 24 -49l316 -246q24 -20 48 -20zM388 1107q18 0 30 12t12 29q-2 20 -14 35l-260 299q-28 32 -59 32q-36 0 -66.5 -28.5t-30.5 -64.5q0 -30 24 -48l318 -248 q22 -18 46 -18zM585 -18q231 0 366 145t135 370q0 227 -135.5 371.5t-365.5 144.5t-365.5 -145t-135.5 -371q0 -225 135.5 -370t365.5 -145zM583 106q-150 0 -234.5 105.5t-84.5 285.5q0 182 85 287.5t236 105.5q150 0 235.5 -106t85.5 -287q0 -182 -84.5 -286.5 t-238.5 -104.5z" />
<glyph unicode="&#x20e;" horiz-adv-x="1602" d="M571 1663q29 0 50 28q33 48 72.5 67t106.5 19t105.5 -19t73.5 -67q21 -28 50 -28q22 0 37 13t15 33q0 13 -6 26q-34 76 -105.5 117.5t-169.5 41.5t-169.5 -41.5t-105.5 -117.5q-6 -13 -6 -26q0 -20 15 -33t37 -13zM800 -22q315 0 495.5 199t180.5 537t-180.5 537 t-495.5 199t-496 -199t-181 -537t181 -537t496 -199zM800 140q-219 0 -341 153.5t-122 420.5t121.5 420.5t341.5 153.5q219 0 340.5 -153.5t121.5 -420.5t-121.5 -420.5t-340.5 -153.5z" />
<glyph unicode="&#x20f;" horiz-adv-x="1176" d="M349 1140q29 0 50 28q33 48 72.5 67t106.5 19t105.5 -19t73.5 -67q21 -28 50 -28q22 0 37 13t15 33q0 13 -6 26q-34 76 -105.5 117.5t-169.5 41.5t-169.5 -41.5t-105.5 -117.5q-6 -13 -6 -26q0 -20 15 -33t37 -13zM585 -18q231 0 366 145t135 370q0 227 -135.5 371.5 t-365.5 144.5t-365.5 -145t-135.5 -371q0 -225 135.5 -370t365.5 -145zM583 106q-150 0 -234.5 105.5t-84.5 285.5q0 182 85 287.5t236 105.5q150 0 235.5 -106t85.5 -287q0 -182 -84.5 -286.5t-238.5 -104.5z" />
<glyph unicode="&#x210;" horiz-adv-x="1362" d="M831 1546q18 0 29.5 11.5t12.5 28.5q-2 20 -15 36l-258 299q-29 32 -60 32q-36 0 -66.5 -29t-30.5 -63q0 -31 24 -49l316 -246q24 -20 48 -20zM499 1546q18 0 30 12t12 29q-2 20 -14 35l-260 299q-28 32 -59 32q-36 0 -66.5 -28.5t-30.5 -64.5q0 -30 24 -48l318 -248 q22 -18 46 -18zM379 809v460h318q43 0 74 -2t72 -8.5t69.5 -21t54.5 -37.5t39.5 -61t13.5 -88q0 -61 -20 -105.5t-51.5 -70.5t-79.5 -41t-94 -20t-105 -5h-291zM277 1q41 0 71.5 25t30.5 71v557h334q80 0 127 -11.5t78.5 -45.5t45.5 -85t24 -142l31 -279q4 -43 36.5 -66.5 t72.5 -23.5q39 0 67 25t28 65q0 9 -1 14l-36 314q-31 270 -266 321v4q150 28 226 115t76 211q0 86 -29.5 151.5t-76.5 104t-116 62.5t-137.5 32.5t-150.5 8.5h-434q-42 0 -71.5 -28.5t-29.5 -69.5v-1234q0 -46 29.5 -71t70.5 -25z" />
<glyph unicode="&#x211;" horiz-adv-x="730" d="M517 1109q18 0 29.5 11.5t12.5 28.5q-2 20 -15 36l-258 299q-29 32 -60 32q-36 0 -66.5 -29t-30.5 -63q0 -31 24 -49l316 -246q24 -20 48 -20zM185 1109q18 0 30 12t12 29q-2 20 -14 35l-260 299q-28 32 -59 32q-36 0 -66.5 -28.5t-30.5 -64.5q0 -30 24 -48l318 -248 q22 -18 46 -18zM243 0q37 0 64.5 22t27.5 62v515q0 117 74.5 187t209.5 70q32 0 49 21.5t17 51.5q0 32 -18.5 56t-50.5 24q-106 0 -181.5 -62.5t-100.5 -155.5l1 120q0 38 -26.5 59.5t-63.5 21.5t-64 -21.5t-27 -61.5v-825q0 -40 26 -62t63 -22z" />
<glyph unicode="&#x212;" horiz-adv-x="1362" d="M461 1661q29 0 50 28q33 48 72.5 67t106.5 19t105.5 -19t73.5 -67q21 -28 50 -28q22 0 37 13t15 33q0 13 -6 26q-34 76 -105.5 117.5t-169.5 41.5t-169.5 -41.5t-105.5 -117.5q-6 -13 -6 -26q0 -20 15 -33t37 -13zM379 809v460h318q43 0 74 -2t72 -8.5t69.5 -21 t54.5 -37.5t39.5 -61t13.5 -88q0 -61 -20 -105.5t-51.5 -70.5t-79.5 -41t-94 -20t-105 -5h-291zM277 1q41 0 71.5 25t30.5 71v557h334q80 0 127 -11.5t78.5 -45.5t45.5 -85t24 -142l31 -279q4 -43 36.5 -66.5t72.5 -23.5q39 0 67 25t28 65q0 9 -1 14l-36 314 q-31 270 -266 321v4q150 28 226 115t76 211q0 86 -29.5 151.5t-76.5 104t-116 62.5t-137.5 32.5t-150.5 8.5h-434q-42 0 -71.5 -28.5t-29.5 -69.5v-1234q0 -46 29.5 -71t70.5 -25z" />
<glyph unicode="&#x213;" horiz-adv-x="730" d="M148 1224q29 0 50 28q33 48 72.5 67t106.5 19t105.5 -19t73.5 -67q21 -28 50 -28q22 0 37 13t15 33q0 13 -6 26q-34 76 -105.5 117.5t-169.5 41.5t-169.5 -41.5t-105.5 -117.5q-6 -13 -6 -26q0 -20 15 -33t37 -13zM243 0q37 0 64.5 22t27.5 62v515q0 117 74.5 187 t209.5 70q32 0 49 21.5t17 51.5q0 32 -18.5 56t-50.5 24q-106 0 -181.5 -62.5t-100.5 -155.5l1 120q0 38 -26.5 59.5t-63.5 21.5t-64 -21.5t-27 -61.5v-825q0 -40 26 -62t63 -22z" />
<glyph unicode="&#x214;" horiz-adv-x="1495" d="M897 1546q18 0 29.5 11.5t12.5 28.5q-2 20 -15 36l-258 299q-29 32 -60 32q-36 0 -66.5 -29t-30.5 -63q0 -31 24 -49l316 -246q24 -20 48 -20zM565 1546q18 0 30 12t12 29q-2 20 -14 35l-260 299q-28 32 -59 32q-36 0 -66.5 -28.5t-30.5 -64.5q0 -30 24 -48l318 -248 q22 -18 46 -18zM748 -22q91 0 173.5 20t154.5 62t124.5 102.5t83 146t30.5 188.5v837q0 46 -29.5 72t-70.5 26q-42 0 -72 -26t-30 -72v-832q0 -90 -31 -161t-83 -114t-116 -65t-134 -22t-133.5 22t-115 65t-82.5 114t-31 161v832q0 46 -30 72t-71 26q-42 0 -72 -26t-30 -72 v-837q0 -127 46 -228t125 -163.5t179.5 -95t214.5 -32.5z" />
<glyph unicode="&#x215;" d="M713 1107q18 0 29.5 11.5t12.5 28.5q-2 20 -15 36l-258 299q-29 32 -60 32q-36 0 -66.5 -29t-30.5 -63q0 -31 24 -49l316 -246q24 -20 48 -20zM381 1107q18 0 30 12t12 29q-2 20 -14 35l-260 299q-28 32 -59 32q-36 0 -66.5 -28.5t-30.5 -64.5q0 -30 24 -48l318 -248 q22 -18 46 -18zM502 -18q115 0 202 49t125 140v-89q0 -39 26 -60.5t63 -21.5t64 22.5t27 62.5v823q0 41 -26 63.5t-63 22.5t-64 -23t-27 -63v-497q-7 -142 -87 -223.5t-196 -81.5q-108 0 -166 66.5t-58 194.5v541q0 41 -26.5 63.5t-63.5 22.5t-64 -22.5t-27 -63.5v-539 q0 -194 98.5 -290.5t262.5 -96.5z" />
<glyph unicode="&#x216;" horiz-adv-x="1495" d="M528 1661q29 0 50 28q33 48 72.5 67t106.5 19t105.5 -19t73.5 -67q21 -28 50 -28q22 0 37 13t15 33q0 13 -6 26q-34 76 -105.5 117.5t-169.5 41.5t-169.5 -41.5t-105.5 -117.5q-6 -13 -6 -26q0 -20 15 -33t37 -13zM748 -22q91 0 173.5 20t154.5 62t124.5 102.5t83 146 t30.5 188.5v837q0 46 -29.5 72t-70.5 26q-42 0 -72 -26t-30 -72v-832q0 -90 -31 -161t-83 -114t-116 -65t-134 -22t-133.5 22t-115 65t-82.5 114t-31 161v832q0 46 -30 72t-71 26q-42 0 -72 -26t-30 -72v-837q0 -127 46 -228t125 -163.5t179.5 -95t214.5 -32.5z" />
<glyph unicode="&#x217;" d="M344 1223q29 0 50 28q33 48 72.5 67t106.5 19t105.5 -19t73.5 -67q21 -28 50 -28q22 0 37 13t15 33q0 13 -6 26q-34 76 -105.5 117.5t-169.5 41.5t-169.5 -41.5t-105.5 -117.5q-6 -13 -6 -26q0 -20 15 -33t37 -13zM502 -18q115 0 202 49t125 140v-89q0 -39 26 -60.5 t63 -21.5t64 22.5t27 62.5v823q0 41 -26 63.5t-63 22.5t-64 -23t-27 -63v-497q-7 -142 -87 -223.5t-196 -81.5q-108 0 -166 66.5t-58 194.5v541q0 41 -26.5 63.5t-63.5 22.5t-64 -22.5t-27 -63.5v-539q0 -194 98.5 -290.5t262.5 -96.5z" />
<glyph unicode="&#x218;" horiz-adv-x="1282" d="M481 -598h43q38 0 53 43l138 403q3 12 3 18q0 35 -37 38h-84q-64 -2 -73 -56l-67 -403q-1 -3 -1 -12q0 -30 25 -31zM636 -22q248 0 392.5 109t144.5 305q0 81 -24.5 143t-74 106.5t-110 75.5t-147.5 59l-288 93q-102 34 -148.5 80.5t-46.5 124.5q0 104 90 159t240 55 q105 0 197.5 -33.5t153.5 -73.5q21 -14 44 -14q32 0 55 25t23 56q0 30 -23 50q-68 61 -196.5 106.5t-269.5 45.5q-144 0 -258.5 -45t-182 -133t-67.5 -204q0 -144 78 -226t237 -136l287 -96q64 -22 104 -41t71.5 -47t45 -65.5t13.5 -90.5q0 -110 -92.5 -168t-238.5 -58 q-224 0 -394 132q-11 8 -25 8q-31 0 -61.5 -34t-30.5 -66q0 -19 12 -30q185 -172 490 -172z" />
<glyph unicode="&#x219;" horiz-adv-x="1006" d="M349 -606h43q38 0 53 43l138 403q3 12 3 18q0 35 -37 38h-84q-64 -2 -73 -56l-67 -403q-1 -3 -1 -12q0 -30 25 -31zM145 90q60 -44 160.5 -76.5t207.5 -32.5q115 0 202 31.5t140.5 101.5t53.5 172q0 108 -64.5 177.5t-215.5 106.5l-173 43q-109 27 -142 51.5t-33 84.5 q0 74 64 108.5t172 34.5q34 0 67 -4.5t65 -13t50.5 -14.5t48 -17.5t32.5 -12.5q16 -6 31 -6q26 0 41.5 16.5t15.5 39.5q0 39 -39 59q-54 29 -139.5 52.5t-182.5 23.5q-81 0 -150 -15.5t-124.5 -47t-87.5 -85.5t-32 -125q0 -45 9 -80t29 -61t43 -44.5t61.5 -34.5t72 -26 t87.5 -24l177 -44q88 -22 126 -58t38 -96q0 -84 -67.5 -127.5t-177.5 -43.5q-153 1 -290 86q-22 14 -46 14q-26 0 -43 -17.5t-17 -41.5q0 -33 30 -54z" />
<glyph unicode="&#x21a;" horiz-adv-x="1167" d="M425 -598h43q38 0 53 43l138 403q3 12 3 18q0 35 -37 38h-84q-64 -2 -73 -56l-67 -403q-1 -3 -1 -12q0 -30 25 -31zM587 0q41 0 71 26t30 71v1171h372q39 0 61 24t22 57t-21.5 56.5t-61.5 23.5h-951q-39 0 -61 -24t-22 -56q0 -33 22 -57t61 -24h377v-1171q0 -45 30 -71 t71 -26z" />
<glyph unicode="&#x21b;" horiz-adv-x="742" d="M285 -598h43q38 0 53 43l138 403q3 12 3 18q0 35 -37 38h-84q-64 -2 -73 -56l-67 -403q-1 -3 -1 -12q0 -30 25 -31zM475 -14h59q36 0 58.5 2t45 9t33.5 22.5t11 40.5q0 28 -19 49t-52 21h-6l-68 -3h-11q-63 0 -92 45.5t-29 148.5v545h184q66 0 66 57q0 27 -16.5 44 t-49.5 17h-184v290q0 35 -20 53.5t-50 18.5q-32 0 -58.5 -23t-28.5 -55l-24 -284h-123q-33 0 -50 -16.5t-17 -42.5q0 -27 17.5 -43t50.5 -16h122v-576q0 -155 68 -229.5t183 -74.5z" />
<glyph unicode="&#x21e;" horiz-adv-x="1477" d="M757 1514q51 0 89 52l189 264q17 25 17 47q0 25 -17.5 42t-42.5 17q-35 0 -66 -38l-169 -229l-171 229q-30 38 -67 38q-25 0 -42.5 -16.5t-17.5 -41.5q0 -22 17 -48l190 -264q38 -52 91 -52zM277 1q42 0 72 25t30 71v564h723v-564q0 -45 29.5 -70.5t70.5 -25.5 q42 0 72 25t30 71v1235q0 46 -30 71.5t-71 25.5t-71 -26t-30 -71v-510h-723v510q0 46 -29.5 71.5t-70.5 25.5q-42 0 -72 -25.5t-30 -71.5v-1235q0 -45 29.5 -70.5t70.5 -25.5z" />
<glyph unicode="&#x21f;" horiz-adv-x="1161" d="M241 0q37 0 64.5 23t27.5 63v485q0 147 84 227.5t207 80.5q101 0 158.5 -59t57.5 -178v-556q0 -40 26.5 -63t62.5 -23q37 0 64 23t27 63v546q0 99 -28.5 174t-79 119.5t-113 66t-136.5 21.5q-110 0 -200 -46.5t-130 -128.5v507q0 40 -26.5 61.5t-63.5 21.5t-64 -22 t-27 -61v-1259q0 -40 26.5 -63t62.5 -23zM712 1265q51 0 89 52l189 264q17 25 17 47q0 25 -17.5 42t-42.5 17q-35 0 -66 -38l-169 -229l-171 229q-30 38 -67 38q-25 0 -42.5 -16.5t-17.5 -41.5q0 -22 17 -48l190 -264q38 -52 91 -52z" />
<glyph unicode="&#x226;" horiz-adv-x="1424" d="M706 1615q53 0 84.5 31t31.5 76q0 42 -32 74t-84 32t-83.5 -32t-31.5 -74q0 -45 31 -76t84 -31zM1176 60q25 -66 92 -66q39 0 70 25t31 63q0 16 -8 37l-475 1179q-34 85 -73.5 112.5t-98.5 27.5t-98.5 -27.5t-73.5 -112.5l-475 -1179q-8 -21 -8 -37q0 -38 30.5 -63 t69.5 -25q68 0 93 66l118 304h688zM1001 509h-574l287 739z" />
<glyph unicode="&#x227;" horiz-adv-x="1051" d="M510 1170q53 0 84.5 31t31.5 76q0 42 -32 74t-84 32t-83.5 -32t-31.5 -74q0 -45 31 -76t84 -31zM440 102q-93 0 -147 42.5t-54 133.5q0 50 14.5 82t44.5 54.5t90 34t138 16t202 4.5v-30q0 -147 -86.5 -242t-201.5 -95zM421 -18q215 0 308 195v-96q0 -39 25.5 -60.5 t61.5 -21.5t63.5 22.5t27.5 61.5v583q0 177 -103.5 262t-286.5 85q-214 0 -369 -87q-28 -16 -28 -46q0 -26 19 -47.5t45 -21.5q14 0 24 5q51 23 86 36t96 26t122 13q102 0 159 -51t57 -158v-109q-111 0 -189.5 -3t-152.5 -10.5t-122 -22t-88 -37t-62 -55t-34 -75.5t-12 -100 q0 -138 98 -213t255 -75z" />
<glyph unicode="&#x228;" horiz-adv-x="1236" d="M669 -400q80 0 139 39.5t59 111.5q0 144 -183 146q-8 0 -32 -2l36 113h-66l-47 -132q-3 -10 -3 -19q0 -31 38 -31q2 0 8 0.5t8 0.5q45 0 76.5 -17.5t31.5 -54.5q0 -41 -21.5 -61.5t-73.5 -20.5q-62 0 -161 35q-8 2 -12 2q-13 0 -21 -10.5t-8 -24.5q0 -32 72 -53.5 t160 -21.5zM277 0h762q38 0 59 23.5t21 56.5t-21 57t-59 24h-660v495h600q38 0 59.5 23.5t21.5 55.5t-21 55t-60 23h-600v455h634q38 0 59 24t21 57t-21 56.5t-59 23.5h-741q-40 0 -67.5 -29.5t-27.5 -68.5v-1233q0 -39 30.5 -68.5t69.5 -29.5z" />
<glyph unicode="&#x229;" horiz-adv-x="1135" d="M275 572q5 62 26.5 117.5t58 101t93.5 72.5t127 27q135 0 205 -89t79 -229h-589zM583 -18q224 0 382 142q28 25 28 57q0 25 -16.5 43.5t-40.5 18.5q-20 0 -38 -14q-72 -55 -143 -87t-160 -32q-141 2 -231 90.5t-92 260.5h686q32 0 48 19t16 48q-3 101 -29 185.5t-78 153 t-140 107.5t-205 39q-148 0 -259 -72t-166 -187t-55 -254q0 -158 65.5 -276.5t176.5 -179.5t251 -62zM602 -400q80 0 139 39.5t59 111.5q0 144 -183 146q-8 0 -32 -2l36 113h-66l-47 -132q-3 -10 -3 -19q0 -31 38 -31q2 0 8 0.5t8 0.5q45 0 76.5 -17.5t31.5 -54.5 q0 -41 -21.5 -61.5t-73.5 -20.5q-62 0 -161 35q-8 2 -12 2q-13 0 -21 -10.5t-8 -24.5q0 -32 72 -53.5t160 -21.5z" />
<glyph unicode="&#x22e;" horiz-adv-x="1602" d="M796 1617q53 0 84.5 31t31.5 76q0 42 -32 74t-84 32t-83.5 -32t-31.5 -74q0 -45 31 -76t84 -31zM800 -22q315 0 495.5 199t180.5 537t-180.5 537t-495.5 199t-496 -199t-181 -537t181 -537t496 -199zM800 140q-219 0 -341 153.5t-122 420.5t121.5 420.5t341.5 153.5 q219 0 340.5 -153.5t121.5 -420.5t-121.5 -420.5t-340.5 -153.5z" />
<glyph unicode="&#x22f;" horiz-adv-x="1161" d="M585 -18q231 0 366 145t135 370q0 227 -135.5 371.5t-365.5 144.5t-365.5 -145t-135.5 -371q0 -225 135.5 -370t365.5 -145zM583 106q-150 0 -234.5 105.5t-84.5 285.5q0 182 85 287.5t236 105.5q150 0 235.5 -106t85.5 -287q0 -182 -84.5 -286.5t-238.5 -104.5z M575 1177q53 0 84.5 31t31.5 76q0 42 -32 74t-84 32t-83.5 -32t-31.5 -74q0 -45 31 -76t84 -31z" />
<glyph unicode="&#x232;" horiz-adv-x="1285" d="M416 1669h504q33 0 50 18t17 47q0 27 -17 45.5t-50 18.5h-504q-33 0 -51 -18.5t-18 -45.5q0 -29 17.5 -47t51.5 -18zM541 98q0 -46 30 -71.5t72 -25.5q41 0 71 25.5t30 70.5v506l454 700q15 23 15 48q0 32 -25.5 55t-59.5 23q-48 0 -78 -47l-396 -627l-394 624 q-30 48 -82 48q-40 0 -71.5 -27t-31.5 -64q0 -25 14 -46l452 -694v-498z" />
<glyph unicode="&#x233;" horiz-adv-x="1040" d="M438 -341l578 1219q7 17 7 34q0 34 -26.5 58.5t-61.5 24.5q-52 0 -79 -55l-306 -648l-304 645q-25 53 -78 53q-35 0 -62.5 -24t-27.5 -60q0 -22 9 -40l372 -767l-179 -379q-9 -20 -9 -38q0 -34 26 -56.5t60 -22.5q54 0 81 56zM314 1236h504q33 0 50 18t17 47 q0 27 -17 45.5t-50 18.5h-504q-33 0 -51 -18.5t-18 -45.5q0 -29 17.5 -47t51.5 -18z" />
<glyph unicode="&#x237;" horiz-adv-x="489" d="M-1 -379q60 0 106 4.5t81 15.5t60 24.5t42 37.5t26.5 47.5t15 61.5t7 72.5t1.5 87.5v926q0 46 -25 70.5t-65 24.5t-66.5 -25t-26.5 -71v-955q0 -65 -4.5 -98.5t-23.5 -53.5t-46 -25t-83 -5q-30 0 -47 -20.5t-17 -48.5q0 -29 17 -49.5t48 -20.5z" />
<glyph unicode="&#x2bc;" horiz-adv-x="600" d="M189 181h56q38 0 53 43l164 475q3 12 3 18q0 35 -37 38h-106q-64 -2 -73 -56l-84 -475q-1 -3 -1 -12q0 -30 25 -31z" />
<glyph unicode="&#x2c6;" horiz-adv-x="569" d="M47 1155q39 0 69 38l171 229l170 -229q30 -37 67 -37q25 0 42 16t17 40q0 22 -18 48l-189 264q-40 52 -90 52q-52 0 -90 -52l-189 -264q-18 -24 -18 -49q0 -24 16.5 -40t41.5 -16z" />
<glyph unicode="&#x2c7;" horiz-adv-x="569" d="M285 1116q51 0 89 52l189 264q17 25 17 47q0 25 -17.5 42t-42.5 17q-35 0 -66 -38l-169 -229l-171 229q-30 38 -67 38q-25 0 -42.5 -16.5t-17.5 -41.5q0 -22 17 -48l190 -264q38 -52 91 -52z" />
<glyph unicode="&#x2c9;" horiz-adv-x="569" d="M47 1310h481q33 0 50 18t17 47q0 27 -17.5 45.5t-49.5 18.5h-481q-34 0 -52 -18.5t-18 -45.5q0 -29 18 -47t52 -18z" />
<glyph unicode="&#x2d8;" horiz-adv-x="569" d="M285 1240q97 0 168 41t105 116q6 15 6 29q0 23 -16 36.5t-39 13.5q-33 0 -54 -30q-33 -46 -69 -64t-101 -18t-101.5 18t-68.5 64q-21 30 -54 30q-23 0 -39 -13.5t-16 -36.5q0 -14 6 -29q34 -75 105 -116t168 -41z" />
<glyph unicode="&#x2d9;" horiz-adv-x="593" d="M288 1207q53 0 84.5 31t31.5 76q0 42 -32 74t-84 32t-83.5 -32t-31.5 -74q0 -45 31 -76t84 -31z" />
<glyph unicode="&#x2da;" horiz-adv-x="569" d="M285 1184q88 0 141 52t53 137t-53 136t-141 51t-141.5 -51t-53.5 -136q0 -86 53.5 -137.5t141.5 -51.5zM285 1268q-50 0 -79.5 28.5t-29.5 76.5q0 47 30 76t79 29t79 -29t30 -76q0 -48 -29.5 -76.5t-79.5 -28.5z" />
<glyph unicode="&#x2db;" horiz-adv-x="569" d="M437 -419v85q-206 0 -206 143q0 77 62 191h-83q-134 -157 -134 -280q0 -78 54.5 -123t147.5 -45q75 0 159 29z" />
<glyph unicode="&#x2dc;" horiz-adv-x="569" d="M537 1386q-24 0 -61 -38t-62 -38q-29 0 -114.5 36t-137.5 36q-133 0 -177 -141q-4 -8 -4 -17q0 -19 12.5 -29.5t31.5 -10.5q34 0 57 32q34 43 76 43q33 0 116.5 -37t127.5 -37q66 0 120.5 43t54.5 106q0 15 -9 20q-2 32 -31 32z" />
<glyph unicode="&#x2dd;" horiz-adv-x="569" d="M339 1106q21 0 41 17l321 249q24 18 24 48q0 35 -30.5 64t-66.5 29q-33 0 -56 -29l-264 -304q-12 -13 -12 -33q0 -17 12 -29t31 -12zM8 1106q23 0 43 17l320 249q24 18 24 47q0 35 -30.5 64.5t-66.5 29.5q-32 0 -55 -29l-265 -304q-12 -15 -12 -33q0 -17 12 -29t30 -12z " />
<glyph unicode="&#x307;" horiz-adv-x="600" d="M322 411q53 0 85.5 32t32.5 77q0 44 -32.5 76t-85.5 32t-85.5 -32t-32.5 -76q0 -45 32.5 -77t85.5 -32z" />
<glyph unicode="&#x30f;" horiz-adv-x="569" d="M627 1156q18 0 29.5 11.5t12.5 28.5q-2 20 -15 36l-258 299q-29 32 -60 32q-36 0 -66.5 -29t-30.5 -63q0 -31 24 -49l316 -246q24 -20 48 -20zM295 1156q18 0 30 12t12 29q-2 20 -14 35l-260 299q-28 32 -59 32q-36 0 -66.5 -28.5t-30.5 -64.5q0 -30 24 -48l318 -248 q22 -18 46 -18z" />
<glyph unicode="&#x311;" horiz-adv-x="569" d="M56 1263q29 0 50 28q33 48 72.5 67t106.5 19t105.5 -19t73.5 -67q21 -28 50 -28q22 0 37 13t15 33q0 13 -6 26q-34 76 -105.5 117.5t-169.5 41.5t-169.5 -41.5t-105.5 -117.5q-6 -13 -6 -26q0 -20 15 -33t37 -13z" />
<glyph unicode="&#x312;" horiz-adv-x="600" d="M223 1208h106q64 2 73 56l84 475q1 3 1 12q0 30 -25 31h-56q-38 0 -53 -43l-164 -475q-3 -12 -3 -18q0 -35 37 -38z" />
<glyph unicode="&#x326;" horiz-adv-x="593" d="M155 -606h43q38 0 53 43l138 403q3 12 3 18q0 35 -37 38h-84q-64 -2 -73 -56l-67 -403q-1 -3 -1 -12q0 -30 25 -31z" />
<glyph unicode="&#x358;" horiz-adv-x="600" d="M322 411q53 0 85.5 32t32.5 77q0 44 -32.5 76t-85.5 32t-85.5 -32t-32.5 -76q0 -45 32.5 -77t85.5 -32z" />
<glyph unicode="&#x394;" horiz-adv-x="1226" d="M207 104l404 1128l410 -1128h-814zM8 0h1211l-520 1382q-25 59 -86 59q-27 0 -50.5 -15.5t-34.5 -43.5z" />
<glyph unicode="&#x3a3;" horiz-adv-x="1383" d="M271 -128l890 1q36 0 56.5 27.5t20.5 64.5t-20.5 64.5t-56.5 27.5h-811l482 480q67 65 67 117q0 51 -67 117l-481 479h810q36 0 56.5 27.5t20.5 64.5t-20.5 64.5t-56.5 27.5h-875q-62 0 -103.5 -36.5t-41.5 -92.5q0 -71 68 -139l503 -509l-503 -526q-65 -66 -65 -138 q0 -52 36 -86.5t91 -34.5z" />
<glyph unicode="&#x3a9;" horiz-adv-x="1537" d="M266 0h478q-83 125 -146 232t-123 227.5t-92 230.5t-32 201q0 180 116 281t368 101q253 0 369 -101t116 -281q0 -90 -32 -200.5t-92 -230.5t-123 -227t-146 -233h478q26 0 41 22t15 53q0 29 -15 51t-41 22h-268q170 196 274 402.5t104 379.5q0 92 -18.5 167t-66 144.5 t-122.5 116t-195 74.5t-278 28q-144 0 -259.5 -28t-193 -76t-129 -115.5t-74.5 -144.5t-23 -166q0 -173 102.5 -376.5t274.5 -405.5h-267q-27 0 -41.5 -21.5t-14.5 -51.5q0 -31 14.5 -53t41.5 -22z" />
<glyph unicode="&#x3bc;" d="M230 -274q40 0 66.5 27t26.5 72v676h-182v-676q0 -49 25 -74t64 -25zM502 -18q115 0 202 49t125 140v-89q0 -39 26 -60.5t63 -21.5t64 22.5t27 62.5v823q0 41 -26 63.5t-63 22.5t-64 -23t-27 -63v-497q-7 -142 -87 -223.5t-196 -81.5q-108 0 -166 66.5t-58 194.5v541 q0 41 -26.5 63.5t-63.5 22.5t-64 -22.5t-27 -63.5v-539q0 -194 98.5 -290.5t262.5 -96.5z" />
<glyph unicode="&#x3c0;" horiz-adv-x="1222" d="M961 -20q45 7 63 22.5t18 42.5q0 22 -13 69.5t-26.5 117t-13.5 143.5v547h81q35 0 54.5 21.5t19.5 52.5q0 30 -19.5 51.5t-54.5 21.5h-859q-43 0 -67 -22t-24 -51q0 -31 24 -52.5t67 -21.5h75q0 -401 -157 -837q-7 -20 -7 -38q0 -35 25 -55t60 -20q33 0 62 18.5t44 55.5 q53 132 93.5 395t49.5 481h357v-582q0 -199 24.5 -281t95.5 -82q13 0 28 3z" />
<glyph unicode="&#x1e02;" horiz-adv-x="1312" d="M652 1615q53 0 84.5 31t31.5 76q0 42 -32 74t-84 32t-83.5 -32t-31.5 -74q0 -45 31 -76t84 -31zM377 813v461h294q55 0 95.5 -4.5t81.5 -17.5t67 -36t42.5 -62t16.5 -93q0 -132 -77.5 -190t-246.5 -58h-273zM377 157v501h251q204 0 298 -53t94 -197q0 -146 -75.5 -198.5 t-244.5 -52.5h-323zM276 0h465q122 0 218 32t153.5 86.5t87.5 122t30 142.5q0 159 -92.5 250.5t-255.5 109.5v4q139 18 213.5 108t74.5 218q0 169 -120 262.5t-371 93.5h-403q-41 0 -70 -28t-29 -69v-1235q0 -40 29 -68.5t70 -28.5z" />
<glyph unicode="&#x1e03;" horiz-adv-x="1195" d="M675 1275q53 0 84.5 31t31.5 76q0 42 -32 74t-84 32t-83.5 -32t-31.5 -74q0 -45 31 -76t84 -31zM644 106q-310 0 -310 396q0 76 17 143t51.5 123t94 89t138.5 33q78 0 136.5 -35t90.5 -93.5t47.5 -124.5t15.5 -138q0 -70 -14 -134.5t-44 -124.5t-87.5 -96.5t-135.5 -37.5 zM676 -18q104 0 187.5 42.5t135.5 115t79.5 165.5t27.5 198q0 107 -30 199.5t-85.5 162t-141 109t-189.5 39.5q-111 0 -196.5 -48t-130.5 -139v519q0 39 -27 61.5t-64 22.5q-36 0 -63 -22.5t-27 -61.5v-1258q0 -40 27 -62.5t63 -22.5q45 0 68 22.5t23 61.5v89 q48 -96 137.5 -144.5t205.5 -48.5z" />
<glyph unicode="&#x1e0a;" horiz-adv-x="1505" d="M767 1615q53 0 84.5 31t31.5 76q0 42 -32 74t-84 32t-83.5 -32t-31.5 -74q0 -45 31 -76t84 -31zM379 163v1108h225q297 0 435 -128t138 -426q0 -141 -28 -241.5t-90.5 -172t-166.5 -106t-254 -34.5h-259zM278 3h350q363 0 561 182.5t198 528.5q0 351 -196 534.5 t-572 183.5h-341q-42 0 -71.5 -28.5t-29.5 -69.5v-1233q0 -41 29.5 -69.5t71.5 -28.5z" />
<glyph unicode="&#x1e0b;" horiz-adv-x="1195" d="M524 1260q53 0 84.5 31t31.5 76q0 42 -32 74t-84 32t-83.5 -32t-31.5 -74q0 -45 31 -76t84 -31zM546 106q-78 1 -135.5 37.5t-87.5 96.5t-44 124.5t-14 134.5q0 72 15.5 138t47.5 124.5t90.5 93.5t136.5 35q79 0 138.5 -33t94 -89t51.5 -123t17 -143q0 -396 -310 -396z M514 -18q116 0 205.5 48.5t137.5 144.5v-89q0 -39 23 -61.5t68 -22.5q36 0 63 22.5t27 62.5v1258q0 39 -27 61.5t-63 22.5q-37 0 -64 -22.5t-27 -61.5v-519q-45 91 -130.5 139t-196.5 48q-104 0 -189.5 -39.5t-141 -109t-85.5 -162t-30 -199.5q0 -105 27.5 -198t79.5 -165.5 t135.5 -115t187.5 -42.5z" />
<glyph unicode="&#x1e1e;" horiz-adv-x="1145" d="M655 1617q53 0 84.5 31t31.5 76q0 42 -32 74t-84 32t-83.5 -32t-31.5 -74q0 -45 31 -76t84 -31zM277 0q42 0 72 25t30 72v564h568q38 0 59.5 23.5t21.5 56.5q0 32 -21.5 55t-59.5 23h-568v449h595q38 0 59 24t21 57t-21 56.5t-59 23.5h-701q-40 0 -68.5 -27.5 t-28.5 -70.5v-1234q0 -46 30 -71.5t71 -25.5z" />
<glyph unicode="&#x1e1f;" horiz-adv-x="704" d="M326 0q37 0 64 23.5t27 65.5v777h169q64 0 64 58q0 26 -15.5 43t-48.5 17h-169v78q0 81 6.5 128.5t25 73t42.5 33t67 7.5h85q30 0 46.5 20t16.5 48t-16.5 48.5t-45.5 20.5h-122q-134 0 -210 -75.5t-76 -254.5v-127h-131q-33 0 -49 -17t-16 -43q0 -25 16 -41.5t49 -16.5 h131v-777q0 -42 26.5 -65.5t63.5 -23.5zM407 1553q53 0 84.5 31t31.5 76q0 42 -32 74t-84 32t-83.5 -32t-31.5 -74q0 -45 31 -76t84 -31z" />
<glyph unicode="&#x1e40;" horiz-adv-x="1914" d="M979 1615q53 0 84.5 31t31.5 76q0 42 -32 74t-84 32t-83.5 -32t-31.5 -74q0 -45 31 -76t84 -31zM951 37q35 0 68 23t52 66l466 1046v-1089q0 -34 27.5 -53t65.5 -19q37 0 65 19t28 53v1184q0 58 -46 97t-107 39q-50 0 -94.5 -29.5t-70.5 -89.5l-454 -1008l-454 1008 q-27 60 -71.5 89.5t-94.5 29.5q-61 0 -106.5 -39t-45.5 -97v-1184q0 -34 28 -53t65 -19q38 0 65.5 19t27.5 53v1089l466 -1046q19 -43 52 -66t68 -23z" />
<glyph unicode="&#x1e41;" horiz-adv-x="1849" d="M241 0q38 0 65.5 22.5t27.5 62.5v488q0 150 78 233.5t208 83.5q218 0 218 -276v-528q0 -40 26.5 -63t62.5 -23q37 0 64 23t27 63v482q0 158 81 240t206 82q105 0 162 -63.5t57 -187.5v-554q0 -40 26 -62.5t63 -22.5t64.5 22.5t27.5 62.5v547q0 98 -28.5 173t-79 119.5 t-114.5 66.5t-140 22q-132 0 -224 -58.5t-134 -174.5q-31 112 -118 172.5t-211 60.5q-109 0 -194 -49.5t-128 -141.5v93q0 37 -27.5 58t-63.5 21t-63.5 -22.5t-27.5 -61.5v-825q0 -40 26 -62.5t63 -22.5zM951 1168q53 0 84.5 31t31.5 76q0 42 -32 74t-84 32t-83.5 -32 t-31.5 -74q0 -45 31 -76t84 -31z" />
<glyph unicode="&#x1e56;" horiz-adv-x="1232" d="M649 1615q53 0 84.5 31t31.5 76q0 42 -32 74t-84 32t-83.5 -32t-31.5 -74q0 -45 31 -76t84 -31zM379 769v500h315q165 0 239 -56t74 -191q0 -138 -78.5 -195.5t-245.5 -57.5h-304zM278 0q42 0 71.5 25t29.5 71v519h305q119 0 211 21t163.5 66.5t109.5 126t38 193.5 q0 217 -129 312t-375 95h-423q-43 0 -72.5 -29t-29.5 -71v-1233q0 -45 30 -70.5t71 -25.5z" />
<glyph unicode="&#x1e57;" horiz-adv-x="1195" d="M635 106q-79 0 -138.5 33t-94 89t-51.5 122.5t-17 142.5q0 397 310 397q63 -1 112.5 -26t80.5 -64t51.5 -92t28.5 -105t8 -107q0 -72 -15.5 -138t-47.5 -124.5t-90.5 -93t-136.5 -34.5zM242 -380q37 0 64 22.5t27 61.5v465q45 -90 130.5 -138.5t196.5 -48.5 q104 0 189.5 39.5t141 109t85.5 162t30 199.5q0 105 -27.5 198t-79.5 165.5t-135.5 115t-187.5 42.5q-116 0 -205.5 -48.5t-137.5 -144.5v89q0 39 -23 61.5t-68 22.5q-37 0 -63.5 -22t-26.5 -62v-1205q0 -39 27 -61.5t63 -22.5zM611 1184q53 0 84.5 31t31.5 76q0 42 -32 74 t-84 32t-83.5 -32t-31.5 -74q0 -45 31 -76t84 -31z" />
<glyph unicode="&#x1e60;" horiz-adv-x="1282" d="M645 1615q53 0 84.5 31t31.5 76q0 42 -32 74t-84 32t-83.5 -32t-31.5 -74q0 -45 31 -76t84 -31zM636 -22q248 0 392.5 109t144.5 305q0 81 -24.5 143t-74 106.5t-110 75.5t-147.5 59l-288 93q-102 34 -148.5 80.5t-46.5 124.5q0 104 90 159t240 55q105 0 197.5 -33.5 t153.5 -73.5q21 -14 44 -14q32 0 55 25t23 56q0 30 -23 50q-68 61 -196.5 106.5t-269.5 45.5q-144 0 -258.5 -45t-182 -133t-67.5 -204q0 -144 78 -226t237 -136l287 -96q64 -22 104 -41t71.5 -47t45 -65.5t13.5 -90.5q0 -110 -92.5 -168t-238.5 -58q-224 0 -394 132 q-11 8 -25 8q-31 0 -61.5 -34t-30.5 -66q0 -19 12 -30q185 -172 490 -172z" />
<glyph unicode="&#x1e61;" horiz-adv-x="1006" d="M145 90q60 -44 160.5 -76.5t207.5 -32.5q115 0 202 31.5t140.5 101.5t53.5 172q0 108 -64.5 177.5t-215.5 106.5l-173 43q-109 27 -142 51.5t-33 84.5q0 74 64 108.5t172 34.5q34 0 67 -4.5t65 -13t50.5 -14.5t48 -17.5t32.5 -12.5q16 -6 31 -6q26 0 41.5 16.5t15.5 39.5 q0 39 -39 59q-54 29 -139.5 52.5t-182.5 23.5q-81 0 -150 -15.5t-124.5 -47t-87.5 -85.5t-32 -125q0 -45 9 -80t29 -61t43 -44.5t61.5 -34.5t72 -26t87.5 -24l177 -44q88 -22 126 -58t38 -96q0 -84 -67.5 -127.5t-177.5 -43.5q-153 1 -290 86q-22 14 -46 14q-26 0 -43 -17.5 t-17 -41.5q0 -33 30 -54zM485 1179q53 0 84.5 31t31.5 76q0 42 -32 74t-84 32t-83.5 -32t-31.5 -74q0 -45 31 -76t84 -31z" />
<glyph unicode="&#x1e6a;" horiz-adv-x="1167" d="M595 1618q53 0 84.5 31t31.5 76q0 42 -32 74t-84 32t-83.5 -32t-31.5 -74q0 -45 31 -76t84 -31zM587 0q41 0 71 26t30 71v1171h372q39 0 61 24t22 57t-21.5 56.5t-61.5 23.5h-951q-39 0 -61 -24t-22 -56q0 -33 22 -57t61 -24h377v-1171q0 -45 30 -71t71 -26z" />
<glyph unicode="&#x1e6b;" horiz-adv-x="742" d="M475 -14h59q36 0 58.5 2t45 9t33.5 22.5t11 40.5q0 28 -19 49t-52 21h-6l-68 -3h-11q-63 0 -92 45.5t-29 148.5v545h184q66 0 66 57q0 27 -16.5 44t-49.5 17h-184v290q0 35 -20 53.5t-50 18.5q-32 0 -58.5 -23t-28.5 -55l-24 -284h-123q-33 0 -50 -16.5t-17 -42.5 q0 -27 17.5 -43t50.5 -16h122v-576q0 -155 68 -229.5t183 -74.5zM326 1469q53 0 84.5 31t31.5 76q0 42 -32 74t-84 32t-83.5 -32t-31.5 -74q0 -45 31 -76t84 -31z" />
<glyph unicode="&#x1e80;" horiz-adv-x="2135" d="M1077 1592q18 0 29.5 12t11.5 30t-14 35l-258 298q-29 33 -60 33q-36 0 -66.5 -29.5t-30.5 -64.5q0 -28 24 -47l318 -248q24 -19 46 -19zM1711 110l327 1201q4 15 4 30q0 41 -30 66t-69 25q-32 0 -58 -18t-35 -51l-299 -1167l-359 1110q-25 75 -57 99.5t-84 24.5 q-50 0 -83.5 -26.5t-56.5 -97.5l-359 -1110l-299 1167q-9 33 -35 51t-58 18q-39 0 -69 -25t-30 -66q0 -15 4 -30l327 -1201q15 -55 56 -84.5t91 -29.5t93 29.5t61 82.5l358 1092l359 -1092q18 -54 60 -83t92 -29q51 0 93 30t56 84z" />
<glyph unicode="&#x1e81;" horiz-adv-x="1706" d="M1241 0q84 0 118 100l273 782q6 16 6 32q0 35 -25.5 56.5t-58.5 21.5q-60 0 -79 -59l-248 -741l-248 702q-35 100 -121 100q-85 0 -120 -100l-248 -702l-248 741q-19 59 -79 59q-33 0 -58.5 -21.5t-25.5 -56.5q0 -16 6 -32l273 -782q34 -100 118 -100q88 0 128 110 l254 712l255 -712q39 -110 128 -110zM877 1157q18 0 29.5 12t11.5 30t-14 35l-258 298q-29 33 -60 33q-36 0 -66.5 -29.5t-30.5 -64.5q0 -28 24 -47l318 -248q24 -19 46 -19z" />
<glyph unicode="&#x1e82;" horiz-adv-x="2135" d="M1041 1600q18 0 43 18l318 248q26 19 26 50q0 35 -30.5 64t-66.5 29q-32 0 -59 -32l-259 -299q-13 -17 -13 -35q0 -19 11.5 -31t29.5 -12zM1711 110l327 1201q4 15 4 30q0 41 -30 66t-69 25q-32 0 -58 -18t-35 -51l-299 -1167l-359 1110q-25 75 -57 99.5t-84 24.5 q-50 0 -83.5 -26.5t-56.5 -97.5l-359 -1110l-299 1167q-9 33 -35 51t-58 18q-39 0 -69 -25t-30 -66q0 -15 4 -30l327 -1201q15 -55 56 -84.5t91 -29.5t93 29.5t61 82.5l358 1092l359 -1092q18 -54 60 -83t92 -29q51 0 93 30t56 84z" />
<glyph unicode="&#x1e83;" horiz-adv-x="1706" d="M1241 0q84 0 118 100l273 782q6 16 6 32q0 35 -25.5 56.5t-58.5 21.5q-60 0 -79 -59l-248 -741l-248 702q-35 100 -121 100q-85 0 -120 -100l-248 -702l-248 741q-19 59 -79 59q-33 0 -58.5 -21.5t-25.5 -56.5q0 -16 6 -32l273 -782q34 -100 118 -100q88 0 128 110 l254 712l255 -712q39 -110 128 -110zM841 1165q18 0 43 18l318 248q26 19 26 50q0 35 -30.5 64t-66.5 29q-32 0 -59 -32l-259 -299q-13 -17 -13 -35q0 -19 11.5 -31t29.5 -12z" />
<glyph unicode="&#x1e84;" horiz-adv-x="2135" d="M1255 1601q49 0 79 30t30 72q0 41 -30 70.5t-79 29.5q-50 0 -80.5 -30t-30.5 -70q0 -42 30.5 -72t80.5 -30zM865 1601q50 0 80 30t30 72q0 40 -30 70t-80 30q-49 0 -79 -30t-30 -70q0 -42 30 -72t79 -30zM1711 110l327 1201q4 15 4 30q0 41 -30 66t-69 25q-32 0 -58 -18 t-35 -51l-299 -1167l-359 1110q-25 75 -57 99.5t-84 24.5q-50 0 -83.5 -26.5t-56.5 -97.5l-359 -1110l-299 1167q-9 33 -35 51t-58 18q-39 0 -69 -25t-30 -66q0 -15 4 -30l327 -1201q15 -55 56 -84.5t91 -29.5t93 29.5t61 82.5l358 1092l359 -1092q18 -54 60 -83t92 -29 q51 0 93 30t56 84z" />
<glyph unicode="&#x1e85;" horiz-adv-x="1706" d="M1241 0q84 0 118 100l273 782q6 16 6 32q0 35 -25.5 56.5t-58.5 21.5q-60 0 -79 -59l-248 -741l-248 702q-35 100 -121 100q-85 0 -120 -100l-248 -702l-248 741q-19 59 -79 59q-33 0 -58.5 -21.5t-25.5 -56.5q0 -16 6 -32l273 -782q34 -100 118 -100q88 0 128 110 l254 712l255 -712q39 -110 128 -110zM1055 1166q49 0 79 30t30 72q0 41 -30 70.5t-79 29.5q-50 0 -80.5 -30t-30.5 -70q0 -42 30.5 -72t80.5 -30zM665 1166q50 0 80 30t30 72q0 40 -30 70t-80 30q-49 0 -79 -30t-30 -70q0 -42 30 -72t79 -30z" />
<glyph unicode="&#x1ebc;" horiz-adv-x="1236" d="M892 1784q-24 0 -61 -38t-62 -38q-29 0 -114.5 36t-137.5 36q-133 0 -177 -141q-4 -8 -4 -17q0 -19 12.5 -29.5t31.5 -10.5q34 0 57 32q34 43 76 43q33 0 116.5 -37t127.5 -37q66 0 120.5 43t54.5 106q0 15 -9 20q-2 32 -31 32zM277 0h762q38 0 59 23.5t21 56.5t-21 57 t-59 24h-660v495h600q38 0 59.5 23.5t21.5 55.5t-21 55t-60 23h-600v455h634q38 0 59 24t21 57t-21 56.5t-59 23.5h-741q-40 0 -67.5 -29.5t-27.5 -68.5v-1233q0 -39 30.5 -68.5t69.5 -29.5z" />
<glyph unicode="&#x1ebd;" horiz-adv-x="1135" d="M831 1347q-24 0 -61 -38t-62 -38q-29 0 -114.5 36t-137.5 36q-133 0 -177 -141q-4 -8 -4 -17q0 -19 12.5 -29.5t31.5 -10.5q34 0 57 32q34 43 76 43q33 0 116.5 -37t127.5 -37q66 0 120.5 43t54.5 106q0 15 -9 20q-2 32 -31 32zM275 572q5 62 26.5 117.5t58 101 t93.5 72.5t127 27q135 0 205 -89t79 -229h-589zM583 -18q224 0 382 142q28 25 28 57q0 25 -16.5 43.5t-40.5 18.5q-20 0 -38 -14q-72 -55 -143 -87t-160 -32q-141 2 -231 90.5t-92 260.5h686q32 0 48 19t16 48q-3 101 -29 185.5t-78 153t-140 107.5t-205 39q-148 0 -259 -72 t-166 -187t-55 -254q0 -158 65.5 -276.5t176.5 -179.5t251 -62z" />
<glyph unicode="&#x1ef2;" horiz-adv-x="1285" d="M683 1592q18 0 29.5 12t11.5 30t-14 35l-258 298q-29 33 -60 33q-36 0 -66.5 -29.5t-30.5 -64.5q0 -28 24 -47l318 -248q24 -19 46 -19zM541 98q0 -46 30 -71.5t72 -25.5q41 0 71 25.5t30 70.5v506l454 700q15 23 15 48q0 32 -25.5 55t-59.5 23q-48 0 -78 -47l-396 -627 l-394 624q-30 48 -82 48q-40 0 -71.5 -27t-31.5 -64q0 -25 14 -46l452 -694v-498z" />
<glyph unicode="&#x1ef3;" horiz-adv-x="1040" d="M438 -341l578 1219q7 17 7 34q0 34 -26.5 58.5t-61.5 24.5q-52 0 -79 -55l-306 -648l-304 645q-25 53 -78 53q-35 0 -62.5 -24t-27.5 -60q0 -22 9 -40l372 -767l-179 -379q-9 -20 -9 -38q0 -34 26 -56.5t60 -22.5q54 0 81 56zM581 1159q18 0 29.5 12t11.5 30t-14 35 l-258 298q-29 33 -60 33q-36 0 -66.5 -29.5t-30.5 -64.5q0 -28 24 -47l318 -248q24 -19 46 -19z" />
<glyph unicode="&#x1ef8;" horiz-adv-x="1285" d="M912 1784q-24 0 -61 -38t-62 -38q-29 0 -114.5 36t-137.5 36q-133 0 -177 -141q-4 -8 -4 -17q0 -19 12.5 -29.5t31.5 -10.5q34 0 57 32q34 43 76 43q33 0 116.5 -37t127.5 -37q66 0 120.5 43t54.5 106q0 15 -9 20q-2 32 -31 32zM541 98q0 -46 30 -71.5t72 -25.5 q41 0 71 25.5t30 70.5v506l454 700q15 23 15 48q0 32 -25.5 55t-59.5 23q-48 0 -78 -47l-396 -627l-394 624q-30 48 -82 48q-40 0 -71.5 -27t-31.5 -64q0 -25 14 -46l452 -694v-498z" />
<glyph unicode="&#x1ef9;" horiz-adv-x="1040" d="M438 -341l578 1219q7 17 7 34q0 34 -26.5 58.5t-61.5 24.5q-52 0 -79 -55l-306 -648l-304 645q-25 53 -78 53q-35 0 -62.5 -24t-27.5 -60q0 -22 9 -40l372 -767l-179 -379q-9 -20 -9 -38q0 -34 26 -56.5t60 -22.5q54 0 81 56zM810 1351q-24 0 -61 -38t-62 -38 q-29 0 -114.5 36t-137.5 36q-133 0 -177 -141q-4 -8 -4 -17q0 -19 12.5 -29.5t31.5 -10.5q34 0 57 32q34 43 76 43q33 0 116.5 -37t127.5 -37q66 0 120.5 43t54.5 106q0 15 -9 20q-2 32 -31 32z" />
<glyph unicode="&#x2013;" horiz-adv-x="1024" d="M76 452h871q35 0 54.5 22.5t19.5 53.5t-19.5 54.5t-54.5 23.5h-871q-35 0 -54.5 -23t-19.5 -54q0 -32 19.5 -54.5t54.5 -22.5z" />
<glyph unicode="&#x2014;" horiz-adv-x="2048" d="M76 452h1896q35 0 54.5 22.5t19.5 53.5t-19.5 54.5t-54.5 23.5h-1896q-35 0 -54.5 -23t-19.5 -54q0 -32 19.5 -54.5t54.5 -22.5z" />
<glyph unicode="&#x2018;" horiz-adv-x="593" d="M175 964h108q64 2 73 56l66 366q1 3 1 12q0 31 -25 31h-54q-22 0 -34 -9.5t-22 -33.5l-147 -366q-3 -6 -3 -18q0 -38 37 -38z" />
<glyph unicode="&#x2019;" horiz-adv-x="593" d="M187 964h53q22 0 34 9.5t22 33.5l148 366q3 12 3 18q0 38 -37 38h-109q-63 0 -73 -56l-65 -366q-1 -3 -1 -12q0 -31 25 -31z" />
<glyph unicode="&#x201a;" horiz-adv-x="593" d="M187 -260h53q22 0 34 9.5t22 33.5l148 367q3 12 3 18q0 38 -37 38h-109q-63 0 -73 -56l-65 -367q-1 -3 -1 -12q0 -30 25 -31z" />
<glyph unicode="&#x201c;" horiz-adv-x="1150" d="M639 964h109q64 2 73 56l65 366q1 3 1 12q0 31 -25 31h-53q-22 0 -34.5 -9.5t-21.5 -33.5l-148 -366q-3 -6 -3 -18q0 -38 37 -38zM251 964h108q64 2 73 56l66 366q7 43 -24 43h-54q-22 0 -34 -9.5t-22 -33.5l-147 -366q-3 -6 -3 -18q0 -38 37 -38z" />
<glyph unicode="&#x201d;" horiz-adv-x="1150" d="M649 963h54q22 0 34 9.5t22 33.5l147 367q3 6 3 18q0 38 -37 38h-108q-64 -2 -73 -56l-66 -367q-1 -3 -1 -12q0 -30 25 -31zM264 963h54q22 0 34 9.5t22 33.5l148 367q3 12 3 18q0 38 -37 38h-109q-64 -2 -73 -56l-66 -367q-1 -3 -1 -12q0 -30 25 -31z" />
<glyph unicode="&#x201e;" horiz-adv-x="1150" d="M673 -244h56q20 0 31.5 9.5t21.5 33.5l148 367q3 12 3 18q0 35 -37 38h-109q-64 -2 -73 -56l-65 -367q-1 -3 -1 -12q0 -30 25 -31zM270 -244h56q20 0 31.5 9.5t21.5 33.5l148 367q3 12 3 18q0 35 -37 38h-109q-64 -2 -73 -56l-65 -367q-1 -3 -1 -12q0 -30 25 -31z" />
<glyph unicode="&#x2020;" horiz-adv-x="1186" d="M593 0q35 0 60 22t25 61v890h276q33 0 52 22t19 53q0 29 -19 51t-52 22h-276v273q0 39 -25 61.5t-60 22.5t-60 -22t-25 -62v-273h-281q-32 0 -50 -22t-18 -53q0 -30 18 -51.5t50 -21.5h281v-890q0 -39 25 -61t60 -22z" />
<glyph unicode="&#x2021;" horiz-adv-x="1186" d="M593 -1q34 0 58.5 22t24.5 61v261h276q34 0 53 21.5t19 51.5q0 29 -19 50t-53 21h-276v499h276q34 0 53 21t19 52q0 29 -19 50t-53 21h-276v264q0 40 -24.5 62t-58.5 22t-58.5 -22t-24.5 -62v-264h-280q-33 0 -52 -21.5t-19 -50.5t19 -50.5t52 -21.5h280v-499h-280 q-33 0 -52 -21.5t-19 -50.5t19 -50.5t52 -21.5h280v-261q0 -39 24.5 -61t58.5 -22z" />
<glyph unicode="&#x2022;" horiz-adv-x="1024" d="M510 358q153 0 262 105t109 250q0 148 -108.5 253t-262.5 105q-151 0 -259 -105t-108 -253q0 -144 108.5 -249.5t258.5 -105.5z" />
<glyph unicode="&#x2026;" horiz-adv-x="1780" d="M1483 -2q53 0 84.5 32t31.5 76q0 43 -32.5 74.5t-83.5 31.5q-52 0 -84 -32t-32 -74q0 -44 31.5 -76t84.5 -32zM890 -2q52 0 83.5 32t31.5 76q0 43 -32 74.5t-83 31.5q-53 0 -85 -32t-32 -74q0 -44 32 -76t85 -32zM296 -2q52 0 84 32t32 76q0 43 -32.5 74.5t-83.5 31.5 q-52 0 -84 -32t-32 -74q0 -44 32 -76t84 -32z" />
</font>
</defs>
</svg>
