<svg xmlns="http://www.w3.org/2000/svg" xmlns:xlink="http://www.w3.org/1999/xlink" viewBox="0 0 256 64" height="256" width="960"><g transform="translate(0 -229.267)"><path fill="#ec792f" stroke="#ec792f" stroke-width=".567" stroke-linecap="square" d="M67.454 229.55h95.433v67.167H67.454z"/><g fill="#fff" font-family="Cabin, sans-serif" letter-spacing="0" word-spacing="0" text-anchor="middle" stroke-width=".265"><text y="223.053" x="146.64" font-weight="700" font-size="9.878" transform="translate(-31.503 35.938)"><tspan y="223.053" x="146.64" font-family="Cabin,sans-serif">Lexical Model</tspan></text><text y="232.457" x="146.316" style="line-height:1.25" font-weight="400" font-size="4.939" transform="translate(-31.503 35.938)"><tspan style="text-align:center" y="232.457" x="146.316">knowledge of your language</tspan></text><text y="241.86" x="146.383" style="line-height:1.25;text-align:center" font-weight="400" font-size="4.939" transform="translate(-31.503 35.938)"><tspan style="text-align:center" y="241.86" x="146.383">and its spelling rules</tspan></text></g><path id="a" d="M173.851 251.243v8.996h-7.177v9.522h7.177v8.996L183.976 265z" fill="#000" fill-opacity="1" stroke="none" stroke-width=".265" stroke-linecap="butt" stroke-linejoin="miter" stroke-opacity="1"/><use transform="translate(-120.308)" height="100%" width="100%" xlink:href="#a"/><g transform="translate(-8.731 55.458)"><rect rx="6.35" y="193.019" x="8.996" height="12.7" width="42.333" fill="#f9f9f9" stroke="gray" stroke-width=".529" stroke-linecap="square"/><text style="line-height:1.25;text-align:start" x="13.19" y="201.865" font-weight="400" font-size="6.35" font-family="Helvetica, Helvetica Neue, sans-serif" letter-spacing="0" word-spacing="0" fill="#333" stroke-width=".265" transform="translate(.748 .094)"><tspan x="13.19" y="201.865" style="text-align:start">on my w</tspan></text><path fill="#6799af" d="M38.26 195.879h.528v6.35h-.529z"/></g><text style="line-height:1.25;text-align:center" x="30" y="223.014" font-weight="700" font-size="9.878" font-family="sans-serif" letter-spacing="0" word-spacing="0" text-anchor="middle" stroke-width=".265" transform="translate(-8.731 55.458)"><tspan x="30" y="223.014" style="text-align:center">context</tspan></text><path fill="#f9f9f9" d="M199.973 238.496h41.46v33.812h-41.46z"/><path fill="#6799af" d="M199.973 238.496h41.534v11.37h-41.534z"/><text y="201.75" x="211.667" style="line-height:1.25;text-align:start" font-weight="400" font-size="8.467" font-family="sans-serif" letter-spacing="0" word-spacing="0" fill="#fff" stroke-width=".265" transform="translate(-8.07 45.819)"><tspan style="text-align:start" y="201.75" x="211.667">way</tspan> <tspan style="text-align:start" y="212.333" x="211.667" fill="#333">website</tspan> <tspan style="text-align:start" y="222.917" x="211.667" fill="#333">“w”</tspan></text><text style="line-height:1.25;text-align:start" x="195.038" y="243.554" font-weight="700" font-size="9.878" font-family="sans-serif" letter-spacing="0" word-spacing="0" stroke-width=".265" transform="translate(-8.07 45.819)"><tspan x="195.038" y="243.554" style="text-align:start">suggestions</tspan></text></g></svg>